<?xml version="1.0" encoding="UTF-8"?>
<svg xmlns="http://www.w3.org/2000/svg" viewBox="0 0 300 180">
  <defs>
    <style>
      .cls-1 {
        fill: #ebebeb;
      }

      .cls-2 {
        fill: #f5f5f5;
      }

      .cls-3 {
        fill: #fff;
      }

      .cls-4 {
        fill: #ffe3df;
      }

      .cls-5 {
        fill: #ffbf9d;
      }

      .cls-6 {
        fill: #fafafa;
      }

      .cls-7 {
        fill: #ff9a6c;
      }

      .cls-8 {
        fill: #ff725e;
      }

      .cls-9 {
        fill: #ae7461;
      }

      .cls-10 {
        fill: #e0e0e0;
      }

      .cls-11 {
        fill: #6f4439;
      }

      .cls-12 {
        fill: #455a64;
      }

      .cls-13 {
        fill: #263238;
      }

      .cls-14 {
        opacity: .3;
      }

      .cls-15 {
        opacity: .6;
      }
    </style>
  </defs>
 
  <g id="illustrations">
    <g>
      <g id="freepik--background-complete--inject-10">
        <path class="cls-10" d="m190.21,123.24c-1.4-.88-2.98-1.42-4.62-1.59-.75-.08-1.57-.06-2.18.4-.14.08-.23.23-.22.4.04.11.11.21.21.27,1.88,1.43,4.71,1.61,6.8.51"></path>
        <path class="cls-10" d="m190.09,123.11c-1.07-.78-2.06-1.66-2.98-2.62-.92-.97-1.56-2.16-1.86-3.45-.12-.39-.07-.81.15-1.15,2.37,1.85,4.23,4.25,4.69,7.22"></path>
        <path class="cls-10" d="m190.19,123.22c-.22-1.29-.2-2.62.06-3.91.26-1.3,1.01-2.45,2.08-3.23.41.96.23,2.06-.06,3.06-.45,1.55-1.15,3.02-2.06,4.35"></path>
        <path class="cls-10" d="m192.52,127.39c-1.41.17-2.64.92-3.7,1.87-1.06.97-1.8,2.23-2.11,3.63,1.39-.09,2.56-1.06,3.41-2.16s1.44-2.3,2.38-3.32"></path>
        <path class="cls-10" d="m193.02,128.06c-1.13-2.87-.73-6.12,1.05-8.63.8,2.86.51,6.09-1.05,8.63"></path>
        <path class="cls-10" d="m196.09,131.71c-2.64-.16-5.12,1.26-6.31,3.63-.08.15-.14.35-.04.49.11.11.27.15.42.12,1.23-.08,2.35-.83,3.25-1.68s1.7-1.83,2.71-2.57"></path>
        <path class="cls-10" d="m195.99,131.52c-.66-2.13-.7-4.41-.12-6.56.23-.84.62-1.73,1.4-2.13.06-.04.14-.05.21-.04.06.03.11.09.14.16.26.59.38,1.24.33,1.88-.05.64-.14,1.28-.29,1.9-.25,1.16-.38,2.42-1.02,3.42-.15.24-.28.49-.4.75-.12.26-.12.35-.23.55"></path>
        <path class="cls-10" d="m204.13,132.73c-.62-2.29.04-5.07,1.48-6.95.1-.14.25-.29.42-.27.27.02.34.38.31.65-.11,2.36-.88,4.64-2.22,6.58"></path>
        <path class="cls-10" d="m204.86,133.23c2.77.72,5.98.02,8.3-1.69-1.39-.69-2.98-.89-4.49-.54-1.5.34-2.87,1.02-3.81,2.24"></path>
        <path class="cls-10" d="m205.48,131.7c1.56-2.54,4.55-4.2,7.53-4.35-.34,1.21-1.34,2.16-2.47,2.72s-2.38.82-3.61,1.06c-.48.09-1.14.2-1.45.57"></path>
        <path class="cls-10" d="m204.28,124.29c.47-1.43.8-2.91.96-4.41.11-1.5-.1-3.08-.88-4.36-1.46,2.82-1.61,6.11-.13,8.94"></path>
        <path class="cls-10" d="m209.19,121.81c1.7-3.1,5.18-5.57,8.7-5.92-1.36,3.39-5.06,5.99-8.7,5.92"></path>
        <path class="cls-10" d="m208.12,122.42c2.54.39,4.71,2.01,7.09,2.99.5.24,1.05.35,1.6.31.69-.01,1.25-.58,1.24-1.27,0-.37-.17-.71-.45-.95-.34-.31-.73-.55-1.16-.7-2.59-1.08-5.36-1.11-8.09-.45"></path>
        <path class="cls-10" d="m206.65,124.22c.58.17.77.46,1.23.85,1.55,1.33,3.39,2.27,5.37,2.77.21.05.47.07.58-.11s-.02-.36-.14-.5c-.86-1.01-1.98-1.77-3.24-2.2-1.23-.46-2.31-1.02-3.79-.9"></path>
        <path class="cls-10" d="m204.98,113.43c2.11,1.94,4.94,2.9,7.79,2.65.13,0,.25-.04.35-.13.2-.22-.04-.54-.27-.72-2.29-1.79-5.07-2.53-7.88-1.8"></path>
        <path class="cls-10" d="m206.95,112.72c2.8-2.06,6.41-2.66,9.72-1.61-1.27,1.18-2.9,1.89-4.62,2.03-1.71.16-3.43.01-5.09-.43"></path>
        <path class="cls-10" d="m206.17,107.77c-.22-2.29-.08-4.09-.24-6.39,0-.18-.05-.41-.22-.47-.24-.09-.44.2-.51.45-.67,2.16-.31,4.5.97,6.36"></path>
        <path class="cls-10" d="m206.01,108.02c1.49-.96,2.78-2.22,3.79-3.68.75-1.02,1.38-2.25,1.21-3.51-1.07.03-2.06.53-2.73,1.36-.65.83-1.13,1.78-1.39,2.8-.31,1-.52,2.04-.87,3.03"></path>
        <path class="cls-10" d="m209.73,106.99c3.41-1.26,6.57-3.12,9.32-5.49-1.11-.45-2.39-.18-3.5.27-2.54,1.03-4.62,2.76-5.86,5.2"></path>
        <path class="cls-10" d="m207.05,109.28c1.72.19,3.47.31,5.18.02s3.26-.95,4.83-1.61c.14-.04.25-.13.33-.25.05-.15,0-.31-.12-.41-.12-.1-.26-.16-.41-.19-1.7-.48-3.54-.25-5.22.31-1.6.55-3.13,1.26-4.59,2.13"></path>
        <path class="cls-10" d="m197.23,113.52c-1.17-2.37-1.1-5.13-.08-7.58.71,1.09.8,2.47.67,3.77s-.53,2.63-.55,3.93"></path>
        <path class="cls-10" d="m192.54,111.15c-2.97-.04-5.82,1.17-7.85,3.34,1.46.23,2.97-.15,4.31-.8,1.31-.69,2.55-1.52,3.7-2.47"></path>
        <path class="cls-10" d="m189.38,110.1c-1.43-.11-2.81-.29-4.19.13-1.41.39-2.58,1.38-3.2,2.71,1.35.11,2.71-.14,3.93-.73,1.21-.59,2.37-1.29,3.46-2.1"></path>
        <path class="cls-10" d="m194.06,110.14c-1.29-.84-2.61-1.71-4.12-2.06s-3.24-.09-4.29,1.04c1.23.71,2.69.8,4.1.8s3.14-.02,4.47.45"></path>
        <path class="cls-10" d="m194.06,110.21c-2.2-2.16-3.04-6.06-2.16-9.02,1.74,2.66,2.51,5.85,2.16,9.02"></path>
        <path class="cls-10" d="m200.12,104.08c.42-.97.71-1.98,1.08-2.96.34-1,.86-1.93,1.54-2.74.69-.81,1.67-1.32,2.73-1.41-.69,3.02-2.61,5.6-5.3,7.13"></path>
        <path class="cls-10" d="m199.03,105.36c-.69-.95-1.48-2.23-2.42-2.94s-2.16-1.14-3.29-.86c1.2,2.1,3.31,3.5,5.7,3.8"></path>
        <path class="cls-10" d="m199.25,104.16c-.49-1.13-.86-2.31-1.09-3.53-.23-1.22-.03-2.48.55-3.58,1.21,2.29,1.6,4.75.6,7.13"></path>
        <path class="cls-10" d="m200.14,97.05c.68-2.27,2.77-3.94,5-4.71.28-.11.58-.16.88-.13.31.03.56.25.65.54.08.39-.24.73-.54.99-1.75,1.5-3.79,2.62-5.99,3.31"></path>
        <path class="cls-10" d="m200.16,95.2c.09-1.46.18-2.95.65-4.33s1.39-2.68,2.73-3.29c.22,1.48-.43,2.95-1.21,4.22s-1.73,2.47-2.21,3.89"></path>
        <path class="cls-10" d="m200.12,96.2c-.57-1.65-.62-3.75-1.61-5.2-.69-1-1.8-1.69-2.4-2.77-.36,1.02-.31,2.14.14,3.13.45.98,1.07,1.86,1.83,2.62.73.78,1.36,1.37,2.04,2.2"></path>
        <path class="cls-10" d="m200.14,144.89s-.08-11.03-.09-24.63c0-13.6.03-24.63.07-24.63s.1,11.03.1,24.63-.04,24.63-.08,24.63Z"></path>
        <path class="cls-10" d="m209.77,111.85c-.13.06-.27.12-.41.16l-1.13.38c-.96.33-2.28.8-3.72,1.39s-2.77,1.1-3.53,1.76c-.3.25-.54.57-.71.92-.11.26-.13.42-.14.42s0-.04,0-.12c.02-.11.04-.21.08-.31.14-.38.38-.73.69-1,.47-.39.98-.71,1.54-.95.62-.29,1.29-.58,2.01-.88,1.44-.59,2.77-1.05,3.74-1.35.49-.15.88-.27,1.16-.34.13-.04.27-.07.41-.1Z"></path>
        <path class="cls-10" d="m212.93,104.09s-.07.09-.11.12l-.35.33-1.32,1.2-4.4,3.91c-1.72,1.54-3.2,2.99-4.23,4.09-.51.55-.92,1-1.2,1.32l-.31.37c-.07.08-.11.12-.12.12.03-.05.06-.1.1-.14.07-.09.16-.22.31-.39.27-.33.66-.8,1.16-1.36,1.33-1.45,2.73-2.83,4.21-4.13,1.72-1.53,3.29-2.89,4.43-3.88l1.35-1.16c.15-.13.27-.23.38-.31.03-.04.07-.07.11-.1Z"></path>
        <path class="cls-10" d="m204.89,111.22s.31-.85.67-1.9.53-1.93.57-1.92c-.04.68-.18,1.34-.42,1.98-.15.45-.33.89-.54,1.33-.07.19-.17.36-.29.52Z"></path>
        <path class="cls-10" d="m200.15,117.89c-.1-.09-.19-.2-.27-.31l-.68-.87c-.57-.74-1.36-1.75-2.24-2.86s-1.69-2.11-2.28-2.83l-.69-.86c-.09-.1-.17-.21-.24-.33.11.09.2.18.29.29.18.19.43.47.73.83.62.7,1.44,1.69,2.32,2.8s1.65,2.14,2.2,2.89c.27.38.49.68.63.9.08.11.16.22.22.35Z"></path>
        <path class="cls-10" d="m198.03,115.18c-.43-.47-.73-1.04-.88-1.66-.17-.54-.23-1.11-.2-1.67h.07c-.03.13-.06.19-.07.19s0-.07,0-.21h.07c.03.55.13,1.1.28,1.63.2.59.44,1.16.73,1.71Z"></path>
        <path class="cls-10" d="m195.3,111.75c-.19-.14-.4-.26-.62-.36-.56-.17-1.14-.21-1.72-.14-.58.04-1.16.14-1.73.28-.23.07-.47.13-.71.17.21-.13.44-.22.68-.28.57-.17,1.15-.28,1.75-.33.6-.08,1.2-.01,1.77.19.24.08.44.25.58.46Z"></path>
        <path class="cls-10" d="m194.67,110.92s-.36-.14-.95-.35c-1.53-.53-3.18-.65-4.77-.36-.62.11-.98.22-.99.2.08-.05.16-.09.25-.11.23-.08.47-.15.71-.2,1.61-.35,3.28-.22,4.82.37.23.09.46.19.68.31.15.08.25.13.25.14Z"></path>
        <path class="cls-10" d="m200.12,107.4c-.28-.78-.51-1.58-.69-2.4-.23-.8-.41-1.61-.54-2.44.28.78.51,1.58.69,2.4.23.8.41,1.61.54,2.44Z"></path>
        <path class="cls-10" d="m200.17,107.4c-.22-.5-.47-.98-.76-1.44-.32-.43-.7-.82-1.12-1.16.16.04.31.12.43.22.32.23.6.52.82.85.34.44.56.97.63,1.52Z"></path>
        <path class="cls-10" d="m200.14,139.01s-.05-.27-.18-.73c-.18-.66-.43-1.3-.74-1.91-.76-1.56-2.16-3.53-3.91-5.51-.87-1-1.72-1.94-2.44-2.84-.65-.79-1.23-1.63-1.74-2.51-.35-.6-.64-1.22-.88-1.87-.08-.23-.14-.41-.17-.53-.02-.06-.04-.13-.04-.19,0,0,.09.25.27.7.26.63.57,1.24.92,1.83.53.86,1.12,1.69,1.76,2.47.72.89,1.57,1.83,2.44,2.83,1.77,1.98,3.15,3.98,3.89,5.57.3.62.54,1.27.7,1.94.05.24.09.43.1.55.01.07.02.14.01.21Z"></path>
        <path class="cls-10" d="m208.85,129.17c-.15.09-.3.18-.46.26-.41.23-.81.49-1.18.78-.55.43-1.06.91-1.54,1.42-.55.58-1.11,1.23-1.68,1.96-1.15,1.44-2.22,2.71-2.86,3.73-.33.5-.56.92-.72,1.23-.07.16-.16.31-.25.46,0-.05.02-.09.04-.13.03-.08.08-.2.15-.36.2-.43.43-.85.68-1.26.62-1.04,1.69-2.33,2.83-3.77.58-.72,1.14-1.39,1.7-1.96.49-.51,1.02-.99,1.59-1.41.39-.28.8-.53,1.23-.75.15-.08.27-.12.36-.16.03-.02.07-.04.1-.05Z"></path>
        <path class="cls-10" d="m209.02,132.36c-.32.07-.64.12-.96.14-.77.08-1.54.23-2.29.45-.74.24-1.43.61-2.05,1.08-.47.37-.7.67-.72.65.04-.08.08-.16.14-.22.15-.19.32-.36.5-.51.61-.51,1.31-.9,2.07-1.14.76-.22,1.54-.36,2.32-.41.32-.04.65-.05.98-.03Z"></path>
        <path class="cls-10" d="m203.28,134.33c-.05-.03.38-.69.72-1.58s.39-1.69.45-1.68c.02.17.02.35-.02.52-.05.42-.14.82-.28,1.22-.14.39-.33.77-.56,1.12-.08.15-.19.29-.31.41Z"></path>
        <path class="cls-10" d="m211.67,120.6s-.1.06-.15.08l-.45.21c-.2.08-.44.19-.71.34s-.59.29-.92.48l-.53.31c-.18.1-.36.23-.55.35-.39.23-.78.52-1.19.82-1.78,1.32-3.33,2.93-4.59,4.75-.28.43-.56.82-.78,1.23-.11.19-.23.38-.33.56l-.28.54c-.19.34-.32.66-.45.94s-.23.52-.31.72l-.19.46c-.02.06-.04.11-.08.16,0-.06.02-.11.05-.17.04-.12.1-.28.16-.47.08-.25.18-.5.29-.74.13-.28.25-.62.43-.95l.27-.55c.1-.19.21-.38.32-.57.22-.4.49-.8.77-1.23,1.26-1.85,2.82-3.46,4.62-4.78.42-.31.81-.58,1.21-.82.19-.12.38-.24.56-.34l.53-.29c.34-.19.66-.33.92-.47s.52-.24.72-.31l.47-.18c.06-.04.12-.06.18-.08Z"></path>
        <path class="cls-10" d="m204.77,125.22c.07-.22.2-.42.38-.56.43-.37.97-.58,1.54-.59.55,0,1.1.1,1.61.31.22.07.43.18.62.31-.22-.04-.44-.11-.65-.19-.51-.18-1.04-.28-1.57-.28-.53.01-1.04.19-1.46.51-.16.15-.32.32-.46.49Z"></path>
        <path class="cls-10" d="m203.74,126.29c.2-.45.35-.92.43-1.41.03-.49,0-.99-.1-1.47.09.12.15.26.18.41.19.71.1,1.47-.25,2.11-.13.24-.25.37-.27.36Z"></path>
        <path class="cls-10" d="m192.52,140.59c.24,4.22,1.51,8.5,3.46,12.84h8.5c1.85-4.29,3.04-8.57,3.25-12.84h-15.21Z"></path>
        <path class="cls-6" d="m206.36,147.41s-2.8.08-6.25.08-6.25-.04-6.25-.08,2.8-.08,6.25-.08,6.25.04,6.25.08Z"></path>
        <path class="cls-6" d="m206.16,148.94s-2.62.08-5.86.08-5.86-.03-5.86-.08,2.62-.08,5.86-.08,5.86.03,5.86.08Z"></path>
        <path class="cls-6" d="m196.12,143.36c.11,1.3.11,2.61,0,3.91-.11-1.3-.11-2.61,0-3.91Z"></path>
        <path class="cls-6" d="m200.67,143.36c.11,1.35.11,2.7,0,4.05-.11-1.35-.11-2.7,0-4.05Z"></path>
        <path class="cls-6" d="m204.94,143.33c.11,1.38.11,2.76,0,4.13-.11-1.38-.11-2.76,0-4.13Z"></path>
        <path class="cls-6" d="m207.46,143.36s-3.28.08-7.33.08-7.31-.04-7.31-.08,3.28-.08,7.33-.08,7.31.05,7.31.08Z"></path>
        <path class="cls-10" d="m91.4,124.75c-1.33-.83-2.82-1.34-4.38-1.51-.71-.07-1.49-.05-2.07.38-.13.08-.22.22-.21.38.04.11.11.2.2.26,1.78,1.36,4.47,1.54,6.47.49"></path>
        <path class="cls-10" d="m91.29,124.62c-1.01-.74-1.96-1.58-2.83-2.49-.87-.92-1.48-2.05-1.77-3.28-.12-.37-.08-.78.13-1.11,2.26,1.76,4.02,4.04,4.46,6.86"></path>
        <path class="cls-10" d="m91.38,124.73c-.21-1.23-.19-2.49.05-3.71.25-1.23.96-2.33,1.98-3.06.39.91.22,1.96-.05,2.91-.42,1.47-1.09,2.87-1.96,4.13"></path>
        <path class="cls-10" d="m93.59,128.69c-1.34.16-2.51.87-3.51,1.78-1.01.92-1.71,2.12-2.01,3.45,1.32-.08,2.43-1.01,3.24-2.05s1.37-2.18,2.26-3.16"></path>
        <path class="cls-10" d="m94.07,129.32c-1.07-2.72-.69-5.8,1-8.18.76,2.72.48,5.79-1,8.19"></path>
        <path class="cls-10" d="m96.98,132.8c-2.5-.16-4.86,1.2-5.98,3.44-.07.15-.14.34-.04.47.1.1.25.15.4.12,1.18-.08,2.22-.79,3.08-1.59s1.61-1.74,2.57-2.44"></path>
        <path class="cls-10" d="m96.89,132.61c-.63-2.02-.67-4.19-.11-6.23.22-.8.59-1.65,1.33-2.02.09-.07.22-.06.29.03.02.02.04.05.04.09.25.56.35,1.18.31,1.79-.04.61-.13,1.21-.28,1.81-.23,1.11-.36,2.3-.96,3.25-.14.23-.27.47-.39.71-.12.24-.12.33-.22.52"></path>
        <path class="cls-10" d="m104.62,133.77c-.57-2.18.03-4.82,1.41-6.6.1-.13.24-.27.4-.26.25.02.31.36.31.62-.1,2.24-.84,4.4-2.11,6.25"></path>
        <path class="cls-10" d="m105.32,134.24c2.74.64,5.62.06,7.88-1.6-1.32-.66-2.83-.85-4.27-.52-1.43.33-2.73.96-3.61,2.13"></path>
        <path class="cls-10" d="m105.92,132.79c1.48-2.42,4.31-4.01,7.16-4.14-.33,1.15-1.27,2.05-2.34,2.59s-2.26.78-3.44,1c-.46.09-1.08.18-1.38.55"></path>
        <path class="cls-10" d="m104.77,125.76c.45-1.36.76-2.77.92-4.19.11-1.43-.09-2.92-.83-4.14-1.39,2.68-1.53,5.81-.12,8.48"></path>
        <path class="cls-10" d="m109.43,123.4c1.62-2.94,4.93-5.29,8.26-5.62-1.29,3.21-4.8,5.69-8.26,5.62"></path>
        <path class="cls-10" d="m108.41,123.97c2.42.37,4.47,1.91,6.73,2.84.47.23,1,.33,1.52.29.66,0,1.18-.55,1.18-1.2,0-.35-.16-.68-.43-.9-.32-.3-.7-.52-1.11-.67-2.47-1.02-5.09-1.05-7.68-.43"></path>
        <path class="cls-10" d="m107.01,125.66c.55.16.73.44,1.16.81,1.48,1.26,3.22,2.15,5.1,2.62.19.05.45.07.55-.11s-.02-.34-.13-.48c-.82-.96-1.89-1.68-3.08-2.09-1.18-.44-2.2-.96-3.6-.85"></path>
        <path class="cls-10" d="m105.44,115.44c2,1.84,4.69,2.76,7.4,2.52.12,0,.25-.04.34-.12.18-.2-.04-.51-.26-.68-2.18-1.69-4.81-2.4-7.49-1.71"></path>
        <path class="cls-10" d="m107.31,114.75c2.66-1.96,6.1-2.53,9.25-1.52-1.21,1.12-2.76,1.8-4.4,1.93-1.62.15-3.26,0-4.84-.41"></path>
        <path class="cls-10" d="m106.56,110.04c-.21-2.16-.07-3.89-.22-6.07,0-.18-.05-.39-.21-.45-.23-.09-.42.19-.49.42-.64,2.05-.3,4.28.92,6.05"></path>
        <path class="cls-10" d="m106.41,110.29c1.42-.92,2.64-2.1,3.6-3.5.71-.97,1.31-2.14,1.15-3.33-1.01.03-1.96.5-2.59,1.29-.62.79-1.07,1.69-1.32,2.66-.29.96-.49,1.94-.83,2.88"></path>
        <path class="cls-10" d="m109.94,109.31c3.24-1.2,6.24-2.97,8.86-5.22-1.06-.43-2.27-.17-3.33.26-2.4.91-4.38,2.66-5.57,4.93"></path>
        <path class="cls-10" d="m107.4,111.48c1.63.18,3.29.31,4.92.02s3.1-.9,4.59-1.53c.13-.04.24-.12.31-.24.05-.14,0-.3-.11-.39-.12-.09-.25-.15-.39-.18-1.62-.45-3.37-.24-4.96.31-1.52.52-2.98,1.2-4.35,2.02"></path>
        <path class="cls-10" d="m98.07,115.51c-1.12-2.25-1.04-4.88-.08-7.2.68,1.03.76,2.35.64,3.58s-.5,2.5-.52,3.73"></path>
        <path class="cls-10" d="m93.61,113.26c-2.82-.04-5.53,1.12-7.46,3.18,1.41.17,2.83-.1,4.09-.76,1.24-.66,2.42-1.45,3.5-2.35"></path>
        <path class="cls-10" d="m90.62,112.26c-1.36-.11-2.67-.28-3.98.12-1.34.38-2.45,1.31-3.04,2.57,1.28.1,2.57-.14,3.73-.71,1.15-.56,2.25-1.23,3.29-1.99"></path>
        <path class="cls-10" d="m95.05,112.31c-1.23-.8-2.48-1.62-3.91-1.95s-3.08-.09-4.07.99c1.16.68,2.55.76,3.9.76s2.98-.02,4.24.43"></path>
        <path class="cls-10" d="m95.06,112.37c-2.1-2.06-2.89-5.75-2.05-8.56,1.65,2.53,2.38,5.56,2.05,8.56"></path>
        <path class="cls-10" d="m100.82,106.55c.39-.92.67-1.88,1.03-2.82.32-.95.82-1.83,1.47-2.6.66-.77,1.59-1.25,2.59-1.34-.65,2.87-2.48,5.33-5.04,6.78"></path>
        <path class="cls-10" d="m99.78,107.76c-.66-.9-1.41-2.12-2.3-2.8s-2.04-1.08-3.12-.82c1.14,1.99,3.14,3.33,5.42,3.61"></path>
        <path class="cls-10" d="m99.99,106.62c-.47-1.08-.82-2.2-1.03-3.36-.21-1.16-.03-2.35.52-3.39,1.15,2.18,1.52,4.51.57,6.78"></path>
        <path class="cls-10" d="m100.83,99.87c.65-2.16,2.63-3.74,4.76-4.47.26-.11.55-.15.84-.13.29.03.53.23.62.51.08.37-.22.69-.51.92-1.67,1.43-3.6,2.5-5.7,3.16"></path>
        <path class="cls-10" d="m100.85,98.11c.08-1.39.17-2.8.62-4.12s1.32-2.55,2.59-3.13c.22,1.41-.4,2.8-1.15,4.01s-1.65,2.35-2.1,3.7"></path>
        <path class="cls-10" d="m100.82,99.06c-.54-1.57-.59-3.57-1.54-4.93-.66-.96-1.71-1.61-2.28-2.62-.34.97-.29,2.04.13,2.98.43.93,1.02,1.77,1.74,2.49.7.74,1.29,1.3,1.94,2.09"></path>
        <path class="cls-10" d="m100.83,145.31s-.08-10.48-.08-23.4c0-12.92.03-23.4.07-23.4s.08,10.48.08,23.4c0,12.92-.03,23.4-.07,23.4Z"></path>
        <path class="cls-10" d="m109.99,113.93c-.12.06-.26.11-.39.15l-1.08.37c-.92.31-2.16.76-3.53,1.32s-2.62,1.05-3.35,1.68c-.29.24-.52.55-.67.89-.1.24-.12.39-.14.39s0-.04,0-.11c.02-.1.04-.21.08-.31.14-.37.36-.69.66-.95.44-.37.93-.67,1.45-.9.58-.27,1.23-.55,1.91-.84,1.37-.56,2.63-1,3.56-1.28.46-.14.84-.25,1.1-.31.13-.05.27-.08.41-.1Z"></path>
        <path class="cls-10" d="m112.99,106.56s-.03.05-.11.12l-.34.31-1.25,1.14-4.18,3.72c-1.63,1.45-3.04,2.84-4.01,3.88-.49.52-.88.95-1.14,1.25l-.31.35s-.07.08-.11.11c.02-.05.05-.09.09-.13.06-.09.16-.21.28-.37.25-.31.62-.76,1.1-1.29,1.27-1.38,2.6-2.69,4.01-3.92,1.64-1.45,3.12-2.75,4.21-3.7l1.29-1.1.35-.31s.07-.05.11-.06Z"></path>
        <path class="cls-10" d="m105.35,113.33s.31-.8.64-1.8.51-1.83.55-1.83c-.04.64-.17,1.28-.4,1.88-.15.43-.32.85-.51,1.26-.07.18-.16.34-.27.49Z"></path>
        <path class="cls-10" d="m100.84,119.67c-.09-.09-.18-.19-.25-.29l-.64-.83c-.54-.7-1.29-1.66-2.13-2.72s-1.61-2-2.16-2.69l-.66-.81c-.09-.09-.16-.2-.23-.31.1.08.19.17.27.27.17.18.41.45.7.78.58.67,1.36,1.61,2.2,2.66s1.57,2.03,2.09,2.75c.26.36.47.65.62.86.07.1.13.21.18.32Z"></path>
        <path class="cls-10" d="m98.83,117.09c-.41-.45-.69-.99-.84-1.57-.16-.51-.22-1.05-.19-1.59h.07c-.03.12-.05.18-.06.18-.02,0,0-.07,0-.19h.07c.03.52.12,1.04.27,1.54.19.56.42,1.11.69,1.63Z"></path>
        <path class="cls-10" d="m96.24,113.83c-.18-.14-.38-.26-.59-.34-.53-.16-1.08-.2-1.63-.13-.55.04-1.1.13-1.64.27-.22.07-.45.12-.67.16.2-.12.42-.21.64-.27.54-.16,1.1-.27,1.66-.31.57-.08,1.14-.01,1.68.18.23.08.42.23.55.44Z"></path>
        <path class="cls-10" d="m95.63,113.04s-.34-.14-.9-.33c-.73-.25-1.48-.4-2.25-.46-.76-.06-1.53-.02-2.29.12-.58.1-.92.21-.94.19s.08-.05.24-.1c.22-.08.45-.14.68-.19.76-.17,1.54-.22,2.32-.16.78.06,1.54.23,2.27.51.22.09.43.19.64.31.08.03.15.07.22.12Z"></path>
        <path class="cls-10" d="m100.82,109.7c-.27-.74-.49-1.51-.66-2.28-.22-.76-.39-1.54-.51-2.32.27.74.48,1.51.66,2.28.22.76.39,1.54.51,2.32Z"></path>
        <path class="cls-10" d="m100.86,109.7c-.21-.47-.45-.93-.73-1.37-.31-.41-.67-.78-1.07-1.1.15.04.29.11.41.21.3.22.57.49.78.8.32.42.53.92.6,1.45Z"></path>
        <path class="cls-10" d="m100.83,139.73s-.05-.25-.16-.7c-.17-.63-.41-1.23-.7-1.82-.72-1.48-2.04-3.35-3.72-5.24-.83-.95-1.63-1.85-2.32-2.7-.61-.75-1.17-1.55-1.65-2.39-.33-.57-.61-1.16-.84-1.78-.08-.22-.13-.39-.16-.51-.02-.06-.04-.12-.04-.18,0,0,.09.24.26.67.25.6.54,1.18.88,1.74.5.83,1.06,1.61,1.67,2.36.68.84,1.49,1.73,2.32,2.68,1.68,1.88,2.99,3.78,3.7,5.29.29.59.51,1.21.66,1.85.04.17.07.35.09.53.01.06.02.12.02.19Z"></path>
        <path class="cls-10" d="m109.1,130.38c-.14.09-.29.17-.43.24-.39.22-.77.47-1.12.74-.53.41-1.02.86-1.48,1.35-.52.55-1.05,1.18-1.6,1.86-1.09,1.37-2.11,2.58-2.72,3.54-.31.48-.53.88-.68,1.16-.07.15-.15.3-.24.44,0-.04.02-.08.04-.12.03-.08.08-.19.15-.34.19-.41.4-.81.64-1.2.59-.99,1.6-2.21,2.69-3.58.55-.68,1.09-1.32,1.61-1.87.47-.49.97-.93,1.52-1.34.37-.27.75-.51,1.16-.71.14-.07.26-.12.34-.15s.12-.04.12-.04Z"></path>
        <path class="cls-10" d="m109.27,133.41c-.3.07-.61.11-.92.14-.73.08-1.45.22-2.16.43-.7.23-1.36.57-1.95,1.02-.45.35-.66.63-.68.62.03-.08.08-.15.14-.21.14-.18.3-.34.48-.49.58-.48,1.25-.85,1.97-1.08.72-.22,1.46-.35,2.21-.39.3-.04.61-.04.92-.03Z"></path>
        <path class="cls-10" d="m103.82,135.28s.37-.66.69-1.51.37-1.61.43-1.6c.02.16.02.33-.02.49-.05.4-.14.78-.27,1.16-.14.37-.32.73-.53,1.06-.08.15-.18.28-.3.39Z"></path>
        <path class="cls-10" d="m111.78,122.25s-.1.06-.15.08l-.43.19c-.19.08-.42.18-.67.31s-.56.27-.88.46l-.5.29c-.18.1-.35.22-.53.33-.37.22-.74.5-1.13.78-.84.63-1.63,1.33-2.36,2.08-.72.76-1.39,1.58-2,2.43-.27.4-.53.78-.74,1.16-.11.19-.22.36-.31.54s-.18.35-.27.51c-.18.31-.31.62-.43.89s-.22.5-.31.69l-.18.44c-.02.05-.04.1-.07.15.01-.05.03-.11.05-.16.04-.12.09-.27.15-.45s.15-.43.27-.7.24-.58.41-.9c.08-.17.17-.34.26-.52s.2-.36.31-.55c.21-.38.47-.77.73-1.17,1.2-1.75,2.68-3.29,4.39-4.55.4-.28.77-.55,1.15-.77.18-.11.36-.23.53-.33l.51-.28c.31-.18.62-.31.89-.44s.5-.22.69-.31l.44-.17c.05-.02.11-.02.17-.02Z"></path>
        <path class="cls-10" d="m105.24,126.63c.06-.21.19-.4.36-.54.4-.35.92-.55,1.45-.55.53,0,1.05.1,1.54.31.2.07.4.16.58.28-.21-.04-.42-.1-.62-.18-.48-.16-.98-.25-1.49-.25-.5.01-.99.18-1.39.49-.16.14-.3.28-.44.44Z"></path>
        <path class="cls-10" d="m104.26,127.64c.2-.43.33-.88.41-1.34.03-.47,0-.94-.09-1.4.09.12.14.25.17.39.09.33.11.68.07,1.03-.04.34-.14.68-.31.98-.13.23-.24.35-.26.34Z"></path>
        <path class="cls-10" d="m93.59,141.23c.23,4.01,1.43,8.08,3.29,12.19h8.07c1.77-4.08,2.89-8.14,3.08-12.19h-14.44Z"></path>
        <path class="cls-6" d="m106.74,147.71s-2.66.07-5.93.07-5.94-.03-5.94-.07,2.66-.08,5.94-.08,5.93.03,5.93.08Z"></path>
        <path class="cls-6" d="m106.56,149.16s-2.49.08-5.57.08-5.55-.03-5.55-.08,2.49-.07,5.55-.07,5.57.03,5.57.07Z"></path>
        <path class="cls-6" d="m97.01,143.86c.1,1.24.1,2.48,0,3.72-.1-1.24-.1-2.48,0-3.72Z"></path>
        <path class="cls-6" d="m101.34,143.86c.1,1.28.1,2.57,0,3.85-.1-1.28-.1-2.57,0-3.85Z"></path>
        <path class="cls-6" d="m105.4,143.83c.1,1.31.1,2.62,0,3.93-.1-1.31-.1-2.62,0-3.93Z"></path>
        <path class="cls-6" d="m107.79,143.86s-3.12.08-6.96.08-6.96-.03-6.96-.08,3.12-.07,6.96-.07,6.96.03,6.96.07Z"></path>
        <rect class="cls-10" x="55.18" y="19.01" width="33.5" height="55.46"></rect>
        <rect class="cls-1" x="54.07" y="19.01" width="33.5" height="55.46"></rect>
        <rect class="cls-3" x="55.5" y="20.14" width="30.65" height="53.21"></rect>
        <rect class="cls-1" x="61.33" y="27.05" width="18.85" height="39.38"></rect>
        <path class="cls-10" d="m61.33,52.49c-.04-3.68,3.26-7.27,6.91-7.78,1.74-.25,3.58.1,5.2-.57,2.9-1.19,3.82-5.04,6.73-6.16l.14,28.46h-18.98v-13.95Z"></path>
        <rect class="cls-10" x="196.72" y="19.54" width="33.5" height="55.46"></rect>
        <rect class="cls-1" x="195.61" y="19.54" width="33.5" height="55.46"></rect>
        <rect class="cls-3" x="197.03" y="20.67" width="30.65" height="53.21"></rect>
        <rect class="cls-1" x="202.87" y="27.58" width="18.85" height="39.38"></rect>
        <path class="cls-10" d="m202.87,53.03c-.04-3.68,3.26-7.27,6.91-7.78,1.74-.24,3.58.1,5.21-.56,2.9-1.19,3.82-5.04,6.73-6.16l.13,28.46h-18.98v-13.95Z"></path>
        <polygon class="cls-10" points="168.52 21.01 168.52 46.27 132.24 46.27 130.93 21.19 168.52 21.01"></polygon>
        <rect class="cls-1" x="130.93" y="21.19" width="36.28" height="25.03"></rect>
        <rect class="cls-3" x="134.86" y="24.29" width="28.43" height="18.81"></rect>
        <path class="cls-10" d="m163.29,24.29h-2.1l-5.86.02-20.46.04.08-.08v18.8h0l-.09-.09,28.43.02-.07.07c.02-5.73.03-10.42.04-13.69,0-1.63,0-2.91.02-3.78v-1.34,1.31c0,.87,0,2.16.02,3.77,0,3.28.02,7.99.04,13.73v.1h-.07l-28.43.02h-.09v-.09h0v-18.88h.08l20.51.04,5.84.02h2.11Z"></path>
        <path class="cls-10" d="m130.93,21.11c.22.11.43.25.62.4.37.27.88.65,1.42,1.08s1.03.84,1.37,1.15c.2.16.37.33.52.53-.03.04-.91-.68-2-1.54s-1.97-1.59-1.93-1.63Z"></path>
        <path class="cls-10" d="m167.22,21.19c-.6.59-1.24,1.13-1.91,1.62-.64.54-1.31,1.04-2.02,1.49.6-.59,1.23-1.13,1.91-1.63.64-.54,1.31-1.04,2.02-1.48Z"></path>
        <path class="cls-3" d="m167.19,46.22l-4.05-3.28"></path>
        <path class="cls-10" d="m163.14,42.94c.73.48,1.42,1,2.08,1.57.69.52,1.35,1.09,1.97,1.71-.73-.47-1.42-1-2.08-1.57-.69-.52-1.35-1.09-1.97-1.71Z"></path>
        <path class="cls-10" d="m130.93,46.22c.59-.58,1.22-1.12,1.89-1.61.63-.54,1.3-1.03,2-1.47-.59.58-1.22,1.12-1.89,1.61-.63.54-1.3,1.03-2,1.47Z"></path>
        <rect class="cls-10" x="140.64" y="30.16" width="17.89" height="6.3"></rect>
      </g>
      <g id="freepik--Floor--inject-10">
        <path class="cls-13" d="m246.9,153.63s-44.07.08-98.44.08-98.45-.04-98.45-.08,44.07-.08,98.45-.08,98.44.03,98.44.08Z"></path>
      </g>
      <g id="freepik--speech-bubble-2--inject-10">
        <path class="cls-6" d="m234.7,41.56l2.42.43c2.69,3.05,7.34,3.34,10.39.64,3.05-2.69,3.34-7.34.64-10.39-2.69-3.05-7.34-3.34-10.39-.64-2.3,2.03-3.1,5.27-2.01,8.14h0l-1.06,1.82Z"></path>
        <path class="cls-13" d="m234.7,41.56l.06-.12.2-.35.78-1.37s.01,0,.02,0c0,0,0,0,0,0h-.03c-.44-1.13-.59-2.35-.44-3.56.05-.38.13-.75.23-1.12.06-.19.13-.38.2-.57.07-.19.15-.37.24-.55.83-1.74,2.31-3.08,4.11-3.73,1.02-.37,2.11-.52,3.19-.43,1.15.11,2.26.47,3.25,1.08.25.15.5.33.73.51.12.09.22.2.34.31s.22.2.33.31c.21.22.4.45.59.69.09.12.18.25.27.37l.23.39c1.16,2.03,1.3,4.48.37,6.63-1.2,2.76-3.96,4.51-6.97,4.42-.41-.01-.81-.06-1.21-.13-.37-.08-.74-.18-1.1-.31-1.15-.42-2.17-1.12-2.98-2.04h0l-1.81-.34-.46-.09-.15-.03.16.02.47.08,1.8.31h0c.81.91,1.83,1.6,2.97,2.01.36.12.72.23,1.09.31.4.07.8.11,1.2.12.88.03,1.76-.11,2.59-.4,1.93-.67,3.5-2.11,4.31-3.99.92-2.12.78-4.55-.37-6.55l-.23-.39c-.08-.12-.18-.24-.27-.36-.18-.24-.37-.47-.58-.69-.1-.11-.22-.2-.31-.31-.1-.11-.22-.21-.33-.31-.23-.18-.47-.35-.72-.51-1.9-1.2-4.24-1.45-6.35-.67-1.79.65-3.26,1.98-4.08,3.7-.09.18-.18.37-.25.57-.06.19-.14.38-.2.57-.11.36-.19.74-.23,1.11-.15,1.2-.01,2.41.41,3.54,0,0,0,.02,0,.02,0,0-.02,0-.02,0h.03l-.79,1.35-.21.35c-.05.07-.09.12-.09.12Z"></path>
        <path class="cls-13" d="m244.86,37.31c0-.41.33-.75.75-.75.41,0,.75.33.75.75s-.33.75-.75.75h0c-.41,0-.75-.33-.75-.75Z"></path>
        <path class="cls-13" d="m241.88,37.31c0-.41.33-.75.75-.75.41,0,.75.33.75.75s-.33.75-.75.75h0c-.41,0-.75-.33-.75-.75Z"></path>
        <path class="cls-13" d="m238.9,37.7c-.21-.36-.08-.81.27-1.02.36-.21.81-.08,1.02.27.21.36.08.81-.27,1.02,0,0,0,0,0,0-.36.2-.81.08-1.02-.27Z"></path>
      </g>
 
      <g id="freepik--character-4--inject-10">
        <path class="cls-5" d="m199.6,48.23l1.43,4.21.5.71s.43,2.34.47,2.84-.62,3.12-.62,3.12l1.45,2.33-4.02,1.54s-1.09-2.12-1.39-2.37-.52-.92-.59-1.39-.67-3.23-.67-3.23c0,0-1.78-3.05-1.04-3.2.19-.02.37-.02.56,0,0,0,1.07,2.01,1.36,2.05l.4-.24s-.84-3.06-.88-3.64.08-.98.52-1.04c0,0,.33.13.36.28s.87,3.57,1.05,3.5.1-.38.1-.38c0,0-1.11-4.15-1.06-4.39.04-.33.33-.58.67-.57l.85,2.28s-.4-1.92-.09-2.26c.16-.19.42-.25.64-.15Z"></path>
        <path class="cls-7" d="m198.75,57.54s0-.36.15-.92c.19-.76.62-1.44,1.23-1.94l.06-.04-.02-.06c-.07-.31-.14-.62-.22-.95v-.04c-.07-.1-.14-.22-.21-.33-.22-.37-.38-.78-.46-1.21-.04-.19-.04-.38,0-.57.03-.15.15-.28.31-.31l-.07-.03c.48.46.88.84,1.17,1.1.14.15.3.28.47.39-.11-.17-.24-.33-.39-.46-.27-.28-.65-.68-1.12-1.15l-.03-.03h-.04c-.23.03-.42.2-.48.43-.06.21-.07.44-.02.66.08.45.24.89.48,1.29.07.12.15.24.22.35l-.02-.04.22.95.04-.1c-.65.52-1.09,1.26-1.25,2.07-.05.23-.06.47-.06.71,0,.09.01.17.04.25Z"></path>
        <path class="cls-7" d="m198.76,54.14c-.02-.05-.62.13-1.28.56s-1.05.92-1.01.96.5-.37,1.13-.78,1.18-.68,1.16-.73Z"></path>
        <path class="cls-10" d="m197.61,63.26s4.31,14.79,8.72,14.46c2.6-.2,4.93-1.71,6.16-4.01l-.06-9.02-4.85-.39-.97,2.33-3.39-6.1-5.61,2.73Z"></path>
        <path class="cls-13" d="m227.72,42.8c.6-1.37,1.07-2.78,1.42-4.23.35-1.46.34-2.97-.05-4.42-.06-.22-.63-1.68-.86-1.67-.16,0,.16,1.36.07,1.49-.87,1.28-1.19,2.86-1.17,4.4.03,1.5.23,2.99.59,4.44"></path>
        <path class="cls-5" d="m218.81,50.46c.06-1.05.11-1.88.1-1.88s-3.57-.62-3.56-4.2c0-1.73.31-5.29.62-8.52.34-3.46,3.28-6.09,6.76-6.03h.35c3.73.28,5.57,3.6,5.19,7.32l-.92,13.04-2.72,2.85c-1.32,1.33-3.46,1.34-4.79.02-.69-.68-1.05-1.62-1-2.59h0Z"></path>
        <path class="cls-7" d="m218.91,48.58c1.66.02,3.28-.43,4.69-1.31,0,0-1.18,2.59-4.75,2.21l.06-.9Z"></path>
        <path class="cls-13" d="m216.82,39.02c0,.28.21.51.49.52.27.03.51-.17.53-.44,0,0,0-.01,0-.02,0-.28-.21-.51-.48-.52-.27-.02-.51.18-.54.45,0,0,0,0,0,0Z"></path>
        <path class="cls-13" d="m216.71,37.35c.06.07.46-.21,1-.2s.95.31,1.01.22-.03-.15-.21-.28c-.24-.17-.52-.26-.81-.26-.29,0-.57.08-.8.24-.17.13-.23.24-.2.28Z"></path>
        <path class="cls-13" d="m221.73,39.32c0,.28.21.51.48.52.27.03.51-.17.53-.43,0,0,0-.01,0-.02,0-.28-.21-.51-.48-.52-.27-.03-.51.17-.53.43,0,0,0,.01,0,.02Z"></path>
        <path class="cls-13" d="m221.84,37.62c.06.07.46-.21,1.01-.2s.95.29,1.01.22-.03-.15-.21-.28c-.48-.35-1.12-.35-1.61-.02-.17.14-.24.26-.2.28Z"></path>
        <path class="cls-13" d="m220.06,41.86c-.29-.1-.59-.15-.89-.18-.14,0-.27-.05-.31-.14,0-.15.03-.29.1-.42.14-.34.28-.69.43-1.07.62-1.51,1.04-2.77.98-2.77s-.6,1.19-1.2,2.7l-.42,1.07c-.09.17-.12.36-.08.55.04.1.12.18.23.21.08.02.16.03.24.04.3.04.61.04.92,0Z"></path>
        <path class="cls-13" d="m221.91,35.77c.08.14.62,0,1.26-.03s1.2.07,1.26-.07c.03-.07-.08-.2-.31-.31-.62-.27-1.33-.24-1.92.08-.22.13-.33.27-.29.33Z"></path>
        <path class="cls-13" d="m216.9,35.43c.1.13.48,0,.92,0s.84.1.92-.03c.04-.06-.02-.19-.18-.31-.46-.3-1.05-.29-1.5.02-.15.13-.21.26-.16.32Z"></path>
        <path class="cls-5" d="m227.92,39.78c.06-.02,2.47-.69,2.36,1.76s-2.55,1.82-2.55,1.75.19-3.52.19-3.52Z"></path>
        <path class="cls-7" d="m228.52,42.42s.04.03.11.07c.1.05.21.05.31.02.26-.08.5-.48.53-.92.01-.21-.02-.42-.09-.62-.04-.16-.16-.29-.31-.34-.1-.03-.21.01-.26.1-.04.07-.02.12-.04.12s-.05-.04-.02-.14c.02-.06.05-.11.1-.15.07-.05.15-.07.24-.05.2.05.36.21.43.4.09.22.13.45.11.69-.04.49-.31.92-.67,1.03-.14.03-.28,0-.39-.08-.06-.06-.07-.12-.06-.12Z"></path>
        <path class="cls-13" d="m217.79,31.89c-.38-.24.88-1.46,1.88-1.85,1.51-.59,3.78-.87,5.11-.41,1.61.56,2.92,1.45,3.65,2.98.7,1.56.98,3.28.8,4.98-.01.52-.16,1.03-.43,1.48-.37.52-1.05.83-1.06,1.57,0,.28-.11.54-.31.73-.47.45-1-.03-1.23-.49-.48-.99-.48-2.14-.46-3.24-.03-.78.06-1.57.29-2.32.14-.4.36-.78.48-1.18.15-.41.11-.86-.1-1.23-.06-.08-.12-.15-.19-.21-.66-.64-1.62-.88-2.51-.62-1.41.41-3.8,1-4.39.5-.85-.72-1.03-1.17-1.03-1.17l-.5.48Z"></path>
        <path class="cls-13" d="m220.16,43.77s.12.1.33.09c.28-.02.54-.12.77-.28.23-.16.4-.39.49-.65.07-.2.05-.34,0-.35-.1-.02-.27.41-.71.72s-.88.37-.89.46Z"></path>
        <path class="cls-13" d="m219.46,143.18l.36,6.58s-6.57,2.58-6.62,3.8l12.78-.24-.14-10.28-6.39.14Z"></path>
        <path class="cls-10" d="m223.76,149.13c.26.07.42.33.37.59-.06.26-.32.42-.58.37-.27-.08-.43-.34-.39-.62.09-.26.38-.41.65-.32"></path>
        <path class="cls-12" d="m225.98,153.32l-.05-1.04-12.24.62s-.56.26-.49.66l12.78-.24Z"></path>
        <path class="cls-3" d="m219.61,149.7c0,.06.31.08.62.28s.48.46.54.43-.04-.38-.43-.62-.74-.15-.73-.09Z"></path>
        <path class="cls-3" d="m218.28,150.28c-.02.06.26.16.47.42s.28.54.35.53.1-.36-.18-.67-.64-.34-.64-.28Z"></path>
        <path class="cls-3" d="m217.55,151.9c.06,0,.14-.31-.03-.64s-.46-.47-.49-.42.16.23.29.51.15.54.22.55Z"></path>
        <path class="cls-3" d="m219.7,148.19c.02.06.31-.03.66-.02s.62.12.66.07-.24-.27-.65-.29-.71.18-.67.23Z"></path>
        <path class="cls-13" d="m234.94,142.54l.69,7.94-1.26,6.44c-.09.44.2.87.64.96.02,0,.04,0,.06,0h0c.26.03.52-.06.7-.26,1.14-1.23,5.31-5.83,5.22-6.41-.1-.67-.17-8.43-.17-8.43l-5.88-.26Z"></path>
        <path class="cls-12" d="m235.06,157.89l5.89-7.2.02.34c.02.29-.07.58-.24.82-.47.62-1.79,2.33-4.95,5.8-.18.2-.46.3-.73.26h0Z"></path>
        <g class="cls-15">
          <path class="cls-3" d="m239.16,148.22c-.19.16-.23.44-.09.65.15.2.44.24.64.1.2-.17.25-.47.1-.69-.18-.19-.49-.2-.68-.03"></path>
        </g>
        <path class="cls-3" d="m236.66,154.29c-.21-.23-.46-.43-.74-.57-.3-.1-.61-.14-.92-.12,0-.02.09-.09.27-.13.5-.09,1,.12,1.29.54.1.16.12.27.1.28Z"></path>
        <path class="cls-3" d="m236.16,155.4c-.24-.12-.48-.22-.73-.31-.26-.03-.52-.05-.78-.05-.03-.04.35-.23.82-.12s.73.45.69.48Z"></path>
        <path class="cls-3" d="m237.63,152.86c-.35-.21-.71-.38-1.09-.53-.39-.1-.79-.16-1.2-.2.84-.22,1.73.07,2.29.73h0Z"></path>
        <path class="cls-3" d="m237.62,150.43s-.47-.11-1.04-.09-1.02.18-1.04.14c.63-.4,1.43-.41,2.08-.04Z"></path>
        <path class="cls-3" d="m237.47,148.09c-.35-.09-.72-.13-1.08-.12-.36.06-.71.17-1.04.33,0-.02.06-.12.24-.24.48-.3,1.07-.36,1.59-.16.2.08.3.17.29.19Z"></path>
        <path class="cls-3" d="m236.38,147.52c-.04-.1-.05-.2-.03-.31,0-.28.07-.55.19-.8.07-.19.2-.36.37-.47.12-.06.27-.05.37.05.09.09.15.22.15.35,0,.55-.4,1.03-.94,1.13-.54.09-1.07-.16-1.36-.62-.07-.11-.09-.25-.05-.38.06-.13.19-.21.33-.19.2.03.39.11.54.24.23.16.42.36.58.58.07.08.11.17.14.27-.22-.29-.49-.54-.79-.75-.14-.1-.3-.17-.47-.19-.08-.01-.15.03-.18.1-.02.09,0,.18.05.25.26.39.72.59,1.18.52.46-.09.79-.48.81-.95,0-.09-.03-.18-.09-.25-.06-.05-.14-.07-.21-.03-.14.1-.25.23-.31.39-.16.33-.25.69-.28,1.06Z"></path>
        <path class="cls-12" d="m213.13,87.92c-.62,2.73-.82,5.53-.62,8.32.14,1.77,6.11,50.72,6.11,50.72h8.06l-2.27-46.01.66.14s4.4,19.62,4.76,22.8c.31,2.86,4.03,23.6,4.03,23.6l7.37.08-2.35-27.43-2.74-26.33-1.03-7.67-21.99,1.76Z"></path>
        <path class="cls-13" d="m225.68,96.26c-.1.08-.22.14-.34.19-.32.16-.65.28-1,.35-.25.04-.5.04-.74,0-.29-.05-.56-.18-.78-.37-.23-.23-.39-.51-.47-.82-.1-.31-.15-.64-.22-.97-.26-1.33-.43-2.54-.53-3.42-.05-.44-.08-.8-.1-1.04-.02-.13-.02-.26,0-.39.04.12.06.25.07.38.04.28.1.63.16,1.04.13.88.32,2.08.58,3.41.13.65.22,1.32.62,1.71.39.32.9.46,1.39.36.34-.06.67-.16.99-.29.12-.05.24-.09.36-.12Z"></path>
        <path class="cls-13" d="m223.26,90.01s.05-.04.17-.05c.16,0,.32.05.45.14.2.14.33.37.34.62-.03.44-.41.77-.85.74-.19-.01-.37-.1-.51-.23-.16-.19-.21-.45-.15-.69.03-.16.12-.3.24-.41.09-.07.15-.08.16-.07-.15.13-.25.31-.28.5-.03.2.02.41.15.57.27.24.68.22.92-.05.09-.1.15-.23.16-.36,0-.2-.1-.4-.26-.53-.16-.12-.35-.18-.54-.18Z"></path>
        <path class="cls-13" d="m236.03,93.34c-.09.03-.18.04-.28.04-.25.02-.5.02-.76,0-.84-.05-1.66-.24-2.43-.56-.77-.33-1.48-.78-2.1-1.35-.19-.17-.36-.35-.52-.55-.11-.14-.17-.22-.16-.23s.28.28.76.68c1.26,1.06,2.81,1.72,4.46,1.88.63.07,1.02.05,1.02.08Z"></path>
        <path class="cls-13" d="m216.43,90.17c-.09.29-.21.56-.37.82-.34.62-.76,1.21-1.23,1.73-.47.51-1,.97-1.58,1.35-.23.17-.47.3-.74.39.22-.18.45-.34.68-.5.56-.41,1.07-.87,1.54-1.37.47-.52.89-1.08,1.26-1.68.13-.26.28-.51.44-.76Z"></path>
        <path class="cls-10" d="m231.88,66.49l3.08,2.97-1-5.69,6.26-1.98s1.66,7.8,1.95,9.65c.52,3.31-.12,8.01-3.2,8.35-3.34.36-5.86-2.93-7.46-5.09-1.23-1.66-3.22-4.56-3.22-4.56l3.59-3.65"></path>
        <path class="cls-10" d="m207.39,65.01c.05-.19,2.26-8.52,3.25-10.37,1.18-2.2,3.7-3.11,5.24-3.2.2,0,.92-.03,1.54,0,4.24.18,16.43,1.16,16.43,1.16,0,0,4.62,1.16,5.55,5.33,1.17,5.24,2.11,10.4,2.11,10.4l-8.25,1.78-.98-2.45-15.51,3.46-3.79-5.6-5.58-.5Z"></path>
        <path class="cls-10" d="m234.84,78.1l-.21-7.46.31-17.57-6.43-2.84-.72-2.77-7.51,3.55-1.57-1.74-.7,1.9-1.6.6-3.24,6.38-1.85,5.03s.58,21.83,1.04,25.34c0,0,1.51.56,5.24.65,7.56.18,17.87-.31,17.87-.31l.1-.33c.3-.92.38-1.9.26-2.86l-1-7.58"></path>
        <path class="cls-13" d="m217.64,88.52s0-.06,0-.09c0-.07,0-.16-.02-.27,0-.25-.03-.6-.06-1.03-.04-.92-.1-2.2-.17-3.78-.12-3.2-.27-7.62-.22-12.51.03-2.44.11-4.77.35-6.88s.62-3.98.92-5.55.63-2.83.85-3.7l.25-1,.07-.26s.02-.06.03-.09c0,.03,0,.06,0,.09,0,.07-.03.16-.05.27-.06.25-.13.58-.22,1-.19.88-.47,2.14-.79,3.7s-.65,3.44-.89,5.55-.31,4.43-.33,6.87c-.05,4.88.08,9.3.16,12.5.04,1.58.08,2.87.1,3.79,0,.43,0,.78.02,1.03v.27s-.01.06-.02.09Z"></path>
        <path class="cls-13" d="m222.48,61.03c.14-.01.29-.01.43,0l1.27.08,4.62.31h.09v.09c-.16,2.12-.35,4.66-.56,7.4v.05l-.04.03c-.22.16-.45.31-.69.47-.42.28-.86.53-1.3.76-.44.24-.92.4-1.41.45-.49.02-.97-.09-1.4-.31-.4-.21-.78-.46-1.13-.76-.17-.14-.34-.28-.49-.43-.09-.07-.16-.16-.22-.27-.05-.1-.09-.2-.12-.31-.09-.4-.13-.82-.11-1.23.02-.72.09-1.44.2-2.16.19-1.31.42-2.36.58-3.08.08-.36.15-.64.2-.83.02-.1.05-.19.09-.28,0,.1-.02.2-.05.29-.04.21-.1.49-.16.84-.14.72-.34,1.78-.51,3.08-.1.72-.15,1.44-.17,2.16-.01.39.03.79.12,1.17.04.19.14.36.29.49.15.14.31.28.48.42.34.28.71.53,1.1.73.4.21.85.32,1.3.31.47-.06.92-.21,1.33-.43.44-.23.87-.47,1.28-.74.24-.15.47-.31.68-.47l-.04.08c.22-2.74.43-5.28.6-7.4l.08.1-4.57-.4-1.29-.12-.34-.04-.13-.02Z"></path>
        <path class="cls-13" d="m228.76,63.44c0,.06-1.51,0-3.36-.15s-3.34-.31-3.34-.37,1.51,0,3.36.15,3.34.31,3.34.37Z"></path>
        <g class="cls-14">
          <path d="m221.74,68.89c.36.6.7,1.41,1.19,1.9.48.52,1.13.85,1.83.92.62.01,1.22-.17,1.73-.52.8-.55,1.41-1.35,1.73-2.27.05-.07-1.2.77-1.88,1.13-.58.35-1.26.49-1.93.42-1.01-.08-1.91-.92-2.68-1.58"></path>
        </g>
        <g class="cls-14">
          <polygon points="220.29 51.37 219.74 55.58 227.64 50.69 220.37 54.44 220.29 51.37"></polygon>
        </g>
        <path class="cls-8" d="m218.88,55.42c-1.33,5.75-2.23,11.6-2.68,17.49-.31,4.09-.54,9.5-.54,9.5l1.82,2.26,2.79-2.47s-.12-11.5.02-15.35c.12-3.17-.38-11.25-.38-11.25l-1.04-.17Z"></path>
        <path class="cls-13" d="m233.03,60.54c.03.11.06.22.07.33.04.23.1.53.16.9.13.78.31,1.82.51,2.97s.37,2.21.49,2.98c.06.38.1.69.13.9.02.11.03.22.03.34-.03-.11-.06-.22-.07-.33-.04-.23-.1-.54-.16-.9-.14-.78-.31-1.82-.52-2.97s-.36-2.21-.48-2.98l-.13-.9c-.02-.11-.03-.22-.03-.34Z"></path>
        <path class="cls-13" d="m235.42,53.56s-.22.19-.54.53c-.42.44-.78.93-1.07,1.46-.28.54-.49,1.11-.62,1.7-.1.45-.12.74-.14.74,0-.07,0-.14,0-.21.01-.19.03-.37.07-.55.11-.61.32-1.19.62-1.73.29-.54.67-1.04,1.11-1.46.13-.13.28-.25.43-.36.04-.05.09-.08.15-.11Z"></path>
        <polygon class="cls-8" points="220.3 52.63 219.62 52.22 218.9 53.51 218.88 55.42 219.92 55.59 220.35 54.47 220.3 52.63"></polygon>
        <path class="cls-13" d="m220.35,50.98s-.15.27-.41.69-.59,1.02-.92,1.7l-.07.16-.05.11-.05-.11c-.26-.55-.48-1.11-.67-1.69-.07-.22-.12-.4-.15-.52-.02-.06-.03-.13-.04-.2,0,0,.1.27.26.7.2.57.44,1.13.7,1.67h-.1c.02-.05.05-.11.08-.16.27-.59.59-1.15.94-1.7.14-.21.25-.37.34-.48.04-.06.1-.12.15-.17Z"></path>
        <path class="cls-13" d="m228.5,50.23s-.07.05-.11.07l-.31.17-1.19.62c-1.01.52-2.39,1.27-3.92,2.09-.92.5-1.81.96-2.58,1.34l-.07.03v-.08c0-1-.02-1.83-.02-2.44v-.93c.01.08.02.16.02.24,0,.17,0,.4.02.69.02.62.04,1.45.06,2.44l-.07-.04c.76-.39,1.64-.85,2.57-1.35,1.54-.81,2.92-1.54,3.93-2.06.51-.25.92-.45,1.21-.59l.33-.15s.08-.04.12-.05Z"></path>
        <path class="cls-13" d="m219.74,55.81s-.2-.06-.4-.19-.36-.26-.35-.28.2.06.41.19.36.27.35.29Z"></path>
        <path class="cls-13" d="m219.91,55.23c-.19-.31-.36-.63-.48-.97-.16-.32-.29-.66-.39-1.01.19.31.36.63.49.97.16.32.29.66.38,1.01Z"></path>
        <path class="cls-13" d="m242.18,71.44s.06.31.12.95c.08.92.07,1.85-.04,2.77-.08.68-.23,1.35-.45,1.99-.25.79-.71,1.49-1.33,2.04-.36.29-.78.48-1.23.58-.49.08-.99.08-1.47,0-1.07-.19-2.07-.65-2.9-1.34l.07-.04c.21,1.53.42,3.17.65,4.93.11.88.24,1.77.35,2.7.07.97-.07,1.94-.4,2.85v.04h-.04c-3.3.15-6.92.27-10.79.31-1.94.02-3.95.04-6.01,0-1.03-.02-2.08-.03-3.14-.13-1.08-.07-2.15-.25-3.19-.54h-.04v-.05c-.13-1.08-.18-2.17-.25-3.28s-.11-2.23-.17-3.37c-.1-2.27-.19-4.59-.27-6.96l.14.05c-1.03,1.27-2.43,2.18-4.01,2.59-.4.1-.8.17-1.21.21-.21.02-.42.02-.63,0-.21-.03-.42-.09-.62-.18-.76-.36-1.43-.9-1.94-1.57-1.04-1.33-1.92-2.78-2.62-4.31-.74-1.54-1.38-3.13-1.98-4.76-.44-1.23-.86-2.44-1.23-3.67l-.02-.06.06-.03,5.62-2.72.07-.03.03.07,3.37,6.11h-.14c.33-.78.65-1.56.97-2.33l.07-.05-.07.06c.42-1.54.84-3.04,1.28-4.51s.88-2.94,1.42-4.34c.26-.71.65-1.36,1.15-1.93.51-.54,1.1-.99,1.76-1.34.64-.34,1.33-.58,2.05-.71.35-.07.71-.1,1.07-.09h1.06-.03l.7-.26-.04.04c.24-.65.47-1.28.7-1.9l.04-.11.08.09,1.57,1.74h-.08l7.51-3.54.07-.03.02.07.72,2.77-.03-.04,5.34,2.36h0c2.28.68,4.18,2.13,5.08,3.96.1.23.2.46.29.69s.14.47.2.7c.1.47.2.92.31,1.37l.54,2.52-.04-.03.04.03c.66,3.13,1.15,5.55,1.47,7.17.16.82.27,1.44.35,1.85s.1.63.1.63c0,0,0-.05-.03-.16s-.05-.27-.09-.47c-.08-.41-.2-1.03-.37-1.85-.33-1.63-.83-4.04-1.5-7.16l.04.03-.04-.03c-.17-.79-.35-1.63-.55-2.52-.21-.88-.33-1.85-.79-2.74-.89-1.8-2.77-3.23-5.02-3.9h0l-5.35-2.35h-.03v-.03c-.23-.89-.47-1.8-.72-2.77l.09.04-7.51,3.56-.05.02-.03-.04-1.57-1.74.12-.02-.75,1.87v.03h-.03l-.7.27h-1.09c-.35,0-.7.04-1.05.1-.7.13-1.38.37-2.01.7-.64.34-1.22.78-1.72,1.31-.49.55-.87,1.19-1.12,1.88-.54,1.39-.97,2.85-1.42,4.31s-.86,2.98-1.28,4.51l-.08.06.07-.05-.96,2.36-.06.15-.08-.14c-1.11-2-2.24-4.03-3.39-6.1l.1.03-5.62,2.72.04-.1c.36,1.23.78,2.45,1.23,3.66.59,1.62,1.23,3.21,1.97,4.74.69,1.53,1.56,2.97,2.6,4.29.49.66,1.14,1.18,1.88,1.54.18.08.37.13.57.17.2.02.4.02.59,0,.4-.04.8-.11,1.19-.21,1.54-.42,2.9-1.32,3.9-2.56l.13-.16v.21c.08,2.36.17,4.68.27,6.95.06,1.14.11,2.26.17,3.37.06,1.11.12,2.2.24,3.27l-.05-.06c1.03.28,2.08.46,3.15.53,1.05.1,2.1.11,3.13.13,2.06.03,4.07.02,6.01,0,3.88-.05,7.5-.17,10.79-.31l-.05.04c.33-.9.47-1.85.4-2.8-.1-.92-.23-1.82-.34-2.7-.22-1.75-.44-3.39-.64-4.93l-.02-.11.09.07c.82.68,1.81,1.14,2.86,1.33.48.08.97.08,1.45,0,.45-.08.87-.28,1.23-.56.61-.54,1.07-1.23,1.32-2,.23-.64.38-1.3.46-1.98.11-.92.13-1.85.06-2.77-.02-.31-.05-.55-.07-.71s-.02-.24-.02-.24Z"></path>
        <g class="cls-14">
          <path d="m228.97,72.45s1.6,1.83,2.55,3.02c.78.98,2.22,2.02,3.39,3l.24,1.99c-.94-.18-2.22-1.28-2.86-2-.67-.7-1.27-1.48-1.78-2.31-.86-1.54-2.04-3.02-2.35-4.76l.8,1.05Z"></path>
        </g>
        <path class="cls-13" d="m235.04,78.54s-.1-.09-.16-.12c-.11-.08-.27-.18-.47-.33-.56-.43-1.1-.9-1.61-1.4-1.71-1.73-3.28-3.58-4.7-5.55v.09l1.04-2.53c.44-1.06.86-2.09,1.25-3.04l-.13.03,7.36,6.23c-.03-.05-.07-.1-.12-.14-.09-.09-.22-.21-.39-.37-.35-.31-.86-.77-1.5-1.34-1.29-1.13-3.12-2.71-5.24-4.51l-.09-.08-.04.11c-.4.96-.82,1.98-1.26,3.04l-1.02,2.54-.02.05.03.04c1.43,1.97,3.02,3.81,4.76,5.51.52.49,1.07.95,1.65,1.37.2.14.38.24.49.31.06.04.12.08.18.1Z"></path>
        <path class="cls-13" d="m211.01,56.94c0,.06,0,.12,0,.18v.53c0,.46,0,1.13.02,1.95.03,1.65.13,3.92.27,6.43s.26,4.78.31,6.43c.03.8.05,1.46.07,1.95,0,.21.02.39.02.53,0,.06,0,.12.02.18,0-.06,0-.12,0-.18v-.53c0-.46,0-1.12-.02-1.95-.03-1.65-.13-3.92-.27-6.43s-.26-4.78-.31-6.43c-.03-.8-.06-1.46-.07-1.95,0-.21-.02-.39-.02-.53,0-.06,0-.12-.02-.18Z"></path>
        <path class="cls-13" d="m210.1,60.28l2.57,9.73c.14.54.64.91,1.2.9l13.33-.26c.67-.01,1.2-.56,1.19-1.23,0-.08,0-.15-.03-.23l-1.96-9.32c-.12-.56-.61-.96-1.18-.96h-14.06c-.6,0-1.09.49-1.09,1.09,0,.09.01.19.04.28Z"></path>
        <path class="cls-5" d="m230.78,66.35l-.63-.59s-.42-1.4-.68-1.66c-.29-.21-.62-.37-.97-.46l-1.59-1.46.29,1.31-2.31-.02c-.27,0-.51.16-.62.4-.02.04-.02.08-.02.13.04.27.22.5.46.62l.33.16c-.27.08-.48.29-.55.57-.04.34.16.67.48.78,0,0-.57.25-.24.92,0,0-.53.62-.22,1.05s2.06,1.13,2.06,1.13l.97.44c.24.07.48.08.73.04l.38.05.4.34s2.31-1.27,1.73-3.74Z"></path>
        <path class="cls-7" d="m228.29,65.36c-.17.03-.35.03-.52,0-.42-.03-.84-.09-1.25-.17-.42-.08-.83-.19-1.23-.33-.17-.04-.33-.12-.48-.21,0-.04.77.21,1.73.4s1.77.26,1.76.31Z"></path>
        <path class="cls-7" d="m228.92,67.17c-1.34-.27-2.67-.62-3.97-1.07.68.11,1.34.27,2,.47.67.16,1.32.36,1.97.6Z"></path>
        <path class="cls-7" d="m228.74,68.53c-.22,0-.43-.03-.64-.08-.51-.1-1.01-.25-1.5-.43-.49-.18-.96-.4-1.41-.65-.2-.09-.38-.21-.54-.35.2.07.4.16.58.27.36.17.85.4,1.42.62s1.09.36,1.47.47c.21.04.42.1.62.17Z"></path>
        <path class="cls-7" d="m229.17,66.77s.04-.27-.02-.59-.2-.53-.17-.56.25.18.31.54c.06.21.02.43-.12.61Z"></path>
        <path class="cls-7" d="m229.19,65.1s.09-.17.11-.39-.06-.38-.03-.4.06.02.1.09c.1.2.08.44-.06.62-.06.07-.12.09-.12.08Z"></path>
        <path class="cls-7" d="m229.03,68.44s.06-.17.12-.36.06-.36.1-.37.1.18.03.41-.22.36-.25.32Z"></path>
        <path class="cls-7" d="m225.47,63.48c.45.07.9.11,1.35.11.45.06.9.09,1.36.08-.43-.17-.88-.25-1.34-.26-.46-.06-.92-.04-1.37.06Z"></path>
        <path class="cls-13" d="m208.34,72.14c-.08-.27-.14-.55-.18-.83-.26-1.34-.67-2.65-1.2-3.91-.12-.26-.22-.52-.31-.79.17.23.31.48.43.75.3.62.55,1.26.76,1.92.2.66.36,1.33.46,2.02.05.28.07.57.06.85Z"></path>
      </g>
      <g id="freepik--characters-2-and-3--inject-10">
        <path class="cls-5" d="m161.18,53.75c-.42-.23-.88-.35-1.36-.35-.45,0-3.7,1.99-3.7,1.99l-3.08,3.42-.92,2.44,1.97,1.07,2.83-6.03,2.92-1.76,1.35-.78Z"></path>
        <path class="cls-8" d="m152.07,60.12s-4.44,8.1-4.56,7.93-3.99-3.62-3.99-3.62c0,0-1.89-4.35-2.67-5.92-.59-1.18-2.62-1.9-2.62-1.9l1.12,14.35c-.19-.39,6.18,3.94,7.6,4.52,1.35.55,2.77-.74,3.81-1.4s5.58-10.81,5.58-10.81l-4.27-3.16Z"></path>
        <path class="cls-13" d="m147.4,72.14c-.17-.6-.23-1.23-.18-1.85,0-.62.09-1.23.29-1.82.05,0-.11.81-.13,1.82s.07,1.83.02,1.85Z"></path>
        <path class="cls-13" d="m137.9,32.44c-1.31-.44-2.72.7-4.07.4-.82-.18-1.42-.86-2.16-1.29-1.14-.67-2.54-.76-3.76-.25-1.13.54-1.87,1.12-2.06,2.36-1-.62-2.74.62-3.35,1.85s-.51,2.51-.22,3.84c.51,2.31,1.46,4.49,2.8,6.43.12.17.31.36.5.28.13-.06.18-.22.21-.36.23-1.21.11-2.47.04-3.68s-.09-2.49.33-3.64,1.36-2.19,2.57-2.39c.91-.1,1.82.11,2.59.62.78.47,1.46,1.08,2.19,1.61.71.56,1.56.92,2.47,1.04.91.06,1.89-.34,2.3-1.14s0-1.99-.87-2.2c.98-.06,1.73-.91,1.66-1.9-.05-.72-.52-1.34-1.21-1.57h.02Z"></path>
        <path class="cls-5" d="m136.66,46.91c0-1.68-.25-5.14-.53-8.27-.29-3.37-3.12-5.95-6.5-5.92h-.34c-3.62.24-5.02,3.58-4.68,7.19l.03,12.02,6.96,5.83,1.25-2.47.4-4.38s3.37-.53,3.39-4.01Z"></path>
        <path class="cls-7" d="m133.27,50.94c-1.64.06-3.25-.37-4.64-1.23,0,0,1.1,2.43,4.57,2.1l.08-.87Z"></path>
        <path class="cls-13" d="m134.64,41.97c0,.27-.21.49-.48.51-.26.02-.49-.18-.51-.44,0-.27.21-.49.47-.51.26-.02.49.18.51.44,0,0,0,0,0,0Z"></path>
        <path class="cls-13" d="m135.4,40.34c-.06.06-.44-.21-.97-.21s-.92.28-.98.21.03-.15.2-.27c.23-.16.5-.25.79-.25.28,0,.55.09.77.26.18.11.23.23.2.26Z"></path>
        <path class="cls-13" d="m129.46,41.97c0,.27-.21.49-.48.51-.26.02-.49-.18-.51-.44,0,0,0,0,0,0,0-.27.21-.49.47-.51.26-.02.49.17.52.43,0,0,0,.01,0,.02Z"></path>
        <path class="cls-13" d="m130.14,40.48c-.06.06-.44-.21-.97-.21s-.92.28-.98.21.03-.14.2-.27c.23-.16.5-.25.79-.25.28,0,.55.08.78.24.16.13.22.24.19.27Z"></path>
        <path class="cls-13" d="m132.11,44.43c.28-.09.57-.15.87-.16.14,0,.27-.04.29-.14.01-.14-.02-.28-.09-.41-.13-.33-.27-.67-.41-1.04-.57-1.48-.98-2.69-.92-2.71s.57,1.16,1.14,2.63c.14.36.27.71.39,1.04.09.16.12.35.08.54-.04.1-.12.17-.22.2-.08.02-.15.03-.23.03-.29.04-.59.04-.88,0Z"></path>
        <path class="cls-13" d="m130.18,37.74c-.05.14-.59.08-1.21.16s-1.13.25-1.22.12c-.04-.06.05-.2.25-.34.27-.17.58-.28.9-.31.32-.04.65,0,.95.1.23.08.35.19.32.26Z"></path>
        <path class="cls-13" d="m135.2,38.8c-.09.12-.46,0-.91,0s-.82.09-.9-.04c-.04-.06.02-.18.18-.31.22-.14.48-.21.74-.2.26,0,.51.09.72.24.15.13.2.25.17.31Z"></path>
        <path class="cls-5" d="m124.77,42.33c-.06-.02-2.67-.67-2.58,1.71s2.47,1.79,2.47,1.73.11-3.44.11-3.44Z"></path>
        <path class="cls-7" d="m123.89,44.89s-.04.03-.11.06c-.1.04-.21.05-.31.02-.25-.08-.48-.47-.51-.9-.01-.2.02-.41.09-.6.04-.15.16-.28.31-.33.1-.03.2.01.25.1.03.06.02.11.03.12s.05-.04.03-.14c-.02-.06-.05-.11-.1-.14-.07-.05-.15-.07-.23-.05-.2.05-.35.19-.42.39-.09.21-.14.44-.12.67.03.48.31.92.64,1,.13.03.27,0,.38-.08.06-.06.07-.11.06-.12Z"></path>
        <path class="cls-13" d="m136.15,35.39c-.34-.67-.85-1.25-1.47-1.67-1.3-.99-2.88-1.54-4.51-1.58-1.64-.02-3.22.59-4.42,1.7-.92.93-1.55,2.11-1.81,3.39-.31,1.39-.36,2.82-.16,4.22.1.56.42.76.82,1.17.25.26.67.42.95.2.15-.15.25-.34.27-.55.44-1.85.88-3.82.2-5.58.43-.61.99-1.13,1.63-1.52.65-.39,1.43-.5,2.16-.31,1.06.31,1.73,1.35,2.58,2.06,1.25,1.02,2.91,1.39,4.47.97l-.71-2.51Z"></path>
        <path class="cls-10" d="m122.13,38.51s.26,0,.66-.02c1.06-.08,2.04-.55,2.77-1.32.28-.31.42-.51.44-.49-.08.21-.2.4-.35.56-.71.84-1.75,1.33-2.84,1.35-.23.02-.45,0-.67-.08Z"></path>
        <path class="cls-10" d="m122.17,39.68s.27-.05.7-.16c.55-.14,1.07-.36,1.55-.67.48-.31.9-.7,1.26-1.14.27-.34.41-.58.43-.57-.08.23-.19.44-.35.63-.69.96-1.72,1.62-2.88,1.85-.23.06-.47.07-.71.05Z"></path>
        <path class="cls-10" d="m138.02,36.7s0,.17-.13.4c-.17.3-.41.55-.71.73-.3.18-.64.27-.98.27-.14.01-.29-.01-.41-.08.13-.02.27-.03.41-.03.32-.03.63-.13.91-.29.28-.17.51-.39.69-.66.07-.12.14-.24.22-.35Z"></path>
        <path class="cls-10" d="m138.3,37.19c0,.14-.06.27-.13.38-.32.58-.89.98-1.54,1.1-.13.04-.27.04-.41,0,.44-.09.85-.26,1.23-.5.34-.28.62-.61.85-.99Z"></path>
        <path class="cls-7" d="m130.57,45.08c.51.19,1,.43,1.47.71l.5.29c-.22.27-.47.73-.77.84-.35.13-.74.07-1.03-.17-.18-.22-.28-.5-.27-.79,0-.3.04-.59.11-.88Z"></path>
        <path class="cls-13" d="m132.31,46.4s-.05.07-.15.17c-.13.15-.31.25-.51.29-.29.05-.59-.02-.83-.18-.25-.25-.36-.61-.29-.96.03-.22.08-.43.16-.63l-.11.04c.58.31,1.08.54,1.44.71.19.1.39.19.59.25-.17-.13-.35-.24-.55-.34-.35-.19-.84-.46-1.41-.76l-.08-.04-.03.08c-.09.22-.15.44-.18.67-.16.55.17,1.13.72,1.29.19.05.4.05.59,0,.22-.05.41-.18.53-.36.05-.06.09-.13.1-.21Z"></path>
        <path class="cls-13" d="m132.32,143.02l-.33,6.74s6.74,2.6,6.8,3.85l-13.09-.17.08-10.52,6.54.1Z"></path>
        <path class="cls-10" d="m127.95,149.13c-.27.08-.43.34-.38.62.07.26.33.42.6.36.28-.08.45-.36.4-.64-.1-.27-.39-.42-.67-.33"></path>
        <path class="cls-12" d="m125.7,153.43l.05-1.06,12.53.56s.58.26.51.67l-13.08-.17Z"></path>
        <path class="cls-3" d="m132.2,149.68c0,.06-.32.09-.64.29s-.49.47-.55.44.04-.39.43-.63.77-.16.76-.1Z"></path>
        <path class="cls-3" d="m133.57,150.27c0,.06-.27.17-.48.43s-.29.55-.35.55-.1-.36.18-.69.65-.35.65-.29Z"></path>
        <path class="cls-3" d="m134.33,151.92c-.06,0-.14-.31.03-.66s.47-.48.5-.43-.16.24-.31.53-.15.55-.22.56Z"></path>
        <path class="cls-3" d="m132.11,148.14c-.03.06-.31-.03-.68-.02s-.64.13-.68.08.24-.28.67-.31.72.2.69.25Z"></path>
        <path class="cls-13" d="m116.9,145.26l-.71,8.13,1.29,6.59c.09.45-.21.89-.66.98-.02,0-.04,0-.06,0h0c-.27.04-.54-.06-.72-.26-1.16-1.27-5.43-5.97-5.35-6.56.1-.69.18-8.63.18-8.63l6.02-.26Z"></path>
        <path class="cls-12" d="m116.77,160.98l-6.03-7.38-.02.35c-.02.3.06.6.24.84.48.64,1.85,2.38,5.07,5.93.19.21.47.31.75.27h0Z"></path>
        <g class="cls-15">
          <path class="cls-3" d="m112.57,151.08c.2.17.24.45.1.67-.16.21-.45.25-.66.1-.21-.18-.25-.48-.1-.71.19-.2.5-.21.7-.03"></path>
        </g>
        <path class="cls-3" d="m115.13,157.3c.21-.24.47-.44.76-.59.31-.1.63-.14.95-.12,0-.02-.09-.09-.28-.13-.51-.09-1.02.13-1.32.55-.1.16-.13.28-.1.29Z"></path>
        <path class="cls-3" d="m115.64,158.43c.24-.12.49-.22.75-.31.27-.03.53-.05.8-.05-.24-.18-.56-.22-.84-.12-.49.12-.75.46-.71.48Z"></path>
        <path class="cls-3" d="m114.14,155.83s.46-.34,1.12-.55c.4-.1.82-.17,1.23-.2-.42-.14-.87-.13-1.28.03-.43.1-.81.36-1.07.72Z"></path>
        <path class="cls-3" d="m114.15,153.34s.48-.11,1.07-.09,1.04.19,1.06.14-.43-.31-1.06-.31c-.38-.04-.76.05-1.07.26Z"></path>
        <path class="cls-3" d="m114.3,150.95c.72-.24,1.51-.16,2.17.22,0-.02-.07-.13-.25-.25-.49-.31-1.09-.37-1.63-.16-.2.08-.3.17-.29.19Z"></path>
        <path class="cls-3" d="m115.42,150.37c.03-.1.04-.2.03-.31-.01-.28-.08-.56-.19-.82-.07-.2-.2-.37-.38-.48-.13-.07-.28-.05-.38.05-.09.1-.15.23-.15.36,0,.57.4,1.05.96,1.16.55.09,1.1-.16,1.39-.63.07-.12.09-.26.05-.39-.06-.13-.19-.21-.33-.2-.2.03-.39.12-.55.24-.23.16-.43.37-.6.6-.07.08-.11.17-.14.27.23-.29.5-.55.81-.77.14-.1.31-.17.49-.2.08,0,.15.03.18.1.02.09,0,.18-.05.26-.27.4-.74.6-1.21.53-.47-.09-.81-.49-.83-.97,0-.09.04-.18.1-.26.06-.05.14-.07.21-.03.15.1.26.24.33.4.15.34.25.7.28,1.08Z"></path>
        <path class="cls-13" d="m138.47,87.89c.63,2.79.84,5.67.63,8.52-.14,1.81-6.25,51.93-6.25,51.93h-8.25l2.32-47.1-.67.15s-4.51,20.09-4.87,23.34c-.33,2.92-4.38,25.9-4.38,25.9l-7.79-.09,2.9-29.66,2.8-26.96,1.05-7.85,22.51,1.81Z"></path>
        <path class="cls-13" d="m126.12,96.44c.11.08.22.14.35.19.32.16.67.28,1.02.36.25.04.51.04.76,0,.3-.05.57-.18.8-.38.23-.23.4-.53.48-.84.09-.33.16-.66.22-.99.27-1.36.44-2.6.55-3.5.05-.45.09-.82.1-1.07.01-.13.01-.26,0-.39-.04.13-.07.26-.08.39-.04.29-.1.64-.16,1.06-.13.89-.33,2.13-.59,3.48-.14.67-.22,1.35-.64,1.75-.39.33-.92.47-1.42.37-.35-.06-.69-.17-1.02-.31-.12-.05-.23-.09-.36-.11Z"></path>
        <path class="cls-13" d="m128.61,90.05s-.05-.04-.17-.05c-.17,0-.33.05-.46.15-.21.15-.34.38-.35.64.03.45.42.79.87.76.2-.01.38-.1.52-.24.16-.2.22-.46.16-.71-.03-.16-.12-.31-.25-.42-.09-.07-.16-.08-.16-.07.15.14.25.32.29.51.03.21-.02.42-.16.58-.27.25-.7.23-.94-.05-.09-.1-.15-.23-.17-.37,0-.21.1-.41.27-.54.16-.12.35-.19.55-.19Z"></path>
        <path class="cls-13" d="m115.53,93.45c.09.03.19.05.28.05.26.02.52.02.77,0,1.72-.1,3.35-.79,4.62-1.95.19-.17.37-.36.53-.56.12-.14.18-.22.17-.23s-.29.28-.78.7c-1.29,1.09-2.88,1.76-4.56,1.92-.63.07-1.03.05-1.03.08Z"></path>
        <path class="cls-13" d="m135.59,90.2c.09.29.22.58.38.84.35.64.78,1.24,1.28,1.78.48.53,1.02.99,1.62,1.38.23.17.49.31.76.4-.22-.18-.46-.35-.7-.51-.57-.42-1.09-.89-1.57-1.4-.48-.53-.91-1.11-1.29-1.72-.14-.27-.3-.52-.47-.77Z"></path>
        <path class="cls-9" d="m174.75,51.88l.18-14.37c.16-3.57-1.79-6.64-5.36-6.7h-.33c-3.33.14-6,2.81-6.13,6.14-.12,3.08-.22,6.52-.13,8.18.18,3.43,3.63,3.82,3.63,3.82,0,0,.02,2.09.02,3.08l-.81,2.35,2.82-.69,6.1-1.81Z"></path>
        <path class="cls-11" d="m166.63,48.95c1.58-.07,3.11-.59,4.41-1.5,0,0-.97,2.62-4.4,2.47v-.96Z"></path>
        <path class="cls-13" d="m164.86,40.03c0,.27.23.48.49.47.26.01.48-.19.49-.45,0,0,0,0,0-.01,0-.27-.23-.48-.49-.47-.26-.01-.48.19-.49.45,0,0,0,0,0,.01Z"></path>
        <path class="cls-13" d="m163.9,38.44c.06.06.42-.23.95-.25s.92.23.98.16-.04-.14-.21-.26c-.23-.15-.51-.22-.79-.21-.27.01-.54.11-.75.28-.16.13-.21.25-.18.28Z"></path>
        <path class="cls-13" d="m169.85,39.91c0,.27.23.48.49.47.26.01.47-.19.48-.45,0,0,0-.01,0-.02,0-.27-.23-.48-.5-.47,0,0,0,0,0,0-.26,0-.47.2-.47.46h0Z"></path>
        <path class="cls-13" d="m169.07,38.35c.06.06.43-.23.95-.25s.92.23.98.16-.04-.14-.21-.26c-.23-.15-.51-.22-.79-.21-.28,0-.54.11-.76.28-.15.13-.21.25-.18.27Z"></path>
        <path class="cls-13" d="m167.35,42.47c-.28-.08-.57-.12-.86-.12-.14,0-.27-.03-.31-.12-.02-.14,0-.28.07-.4.11-.33.23-.68.36-1.04.49-1.48.84-2.7.78-2.71s-.51,1.16-1,2.65l-.34,1.04c-.08.17-.09.35-.05.53.04.09.13.16.23.19.08.02.15.03.23.02.29.03.59.02.88-.03Z"></path>
        <path class="cls-13" d="m168.83,36.7c.08.13.58-.03,1.2-.07s1.14.04,1.2-.1c.02-.07-.09-.18-.31-.28-.29-.12-.61-.17-.92-.14-.32.02-.64.13-.91.3-.2.12-.31.25-.26.31Z"></path>
        <path class="cls-13" d="m163.81,36.89c.11.12.54-.02,1.05-.04s.96.06,1.05-.07c.04-.06-.03-.18-.22-.29-.27-.13-.56-.19-.86-.17-.3.01-.59.1-.84.26-.18.12-.24.25-.19.31Z"></path>
        <path class="cls-9" d="m174.75,40.06c.06-.03,2.33-.8,2.35,1.54s-2.34,1.88-2.34,1.82,0-3.36,0-3.36Z"></path>
        <path class="cls-11" d="m175.46,42.54s.04.03.11.06c.1.04.21.04.31,0,.25-.09.45-.49.46-.92,0-.2-.04-.4-.12-.58-.05-.15-.16-.26-.31-.31-.1-.03-.2.02-.24.11-.03.06,0,.11-.03.12s-.05-.04-.03-.14c.01-.06.04-.11.09-.15.06-.05.14-.07.22-.06.2.04.36.17.43.36.1.2.15.43.15.65,0,.47-.25.92-.59,1.02-.13.04-.26.02-.37-.06-.08-.05-.09-.08-.08-.1Z"></path>
        <path class="cls-13" d="m169,42.8c-.08,0-.08.53-.55.92s-1.04.31-1.04.39.13.1.37.11c.32,0,.63-.11.87-.31.24-.18.4-.45.44-.75,0-.24-.06-.37-.09-.37Z"></path>
        <path class="cls-13" d="m158.37,33.87c.04-.14.13-.26.26-.33.27-.13.58-.18.88-.15.75-.02,1.48-.22,2.14-.56-.23-.11-.45-.26-.64-.44-.41-.37-.58-.93-.44-1.46.02-.1.09-.18.18-.22.15-.05.29.1.39.22.28.37.74.56,1.2.49.31-.02.62-.11.89-.26l.03-.03.35-.37h0c.88-.88,1.63-1.5,2.4-1.82,1.14-.47,3.06-.68,4.26-.38,1.2.3,2.28,1.26,2.47,2.47.66-.57,1.67-.58,2.49-.26h.02c.92.31,1.44,1.27,1.72,2.19,0,.05.03.1.04.15.31.49.73.89,1.23,1.18.09.05.19.11.2.21s-.07.18-.15.24c-.22.16-.47.26-.73.31.08.22.19.43.31.63.1.17.23.38.14.56-.08.14-.24.21-.4.18-.15-.03-.3-.1-.43-.18l.31.72c-.33.06-.67.04-.99-.06-.18.87-.31,2.47-.53,3.07-.62.02-.78-.05-1.09.06-.41.14-.24.86-.77.66-.27-.1-.7-1.12-.79-1.39-.62-1.82-.84-3.76-.64-5.67-.38-.4-.84-.72-1.34-.94l.04.03c-.96-.31-2.05-.64-2.96-.18-.7.36-1.11,1.09-1.63,1.69-.89,1.09-2.2,1.75-3.61,1.81-.12,1.04-.14,2.73-.18,3.7l-.85-1.92h0c-.07-.11-.13-.22-.18-.34l-.02-.04h0c-.08-.19-.18-.37-.28-.55h0c-.28.2-.66.13-.86-.14-.14-.19-.15-.44-.04-.65.08-.12.18-.22.29-.31-.24.24-.58.33-.91.25-.33-.09-.55-.4-.54-.74.02-.23.17-.42.38-.51-.43.04-.86-.05-1.23-.26-.24-.12-.47-.34-.4-.65Z"></path>
        <path class="cls-12" d="m171.66,31.41c.12.09.24.2.35.31.27.33.46.72.54,1.13.06.29.1.58.1.87,0,.31,0,.66-.04,1.01-.02.37-.02.75,0,1.12.01.2.04.4.08.59.03.21.12.41.25.57.12.13.31.19.49.16.17-.03.32-.12.43-.25.18-.26.28-.56.31-.88h-.07c.11.26.25.5.43.71.17.2.41.33.67.35.12.01.24,0,.35-.06.1-.05.18-.14.24-.24.05-.09.07-.2.07-.31,0-.1-.04-.19-.11-.27l-.04.03c.21.23.46.42.74.55.1.04.18.07.23.09l.08.02s-.05-.02-.08-.03c-.05-.02-.13-.05-.22-.1-.27-.14-.52-.32-.72-.55l-.04.03c.12.15.13.35.03.51-.05.09-.12.16-.21.21-.1.05-.2.07-.31.06-.24-.03-.46-.15-.62-.34-.17-.21-.31-.45-.41-.7l-.05-.11-.02.12c-.03.3-.13.59-.31.84-.1.11-.24.19-.39.22-.15.03-.31-.02-.41-.13-.12-.16-.2-.34-.23-.54-.04-.19-.07-.39-.08-.58-.02-.37-.02-.74,0-1.12.02-.36.04-.7.03-1.02,0-.3-.04-.59-.11-.88-.09-.42-.28-.82-.57-1.14-.11-.11-.24-.21-.39-.27Z"></path>
        <path class="cls-12" d="m161.08,34.88l.03.02.09.06s.09.07.14.09c.07.04.14.08.21.11.46.2.97.29,1.47.25.75-.06,1.47-.33,2.06-.79.72-.56,1.32-1.27,1.76-2.07.24-.42.44-.85.66-1.23.2-.39.45-.74.76-1.05.27-.28.61-.5.98-.62.17-.05.34-.07.52-.06.16,0,.33.04.48.09.27.09.51.23.72.42.16.14.29.31.39.5.08.16.14.33.18.51,0-.01,0-.02,0-.03,0-.03,0-.06-.02-.1-.03-.13-.08-.26-.14-.39-.1-.19-.23-.37-.39-.52-.21-.2-.47-.35-.74-.44-.16-.05-.33-.08-.5-.09-.18,0-.37.01-.54.06-.39.12-.74.33-1.02.62-.31.32-.57.68-.77,1.07-.22.4-.42.83-.67,1.23-.43.79-1.02,1.49-1.73,2.05-.59.45-1.29.73-2.02.79-.5.04-1-.03-1.46-.22-.16-.08-.32-.16-.47-.25Z"></path>
        <path class="cls-12" d="m160.75,33.37s.04.03.12.09c.12.07.24.13.37.18.19.08.38.14.58.18.24.05.49.08.74.09.25,0,.5-.02.74-.06.2-.04.4-.09.59-.16.13-.04.26-.1.38-.17.04-.02.09-.05.13-.08,0,0-.19.09-.52.19-.19.06-.38.11-.58.14-.24.04-.49.05-.73.05-.24,0-.49-.04-.72-.08-.2-.04-.39-.09-.57-.16-.32-.12-.51-.22-.51-.21Z"></path>
        <path class="cls-12" d="m161.98,143.15l.26,6.73s-6.76,2.52-6.83,3.77l13.07-.02.03-10.51-6.53.03Z"></path>
        <path class="cls-10" d="m166.28,149.31c.26.08.42.35.37.62-.07.26-.33.43-.6.37-.28-.09-.44-.36-.39-.65.1-.27.4-.4.67-.31"></path>
        <path class="cls-13" d="m168.48,153.62l-.04-1.06-12.52.42s-.58.25-.51.66l13.07-.02Z"></path>
        <path class="cls-3" d="m162.03,149.82c0,.06.31.09.63.31s.48.47.54.45-.04-.39-.42-.63-.77-.18-.76-.12Z"></path>
        <path class="cls-3" d="m160.65,150.39c0,.06.26.17.48.44s.28.56.34.55.1-.37-.17-.7-.65-.36-.65-.3Z"></path>
        <path class="cls-3" d="m159.88,152.03c.06,0,.14-.31-.02-.66s-.47-.49-.49-.43.16.24.29.53.16.55.22.56Z"></path>
        <path class="cls-3" d="m162.14,148.27c.03.06.31-.03.68,0s.64.14.67.08-.24-.28-.66-.31-.72.18-.69.22Z"></path>
        <path class="cls-12" d="m177.66,143.57l.37,8.14-1.57,6.52c-.11.45.17.9.61,1.01.02,0,.04,0,.06.01h0c.27.05.54-.04.73-.23,1.23-1.23,5.55-5.79,5.57-6.23.03-.69.23-8.71.23-8.71l-6-.52Z"></path>
        <path class="cls-13" d="m177.13,159.25l6.33-7.1v.35c0,.3-.1.59-.28.82-.51.62-1.94,2.3-5.31,5.71-.2.2-.48.28-.75.23h0Z"></path>
        <g class="cls-15">
          <path class="cls-3" d="m181.73,149.55c-.2.16-.26.44-.12.66.15.21.44.27.66.13.22-.17.27-.47.13-.7-.18-.2-.49-.23-.7-.06"></path>
        </g>
        <path class="cls-3" d="m178.91,155.65s-.24-.4-.73-.62c-.3-.11-.62-.17-.94-.16,0-.02.1-.09.29-.12.25-.03.5,0,.73.11.23.11.42.27.56.49.1.16.11.29.09.29Z"></path>
        <path class="cls-3" d="m178.36,156.75s-.31-.22-.73-.33c-.26-.04-.53-.07-.8-.09.25-.16.57-.2.84-.09.48.13.72.48.68.51Z"></path>
        <path class="cls-3" d="m179.96,154.23c-.35-.22-.71-.42-1.09-.59-.4-.12-.8-.2-1.21-.26.87-.19,1.77.14,2.31.85Z"></path>
        <path class="cls-3" d="m180.06,151.74s-.47-.13-1.06-.14-1.05.14-1.07.09c.31-.21.69-.31,1.07-.27.38-.02.75.09,1.06.32Z"></path>
        <path class="cls-3" d="m180.01,149.35c-.36-.11-.73-.16-1.1-.17-.37.05-.73.16-1.08.31,0-.02.07-.12.26-.23.5-.29,1.1-.32,1.63-.09.2.08.3.17.28.19Z"></path>
        <path class="cls-3" d="m178.92,148.72s-.03-.11-.02-.31c.02-.28.1-.56.23-.81.08-.19.22-.36.4-.46.13-.06.28-.04.38.06.09.1.14.23.14.37-.02.57-.45,1.03-1.01,1.11-.55.07-1.09-.2-1.36-.68-.07-.12-.08-.26-.03-.39.06-.13.2-.21.34-.18.2.04.39.13.55.27.22.17.42.38.57.62.06.08.11.18.13.28-.22-.3-.48-.57-.78-.8-.14-.11-.3-.19-.48-.22-.08-.01-.15.03-.18.1-.03.09-.02.18.03.26.25.41.71.63,1.19.58.47-.07.83-.45.87-.92,0-.09-.03-.19-.09-.26-.05-.06-.14-.07-.21-.04-.15.09-.27.22-.34.39-.17.33-.28.69-.32,1.06Z"></path>
        <path class="cls-13" d="m157.96,86.84c-.75,2.76-1.08,5.62-.99,8.48.06,1.81,4.04,52.08,4.04,52.08l8.23.35-.32-47.09.67.18s3.65,20.23,3.87,23.49c.21,2.93,3.1,24.28,3.1,24.28l7.5-.21-1.19-27.52-1.66-27.01-.72-7.89-22.54.85Z"></path>
        <path class="cls-12" d="m170.42,95.91c-.11.07-.23.13-.35.18-.33.15-.68.25-1.04.31-.25.03-.51.03-.76-.03-.29-.06-.56-.2-.78-.42-.22-.24-.38-.54-.45-.86-.08-.32-.12-.66-.18-1-.21-1.37-.33-2.61-.4-3.52-.03-.45-.05-.82-.06-1.07-.02-.13-.02-.26,0-.39.03.13.05.26.06.39.03.29.07.64.11,1.07.1.9.24,2.14.45,3.5.1.67.16,1.36.56,1.78.38.35.9.51,1.41.43.35-.04.69-.13,1.02-.26.12-.05.25-.09.38-.11Z"></path>
        <path class="cls-12" d="m168.22,89.43s.06-.04.17-.04c.17,0,.33.06.46.17.2.16.31.4.31.65-.05.45-.46.77-.91.72-.19-.02-.37-.11-.5-.26-.15-.21-.2-.47-.13-.71.04-.16.14-.3.27-.41.1-.06.16-.07.16-.06-.15.13-.26.3-.31.5-.04.2,0,.42.13.58.17.19.44.25.67.16.24-.07.42-.27.45-.52,0-.21-.09-.41-.24-.55-.15-.13-.34-.2-.54-.22Z"></path>
        <path class="cls-12" d="m181.11,93.37c-.09.03-.19.04-.28.03-.26.01-.52,0-.77-.02-.85-.09-1.69-.32-2.47-.68-.77-.36-1.48-.86-2.08-1.46-.19-.18-.36-.38-.51-.58-.11-.14-.16-.23-.15-.24s.28.31.75.73c1.24,1.14,2.8,1.88,4.47,2.11.65.09,1.05.08,1.05.11Z"></path>
        <path class="cls-12" d="m161.24,89.28c-.12.29-.28.57-.47.82-.43.63-.93,1.21-1.5,1.71-.57.51-1.2.94-1.87,1.3-.27.16-.56.28-.87.37.26-.17.53-.33.81-.47.65-.38,1.25-.83,1.82-1.33.56-.5,1.07-1.05,1.52-1.65.18-.26.36-.51.57-.75Z"></path>
        <path class="cls-2" d="m123.93,51.11l.63-1.09,5.58,5.31.87,1.57c.05-.07.84-1.69.84-1.69l1.19-1.78.45.62,3.13,33.63s-3.28,1.21-5.97,1.3-5.57,0-5.57,0c0,0-2.74-4.18-2.74-4.36s2.14-25.64,2.14-25.64l-.56-7.87Z"></path>
        <path class="cls-8" d="m127.05,59.62c-.65-2.75-3.39-9.18-3.39-9.18l-2.02,2.6s-6.07,2.39-6.43,2.67,1.45,18.72,1.45,18.72l-1.49,5.21-5.03,18.26s7.94,2.47,10.9,1.88,3.36-4.23,3.86-6.11,2.47-15.54,2.82-21.26c.35-5.72,0-10.04-.66-12.79Z"></path>
        <path class="cls-13" d="m127.6,73.81c-.04-.07-.07-.15-.09-.22l-.23-.66-.81-2.44c-.68-2.07-1.6-4.93-2.63-8.06-.35-1.09-.69-2.16-1.01-3.15v-.04l.03-.03,1.27-1.45.06.12h-2.01v-.06c-.16-1.44-.31-2.63-.39-3.48-.04-.4-.07-.72-.1-.96,0-.1-.02-.18-.02-.25,0-.03,0-.06,0-.09.01.03.02.05.02.08l.04.25c.03.23.08.55.13.96.11.85.27,2.03.45,3.47l-.06-.06h2.11l-.1.12-1.26,1.45.02-.08,1.02,3.15c1.01,3.14,1.92,5.99,2.58,8.07.31,1.02.58,1.85.77,2.47.08.28.15.5.2.67.02.07.03.13.04.2Z"></path>
        <path class="cls-8" d="m133.48,53.82c.08.17.96,1.58.96,1.58,0,0,4.02.86,4.91,2.01s1.28,4.06,1.28,4.06l-1.16,13.48-.62,9.45s.77,10.68.88,12.41-.21,3.7-.88,3.61-.99.25-1.32-1.6-2.67-17.3-2.67-17.3l-.94-13.43-.86-10.48.43-3.8Z"></path>
        <path class="cls-13" d="m135.31,74.72c0-.07,0-.13,0-.2.02-.15.03-.34.06-.57.06-.52.15-1.23.25-2.11.23-1.8.54-4.24.89-6.95.16-1.2.31-2.36.45-3.42l.03.07-1.46-1.2-.05-.04.04-.05.55-.7v.07l-1.18-2.41-.31-.67c-.04-.08-.07-.15-.1-.24.05.07.1.14.13.22l.34.65,1.23,2.39.02.03-.02.03-.54.7v-.1l1.47,1.19.03.03v.04c-.14,1.06-.29,2.22-.44,3.42-.36,2.7-.69,5.15-.92,6.94-.13.87-.23,1.58-.31,2.1-.04.23-.06.43-.09.57-.01.07-.04.14-.07.2Z"></path>
        <path class="cls-13" d="m114.97,85.23c0,.07-.03.14-.05.21-.04.14-.09.33-.15.57s-.14.55-.24.88c-.05.17-.1.35-.15.55-.08.19-.11.39-.09.59.06.21.24.37.46.41l.74.22c.51.15,1.05.31,1.63.46s1.18.31,1.81.46c.31.07.64.14.97.19.16.02.33.05.5.06.08,0,.16,0,.24,0,.04,0,.07,0,.11-.02.03,0,.06-.03.08-.05.17-.2.29-.45.34-.71.07-.26.13-.52.17-.79.08-.53.13-1.04.16-1.54l.06.08-4.71-1.1-1.37-.34-.37-.09s-.09-.02-.13-.04l.12.02.36.07,1.37.29,4.77,1.04h.06v.06c-.03.5-.07,1.02-.16,1.54-.04.28-.09.56-.16.83-.06.29-.19.56-.39.79-.04.04-.08.07-.14.08-.05.01-.1.02-.14.02-.09,0-.18,0-.27,0-.18,0-.35-.03-.51-.06-.34-.05-.66-.12-.98-.19-.63-.14-1.23-.31-1.82-.47s-1.12-.31-1.63-.47l-.73-.23c-.13-.03-.24-.09-.34-.18-.09-.09-.16-.2-.19-.32-.03-.12-.03-.24,0-.35.03-.1.06-.21.09-.31.06-.2.12-.38.17-.56l.27-.88c.07-.22.13-.41.17-.55.02-.06.04-.12.06-.17Z"></path>
        <path class="cls-13" d="m140.35,60.49c.03.17.04.34.04.52.02.33.02.82.02,1.41,0,1.19-.1,2.84-.27,4.65s-.34,3.45-.44,4.64c-.04.57-.08,1.05-.11,1.41,0,.17-.02.35-.06.52-.01-.17-.01-.35,0-.52,0-.33.02-.82.06-1.41.06-1.19.22-2.83.39-4.64s.28-3.45.31-4.64c.02-.59.02-1.08.03-1.41,0-.17,0-.35.02-.52Z"></path>
        <g class="cls-14">
          <path d="m132.53,80.56c-3.07,0-6.13-.25-9.16-.76l-7.64-.96c-.14,2.44,1.63,4.58,4.06,4.91,1.23.16,2.47-.17,3.7-.39,2.1-.38,4.25-.42,6.38-.54.7-.04,1.43-.1,2.02-.47s.98-1.18.65-1.79Z"></path>
        </g>
        <path class="cls-8" d="m115.2,55.72s-2.16,1.37-2.6,3.54,1.05,13.4,1.63,15.9c.85,3.67,2.73,6.8,4.5,7.02s13.19-.87,13.19-.87l.96-6.2-10.79-.82-.51-.67-1.25-10.1"></path>
        <path class="cls-13" d="m120.33,63.53c.01.06.02.12.03.18.02.12.04.31.07.52.06.46.15,1.13.26,2,.22,1.74.54,4.27.94,7.4v-.02l.51.67-.04-.02,10.79.81h.08v.08c-.31,1.97-.62,4.05-.96,6.2v.06h-.06c-2.3.22-4.69.43-7.14.62-1.21.09-2.42.17-3.6.23-.59.03-1.18.06-1.77.05h-.66c-.07,0-.15-.03-.22-.05-.29-.07-.56-.2-.81-.37-.47-.34-.88-.76-1.22-1.23-.34-.45-.63-.93-.89-1.43-.5-.96-.9-1.98-1.19-3.02-.28-.99-.49-2-.63-3.03-.16-.99-.31-1.95-.42-2.88-.25-1.85-.45-3.6-.62-5.19s-.26-3.03-.28-4.31c-.03-.59.02-1.19.14-1.77.13-.48.34-.94.62-1.36.38-.57.85-1.09,1.38-1.52.13-.12.26-.23.4-.33.05-.03.1-.07.15-.1l-.14.11c-.1.07-.24.18-.42.34-.52.44-.98.96-1.35,1.54-.27.41-.47.87-.59,1.34-.12.57-.16,1.16-.12,1.75.03,1.26.14,2.7.31,4.29s.37,3.32.62,5.18c.13.93.27,1.89.43,2.88.14,1.02.35,2.03.63,3.02.29,1.04.69,2.04,1.19,3,.25.49.54.96.88,1.41.33.46.73.86,1.18,1.19.23.16.49.27.76.34.07,0,.13.03.2.04h.64c.58,0,1.17-.02,1.76-.05,1.18-.06,2.38-.14,3.6-.23,2.45-.18,4.84-.39,7.14-.62l-.07.06c.33-2.16.66-4.23.96-6.19l.07.08-10.79-.84h-.02l-.02-.02-.49-.63h0c-.38-3.14-.68-5.66-.89-7.41-.1-.87-.18-1.54-.23-2-.02-.22-.04-.39-.06-.52-.02-.16-.02-.22-.02-.22Z"></path>
        <path class="cls-13" d="m120.24,61.26s0-.42-.17-1.07c-.4-1.74-1.75-3.09-3.48-3.51-.65-.16-1.08-.14-1.07-.17.1-.02.19-.03.29-.02.27,0,.54.03.8.09,1.81.37,3.21,1.78,3.57,3.59.05.26.08.53.08.8,0,.1,0,.2-.02.29Z"></path>
        <path class="cls-12" d="m149.73,73.99c0-.26.09-.52.22-.75.2-.22,1.07-.37,1.07-.37l2.88-4.35.28-2.63,1.13-7.81s2.18-3.99,5-4.22c1.15-.09-.18,8.42-.29,8.97-.02.11-1.08,11.51-1.08,11.51l-.7,4.03s-2.24.85-3.06,1.23-1.27-.1-1.27-.1l-4.2-5.51Z"></path>
        <path class="cls-13" d="m177.13,85.88c-.05.03-.11.06-.17.08l-.49.2c-.42.17-1.04.39-1.82.65s-1.71.52-2.76.79-2.21.5-3.44.69-2.41.31-3.49.39-2.05.1-2.87.09-1.48-.02-1.93-.06l-.52-.04c-.06,0-.12,0-.18-.02.06,0,.12,0,.18,0h.53c.45,0,1.11.02,1.93,0s1.78-.05,2.86-.13,2.25-.21,3.48-.4,2.39-.43,3.43-.68,1.98-.51,2.76-.76,1.41-.45,1.83-.6l.5-.17c.06-.02.12-.03.18-.04Z"></path>
        <path class="cls-12" d="m160.32,53.87l6.75-2.22s-.03,1.82,2.59,1.87c3.02.07,5.55-2.59,5.55-2.59,0,0,6.28,1.96,7.61,3.02s-2.99,23.3-2.99,23.3l-.39,6.62c.39.68.61,1.44.65,2.22,0,1.15.04,1.92.04,1.92-8.06,2.43-16.05,4.54-23.42,2.18,0,0,.18-3.9.62-4.97s.35-1.16.35-1.16l.72-12.23.13-9.2,1.82-8.76Z"></path>
        <path class="cls-12" d="m182.88,53.96c1.32,1.02,2.22,2.48,2.55,4.11.55,2.77,1.76,18.78,1.76,18.78l-7.69-.28s-1.54-13.25-1.54-13.56,1.66-6.89,1.76-7.04,3.16-2.02,3.16-2.02Z"></path>
        <path class="cls-13" d="m181.42,54.1c-.48.33-.94.69-1.38,1.08-.4.43-.77.88-1.12,1.35.48-1.11,1.37-1.98,2.49-2.43Z"></path>
        <path class="cls-9" d="m186.43,76.84v1.91c0,1.42-3.08,16.24-3.08,16.24l-4.58-1.54,1.61-14.41.07-2.42,5.98.22Z"></path>
        <path class="cls-9" d="m178.67,94.47s-1.83,1.38-2.23,1.93-1.39,2.49-2.13,3.06c.04.31.32.52.62.48.09-.01.18-.05.26-.1.75-.42,1.41-.99,1.93-1.68.31-.47.64-.2.66.22s-.34,3.22-.34,3.22c0,0-.88,3.12-.64,3.47.19.25.54.31.8.13.03-.03.07-.05.09-.09.12-.16,1.11-2.77,1.11-2.77l.25-1.42s-.51,4.49-.22,4.84c.15.23.46.28.68.13.04-.03.07-.06.1-.09.19-.18.4-2.16.4-2.16l.46-2.65-.08,5.06s.05.48.43.5.62-.54.62-.54l.55-5.2s-.18,2.89.02,3.04c.26.2.5.14.58-.09.18-.45.43-3.05.43-3.05l.24-4.95.26-2.39-4.62-.31-.22,1.41Z"></path>
        <path class="cls-12" d="m165.56,52.86c.1-.67,1.01-2.67,1.01-2.67l1.8,2.32h0l6.37-3.83,1.57,2.61-5.02,3.47-2.54-.39-1.97-.36-1.22-1.15Z"></path>
        <path class="cls-13" d="m177.98,62.28s.32,2.47.62,5.52.51,5.53.46,5.55-.32-2.47-.62-5.52-.51-5.53-.46-5.54Z"></path>
        <path class="cls-13" d="m187.18,76.85c-.06.01-.12.02-.19.02h-.54c-.47,0-1.15,0-1.98-.05s-1.83-.08-2.94-.1h-.85c-.31,0-.61-.07-.89-.22-.28-.17-.49-.43-.62-.73-.13-.3-.22-.61-.27-.92-.07-.32-.09-.64-.06-.96,0-.16.04-.32.1-.47.03-.08.07-.16.13-.22.06-.07.14-.12.23-.14.15-.03.31-.05.46-.06l.44-.02.85-.03c1.11-.03,2.11-.02,2.94,0l1.98.03.54.02c.06,0,.13,0,.19.02-.06.01-.12.02-.19.02l-.54.02-1.98.02c-.84,0-1.83,0-2.94.04l-.85.04-.44.02c-.14,0-.29.02-.43.05-.25.06-.31.41-.34.69-.02.31,0,.62.06.92.05.31.13.6.25.89.11.27.3.5.55.66.5.29,1.12.18,1.66.21,1.11.02,2.1.09,2.94.13s1.51.08,1.98.1l.54.02c.06,0,.13,0,.19,0Z"></path>
        <path class="cls-13" d="m158.35,60.49c0,.07,0,.14,0,.22,0,.16,0,.36-.02.62-.02.55-.05,1.33-.08,2.27-.07,1.92-.16,4.56-.21,7.49s-.07,5.57-.07,7.49v2.89c0,.07,0,.14-.02.22-.01-.07-.02-.14-.02-.22,0-.16,0-.36-.02-.62-.02-.54-.03-1.31-.05-2.27-.03-1.92-.03-4.57.02-7.49s.16-5.57.26-7.49c.05-.96.1-1.73.14-2.27.02-.26.03-.46.05-.62,0-.07,0-.14.02-.21Z"></path>
        <path class="cls-13" d="m156.46,78.3s-.18-.42-.48-1.1c-.36-.89-.87-1.71-1.49-2.44-.63-.72-1.46-1.23-2.39-1.48-.39-.08-.79-.11-1.18-.1.1-.03.2-.05.31-.06.3-.02.59,0,.88.05.97.21,1.84.73,2.49,1.48.63.74,1.13,1.59,1.47,2.51.14.35.23.63.31.83.04.1.07.21.08.31Z"></path>
        <path class="cls-13" d="m155.77,69.94c-.66-.19-1.26-.55-1.75-1.03.32.13.62.29.89.49.3.15.59.33.86.55Z"></path>
        <path class="cls-13" d="m176.23,51.29s-.08.08-.12.11c-.08.07-.21.18-.37.31-.32.26-.8.62-1.41,1.06-1.61,1.14-3.3,2.14-5.08,2.99l-.06.03-.04-.06c-.08-.12-.16-.25-.24-.39-.38-.65-.66-1.36-.82-2.1h.15c-.1.49-.28.95-.54,1.37-.22.38-.45.76-.71,1.12l-.07.1-.04-.12c-.37-1.05-.68-1.93-.91-2.56-.1-.29-.18-.53-.24-.71-.03-.08-.06-.17-.07-.26.05.08.08.16.11.24l.28.7c.24.63.56,1.5.96,2.55h-.12c.23-.34.47-.71.69-1.11.24-.41.42-.85.51-1.32l.06-.44.1.43c.16.72.43,1.42.8,2.06.07.13.15.26.23.38l-.1-.03c1.77-.85,3.47-1.83,5.08-2.94.62-.42,1.11-.78,1.44-1.02l.39-.28s.09-.08.14-.11Z"></path>
        <path class="cls-13" d="m166.94,90.82v-.36c0-.25,0-.59.02-1.02.02-.9.06-2.18.1-3.76.1-3.19.24-7.57.4-12.41s.33-9.23.45-12.41c.06-1.58.12-2.86.15-3.76.02-.43.04-.78.05-1.02l.02-.27s0-.06,0-.09c0,.03,0,.06,0,.09v.27c0,.24,0,.59-.02,1.02-.02.9-.06,2.18-.1,3.76-.1,3.19-.24,7.57-.4,12.41s-.33,9.23-.44,12.41c-.06,1.58-.12,2.86-.15,3.76-.02.43-.04.78-.05,1.02l-.02.27s0,.06,0,.09Z"></path>
        <path class="cls-5" d="m154.73,62.13s1.1-.9,1.32-2.02.59-2.39.59-2.39c0,0,1.34-.76,1.3-1.3s-.72-.72-.72-.72c-.67.38-1.29.84-1.85,1.37-.65.69-2.29,3.81-2.29,3.81l1.66,1.25Z"></path>
        <path class="cls-9" d="m140.44,75.84s2.93.14,3.91-.08,5.92-1.94,5.92-1.94c0,0,3.98,2.18,4.23,3.74s-.33,2.07-.33,2.07l-12.98.68-1.83-1.54,1.08-2.92Z"></path>
        <path class="cls-5" d="m135.58,75.84h2.23s6.1,3.25,6.31,3.64c.31.58.22.95-.41.85-.36-.06-3.25-1.45-3.25-1.45l-.07.24s1.45,1.36,1.45,1.77-.36,1.14-.99.9c0,0-.31.92-.68,1.07-.25.08-.52.08-.78,0,0,0-.24.56-.7.56-.34-.03-.66-.17-.92-.39l-2.47-2.4-3.18-.05.76-4.96,2.71.22Z"></path>
        <path class="cls-7" d="m138.85,81.97s.18.14.31.36.22.42.18.44-.18-.14-.31-.36-.22-.41-.18-.44Z"></path>
        <path class="cls-7" d="m140.01,80.89s.23.17.46.42.41.45.39.49-.27-.12-.5-.38-.38-.5-.35-.52Z"></path>
        <path class="cls-9" d="m141.05,76.23s-2.06-1.87-2.43-1.92-2.06.05-2.45.49-.19,2.49-.12,2.51c.34.11.72,0,.95-.27.25-.43.45-.88.58-1.36l.41.14s.33.98,2.31,1.26l.75-.86Z"></path>
        <path class="cls-9" d="m133.04,80.54s-.07.56.31.76c.31.11.64.11.95,0l.14-.84s-1.05-.69-1.4.09Z"></path>
        <path class="cls-9" d="m135.2,82.12s-1.33,0-1.09-.83.83-1.33,1.09-1.33,1.12,0,.8.82c-.19.49-.46.94-.8,1.34Z"></path>
        <path class="cls-9" d="m136.43,82.53s-1.39.36-1.23-.41.72-1.85,1.23-1.7.92.36.77.8c-.22.46-.48.89-.77,1.31Z"></path>
        <path class="cls-9" d="m138.2,82.62s-.44.55-.78.55-1.01-.63-1.01-.63l.89-1.58c.33,0,.6.24.65.56.04.25.06.5.07.76l.18.35Z"></path>
        <path class="cls-11" d="m137.34,80.99c-.09.3-.22.58-.4.83-.14.28-.32.53-.54.75.09-.3.22-.58.4-.84.14-.28.32-.53.54-.75Z"></path>
        <path class="cls-11" d="m136.14,80.46s-.26.37-.54.85-.43.9-.47.88c.1-.69.46-1.31,1.01-1.73Z"></path>
        <path class="cls-11" d="m134.94,80.15s-.25.26-.48.62-.31.71-.37.7c-.02-.28.06-.56.24-.78.26-.4.6-.58.62-.53Z"></path>
      </g>
      <g id="freepik--character-1--inject-10">
        <path class="cls-13" d="m79.57,42.34c1.37,1.09,2.12,2.78,2.01,4.53-.06.83-.31,1.78.25,2.42s1.59.62,2.1,1.26c.62.76.1,1.9.31,2.84.24.92,1.11,1.52,2.05,1.43-1.07.87-2.36,1.43-3.73,1.62l-1.04-1.34c.4.47.29,1.21-.09,1.69-.42.45-.96.78-1.56.92-2.85.87-5.94.37-8.36-1.36"></path>
        <path class="cls-13" d="m63.92,49.69c.21-.64.56-1.23.7-1.89.31-1.41-.39-3,.31-4.27.49-.91,1.54-1.35,2.51-1.65s2.04-.56,2.77-1.28c.54-.53.84-1.25,1.38-1.78.76-.76,1.89-1.01,2.96-1.08,1.1-.11,2.22.07,3.23.52,1.02.47,1.76,1.39,1.99,2.49.09.53.02,1.08.19,1.6.18.56.62,1,.9,1.52.56,1.16.27,2.55-.71,3.39l-7.55,9.76c-1.59.6-5.43-.13-6.66-1.3s-2.53-4.42-2-6.03Z"></path>
        <path class="cls-5" d="m79.92,46.02c-.31-2.22-2-4.84-4.2-4.43l-6.78,2.28c-.67.12-1.13.74-1.07,1.41l2,16.02s-.5.41-.83.29c-.05-.02-.1,0-.12.06,0,.03,0,.06.01.08.82,1.18,4.67,6.36,8.63,4.78.89-.35-.09-3.15,0-4.18l-.12-2.64c-.09-1.35-.13-1.9-.13-1.89s2.81-.69,3.11-4.45c.15-1.86-.17-4.87-.51-7.33Z"></path>
        <path class="cls-13" d="m79.45,49.43c.02.26-.17.49-.42.51-.25.04-.48-.13-.52-.38,0,0,0,0,0,0-.03-.26.16-.5.42-.53.25-.04.48.13.52.38,0,0,0,.02,0,.03Z"></path>
        <path class="cls-13" d="m74.82,49.72c.02.26-.17.49-.42.51-.25.04-.48-.13-.52-.38,0,0,0,0,0,0-.02-.26.16-.49.42-.52.25-.04.48.13.52.38,0,0,0,.01,0,.02Z"></path>
        <path class="cls-13" d="m79.62,47.86c-.05.09-.49-.19-1.05-.11s-.91.46-.98.39,0-.18.16-.36c.2-.22.47-.37.77-.41.3-.04.6.03.85.19.19.13.27.26.25.3Z"></path>
        <path class="cls-13" d="m74.64,48.27c-.06.08-.5-.24-1.1-.21s-1.02.36-1.09.29.03-.18.22-.33c.24-.2.55-.32.86-.33.31-.01.62.08.88.27.19.14.26.28.23.32Z"></path>
        <path class="cls-13" d="m76.51,51.8c.26-.11.54-.18.82-.22.13-.02.25-.06.27-.15,0-.14-.04-.27-.12-.38l-.46-.96c-.65-1.38-1.12-2.51-1.07-2.54s.62,1.07,1.27,2.45l.45.97c.09.15.13.33.1.51-.03.1-.1.17-.2.21-.07.03-.14.04-.22.05-.28.06-.56.08-.84.07Z"></path>
        <path class="cls-7" d="m77.33,57.82c-1.74.16-3.5-.17-5.07-.95,0,0,1.45,2.51,5.14,1.88l-.07-.93Z"></path>
        <path class="cls-7" d="m74.95,53.28c.06-.12.15-.23.26-.31.14-.07.3-.08.44-.04.22.04.43.14.58.31.16.16.21.4.14.62h0c-.06.21-.38.33-.59.37-.22.03-.45-.02-.64-.14-.17-.08-.3-.24-.33-.42,0-.14.05-.27.13-.39Z"></path>
        <path class="cls-13" d="m75.05,52.56c.08,0,.13.55.62.9s1.09.25,1.1.33-.12.12-.37.14c-.33.03-.65-.06-.92-.24-.26-.18-.43-.45-.5-.76-.02-.23.03-.37.07-.37Z"></path>
        <path class="cls-13" d="m74.59,46.27c-.04.14-.55.12-1.15.23s-1.07.31-1.16.2c-.04-.06.03-.19.22-.35.25-.19.54-.32.84-.37.31-.06.62-.05.92.04.22.07.34.17.32.24Z"></path>
        <path class="cls-13" d="m79.3,45.99c-.09.12-.51.03-.99.07s-.89.14-.99.03c-.05-.06,0-.18.18-.31.23-.15.51-.24.79-.25.28-.02.56.04.81.18.18.11.24.24.2.29Z"></path>
        <path class="cls-13" d="m67.43,44.4c.34-.53.96-.8,1.54-1.03,2.53-.98,5.17-1.65,7.86-2,.34.55.03,1.3-.48,1.7s-1.16.56-1.76.79-1.23.57-1.48,1.17-.04,1.38-.27,2.03c-.4,1.11-1.95,1.47-2.35,2.59-.31.84.19,1.74.31,2.63.25,1.74-.97,3.36-2.71,3.6-.14.02-.28.03-.42.03l-.55-9.57c-.03-.66-.05-1.37.31-1.94Z"></path>
        <path class="cls-13" d="m61,52.47c.5-.45,1.13-.84,1.33-1.49.31-.92-.46-2.05.02-2.9.44-.78,1.75-.74,2.16-1.54.31-.62-.05-1.17.08-1.72s.9-1.03,1.45-.96l4.36,6.31c.4,2.12.81,3.25.36,4.49-.3.66-.52,1.35-.67,2.06-.1.72.08,1.54.67,1.95-2.61.2-5.05-1.16-7.3-2.47l-2.39-1.4c-.26-.12-.49-.31-.66-.55-.35-.59.08-1.34.58-1.79Z"></path>
        <path class="cls-12" d="m63.39,55.55c.09.03.19.05.28.05.27.03.55,0,.81-.06.42-.1.81-.32,1.13-.62.42-.4.68-.94.75-1.52.04-.34,0-.67-.09-1-.12-.34-.28-.67-.48-.97-.21-.31-.38-.65-.5-1-.12-.37-.07-.78.14-1.11.24-.31.68-.39,1.09-.56.22-.08.41-.22.55-.41.13-.2.19-.44.18-.68-.06-.46-.16-.92-.31-1.36-.05-.22-.05-.45,0-.67.06-.22.19-.4.38-.53.4-.23.85-.35,1.32-.35.47-.02.94-.15,1.34-.39.39-.24.71-.59.92-1,.17-.39.29-.81.34-1.23.04-.4.13-.79.26-1.17.14-.35.35-.66.62-.92.91-.89,2.29-1.08,3.41-.48.38.19.72.45,1,.76.24.27.44.57.62.89,0,0,0-.02-.02-.07s-.05-.11-.09-.19c-.13-.24-.28-.46-.46-.67-.29-.32-.63-.6-1.01-.8-.51-.28-1.08-.4-1.66-.37-.7.06-1.37.35-1.88.83-.28.27-.51.6-.65.97-.13.39-.22.79-.27,1.2-.05.42-.16.82-.33,1.2-.2.38-.5.7-.87.92-.39.23-.83.36-1.28.37-.49,0-.97.13-1.39.38-.21.15-.37.37-.43.62-.06.24-.06.49,0,.73.14.43.25.88.31,1.33.01.21-.04.42-.15.59-.12.17-.29.29-.49.36-.2.08-.4.14-.62.22-.21.08-.4.21-.54.39-.24.37-.29.82-.16,1.23.12.37.3.72.52,1.04.2.29.36.6.48.92.09.31.12.63.09.95-.05.56-.3,1.08-.7,1.47-.3.3-.68.51-1.09.62-.35.09-.71.11-1.07.06Z"></path>
        <path class="cls-13" d="m59.93,51.06c-.04.07-.07.14-.09.22-.04.22,0,.45.11.64.08.14.19.26.33.35.17.1.36.15.56.15.49-.01.92-.29,1.14-.72.12-.25.19-.52.18-.8,0-.3-.07-.59-.18-.86-.21-.56-.58-1.11-.59-1.77-.02-.33.09-.65.31-.9.26-.22.6-.33.95-.31.38.03.76,0,1.13-.11.19-.08.35-.22.46-.39.11-.18.17-.37.19-.58.02-.39-.01-.78-.1-1.16-.06-.36-.03-.72.06-1.07.19-.66.62-1.23,1.21-1.59.56-.28,1.18-.42,1.81-.41.56,0,1.12-.09,1.65-.26.76-.29,1.4-.83,1.81-1.54.15-.25.26-.53.31-.83-.1.28-.22.54-.36.8-.41.68-1.04,1.21-1.79,1.48-.53.16-1.08.24-1.64.23-.64-.01-1.28.13-1.85.42-.63.37-1.09.97-1.28,1.67-.1.37-.13.76-.07,1.13.08.37.11.74.09,1.12-.01.36-.23.69-.56.84-.35.1-.71.14-1.07.11-.38-.03-.76.1-1.05.34-.25.27-.37.64-.34,1,.02.34.1.67.24.97.13.31.27.57.38.84.11.26.17.54.18.82,0,.26-.05.51-.16.74-.19.41-.6.67-1.05.69-.18,0-.36-.03-.52-.12-.13-.08-.23-.18-.31-.31-.12-.18-.16-.4-.13-.62,0-.08.02-.15.03-.22Z"></path>
        <path class="cls-13" d="m87.38,52.61c.08.22.08.46,0,.68-.09.26-.29.46-.54.55-.34.1-.71,0-.96-.26-.14-.15-.22-.34-.22-.55,0-.22.03-.45.1-.66.14-.44.42-.92.38-1.5-.04-.59-.33-1.14-.79-1.5-.24-.19-.52-.34-.81-.43-.3-.08-.61-.13-.92-.13-.3,0-.61-.04-.9-.1-.28-.06-.53-.21-.7-.43-.16-.23-.24-.49-.25-.77-.02-.27,0-.54.07-.8.14-.5.22-1.01.23-1.52-.02-.46-.19-.9-.47-1.27-.23-.29-.52-.53-.85-.72-.24-.14-.46-.3-.68-.47-.18-.15-.32-.34-.43-.55v.05s.03.09.05.13c.08.16.19.3.32.42.21.18.43.35.67.5.31.19.59.43.81.71.26.35.4.77.43,1.21-.02.5-.1,1-.25,1.49-.06.28-.09.56-.07.84.01.3.11.6.28.85.2.25.47.43.79.49.3.06.61.09.92.1.3,0,.6.05.89.13.28.08.54.22.76.4.43.34.7.85.75,1.4.05.53-.22.99-.36,1.45-.08.23-.11.47-.1.71.01.23.1.45.26.62.27.28.68.39,1.06.27.27-.11.49-.33.57-.62.06-.17.07-.35.02-.53-.01-.06-.03-.12-.07-.17Z"></path>
        <polygon class="cls-5" points="70 142.59 71.16 152.66 75.57 151.99 75.87 142.07 70 142.59"></polygon>
        <path class="cls-12" d="m75.59,149.99s-2.96,2.51-4.62.67l-.31.99-1.29,6.91c-.09.44.15.89.58,1.05.32.1.67,0,.89-.25,1.2-1.35,5.57-6.34,5.48-6.96l-.14-1.66c-.03-.34-.26-.63-.58-.74h0Z"></path>
        <g class="cls-15">
          <path class="cls-3" d="m70.09,159.64l6.18-7.82.02.36c.04.3-.06.6-.26.83-.49.79-1.87,2.58-5.18,6.35-.19.22-.48.33-.76.28Z"></path>
        </g>
        <g class="cls-15">
          <path class="cls-3" d="m75.21,150.81c-.2.18-.24.48-.1.71.16.21.46.26.68.1.21-.19.26-.51.1-.75-.19-.2-.52-.21-.72-.02"></path>
        </g>
        <path class="cls-13" d="m71.75,155.75c-.22-.25-.48-.46-.78-.62-.32-.1-.65-.14-.98-.12,0-.02.09-.1.29-.14.26-.05.52-.02.76.08.24.1.45.27.6.49.11.17.13.3.11.31Z"></path>
        <path class="cls-13" d="m71.23,156.94c-.25-.12-.51-.22-.77-.31-.27-.03-.55-.05-.83-.05-.02-.04.36-.26.87-.14s.77.47.73.49Z"></path>
        <path class="cls-13" d="m72.77,154.19s-.48-.36-1.15-.57-1.26-.15-1.26-.21c.43-.15.9-.14,1.32.02.44.11.83.38,1.1.75Z"></path>
        <path class="cls-13" d="m72.77,152.12c-.02.05-.5-.11-1.1-.09s-1.07.21-1.09.15c.66-.43,1.51-.46,2.19-.06Z"></path>
        <path class="cls-13" d="m71.33,152.04c-.01-.11,0-.22.02-.33.06-.29.18-.57.35-.82.11-.19.27-.34.47-.43.14-.04.29,0,.38.12.08.12.11.26.09.4-.1.58-.6,1.01-1.19,1.03-.58,0-1.09-.37-1.29-.91-.05-.14-.04-.29.02-.42.08-.12.23-.18.37-.14.2.07.38.19.52.35.21.21.37.46.5.73.05.1.08.2.1.31-.18-.34-.41-.65-.68-.92-.12-.14-.28-.25-.46-.31-.08-.02-.16,0-.2.08-.04.09-.04.19,0,.27.19.46.63.76,1.13.77.5-.01.92-.37,1.02-.86.02-.1,0-.2-.05-.28-.05-.07-.13-.1-.21-.07-.17.08-.31.2-.4.36-.22.32-.38.68-.47,1.06Z"></path>
        <path class="cls-5" d="m87.47,150.53c-.1-.16-1.03-3.53-1.03-3.53l5.71-1.54.82,4.84-5.51.22Z"></path>
        <path class="cls-12" d="m92.91,149.35v.39s6.28,2.56,6.37,3.81l-12.42.09.14-4.35c1.86.92,4.04.95,5.91.06Z"></path>
        <g class="cls-15">
          <path class="cls-3" d="m88.27,150.67c-.25.09-.4.35-.35.62.06.26.31.42.57.37.27-.1.42-.37.36-.65-.09-.26-.37-.4-.63-.31,0,0,0,0,0,0"></path>
        </g>
        <g class="cls-15">
          <path class="cls-3" d="m86.87,153.63l.03-1.04,11.89.31s.55.25.5.66l-12.42.08Z"></path>
        </g>
        <path class="cls-13" d="m92.98,149.77c0,.06-.31.1-.6.31s-.45.47-.51.45.03-.39.39-.64.71-.18.71-.12Z"></path>
        <path class="cls-13" d="m94.27,150.33c.02.06-.25.17-.45.44s-.26.56-.31.55-.1-.36.16-.69.6-.36.6-.31Z"></path>
        <path class="cls-13" d="m95.02,151.95c-.06.02-.14-.31,0-.65s.43-.49.46-.44-.15.24-.27.53-.13.56-.19.56Z"></path>
        <path class="cls-13" d="m82.62,87.38s4.13,16.41,6.8,32.7c2.19,13.4,3.16,27.9,3.16,27.9l-6.45.38s-3.94-16.62-6.99-28.56c-2.82-11.01-5.12-16.8-5.12-16.8l-2.16-16.15,10.76.53Z"></path>
        <path class="cls-13" d="m65.8,86.85s-5.66,7.65-5.18,15.63c.29,4.78,9.38,45.5,9.38,45.5h6.68l-2.2-43.56,1.94-14.76-10.63-2.81Z"></path>
        <path class="cls-5" d="m90.98,57.11l-1.02,3.76-.4.64s-.25,2.07-.25,2.51.71,2.7.71,2.7l-1.14,2.12,3.61,1.13s.84-1.92,1.09-2.16.4-.84.44-1.25.41-2.86.41-2.86c0,0,1.39-2.77.73-2.86-.16,0-.33,0-.49.04,0,0-.83,1.81-1.08,1.85l-.37-.18s.56-2.73.57-3.23-.12-.85-.51-.88c0,0-.28.13-.31.26s-.56,3.17-.73,3.12-.11-.31-.11-.31c0,0,.75-3.7.69-3.9-.06-.29-.32-.49-.62-.46l-.62,2.04s.24-1.7-.05-1.98c-.15-.16-.38-.2-.57-.1Z"></path>
        <path class="cls-7" d="m92.24,65.21s-.03-.31-.18-.8c-.21-.66-.63-1.23-1.2-1.63l-.05-.03v-.06c.04-.27.09-.55.14-.85v-.02h0c.06-.09.11-.2.17-.31.18-.34.29-.71.34-1.09.02-.17,0-.34-.04-.5-.04-.13-.15-.23-.28-.26l.06-.02c-.39.43-.73.78-.96,1.03-.11.14-.24.26-.39.36.09-.15.19-.3.31-.43.22-.26.53-.62.92-1.07l.06-.05h.03c.21.02.38.16.44.35.06.18.08.38.06.57-.04.4-.16.8-.35,1.16-.06.11-.11.22-.18.31v-.03c-.05.31-.1.58-.15.84l-.04-.09c.6.42,1.03,1.04,1.21,1.75.05.2.08.41.09.62.01.08.01.16,0,.24Z"></path>
        <path class="cls-7" d="m92.05,62.23c.41.04.81.19,1.15.42.37.18.7.45.94.78-.36-.19-.7-.39-1.03-.62-.57-.33-1.06-.54-1.06-.58Z"></path>
        <path class="cls-13" d="m83.17,66.26c.02.08.03.16.03.24,0,.18.03.4.05.68.05.59.08,1.45.1,2.51.04,2.12-.06,5.06-.27,8.29s-.39,6.16-.44,8.28c-.02,1.06-.03,1.92-.02,2.51v.68c0,.08,0,.16,0,.24-.01-.08-.02-.16-.02-.24,0-.18-.02-.4-.03-.68-.03-.59-.04-1.45-.03-2.51,0-2.13.17-5.06.38-8.29s.33-6.16.33-8.28c0-1.06-.02-1.92-.04-2.51v-.68c-.02-.08-.03-.16-.02-.24Z"></path>
        <path class="cls-12" d="m88.46,67.71l-1.36,5.02-2.63-9c-.3-1-1.08-1.79-2.07-2.11l-2.11-.48,2.34,18.02.52,1.35c.36.82,1.01,1.48,1.83,1.85,2.19.99,4.96-.1,5.55-2.44l3.02-10.79-5.1-1.41Z"></path>
        <path class="cls-3" d="m66.22,66.9l1.64,20.5,13.42.11,1.26,1.29-.35-16.5-4.65-11.74h0c-.55,1.05-1.61,1.41-2.89,1.31-.87-.07-2.47-.23-3.16-.74l-1.83-1.72-3.44,7.49Z"></path>
        <path class="cls-12" d="m69.57,58.44l-1.41,1.68-7.06,2.77,4.34,20.98-3.31,8.13c-.35.86-.63,1.74-.86,2.63l-2.04,7.97s8.21,3.28,10.01,2.24,3.75-12.08,4.42-14.48.73-10.01.27-13.82-1.27-9.42-1.67-11.36-2.68-6.74-2.68-6.74Z"></path>
        <path class="cls-12" d="m77.54,59.05l1.02,1.58,4.25,1.08s1.12,5.61,1.12,7.14-.63,18.57-.63,19.37,3.08,11.69,2.8,12.36-3.46,1.15-3.46,1.15c0,0-1.2-9.42-1.2-12.63s-.13-11.09-.8-14.96-3.08-13.49-3.08-13.49v-1.58Z"></path>
        <path class="cls-13" d="m81.5,90.88s0-.05,0-.08v-1.13c.02-.8.04-1.92.08-3.31.06-2.79.18-6.65.25-10.91v-1.57c0-.52-.06-1.02-.1-1.52-.08-1-.16-1.97-.25-2.89s-.2-1.79-.34-2.59c-.13-.75-.34-1.48-.62-2.18-.41-1.02-.87-2.02-1.4-2.99l-.43-.79c-.04-.08-.08-.15-.11-.2s-.04-.07-.03-.07c.02.02.03.04.05.06l.13.2c.11.17.27.43.46.77.55.96,1.03,1.95,1.45,2.98.29.71.51,1.44.65,2.2.14.81.26,1.69.35,2.6s.18,1.89.27,2.89c.04.5.1,1.01.1,1.54v1.58c-.07,4.26-.2,8.12-.31,10.91-.06,1.38-.1,2.51-.13,3.31-.02.38-.03.68-.05.9,0,.1,0,.17-.02.23,0,.02,0,.05,0,.07Z"></path>
        <path class="cls-13" d="m73.59,84.46c-.02-.08-.03-.17-.04-.25-.02-.17-.04-.41-.06-.72-.04-.62-.08-1.54-.06-2.67,0-.56.03-1.18.07-1.85,0-.7-.08-1.39-.25-2.07-.41-1.56-.92-3.08-1.54-4.57-.64-1.59-1.31-3.08-1.93-4.43-.31-.63-.58-1.27-.82-1.93-.18-.59-.32-1.19-.43-1.79-.21-1.11-.33-2.01-.41-2.63-.04-.31-.06-.55-.07-.72,0-.08,0-.17,0-.25.02.08.04.17.05.25.03.18.06.42.11.71.1.62.23,1.52.46,2.62.12.6.27,1.19.45,1.77.24.66.52,1.3.83,1.93.62,1.35,1.3,2.84,1.94,4.43.62,1.49,1.14,3.03,1.54,4.6.17.69.25,1.4.24,2.11-.05.66-.08,1.27-.1,1.83-.03,1.12-.02,2.03,0,2.66,0,.31.02.54.03.72,0,.08,0,.16-.02.24Z"></path>
        <path class="cls-13" d="m83.83,66.51c.02.07.03.15.03.22,0,.16.03.37.05.63.04.55.07,1.34.09,2.32.04,1.96-.06,4.67-.25,7.66s-.36,5.69-.4,7.65c-.02.98-.03,1.77-.02,2.32v.63c0,.07,0,.15,0,.22-.01-.07-.02-.15-.02-.22,0-.16-.02-.37-.03-.63-.03-.55-.04-1.34-.03-2.32,0-1.96.16-4.67.35-7.66s.31-5.69.31-7.65c0-.98-.02-1.77-.04-2.32,0-.26,0-.47-.02-.62,0-.08-.01-.16-.01-.24Z"></path>
        <path class="cls-13" d="m64.58,74.17c-.02-.14-.03-.29-.03-.44,0-.28-.02-.69-.06-1.19-.09-1.31-.31-2.61-.64-3.88-.34-1.27-.8-2.5-1.38-3.68-.22-.45-.41-.82-.55-1.06-.08-.12-.14-.26-.19-.39.1.11.18.23.25.36.15.24.36.59.59,1.04,1.23,2.36,1.92,4.95,2.03,7.61.02.51.02.92,0,1.2,0,.15,0,.29-.03.44Z"></path>
        <rect class="cls-10" x="53.25" y="92.79" width="21.25" height="15.08" rx=".84" ry=".84" transform="translate(-15.54 11.79) rotate(-9.41)"></rect>
        <path class="cls-5" d="m63.36,100.25s1.54,1.17,1.89,1.63,1.18,2.11,1.8,2.59c-.04.26-.28.43-.54.39-.08-.01-.15-.04-.21-.09-.64-.36-1.19-.84-1.63-1.42-.26-.4-.54-.17-.55.18s.28,2.72.28,2.72c0,0,.74,2.63.54,2.93-.16.22-.46.26-.67.11-.03-.02-.06-.05-.08-.07-.1-.14-.92-2.34-.92-2.34l-.22-1.2s.43,3.79.19,4.09c-.13.19-.38.24-.57.12-.04-.02-.07-.05-.09-.08-.17-.15-.34-1.82-.34-1.82l-.39-2.22.07,4.26s-.07.4-.38.42-.53-.45-.53-.45l-.46-4.39s.15,2.44-.02,2.57c-.22.17-.42.11-.49-.07-.15-.38-.36-2.58-.36-2.58l-.2-4.18-.22-2.02,3.91-.26.18,1.2Z"></path>
        <path class="cls-12" d="m61.1,62.89s-1.82,2.28-2.33,4.46c-.87,3.68-2.83,15.54-2.63,17.9s1.85,15.86,1.85,15.86l6.02-1.37-1.09-15.41,1.7-9.98"></path>
        <path class="cls-13" d="m64.63,74.35s0,.06-.02.18-.05.29-.08.51c-.07.46-.18,1.12-.32,1.98-.29,1.73-.71,4.22-1.23,7.32h0c.31,4.15.68,9.46,1.11,15.41v.07l-.06.02-6.02,1.37-.09.02v-.09c-.14-1.17-.28-2.41-.43-3.67-.28-2.43-.56-4.8-.83-7.09-.13-1.15-.26-2.28-.39-3.39l-.19-1.64c-.03-.54-.02-1.08.03-1.62.17-2.12.47-4.11.74-5.98s.57-3.6.85-5.18.55-3,.82-4.25c.11-.58.26-1.16.45-1.72.17-.47.38-.92.62-1.36.32-.61.69-1.2,1.09-1.76.14-.19.25-.33.31-.43s.12-.14.12-.14l-.11.15-.31.44c-.39.57-.75,1.16-1.06,1.77-.23.44-.43.89-.6,1.36-.18.56-.33,1.13-.43,1.71-.26,1.23-.52,2.67-.8,4.25s-.55,3.31-.83,5.18-.55,3.86-.72,5.97c-.05.53-.06,1.06-.02,1.6.06.54.13,1.08.19,1.64.13,1.1.26,2.22.4,3.37.27,2.29.55,4.67.83,7.09.15,1.26.31,2.5.43,3.67l-.1-.07,6.05-1.36-.06.08c-.41-5.96-.78-11.26-1.07-15.41h0c.54-3.08.98-5.58,1.28-7.31.15-.85.27-1.52.35-1.97.04-.22.07-.39.1-.51s.02-.2.02-.2Z"></path>
        <path class="cls-13" d="m76.25,78.92c.19-.22.34-.46.45-.72.25-.65.44-1.31.58-1.99.14-.68.22-1.37.25-2.06,0-.29,0-.58.04-.87.06.28.08.58.07.87,0,.7-.07,1.4-.21,2.09-.13.69-.35,1.37-.63,2.01-.1.28-.3.52-.55.67Z"></path>
      </g>
    </g>
  </g>
</svg>
