<?xml version="1.0" encoding="utf-8"?>
<!-- Generator: Adobe Illustrator 15.0.0, SVG Export Plug-In . SVG Version: 6.00 Build 0)  -->
<!DOCTYPE svg PUBLIC "-//W3C//DTD SVG 1.1//EN" "http://www.w3.org/Graphics/SVG/1.1/DTD/svg11.dtd">
<svg version="1.1" id="Capa_1" xmlns="http://www.w3.org/2000/svg" xmlns:xlink="http://www.w3.org/1999/xlink" x="0px" y="0px"
	 width="134px" height="176.826px" viewBox="0 0 134 176.826" enable-background="new 0 0 134 176.826" xml:space="preserve">
<path fill="#177F73" d="M16.824,46.953c-0.246,0-0.495-0.008-0.739-0.02l0.045-0.771c0.978,0.05,1.979-0.008,2.941-0.172
	l0.143,0.762C18.43,46.885,17.625,46.953,16.824,46.953z M12.995,46.431c-1.004-0.281-1.976-0.676-2.887-1.171l0.404-0.671
	c0.855,0.466,1.768,0.835,2.711,1.101L12.995,46.431z M22.217,45.892l-0.325-0.709c0.901-0.373,1.758-0.848,2.548-1.407l0.486,0.618
	C24.086,44.991,23.176,45.495,22.217,45.892z M7.584,43.49c-0.766-0.682-1.448-1.444-2.028-2.272l0.676-0.429
	c0.547,0.777,1.188,1.497,1.908,2.136L7.584,43.49z M27.204,42.344l-0.624-0.495c0.634-0.72,1.178-1.509,1.619-2.343l0.727,0.347
	C28.456,40.741,27.876,41.579,27.204,42.344z M4.13,38.564c-0.363-0.933-0.612-1.905-0.74-2.896l0.807-0.095
	c0.12,0.932,0.354,1.847,0.697,2.723L4.13,38.564z M29.997,37.052l-0.792-0.178c0.226-0.906,0.339-1.845,0.339-2.783h0.813
	C30.355,35.091,30.235,36.086,29.997,37.052z M29.542,33.927c-0.013-0.939-0.14-1.875-0.378-2.776l0.789-0.188
	c0.253,0.962,0.388,1.956,0.401,2.955L29.542,33.927z M4.178,32.772l-0.809-0.084c0.113-0.992,0.349-1.971,0.699-2.905l0.766,0.258
	C4.505,30.921,4.285,31.84,4.178,32.772z M28.122,28.531c-0.453-0.829-1.009-1.61-1.651-2.319l0.616-0.504
	c0.684,0.755,1.275,1.586,1.757,2.468L28.122,28.531z M6.139,27.528l-0.683-0.42c0.569-0.835,1.241-1.607,1.997-2.297l0.564,0.559
	C7.305,26.016,6.674,26.744,6.139,27.528z M24.303,24.311c-0.797-0.552-1.662-1.016-2.568-1.376l0.314-0.712
	c0.965,0.384,1.883,0.876,2.732,1.463L24.303,24.311z M10.365,23.674l-0.413-0.666c0.902-0.507,1.867-0.913,2.867-1.207l0.24,0.739
	C12.12,22.816,11.212,23.198,10.365,23.674z M18.9,22.162c-0.963-0.149-1.965-0.195-2.944-0.134L15.9,21.257
	c1.041-0.065,2.107-0.018,3.133,0.142L18.9,22.162z"/>
<path fill="#177F73" d="M113.467,82.872c-0.246,0-0.495-0.006-0.739-0.019l0.044-0.771c0.979,0.051,1.979-0.007,2.943-0.169
	l0.143,0.76C115.076,82.806,114.27,82.872,113.467,82.872z M109.637,82.351c-1.004-0.281-1.977-0.676-2.887-1.17l0.404-0.673
	c0.854,0.468,1.77,0.836,2.711,1.103L109.637,82.351z M118.859,81.812l-0.322-0.709c0.899-0.373,1.758-0.847,2.547-1.407
	l0.485,0.618C120.729,80.911,119.818,81.415,118.859,81.812z M104.229,79.41c-0.769-0.682-1.448-1.444-2.028-2.271l0.678-0.43
	c0.545,0.776,1.188,1.496,1.906,2.136L104.229,79.41z M123.846,78.265l-0.623-0.496c0.633-0.72,1.178-1.506,1.619-2.343l0.727,0.348
	C125.1,76.662,124.52,77.5,123.846,78.265z M100.774,74.485c-0.362-0.934-0.61-1.906-0.739-2.896l0.809-0.095
	c0.119,0.931,0.354,1.847,0.695,2.722L100.774,74.485z M126.64,72.971l-0.792-0.178c0.227-0.905,0.34-1.844,0.34-2.783H127
	C126.998,71.01,126.877,72.007,126.64,72.971z M126.186,69.848c-0.014-0.938-0.143-1.874-0.378-2.778l0.789-0.188
	c0.253,0.962,0.388,1.957,0.401,2.956L126.186,69.848z M100.824,68.692l-0.811-0.084c0.111-0.991,0.35-1.97,0.697-2.905l0.768,0.259
	C101.148,66.841,100.928,67.76,100.824,68.692z M124.765,64.45c-0.454-0.829-1.011-1.609-1.649-2.319l0.615-0.505
	c0.686,0.756,1.271,1.586,1.758,2.469L124.765,64.45z M102.783,63.448l-0.684-0.421c0.566-0.835,1.24-1.606,1.998-2.298l0.563,0.558
	C103.951,61.937,103.316,62.663,102.783,63.448z M120.947,60.231c-0.799-0.551-1.66-1.016-2.568-1.376l0.313-0.712
	c0.967,0.383,1.887,0.875,2.732,1.463L120.947,60.231z M107.008,59.594l-0.414-0.664c0.902-0.509,1.867-0.913,2.865-1.207
	l0.242,0.737C108.763,58.735,107.855,59.117,107.008,59.594z M115.543,58.082c-0.965-0.149-1.965-0.194-2.943-0.132l-0.057-0.772
	c1.041-0.064,2.106-0.019,3.133,0.143L115.543,58.082z"/>
<path fill="#177F73" d="M94.725,42.122c-1.037-0.002-2.08-0.082-3.1-0.236l0.129-0.764c0.978,0.147,1.978,0.226,2.975,0.228
	L94.725,42.122z M97.828,41.901l-0.125-0.764c0.979-0.146,1.957-0.363,2.898-0.652l0.25,0.736
	C99.869,41.521,98.85,41.751,97.828,41.901z M88.605,41.188c-0.982-0.309-1.947-0.69-2.867-1.144l0.369-0.688
	c0.885,0.433,1.811,0.802,2.752,1.097L88.605,41.188z M103.727,40.094l-0.369-0.688c0.885-0.428,1.74-0.925,2.543-1.479l0.479,0.627
	C105.537,39.132,104.648,39.649,103.727,40.094z M83.091,38.49c-0.833-0.581-1.628-1.23-2.354-1.931l0.577-0.544
	c0.698,0.671,1.457,1.293,2.259,1.852L83.091,38.49z M108.746,36.638l-0.574-0.549c0.703-0.666,1.354-1.39,1.941-2.151l0.654,0.456
	C110.16,35.188,109.477,35.942,108.746,36.638z M78.727,34.306c-0.604-0.8-1.146-1.647-1.613-2.523l0.727-0.35
	c0.447,0.841,0.968,1.654,1.549,2.422L78.727,34.306z M112.398,31.876l-0.725-0.353c0.451-0.842,0.838-1.722,1.145-2.618
	l0.773,0.239C113.271,30.08,112.871,30.999,112.398,31.876z M75.937,29.046c-0.313-0.938-0.552-1.905-0.708-2.879l0.805-0.115
	c0.148,0.934,0.377,1.861,0.68,2.76L75.937,29.046z M114.316,26.272l-0.803-0.121c0.15-0.928,0.23-1.879,0.23-2.824h0.813
	C114.559,24.313,114.477,25.304,114.316,26.272z M75.816,23.225l-0.813-0.004c0.007-0.987,0.095-1.979,0.261-2.943l0.802,0.124
	C75.908,21.327,75.824,22.279,75.816,23.225z M113.543,20.701c-0.144-0.935-0.363-1.864-0.66-2.764l0.775-0.23
	c0.311,0.938,0.541,1.908,0.689,2.883L113.543,20.701z M76.776,17.65l-0.771-0.242c0.326-0.935,0.732-1.851,1.211-2.726l0.721,0.355
	C77.479,15.876,77.086,16.754,76.776,17.65z M111.771,15.311c-0.438-0.845-0.957-1.661-1.53-2.431l0.66-0.447
	c0.602,0.802,1.139,1.653,1.6,2.532L111.771,15.311z M79.514,12.633l-0.654-0.459c0.615-0.791,1.301-1.542,2.037-2.232l0.57,0.55
	C80.76,11.154,80.103,11.875,79.514,12.633z M108.324,10.708c-0.693-0.673-1.451-1.3-2.248-1.861l0.484-0.621
	c0.83,0.586,1.619,1.238,2.346,1.941L108.324,10.708z M83.746,8.665l-0.475-0.629c0.842-0.572,1.738-1.086,2.662-1.525l0.363,0.69
	C85.412,7.624,84.555,8.116,83.746,8.665z M103.549,7.341c-0.883-0.438-1.807-0.813-2.745-1.11l0.259-0.731
	c0.979,0.313,1.941,0.701,2.862,1.158L103.549,7.341z M89.063,6.137L88.816,5.4c0.986-0.296,2.008-0.521,3.029-0.665l0.121,0.766
	C90.984,5.639,90.008,5.853,89.063,6.137z M97.912,5.547c-0.977-0.153-1.976-0.234-2.972-0.244l0.007-0.771
	c1.037,0.009,2.079,0.095,3.098,0.255L97.912,5.547z"/>
<path fill="#177F73" d="M45.08,111.474h-1.146v-0.771h1.146V111.474z M40.886,111.474h-3.05v-0.771h3.05V111.474z M34.788,111.474
	h-3.049v-0.771h3.049V111.474z M28.688,111.474h-3.05v-0.771h3.05V111.474z M22.507,111.116c-1.024-0.3-1.973-0.771-2.817-1.406
	l0.506-0.604c0.764,0.575,1.622,1.002,2.549,1.272L22.507,111.116z M17.601,107.432c-0.545-0.882-0.907-1.84-1.075-2.847
	l0.803-0.122c0.152,0.91,0.48,1.777,0.973,2.575L17.601,107.432z M17.23,101.631h-0.814v-2.896h0.814V101.631z M17.23,95.835h-0.814
	v-2.897h0.814V95.835z M17.23,90.039h-0.814v-2.897h0.814V90.039z M17.23,84.243h-0.814v-2.898h0.814V84.243z M17.23,78.446h-0.814
	v-2.897h0.814V78.446z M17.23,72.649h-0.814v-2.896h0.814V72.649z M17.23,66.854h-0.814v-2.897h0.814V66.854z M17.23,61.058h-0.814
	V58.16h0.814V61.058z M17.23,55.26h-0.814v-2.897h0.814V55.26z M17.23,49.464h-0.814v-2.896h0.814V49.464z"/>
<path fill="#177F73" d="M82.328,81.87h-3.052v-0.771h3.052V81.87z M76.227,81.87h-3.049v-0.771h3.049V81.87z M70.127,81.87h-3.049
	v-0.771h3.049V81.87z M64.029,81.87H60.98v-0.771h3.049V81.87z M57.932,81.87h-3.05v-0.771h3.05V81.87z M85.379,81.87l-0.012-0.772
	c0.979-0.015,1.926-0.197,2.823-0.546l0.308,0.717C87.508,81.651,86.457,81.854,85.379,81.87z M91.17,79.628l-0.559-0.562
	c0.707-0.637,1.277-1.384,1.691-2.218l0.736,0.331C92.58,78.103,91.955,78.925,91.17,79.628z M93.844,74.256l-0.813-0.054
	c0.012-0.172,0.02-0.349,0.02-0.521V71.33h0.813v2.352C93.865,73.872,93.857,74.065,93.844,74.256z M93.865,68.433h-0.813v-2.897
	h0.813V68.433z M93.865,62.635h-0.813V59.74h0.813V62.635z M93.865,56.841h-0.813v-2.897h0.813V56.841z M93.865,51.044h-0.813
	v-2.897h0.813V51.044z M93.865,45.247h-0.813v-1.896h0.813V45.247z"/>
<path fill="#177F73" d="M88.658,138.248h-3.051v-0.771h3.051V138.248z M82.558,138.248h-3.05v-0.771h3.05V138.248z M76.457,138.248
	h-3.049v-0.771h3.049V138.248z M70.36,138.248h-3.05v-0.771h3.05V138.248z M64.262,138.248h-3.049v-0.771h3.049V138.248z
	 M91.787,137.962l-0.213-0.744c0.938-0.241,1.809-0.645,2.592-1.195l0.482,0.62C93.785,137.251,92.822,137.695,91.787,137.962z
	 M96.813,134.427l-0.688-0.413c0.521-0.782,0.877-1.638,1.061-2.546l0.799,0.146C97.781,132.615,97.387,133.563,96.813,134.427z
	 M98.139,128.653h-0.813v-2.897h0.813V128.653z M98.246,122.927l-0.803-0.129c0.178-1.006,0.549-1.961,1.1-2.838l0.697,0.396
	C98.742,121.151,98.408,122.016,98.246,122.927z M101.148,118.306l-0.5-0.608c0.85-0.632,1.803-1.098,2.827-1.388l0.231,0.739
	C102.781,117.313,101.916,117.735,101.148,118.306z M106.639,116.714l-0.063-0.77c0.971-0.074,1.904-0.315,2.776-0.722l0.354,0.694
	C108.746,116.366,107.709,116.634,106.639,116.714z M112.264,114.118l-0.6-0.526c0.664-0.68,1.182-1.459,1.537-2.316l0.756,0.284
	C113.565,112.506,112.996,113.366,112.264,114.118z M114.559,108.59l-0.813-0.005v-2.896h0.813V108.59z M114.559,102.791h-0.813
	v-2.896h0.813V102.791z M114.559,96.996h-0.813v-2.897h0.813V96.996z M114.559,91.199h-0.813v-2.898h0.813V91.199z M114.559,85.402
	h-0.813v-2.896h0.813V85.402z"/>
<g>
	<g>
		<polygon fill="#F79537" points="64.84,59.085 69.234,55.034 63.887,53.924 		"/>
		<ellipse fill="#F79537" cx="67.947" cy="49.417" rx="7.62" ry="7.242"/>
		<g>
			<path fill="#FFFFFF" d="M68.746,50.585H66.81l-0.299-5.271h2.532L68.746,50.585z M66.537,52.534c0-0.339,0.104-0.601,0.314-0.787
				c0.211-0.188,0.52-0.282,0.92-0.282c0.396,0,0.701,0.096,0.906,0.282c0.205,0.188,0.308,0.448,0.308,0.787
				c0,0.334-0.104,0.596-0.317,0.782c-0.213,0.188-0.512,0.283-0.896,0.283c-0.387,0-0.688-0.097-0.906-0.283
				C66.645,53.13,66.537,52.868,66.537,52.534z"/>
		</g>
	</g>
	<g>
		<path fill="#231F20" d="M43.588,161.07c0.139-0.408-0.121,1.114,0.207,1.104c0.621-0.019,1.279,0.019,1.895,0.198
			c0.176-0.519,0.004-1.979,0.458-1.557c1.238,1.162,1.574,4.388,1.585,6.091c0.012,1.789-0.085,3.887-1.643,4.771
			c-2.537,1.445-3.598-2.692-3.543-4.688C42.583,165.667,42.389,164.584,43.588,161.07z"/>
		<path fill="#F0C185" d="M46.531,161.436c0,0,1.17,4.432-0.184,5.39c-1.355,0.961-2.557,0.479-2.756,0
			c-0.768-1.841-0.279-5.39-0.279-5.39H46.531z"/>
		<path fill="#231F20" d="M73.429,163.673c-1.259-1.447-4.862-0.892-6.503-0.64c-0.633,0.096-1.262,0.099-1.896,0.021
			c-0.26-0.029-1.586-0.174-1.598-0.531c-0.014-0.457-0.346-0.718-0.715-0.778c0.074-0.313-0.01-0.667-0.344-0.903
			c-0.023-0.02-0.049-0.035-0.074-0.056c-0.262-0.186,0.141-0.842-0.127-0.731c-0.842,0.346-1.424,2.403-1.602,3.063
			c-0.482,1.806,0.885,2.385,2.09,2.4c3.722,0.056,7.651,0.276,10.385-0.472C73.716,164.865,73.834,164.142,73.429,163.673z"/>
		<path fill="#F0C185" d="M69.322,162.746c0,0-2.896-0.286-3.363-0.73c-0.467-0.442-1.168-3.639-1.168-3.639l-3.576,2.894
			c0,0,0.35,1.747,2.082,1.767S67.268,163.477,69.322,162.746z"/>
		<path fill="#4C2A1B" d="M56.266,56.421c0.119-0.369,0.189-0.749,0.195-1.141c0.07-3.547-4.437-5.083-7.568-4.486
			c-3.791,0.723-8.032,2.317-7.264,6.896c0.059,0.353,0.152,0.677,0.275,0.979c1.287,3.182,3.705,7.182,7.035,7.761
			c2.3,0.399,2.79-2.569,3.379-3.977C53.152,60.466,55.559,58.623,56.266,56.421z"/>
		<path fill="#194B8E" d="M50.701,111.669c0.109,0.026,0.221,0.047,0.332,0.063c0.361,0.05,0.732,0.033,1.104,0
			c0.128,1.396,0.191,2.795,0.341,4.151c0.396,3.64,1.724,7.111,2.874,10.58c0.611,1.847,1.178,3.701,1.582,5.6
			c0.413,1.934,0.591,3.921,0.792,5.879c0.207,2.03,0.313,4.077,0.59,6.102c0.272,2.013,0.625,12.896,1.505,16.667
			c0.94,0.862,4.27,0.868,5.768,0.479c0.051-0.014,1.48-0.369,1.48-1.673c-1.264-3.931-2.548-21.934-2.816-27.146
			c-0.211-4.091-0.69-8.146-1.301-12.188c-0.013-0.979-0.098-1.966-0.205-2.921c-0.179-1.598-1.492-8.311-2.176-12.19v-0.001
			c-0.195-1.112-0.34-1.994-0.39-2.453c-1.899-3.856-0.894,0.213-2.922-3.575c0.026,0.351,0.041,0.702,0.044,1.055
			c0.008,0.969-1.075,1.461-1.876,1.146c-0.08,0.438-0.205,0.866-0.405,1.289c-0.306,0.639-1.423,0.838-1.977,0.372
			c0.01,0.24,0.018,0.481,0.023,0.723c0.002,0.022,0.002,0.048,0.004,0.07c-0.277,0.056-0.533,0.229-0.703,0.553
			c-0.119,0.229-0.271,0.427-0.434,0.62c-0.176,0.208-0.361,0.409-0.529,0.633c-0.324,0.428-0.522,0.922-0.693,1.42
			c-0.158,0.464-0.271,0.929-0.545,1.349c-0.262,0.405-0.592,0.75-0.762,1.204C49.037,110.46,49.654,111.401,50.701,111.669z"/>
		<path fill="#194B8E" d="M39.339,122.302c0.676,5.303,1.508,10.715,1.108,16.067c-0.269,3.591,0.038,7.259,0.192,10.847
			c0.16,3.726,0.402,7.451,0.481,11.179c0.03,1.433,0.034,2.123,1.828,2.374c1.538,0.218,5.635-0.255,5.545-2.22
			c0.205-9.045-1.313-18.966-1.062-28.034c0.176-1.229,0.374-2.453,0.589-3.679c0.753-4.336,1.629-8.655,2.262-13.007
			c0.188-1.301,0.508-2.712,0.748-4.1c0.039-0.228,0.074-0.451,0.108-0.677c0.028-0.185,0.056-0.371,0.081-0.561
			c0.49-0.097,0.925-0.45,0.938-1.064c0.018-0.754,0.484-1.394,0.877-2.02c0.457-0.733,0.9-1.5,1.035-2.351
			c0.008-0.056,0.014-0.109,0.018-0.168c0.023-0.43-0.108-0.921-0.565-1.109c-0.149-0.063-0.303-0.116-0.455-0.162
			c-0.819-0.246-1.655-0.258-2.53-0.274c-1.133-0.021-2.205-0.375-3.273-0.711c-0.85-0.268-1.616-0.606-2.426-0.959
			c-0.807-0.346-1.646-0.659-2.547-0.569c-0.875,0.088-1.824,0.637-2.095,1.476c-0.069,0.217-0.089,0.438-0.065,0.651
			c-0.363,0.311-0.594,0.761-0.618,1.252C39.206,110.581,38.562,116.217,39.339,122.302z"/>
		<path fill="#14396F" d="M39.513,104.485c3.508,1.845,4.876-1.312,4.876-1.312s3.031,0.932,6.422,1.53
			c0.393,0.066,0.768,0.123,1.125,0.158c0.793,0.08,1.506,0.088,2.154,0.029c1.588-0.137,2.799-0.636,3.883-1.279
			c1.516,1.707,2.598,1.455,2.598,1.455v-0.001c-0.197-1.112-0.341-1.994-0.391-2.454c-1.898-3.855-0.893,0.214-2.922-3.574
			c0.025,0.351,0.041,0.702,0.044,1.054c0.008,0.97-1.075,1.461-1.876,1.146c-0.08,0.438-0.205,0.867-0.405,1.29
			c-0.306,0.639-1.423,0.838-1.978,0.372c0.011,0.24,0.019,0.481,0.024,0.723c-0.819-0.246-1.655-0.257-2.53-0.273
			c-1.133-0.021-2.205-0.375-3.273-0.711c-0.85-0.269-1.616-0.607-2.426-0.96c-0.807-0.346-1.646-0.659-2.547-0.569
			c-0.875,0.088-1.824,0.637-2.095,1.476c-0.069,0.217-0.089,0.438-0.065,0.651C39.768,103.543,39.538,103.993,39.513,104.485z"/>
		<path fill="#F0C185" d="M73.158,99.719c0.059-0.172,0.168-0.345,0.311-0.494c-0.027-0.013-0.055-0.021-0.08-0.033
			c-0.374-0.173-0.066-0.711,0.307-0.538c0.139,0.064,0.297,0.095,0.459,0.106c0.041,0.004,0.08-0.001,0.12-0.009
			c0.056-0.01,0.111-0.019,0.167-0.019c0.041-0.002,0.076,0.007,0.109,0.017c0.041,0.015,0.086,0.019,0.128,0.019
			c0.126-0.001,0.249-0.001,0.362,0.008c0.596,0.045,1.199,0.114,1.787,0.205c0.223,0.033,0.422,0.079,0.604,0.142
			c0.125,0.032,0.25,0.073,0.375,0.124c0.027,0.012,0.057,0.02,0.086,0.023c0.617,0.104,1.294,0.135,1.852,0.309
			c0.021,0.006,0.039,0.011,0.062,0.013c0.624,0.08,1.177,0.36,1.794,0.523c0.375,0.101,0.309,0.661-0.096,0.652
			c-0.016,0-0.031-0.001-0.051-0.001c0.219,0.09,0.422,0.198,0.58,0.354c0.219,0.219,0.051,0.55-0.248,0.569
			c-0.176,0.011-0.344,0-0.51-0.025c-0.119-0.019-0.238,0.016-0.335,0.085c-0.054,0.04-0.123,0.064-0.208,0.069
			c-0.646,0.037-1.236-0.144-1.855-0.291c-0.368-0.09-0.797-0.232-1.205-0.31c-0.049-0.01-0.098-0.009-0.146-0.001
			c-0.14,0.022-0.278,0.04-0.42,0.055h0.001c0.151,0.146,0.133,0.438,0.309,0.563c0.25,0.177,0.797,0.279,1.078,0.406
			c0.276,0.128,0.19,0.536-0.084,0.608c-0.972,0.252-2.037-0.043-2.918-0.438c-0.449-0.203-0.882-0.449-1.277-0.738
			c-0.434-0.314-0.489-0.602-0.76-1.027C73.258,100.338,73.023,100.107,73.158,99.719z"/>
		<path fill="#F0C185" d="M51.6,70.878c-1.064,0.949-3.398,1.334-4.395-0.022c-0.47,0.021-0.955-0.442-0.791-1.17
			c0.019-0.074,0.033-0.146,0.051-0.22c0.004-0.121,0.027-0.248,0.076-0.376c0.078-0.439,0.133-0.886,0.186-1.333
			c0.021-0.179,0.044-0.358,0.068-0.538c0.002-0.117,0.004-0.233,0-0.353c-0.004-0.265,0.057-0.471,0.158-0.619
			c0.008-0.035,0.016-0.072,0.022-0.107c0.021-0.096,0.042-0.188,0.065-0.28c0.256-0.993,1.283-0.8,1.476,0.004
			c0.181,0.099,0.338,0.28,0.423,0.566c0.016,0.046,0.028,0.097,0.039,0.146c0.055,0.215,0.081,0.439,0.09,0.668
			c0.004,0.002,0.006,0.002,0.008,0.003c0.008,0.003,0.016,0.007,0.022,0.01c0.272-0.184,0.634-0.168,0.877,0.099
			c0.112-0.047,0.231-0.062,0.351-0.043c0.021-0.048,0.047-0.092,0.075-0.131c0.021-0.104,0.054-0.195,0.095-0.273
			c0.326-0.649,1.192-0.411,1.373,0.3c0.041,0.147,0.047,0.319,0.013,0.508c-0.039,0.216-0.063,0.431-0.075,0.649
			c0.014,0.173,0.027,0.345,0.041,0.519v0.001c0.025,0.313,0.05,0.622,0.059,0.936C51.98,70.183,51.908,70.603,51.6,70.878z"/>
		<path fill="#E2A971" d="M51.882,67.712c-0.039,0.215-0.063,0.431-0.075,0.648c0.014,0.174,0.027,0.346,0.041,0.52v0.001
			c0,0-1.734,3.139-5.307,0.209c0.021-0.18,0.229-1.691,0.254-1.871c0.002-0.117,0.004-0.233,0-0.353
			c-0.004-0.265,0.057-0.471,0.158-0.619c0.008-0.035,0.016-0.072,0.022-0.107l2.003,0.437l1.518,0.329l1.373,0.301
			C51.91,67.353,51.916,67.524,51.882,67.712z"/>
		<path fill="#F0C185" d="M54.068,54.616c-0.271-0.201-0.609-0.362-1.023-0.478c-0.799-0.218-1.944,0.252-2.756,0.213
			c-1.389-0.066-3.369-0.36-4.328,0.813c-0.891,1.093-0.461,2.547-0.452,3.873c0.002,0.275-0.017,0.552-0.04,0.826
			c-0.016-0.012-0.03-0.022-0.044-0.031c-0.339-0.222-0.72-0.319-1.128-0.262c-0.305,0.043-0.653,0.295-0.668,0.616
			c-0.051,1.063,0.634,1.927,1.535,2.494c0.008,0.006,0.018,0.01,0.024,0.015c0.003,0.445,0.048,0.896,0.175,1.35
			c0.438,1.576,1.688,2.576,2.984,3.545c1.195,0.895,2.457,0.923,3.834,0.34c1.393-0.592,1.949-1.708,2.342-3.042
			c0.428-1.447,0.809-2.866,0.65-4.379C54.979,58.657,55.765,55.873,54.068,54.616z"/>
		<path fill="#FFFFFF" d="M42.93,94.057c0.791-2.055,0.885-3.781,0.393-5.946c-0.264-1.153-0.629-2.28-1.009-3.402
			c0.44-1.034,0.747-2.109,0.868-3.225c0.002-0.004,0.002-0.01,0.002-0.015c0.042-0.386,0.063-0.776,0.055-1.172
			c-0.019-1.191-0.251-2.409-0.455-3.582c-0.26-1.499-0.674-3.332-1.629-4.646c0.389-0.157,4.873-2.228,5.261-2.385
			c0,0,4.054,1.373,5.496-0.103c0.656-0.226,5.549,0.476,6.062,0.87c0.058,1.977-0.062,3.96,0.744,5.838
			c0.973,2.266,3.059,4.956,2.168,7.521c-0.226,0.65-0.724,1.044-1.065,1.595c-0.015,0.021-0.029,0.043-0.041,0.064
			c-0.004,0.005-0.007,0.01-0.009,0.013c-0.228,0.39-0.383,0.856-0.503,1.33c-0.1,0.384-0.18,0.77-0.255,1.116
			c-0.367,1.673-0.459,3.41-0.19,5.104c0.1,0.646,0.256,1.28,0.365,1.926c0.051,0.298,0.096,0.597,0.141,0.896
			c0.008,0.062,0.029,0.203,0.032,0.234c0.025,0.17,0.048,0.342,0.07,0.514c0.17,1.235,0.334,2.474,0.588,3.696
			c0.063,0.771,0.121,1.541,0.161,2.314c-0.809,0.591-1.962,0.955-2.753,1.145c-1.567,0.373-3.209,0.359-4.81,0.234
			c-2.617-0.202-5.223-0.795-7.736-1.504c-0.486-0.138-1.399-0.3-2.263-0.568c-1.11-0.343-2.141-0.859-2.097-1.713
			c0.038-0.729,0.603-1.452,0.86-2.123C41.897,96.741,42.415,95.399,42.93,94.057z"/>
		<path fill="#E5E5E5" d="M45.16,87.073c0.562,2.473,0.678,6.555,0,8.151c-0.509,1.205-1.894,4.937-2.542,6.694
			c-1.11-0.343-2.141-0.859-2.097-1.713c0.038-0.729,0.603-1.452,0.86-2.123c0.517-1.344,1.034-2.687,1.549-4.027
			c0.791-2.055,0.885-3.781,0.393-5.946c-0.264-1.153-0.629-2.28-1.009-3.402c0.44-1.034,0.747-2.109,0.868-3.225
			c-0.021,0.365,0.162,4.397,1.979,4.632c1.849,0.235,3.099,0,3.099,0S46.865,87.44,45.16,87.073z"/>
		<path fill="#F0C185" d="M37.587,99.686c0.716-0.618,1.378-1.276,2.023-1.967c0.13,0.269,0.264,0.533,0.4,0.8
			c0.541,1.037,5.741,6.551,1.542,6.551c-1.161,0-1.864-1.495-1.829-2.353C39.171,101.694,38.37,100.626,37.587,99.686z"/>
		<path fill="#4C2A1B" d="M43.99,56.292c0.117-0.064,0.235-0.104,0.354-0.127c0.075-0.279,0.271-0.537,0.522-0.701
			c2.26-1.46,4.775-1.969,7.375-2.606c0.646-0.158,1.121,0.194,1.307,0.653c1.35-0.345,1.912,1.669,0.552,2.064
			c-0.147,0.043-0.285,0.1-0.414,0.166c-0.216,0.176-0.438,0.338-0.673,0.487c-0.334,0.323-0.607,0.714-0.882,1.098
			c-0.651,0.917-1.347,1.861-2.419,2.369c-2.321,1.095-4.733-0.09-6.125-1.946C43.238,57.281,43.5,56.563,43.99,56.292z"/>
		<path fill="#FFFFFF" d="M41.155,72.069c0,0-2.1,0.309-4.289,5.527c-2.191,5.221-4.907,9.867-4.879,12.798
			c0.027,2.93,5.597,10.82,5.597,10.82l3.329-2.177c0,0-5.166-8.389-4.441-9.314c0.726-0.929,5.01-7.519,5.01-7.519l0.833,2.501
			l1.313-3.225C43.625,81.483,43.574,74.115,41.155,72.069z"/>
		<path fill="#FFFFFF" d="M57.973,70.453c0,0,4.705-0.915,7.793,16.367c8.969,11.208,8.969,11.208,8.969,11.208
			s-0.467,2.217-1.281,2.615c-0.817,0.398-9.645-7.189-10.203-8.94c-0.561-1.751-5.031-9.896-5.031-9.896L57.973,70.453z"/>
		<polygon fill="#E5E5E5" points="51.934,68.427 50.244,70.323 46.584,68.495 45.797,69.964 49.951,72.795 50.244,70.323 
			51.904,72.466 53.248,69.573 		"/>
		<path fill="#E5E5E5" d="M50.244,70.323c0,0,3.865,6.651,3.849,15.791c-0.017,9.139-0.845,17.958-0.845,17.958l-0.879,0.037
			c0,0,0.879-14.755,0.879-18.342c0-7.156-3.297-14.759-3.297-14.759L50.244,70.323z"/>
		<path fill="#E5E5E5" d="M59.818,85.407c-0.014,0.021-0.027,0.043-0.041,0.064c-0.003,0.005-0.006,0.01-0.008,0.013
			c-0.227,0.39-0.383,0.856-0.503,1.33c-0.683,0.039-1.549-0.108-2.649-0.571C57.891,86.437,58.983,85.99,59.818,85.407z"/>
		<g>
			<polygon fill="#E6E7E7" points="90.021,115.349 93.455,94.135 78.924,91.331 75.934,112.402 			"/>
			<polygon fill="#D1D3D3" points="89.412,95.146 82.162,93.825 82.125,94.505 89.343,95.841 			"/>
			<polygon fill="#D1D3D3" points="91.322,97.398 79.959,95.179 79.906,95.855 91.217,98.087 			"/>
			<polygon fill="#D1D3D3" points="91.039,98.851 79.68,96.633 79.623,97.31 90.936,99.538 			"/>
			<polygon fill="#D1D3D3" points="90.762,100.305 79.399,98.087 79.346,98.763 90.658,100.992 			"/>
			<polygon fill="#D1D3D3" points="90.48,101.758 79.119,99.538 79.064,100.216 90.373,102.444 			"/>
			<polygon fill="#D1D3D3" points="90.203,103.212 78.838,100.992 78.787,101.669 90.096,103.899 			"/>
			<polygon fill="#D1D3D3" points="89.918,104.664 78.559,102.444 78.504,103.122 89.815,105.353 			"/>
			<polygon fill="#D1D3D3" points="89.641,106.117 78.279,103.899 78.225,104.575 89.537,106.806 			"/>
			<polygon fill="#D1D3D3" points="85.227,106.924 77.787,105.319 77.75,105.999 85.16,107.617 			"/>
			<polygon fill="#D1D3D3" points="85.043,108.393 77.603,106.788 77.568,107.468 84.975,109.085 			"/>
			<polygon fill="#D1D3D3" points="84.859,109.86 77.418,108.256 77.384,108.935 84.789,110.555 			"/>
			<polygon fill="#FAAA0C" points="86.658,109.406 85.227,112.285 85.801,112.054 86.023,112.897 87.164,109.698 86.559,113.829 
				87.014,113.339 87.447,113.829 87.854,109.406 			"/>
			<polygon fill="#F79537" points="87.291,107.534 86.82,107.245 86.563,107.721 85.998,107.696 86.025,108.23 85.525,108.476 
				85.83,108.927 85.525,109.378 86.025,109.622 85.998,110.157 86.563,110.132 86.82,110.606 87.291,110.318 87.767,110.606 
				88.025,110.132 88.586,110.157 88.561,109.622 89.062,109.378 88.758,108.927 89.062,108.476 88.561,108.23 88.586,107.696 
				88.025,107.721 87.767,107.245 			"/>
		</g>
		<path fill="#F0C185" d="M78.576,101.216h-1.82c-1.081,0-1.082,1.599,0,1.599h1.82C79.658,102.813,79.66,101.216,78.576,101.216z"
			/>
		<path fill="#4C2A1B" d="M44.389,54.622c0,0-4.949-4.127-1.209-6.522c3.74-2.396,7.037,0.532,5.879,3.462
			C47.9,54.49,44.389,54.622,44.389,54.622z"/>
	</g>
</g>
<path fill="#177F73" d="M20.532,40.031c-0.171,0-0.342-0.053-0.491-0.154l-3.013-2.081c-0.008-0.004-0.018-0.004-0.025,0
	l-3.012,2.081c-0.299,0.205-0.686,0.205-0.983,0c-0.298-0.206-0.418-0.556-0.304-0.89l1.15-3.364c0.004-0.008,0-0.019-0.008-0.022
	l-3.012-2.08c-0.299-0.206-0.418-0.557-0.305-0.89c0.114-0.334,0.427-0.549,0.795-0.549h3.724c0.01,0,0.019-0.006,0.022-0.016
	l1.148-3.363c0.115-0.335,0.428-0.551,0.795-0.551c0.369,0,0.682,0.216,0.797,0.551l1.149,3.363c0.003,0.01,0.013,0.016,0.021,0.016
	h3.724c0.368,0,0.68,0.215,0.794,0.549c0.114,0.333-0.005,0.684-0.304,0.89l-3.012,2.08c-0.008,0.006-0.012,0.017-0.008,0.022
	l1.15,3.364c0.114,0.334-0.006,0.683-0.304,0.89C20.873,39.979,20.703,40.031,20.532,40.031z M11.325,32.854
	c-0.012,0-0.016,0-0.021,0.017c-0.005,0.015-0.001,0.02,0.009,0.023l3.012,2.08c0.294,0.2,0.416,0.562,0.304,0.889l-1.15,3.363
	c-0.004,0.012-0.005,0.017,0.008,0.023c0.014,0.01,0.018,0.007,0.027,0l3.012-2.079c0.293-0.203,0.689-0.203,0.982,0l3.012,2.079
	c0.009,0.007,0.014,0.01,0.027,0c0.013-0.009,0.012-0.014,0.008-0.023l-1.15-3.363c-0.111-0.327,0.01-0.688,0.305-0.889l3.011-2.08
	c0.009-0.006,0.013-0.011,0.009-0.023c-0.006-0.017-0.01-0.017-0.021-0.017h-3.724c-0.362,0-0.683-0.221-0.794-0.549l-1.15-3.364
	c-0.005-0.011-0.006-0.017-0.023-0.017c-0.016,0-0.018,0.006-0.021,0.017l-1.15,3.364c-0.111,0.328-0.431,0.549-0.794,0.549H11.325z
	"/>
<g>
	<path fill="#177F73" d="M108.609,77.823h-1.586c-0.938,0-1.697-0.726-1.697-1.616v-9.18c0-0.89,0.762-1.614,1.697-1.614h1.586
		c0.938,0,1.701,0.727,1.701,1.614v9.18C110.311,77.099,109.547,77.823,108.609,77.823z M107.023,66.187
		c-0.486,0-0.887,0.377-0.887,0.842v9.18c0,0.466,0.396,0.843,0.887,0.843h1.586c0.49,0,0.891-0.377,0.891-0.843v-9.18
		c0-0.465-0.398-0.842-0.891-0.842H107.023z"/>
	<path fill="#177F73" d="M119.871,76.255h-10.373v-8.871l0.205-0.11c0.041-0.021,4.228-2.328,4.228-5.287v-0.229l0.209-0.108
		c0.836-0.438,1.481-0.479,1.924-0.114c0.606,0.499,0.656,1.65,0.147,3.623c-0.211,0.815-0.469,1.583-0.645,2.067h5.504
		c0.479,0,0.93,0.2,1.233,0.552c0.305,0.351,0.428,0.809,0.339,1.256l-1.199,5.986C121.301,75.735,120.639,76.255,119.871,76.255z
		 M110.311,75.483h9.563c0.379,0,0.703-0.257,0.772-0.608l1.2-5.987c0.043-0.222-0.02-0.445-0.168-0.618s-0.371-0.271-0.605-0.271
		h-6.668l0.206-0.521c0.882-2.218,1.483-4.896,0.923-5.356c-0.129-0.104-0.414-0.065-0.799,0.106
		c-0.086,1.354-0.887,2.752-2.334,4.063c-0.857,0.776-1.709,1.315-2.09,1.542V75.483L110.311,75.483z"/>
	<path fill="#177F73" d="M107.816,76.255c-0.734,0-1.336-0.568-1.336-1.271c0-0.7,0.602-1.271,1.336-1.271
		c0.738,0,1.34,0.569,1.34,1.271S108.555,76.255,107.816,76.255z M107.816,74.487c-0.287,0-0.521,0.225-0.521,0.498
		c0,0.272,0.234,0.498,0.521,0.498c0.289,0,0.521-0.226,0.521-0.498C108.34,74.711,108.105,74.487,107.816,74.487z"/>
</g>
<g>
	<path fill="#177F73" d="M84.389,25.876l-2.324-3.162l9.383-6.352l2.565,2.827l5.526-3.763l-1.729-2.329l9.771-0.845l-4.117,8.464
		l-1.571-2.117l-8.733,6.08l-2.627-2.885L84.389,25.876z M83.193,22.899l1.396,1.9l6.078-4.034l2.615,2.87l8.799-6.122l1.235,1.666
		l2.937-6.034l-6.967,0.602l1.383,1.863l-6.787,4.618l-2.569-2.827L83.193,22.899z"/>
	<rect x="82.627" y="33.839" fill="#177F73" width="22.664" height="0.772"/>
	<rect x="84.043" y="27.124" fill="#177F73" width="0.813" height="7.103"/>
	<rect x="86.4" y="25.773" fill="#177F73" width="0.813" height="8.452"/>
	<rect x="88.754" y="24.615" fill="#177F73" width="0.814" height="9.609"/>
	<rect x="91.113" y="25.619" fill="#177F73" width="0.813" height="8.605"/>
	<rect x="93.467" y="26.545" fill="#177F73" width="0.813" height="7.682"/>
	<rect x="95.824" y="24.615" fill="#177F73" width="0.813" height="9.609"/>
	<rect x="98.178" y="23.187" fill="#177F73" width="0.813" height="11.039"/>
	<rect x="100.535" y="21.952" fill="#177F73" width="0.813" height="12.272"/>
	<rect x="102.889" y="21.952" fill="#177F73" width="0.813" height="12.272"/>
</g>
</svg>
