<?xml version="1.0" encoding="utf-8"?>
<!-- Generator: Adobe Illustrator 15.0.0, SVG Export Plug-In . SVG Version: 6.00 Build 0)  -->
<!DOCTYPE svg PUBLIC "-//W3C//DTD SVG 1.1//EN" "http://www.w3.org/Graphics/SVG/1.1/DTD/svg11.dtd">
<svg version="1.1" id="Capa_1" xmlns="http://www.w3.org/2000/svg" xmlns:xlink="http://www.w3.org/1999/xlink" x="0px" y="0px"
	 width="200px" height="190px" viewBox="0 0 169 190" enable-background="new 0 0 169 190" xml:space="preserve">
<path fill="#4B9EC8" d="M74.133,35.676L74.133,35.676c-0.246,0-0.494-0.006-0.738-0.02l0.043-0.771
	c0.229,0.013,0.463,0.019,0.695,0.019l0,0c0.754,0,1.512-0.063,2.248-0.188l0.143,0.762C75.738,35.608,74.936,35.676,74.133,35.676z
	 M70.302,35.153c-1.003-0.281-1.975-0.675-2.885-1.17l0.403-0.671c0.854,0.466,1.768,0.835,2.712,1.1L70.302,35.153z M79.525,34.613
	l-0.323-0.708c0.899-0.373,1.758-0.847,2.547-1.408l0.487,0.619C81.396,33.713,80.484,34.217,79.525,34.613z M64.895,32.212
	c-0.767-0.68-1.447-1.442-2.027-2.271l0.676-0.429c0.546,0.777,1.188,1.495,1.908,2.136L64.895,32.212z M84.512,31.067l-0.623-0.497
	c0.633-0.718,1.178-1.506,1.617-2.341l0.729,0.346C85.766,29.465,85.186,30.302,84.512,31.067z M61.439,27.287
	c-0.361-0.933-0.61-1.908-0.738-2.896l0.806-0.095c0.12,0.931,0.354,1.846,0.697,2.722L61.439,27.287z M87.305,25.773l-0.791-0.177
	c0.225-0.906,0.338-1.844,0.338-2.782h0.813C87.666,23.814,87.544,24.809,87.305,25.773z M86.852,22.65
	c-0.014-0.94-0.141-1.875-0.379-2.778l0.789-0.188c0.254,0.962,0.389,1.956,0.402,2.955L86.852,22.65z M61.486,21.495l-0.807-0.083
	c0.112-0.992,0.348-1.971,0.698-2.907l0.767,0.259C61.814,19.644,61.594,20.563,61.486,21.495z M85.43,17.253
	c-0.453-0.83-1.008-1.608-1.65-2.318l0.615-0.505c0.688,0.756,1.275,1.586,1.758,2.468L85.43,17.253z M63.448,16.25l-0.685-0.419
	c0.569-0.835,1.241-1.607,1.998-2.299l0.563,0.558C64.613,14.739,63.982,15.466,63.448,16.25z M81.611,13.034
	c-0.797-0.552-1.661-1.015-2.567-1.375l0.313-0.713c0.963,0.384,1.885,0.876,2.731,1.464L81.611,13.034z M67.673,12.396
	l-0.413-0.665c0.903-0.507,1.868-0.913,2.868-1.208l0.24,0.737C69.43,11.538,68.521,11.92,67.673,12.396z M76.21,10.884
	c-0.683-0.105-1.381-0.159-2.078-0.159H74.13c-0.288,0-0.579,0.01-0.866,0.026L73.209,9.98c0.305-0.021,0.611-0.03,0.919-0.03
	c0.001,0,0.003,0,0.003,0c0.741,0,1.484,0.058,2.21,0.17L76.21,10.884z"/>
<path fill="#4B9EC8" d="M145.945,50.585L145.945,50.585c-0.245,0-0.492-0.006-0.737-0.019l0.044-0.772
	c0.229,0.013,0.463,0.019,0.693,0.019l0,0c0.756,0,1.514-0.064,2.248-0.188l0.145,0.761
	C147.552,50.518,146.749,50.585,145.945,50.585z M142.116,50.063c-1.005-0.281-1.976-0.674-2.886-1.17l0.403-0.67
	c0.854,0.465,1.767,0.836,2.712,1.1L142.116,50.063z M151.337,49.523l-0.323-0.708c0.9-0.373,1.758-0.847,2.547-1.407l0.487,0.618
	C153.209,48.624,152.297,49.127,151.337,49.523z M136.708,47.122c-0.769-0.68-1.449-1.444-2.028-2.271l0.676-0.43
	c0.547,0.779,1.188,1.497,1.908,2.137L136.708,47.122z M156.325,45.977l-0.623-0.497c0.633-0.718,1.178-1.505,1.618-2.341
	l0.728,0.346C157.579,44.375,156.999,45.213,156.325,45.977z M133.254,42.197c-0.363-0.933-0.613-1.907-0.74-2.896l0.807-0.093
	c0.119,0.93,0.354,1.845,0.695,2.722L133.254,42.197z M159.118,40.683l-0.791-0.178c0.225-0.906,0.339-1.842,0.339-2.781h0.813
	C159.479,38.724,159.357,39.719,159.118,40.683z M158.665,37.56c-0.015-0.939-0.142-1.874-0.379-2.778l0.79-0.188
	c0.252,0.962,0.388,1.956,0.4,2.955L158.665,37.56z M133.301,36.404l-0.809-0.083c0.111-0.992,0.348-1.969,0.697-2.906l0.768,0.258
	C133.627,34.552,133.408,35.472,133.301,36.404z M157.243,32.163c-0.453-0.829-1.009-1.608-1.65-2.32l0.616-0.503
	c0.686,0.755,1.273,1.585,1.757,2.469L157.243,32.163z M135.262,31.161l-0.684-0.42c0.566-0.834,1.238-1.607,1.997-2.297L137.139,29
	C136.428,29.648,135.796,30.375,135.262,31.161z M153.424,27.944c-0.797-0.553-1.662-1.015-2.568-1.376l0.315-0.713
	c0.964,0.384,1.884,0.876,2.731,1.464L153.424,27.944z M139.486,27.306l-0.412-0.666c0.902-0.508,1.867-0.913,2.867-1.207
	l0.24,0.737C141.242,26.449,140.334,26.83,139.486,27.306z M148.023,25.794c-0.965-0.15-1.967-0.194-2.943-0.133l-0.057-0.771
	c1.043-0.066,2.105-0.02,3.131,0.141L148.023,25.794z"/>
<path fill="#4B9EC8" d="M40.05,52.235c-1.038-0.002-2.079-0.083-3.098-0.238l0.128-0.763c0.977,0.148,1.977,0.225,2.972,0.228
	L40.05,52.235z M43.15,52.013l-0.125-0.765c0.981-0.145,1.957-0.363,2.9-0.651l0.25,0.735C45.191,51.634,44.174,51.863,43.15,52.013
	z M33.931,51.3c-0.982-0.306-1.949-0.69-2.871-1.142l0.372-0.687c0.884,0.432,1.81,0.801,2.751,1.095L33.931,51.3z M49.051,50.207
	l-0.367-0.688c0.883-0.428,1.738-0.925,2.543-1.479l0.478,0.625C50.863,49.244,49.973,49.763,49.051,50.207z M28.417,48.602
	c-0.834-0.582-1.627-1.231-2.355-1.93l0.578-0.544c0.699,0.67,1.459,1.293,2.259,1.852L28.417,48.602z M54.07,46.75l-0.574-0.548
	c0.704-0.667,1.355-1.39,1.939-2.151l0.657,0.456C55.482,45.3,54.803,46.055,54.07,46.75z M24.052,44.417
	c-0.606-0.798-1.149-1.647-1.614-2.524l0.727-0.348c0.446,0.84,0.967,1.655,1.547,2.42L24.052,44.417z M57.723,41.988L57,41.637
	c0.452-0.841,0.837-1.723,1.145-2.619l0.772,0.239C58.598,40.193,58.195,41.112,57.723,41.988z M21.261,39.157
	c-0.313-0.936-0.552-1.904-0.707-2.877l0.804-0.116c0.148,0.934,0.376,1.862,0.679,2.758L21.261,39.157z M59.641,36.384
	l-0.803-0.119c0.154-0.928,0.23-1.879,0.23-2.826h0.813C59.882,34.426,59.802,35.417,59.641,36.384z M21.142,33.337l-0.813-0.004
	c0.005-0.986,0.092-1.978,0.258-2.943l0.804,0.125C21.23,31.44,21.148,32.39,21.142,33.337z M58.87,30.813
	c-0.144-0.935-0.366-1.863-0.662-2.764l0.774-0.229c0.311,0.938,0.543,1.907,0.691,2.881L58.87,30.813z M22.101,27.762l-0.771-0.243
	c0.324-0.935,0.731-1.851,1.209-2.726l0.722,0.356C22.804,25.989,22.414,26.868,22.101,27.762z M57.096,25.423
	c-0.441-0.843-0.957-1.66-1.533-2.43l0.662-0.448c0.603,0.803,1.139,1.653,1.6,2.533L57.096,25.423z M24.839,22.745l-0.654-0.459
	c0.614-0.791,1.299-1.542,2.037-2.233l0.57,0.552C26.085,21.266,25.427,21.986,24.839,22.745z M53.648,20.821
	c-0.694-0.674-1.453-1.3-2.248-1.863l0.483-0.62c0.831,0.586,1.62,1.239,2.345,1.942L53.648,20.821z M29.073,18.778L28.6,18.15
	c0.841-0.574,1.737-1.088,2.661-1.528l0.364,0.691C30.738,17.735,29.879,18.228,29.073,18.778z M48.873,17.452
	c-0.88-0.437-1.805-0.81-2.743-1.109l0.259-0.732c0.979,0.312,1.943,0.702,2.862,1.158L48.873,17.452z M34.387,16.249l-0.245-0.736
	c0.986-0.297,2.005-0.52,3.029-0.664l0.12,0.765C36.309,15.75,35.332,15.965,34.387,16.249z M43.236,15.659
	c-0.975-0.153-1.975-0.236-2.971-0.243l0.006-0.772c1.039,0.008,2.08,0.093,3.099,0.254L43.236,15.659z"/>
<path fill="#4B9EC8" d="M67.631,74.181h-3.049v-0.772h3.049V74.181z M61.532,74.181h-3.05v-0.772h3.05V74.181z M55.434,74.181h-3.05
	v-0.772h3.05V74.181z M49.291,74.098c-1.046-0.118-2.073-0.365-3.051-0.733l0.3-0.719c0.912,0.344,1.87,0.573,2.847,0.685
	L49.291,74.098z M43.488,71.917c-0.846-0.592-1.611-1.285-2.273-2.061l0.631-0.487c0.618,0.726,1.334,1.373,2.125,1.926
	L43.488,71.917z M39.559,67.316c-0.435-0.91-0.744-1.872-0.918-2.858l0.801-0.129c0.164,0.921,0.453,1.818,0.857,2.668
	L39.559,67.316z M39.279,61.504h-0.813v-2.897h0.813V61.504z M39.279,55.708h-0.813V52.81h0.813V55.708z"/>
<path fill="#4B9EC8" d="M50.893,92.679l-0.479-0.625l2.16-1.497l0.479,0.625L50.893,92.679z M55.518,89.476l-0.479-0.625
	l2.464-1.707l0.479,0.624L55.518,89.476z M60.445,86.062l-0.479-0.625l1.84-1.273c0.205-0.141,0.41-0.288,0.61-0.435l0.496,0.611
	c-0.206,0.151-0.418,0.303-0.628,0.448L60.445,86.062z M65.259,82.433l-0.56-0.562c0.724-0.653,1.42-1.35,2.068-2.071l0.617,0.501
	C66.719,81.043,66.003,81.76,65.259,82.433z M69.27,77.975l-0.67-0.439c0.565-0.781,1.096-1.6,1.574-2.432l0.713,0.371
	C70.396,76.33,69.852,77.171,69.27,77.975z M72.227,72.828l-0.75-0.298c0.385-0.876,0.729-1.781,1.018-2.689l0.777,0.224
	C72.975,70.999,72.624,71.927,72.227,72.828z M74.009,67.211l-0.799-0.146c0.188-0.932,0.326-1.883,0.411-2.83l0.811,0.065
	C74.343,65.274,74.201,66.253,74.009,67.211z M74.539,61.373h-0.813v-2.897h0.813V61.373z M74.539,55.576h-0.813v-2.898h0.813
	V55.576z M74.539,49.78h-0.813v-2.898h0.813V49.78z M74.539,43.984h-0.813v-2.898h0.813V43.984z M74.539,38.187h-0.813v-2.898h0.813
	V38.187z"/>
<path fill="#4B9EC8" d="M134.059,85.424c-0.002,0-0.002,0-0.002,0v-0.772c0.241,0.004,0.488-0.007,0.732-0.021l0.051,0.771
	C134.582,85.417,134.318,85.424,134.059,85.424z M137.926,84.833L137.67,84.1c0.932-0.294,1.82-0.701,2.646-1.212l0.442,0.646
	C139.876,84.083,138.923,84.52,137.926,84.833z M143.154,81.6l-0.603-0.521c0.662-0.691,1.229-1.461,1.685-2.288l0.721,0.358
	C144.469,80.035,143.863,80.859,143.154,81.6z M146.044,76.346l-0.792-0.173c0.188-0.795,0.287-1.613,0.287-2.437v-0.354h0.813
	v0.354C146.352,74.618,146.249,75.496,146.044,76.346z M146.352,70.486h-0.813v-2.897h0.813V70.486z M146.352,64.69h-0.813v-2.898
	h0.813V64.69z M146.352,58.894h-0.813v-2.899h0.813V58.894z M146.352,53.097h-0.813V50.2h0.813V53.097z"/>
<g>
	<g>
		<g>
			<path fill="#DD4E66" d="M140.686,100.12H40.725c-1.203,0-2.179,0.926-2.179,2.069v3.223h104.315v-3.223
				C142.863,101.046,141.889,100.12,140.686,100.12z"/>
			<path fill="#D22940" d="M60.904,105.412H42.66V92.914c0-4.769,4.104-8.67,9.123-8.67l0,0c5.018,0,9.123,3.901,9.123,8.67v12.498
				H60.904z"/>
			<path fill="#D22940" d="M80.764,105.412H62.518V92.914c0-4.769,4.105-8.67,9.123-8.67l0,0c5.019,0,9.123,3.901,9.123,8.67
				V105.412z"/>
			<path fill="#B51B39" d="M53.709,84.44c-1.594,0.703-3.6,1.806-5.564,3.482c-4.285,3.656-3.742,17.489-3.742,17.489H42.66V92.914
				c0-4.769,4.104-8.67,9.123-8.67C52.443,84.244,53.087,84.312,53.709,84.44z"/>
			<path fill="#B51B39" d="M73.566,84.44c-1.594,0.703-3.6,1.806-5.563,3.482c-4.286,3.656-3.743,17.489-3.743,17.489h-1.74V92.914
				c0-4.769,4.104-8.67,9.121-8.67C72.301,84.244,72.945,84.312,73.566,84.44z"/>
			<path fill="#D22940" d="M100.488,92.914v12.498H82.243V92.914c0-4.769,4.104-8.67,9.123-8.67c0.659,0,1.306,0.068,1.927,0.196
				c1.74,0.357,3.297,1.191,4.516,2.352C99.461,88.362,100.488,90.53,100.488,92.914z"/>
			<path fill="#D22940" d="M120.346,105.412H102.1V92.914c0-4.769,4.104-8.67,9.123-8.67l0,0c5.019,0,9.123,3.901,9.123,8.67
				V105.412z"/>
			<path fill="#D22940" d="M140.203,105.412h-18.245V92.914c0-4.769,4.104-8.67,9.122-8.67l0,0c5.018,0,9.123,3.901,9.123,8.67
				V105.412z"/>
			<path fill="#B51B39" d="M93.292,84.44c-1.597,0.703-3.601,1.806-5.563,3.482c-4.287,3.656-3.744,17.489-3.744,17.489h-1.74
				V92.914c0-4.769,4.104-8.67,9.123-8.67C92.025,84.244,92.67,84.312,93.292,84.44z"/>
			<path fill="#B51B39" d="M113.148,84.44c-1.594,0.703-3.6,1.806-5.563,3.482c-4.285,3.656-3.742,17.489-3.742,17.489H102.1V92.914
				c0-4.769,4.105-8.67,9.123-8.67C111.883,84.244,112.527,84.312,113.148,84.44z"/>
			<path fill="#B51B39" d="M133.007,84.44c-1.596,0.703-3.6,1.806-5.565,3.482c-4.283,3.656-3.74,17.489-3.74,17.489h-1.742V92.914
				c0-4.769,4.104-8.67,9.123-8.67C131.741,84.244,132.384,84.312,133.007,84.44z"/>
			<rect x="38.546" y="105.195" fill="#D22940" width="104.208" height="3.27"/>
		</g>
		<g>
			<path fill="#DD4E66" d="M130.504,109.266H30.72c-1.203,0-2.178,0.926-2.178,2.068v3.223h104.14v-3.223
				C132.682,110.191,131.708,109.266,130.504,109.266z"/>
			<path fill="#D22940" d="M49.867,102.061v12.496H31.621v-12.496c0-4.771,4.105-8.671,9.123-8.671c0.662,0,1.306,0.067,1.927,0.196
				c1.739,0.358,3.297,1.193,4.517,2.353C48.84,97.507,49.867,99.675,49.867,102.061z"/>
			<path fill="#D22940" d="M69.723,114.557H51.479v-12.496c0-4.771,4.104-8.671,9.123-8.671l0,0c5.019,0,9.121,3.901,9.121,8.671
				V114.557z"/>
			<path fill="#D22940" d="M89.581,114.557H71.337v-12.496c0-4.771,4.104-8.671,9.123-8.671l0,0c5.017,0,9.122,3.901,9.122,8.671
				L89.581,114.557L89.581,114.557z"/>
			<path fill="#B51B39" d="M42.671,93.585c-1.595,0.703-3.601,1.806-5.563,3.483c-4.288,3.656-3.745,17.488-3.745,17.488h-1.741
				v-12.496c0-4.771,4.105-8.671,9.123-8.671C41.406,93.388,42.05,93.456,42.671,93.585z"/>
			<path fill="#B51B39" d="M62.527,93.585c-1.594,0.703-3.598,1.806-5.563,3.483c-4.284,3.656-3.743,17.488-3.743,17.488h-1.74
				v-12.496c0-4.771,4.104-8.671,9.121-8.671C61.264,93.388,61.907,93.456,62.527,93.585z"/>
			<path fill="#B51B39" d="M82.385,93.585c-1.594,0.703-3.598,1.806-5.564,3.483c-4.283,3.656-3.74,17.488-3.74,17.488h-1.742
				v-12.496c0-4.771,4.104-8.671,9.124-8.671C81.12,93.388,81.764,93.456,82.385,93.585z"/>
			<path fill="#D22940" d="M109.307,102.061v12.496H91.061v-12.496c0-4.771,4.105-8.671,9.123-8.671c0.66,0,1.305,0.067,1.928,0.196
				c1.738,0.358,3.299,1.193,4.518,2.353C108.279,97.507,109.307,99.675,109.307,102.061z"/>
			<path fill="#D22940" d="M129.164,114.557h-18.245v-12.496c0-4.771,4.104-8.671,9.123-8.671l0,0c5.019,0,9.122,3.901,9.122,8.671
				V114.557z"/>
			<path fill="#B51B39" d="M102.111,93.585c-1.596,0.703-3.601,1.806-5.564,3.483c-4.285,3.656-3.742,17.488-3.742,17.488h-1.742
				v-12.496c0-4.771,4.105-8.671,9.123-8.671C100.844,93.388,101.488,93.456,102.111,93.585z"/>
			<path fill="#B51B39" d="M121.967,93.585c-1.594,0.703-3.599,1.806-5.563,3.483c-4.285,3.656-3.742,17.488-3.742,17.488h-1.742
				v-12.496c0-4.771,4.104-8.671,9.123-8.671C120.703,93.388,121.348,93.456,121.967,93.585z"/>
			<rect x="28.542" y="114.341" fill="#D22940" width="104.033" height="3.269"/>
		</g>
		<g>
			<path fill="#DD4E66" d="M142.902,115.682H25.846c-1.68,0-3.042,1.293-3.042,2.891V126h123.139v-7.428
				C145.945,116.975,144.583,115.682,142.902,115.682z"/>
			<path fill="#D22940" d="M44.129,113.502V126H25.884v-12.497c0-4.769,4.104-8.671,9.124-8.671c0.66,0,1.304,0.066,1.925,0.195
				c1.741,0.357,3.299,1.193,4.519,2.352C43.104,108.95,44.129,111.118,44.129,113.502z"/>
			<path fill="#D22940" d="M63.986,126H45.741v-12.497c0-4.769,4.104-8.671,9.122-8.671l0,0c5.019,0,9.121,3.902,9.121,8.671V126
				H63.986z"/>
			<path fill="#D22940" d="M83.844,126H65.598v-12.497c0-4.769,4.106-8.671,9.125-8.671l0,0c5.019,0,9.123,3.902,9.123,8.671
				L83.844,126L83.844,126z"/>
			<path fill="#B51B39" d="M36.932,105.027c-1.594,0.703-3.598,1.806-5.563,3.482c-4.286,3.657-3.743,17.49-3.743,17.49h-1.742
				v-12.497c0-4.769,4.104-8.671,9.124-8.671C35.667,104.832,36.311,104.898,36.932,105.027z"/>
			<path fill="#B51B39" d="M56.791,105.027c-1.596,0.703-3.6,1.806-5.564,3.482c-4.287,3.657-3.744,17.49-3.744,17.49h-1.74v-12.497
				c0-4.769,4.104-8.671,9.121-8.671C55.525,104.832,56.169,104.898,56.791,105.027z"/>
			<path fill="#B51B39" d="M76.648,105.027c-1.594,0.703-3.6,1.806-5.563,3.482c-4.285,3.656-3.742,17.488-3.742,17.488H65.6
				v-12.497c0-4.769,4.106-8.671,9.123-8.671C75.383,104.832,76.027,104.898,76.648,105.027z"/>
			<path fill="#D22940" d="M103.568,113.502V126H85.326v-12.497c0-4.769,4.104-8.671,9.119-8.671c0.662,0,1.308,0.066,1.929,0.195
				c1.739,0.357,3.299,1.193,4.519,2.352C102.543,108.95,103.568,111.118,103.568,113.502z"/>
			<path fill="#D22940" d="M123.426,126h-18.244v-12.497c0-4.769,4.104-8.671,9.123-8.671l0,0c5.016,0,9.121,3.902,9.121,8.671V126z
				"/>
			<path fill="#D22940" d="M143.284,126h-18.246v-12.497c0-4.769,4.106-8.671,9.124-8.671l0,0c5.018,0,9.122,3.902,9.122,8.671V126
				L143.284,126z"/>
			<path fill="#B51B39" d="M96.373,105.027c-1.596,0.703-3.6,1.806-5.564,3.482c-4.285,3.656-3.742,17.488-3.742,17.488h-1.739
				v-12.497c0-4.769,4.104-8.671,9.12-8.671C95.107,104.832,95.751,104.898,96.373,105.027z"/>
			<path fill="#B51B39" d="M116.23,105.027c-1.596,0.703-3.6,1.806-5.563,3.482c-4.286,3.656-3.743,17.488-3.743,17.488h-1.741
				v-12.497c0-4.769,4.104-8.671,9.123-8.671C114.965,104.832,115.609,104.898,116.23,105.027z"/>
			<path fill="#B51B39" d="M136.088,105.027c-1.595,0.703-3.602,1.806-5.564,3.482c-4.285,3.656-3.741,17.488-3.741,17.488h-1.743
				v-12.497c0-4.769,4.105-8.671,9.124-8.671C134.823,104.832,135.466,104.898,136.088,105.027z"/>
			<rect x="22.805" y="125.784" fill="#D22940" width="123.032" height="3.269"/>
		</g>
		<rect x="18.254" y="125.468" fill="#66240F" width="131.762" height="43.54"/>
	</g>
	<g>
		<path fill="#C2E8E8" d="M113.305,82.184c0,0-5.574,18.16-4.734,22.753c0.844,4.592,7.725,16.213,7.725,16.213l1.313-9.625
			c0,0-3.359-5.989-3.15-7.188c0.211-1.197,1.559-9.456,1.559-9.456L113.305,82.184z"/>
		<path fill="#231F20" d="M116.9,174.236l-10.355,2.238c-0.854,0.186-1.457,0.904-1.457,1.734l0,0c0,0.984,0.838,1.78,1.874,1.78
			h14.701c1.168,0,2.052-1.005,1.843-2.099l-0.426-2.238c-0.162-0.849-0.939-1.463-1.846-1.463h-3.918
			C117.176,174.191,117.038,174.207,116.9,174.236z"/>
		<path fill="#2D2D2D" d="M131.258,175.85l-9.629,3.59c-0.931,0.348-1.158,1.418-0.568,2.5l0,0c0.643,1.179,2.006,1.91,3.051,1.729
			l11.015-1.9c0.649-0.113,1.13-1.053,1.015-2.029l-0.266-2.258c-0.111-0.955-0.645-1.691-1.271-1.691H131.6
			C131.48,175.789,131.368,175.809,131.258,175.85z"/>
		<path fill="#14396F" d="M126.284,125.215c-0.149,0.842-0.304,1.688-0.454,2.528c-1.354,7.438-2.747,14.543-2.835,15.602
			c-0.07,0.843,0.914,32.474,0,32.511c-2.326,0.093-3.869,1.15-6.039,0.324c-1.045-0.397-2.187-0.842-3.024-1.574
			c-0.725-0.633-1.166-33.933-1.166-35.025c-0.007-2.166,3-13.819,3.336-21.99c0.062-1.365,0.074-5.439,0.51-6.759
			c0.013-0.041,0.025-0.082,0.041-0.124c0.438-1.266,2.19-1.104,2.646-0.191c0.664-0.273,1.347-0.518,2.043-0.729
			c0.997-0.304,1.658,0.438,1.701,1.21c0.171,0.204,0.271,0.477,0.256,0.814c-0.041,0.963,0.085,4.551,0.298,5.487
			c0.002,0.009,0.002,0.019,0.004,0.024c-0.006-0.508-0.021-1.018-0.053-1.528c-0.089-1.519,2.111-1.672,2.658-0.489
			c0.066,0.145,0.107,0.31,0.12,0.489c0.019,0.315,0.03,0.683,0.038,1.084c0.033,1.382,0.017,3.188-0.041,4.858
			c-0.047,1.365-0.118,2.639-0.215,3.51C126.168,125.277,126.227,125.264,126.284,125.215z"/>
		<path fill="#14396F" d="M126.932,121.771c-0.018,0.688-0.228,3.084-0.646,3.442c0.208-1.163,0.408-2.319,0.602-3.444
			c0.006-0.037,0.012-0.07,0.018-0.107C126.927,121.527,126.936,121.587,126.932,121.771z"/>
		<path fill="#5A3522" d="M116.258,63.844c0.447,1.457,1.754,2.518,2.1,4.004c0.211,0.91,1.684,0.522,1.473-0.387
			c-0.339-1.458-1.539-2.462-2.044-3.834c-0.138-0.373-0.166-0.742-0.134-1.108c1.578,2.336,5.02,2.084,7.582,1.648
			c0.945-0.161,1.882-0.372,2.842-0.417c0.354-0.017,0.726-0.027,1.072,0.044c-0.051,0.132-0.068,0.285-0.037,0.454
			c0.131,0.648,0.346,1.288,0.555,1.929c-0.436-0.015-0.891,0.244-0.9,0.776c-0.022,1.015,0.334,1.929,0.032,2.936
			c-0.296,0.985-0.815,1.89-1.345,2.776c-0.029,0.047-0.053,0.095-0.067,0.142c-0.081,0.219-0.559,0.464-0.702,0.755
			c-0.457-0.129-0.91-0.332-1.355-0.613c-0.821-0.518-1.585,0.738-0.771,1.252c2.217,1.396,4.813,1.261,6.996-0.121
			c0.197-0.125,0.303-0.292,0.334-0.468c0.283-0.563,0.117-1.602,0.182-2.206c1.139-2.47,1.896-4.824,1.75-7.437
			c-0.104-1.855-0.75-3.655-2.184-5.014c-1.408-1.334-3.41-2.147-5.406-1.986c-1.166,0.096-2.291,0.342-3.469,0.296
			c-0.531-0.021-1.063-0.068-1.592-0.104c-1.792-0.481-4.375-1.348-4.536,1.045c-0.042,0.638-0.003,1.314,0.12,1.975
			c-0.145,0.461-0.338,0.911-0.471,1.375C116.066,62.306,116.025,63.09,116.258,63.844z M127.348,62.365
			c0.004-0.001,0.006-0.003,0.01-0.004c0.041-0.021,0.076-0.043,0.108-0.066c0.056,0.017,0.11,0.03,0.165,0.044
			C127.536,62.347,127.441,62.356,127.348,62.365z M120.426,62.802c0.256,0.054,0.555-0.024,0.729-0.192
			c0.08-0.075,0.137-0.157,0.172-0.244c0.164-0.057,0.304-0.158,0.385-0.296c0.004,0.002,0.01,0.003,0.016,0.006
			c0.877,0.325,1.914,0.618,2.947,0.704c-0.381,0.06-0.766,0.112-1.154,0.146C122.553,63.015,121.402,63.098,120.426,62.802z
			 M119.643,62.452c0.029,0.003,0.059,0.006,0.086,0.007c0.065,0.002,0.131-0.006,0.192-0.021c0.054,0.057,0.104,0.112,0.157,0.172
			c0.059,0.067,0.133,0.118,0.214,0.151C120.064,62.683,119.846,62.581,119.643,62.452z"/>
		<path fill="#F0C185" d="M129.678,78.98c-0.025,0.939-0.322,1.731-1.127,2.151c-0.912,0.478-2.07,0.914-3.121,0.97
			c-1.688,0.092-4.479-0.291-4.469-2.169c0.002-0.226,0.002-1.057,0.014-2.063c0.01-0.837,0.026-1.796,0.063-2.631
			c0.047-1.132,0.122-2.034,0.25-2.088c0.637-0.272,1.518-0.151,1.98,0.328c0.137,0.016,0.271,0.046,0.396,0.092
			c0.245,0.087,0.467,0.232,0.641,0.438l0.027,0.001c0.18-0.071,0.373-0.111,0.568-0.125c0.355-0.318,0.867-0.459,1.353-0.396
			c0.464-0.204,1.039-0.228,1.483-0.022c-0.096-0.044,0.021-0.387,0.195-0.53c0.174,0.778,0.365,1.556,0.576,2.328
			C128.846,76.517,129.23,77.76,129.678,78.98z"/>
		<path fill="#E2A971" d="M128.508,75.264c-2.628,4.355-6.131,3.282-7.533,2.606c0.01-0.837,0.026-1.796,0.063-2.631
			c0.277-0.192,1.341-0.908,2.627-1.667c0.245,0.087,0.467,0.232,0.641,0.438l0.027,0.002c0.179-0.072,0.373-0.112,0.568-0.125
			c0.355-0.319,0.867-0.46,1.353-0.396c0.464-0.204,1.039-0.227,1.483-0.022c-0.096-0.044,0.021-0.387,0.195-0.53
			C128.105,73.715,128.297,74.492,128.508,75.264z"/>
		<path fill="#F0C185" d="M129.514,70.288c0.203-0.605,0.666-0.483,1.021-0.825c0.688-0.657,1.184-1.979,0.764-2.852
			c-0.337-0.699-1.027-1.211-1.869-1.051c-0.043,0.008-0.086,0.019-0.128,0.028c0.042-0.367,0.115-0.736,0.245-1.113
			c0.002-0.425-0.006-0.845-0.018-1.262c-0.094-0.183-0.188-0.365-0.301-0.542c-0.604-0.947-2.166-1.314-3.275-1.376
			c-2.783-0.154-5.719,1.248-8.348-0.139c-0.041,0.128-0.08,0.257-0.108,0.39c-0.304,2.254,0.349,4.665,0.646,6.868
			c0.078,0.58,0.131,1.162,0.188,1.738c0.096,0.549,0.176,1.101,0.211,1.657c0,0.002,0,0.005,0,0.008
			c0.183,1.047,0.49,2.055,1.128,2.983c0.121,0.435,0.295,0.848,0.516,1.184c0.66,1.002,1.94,1.073,3.062,1.07
			c1.073-0.003,2.21-0.039,3.017-0.808c0.771-0.731,1.476-1.711,2.069-2.576C129.043,72.639,129.118,71.459,129.514,70.288z"/>
		<path fill="#194B8E" d="M138.455,125.055c-0.01,0.314-0.033,0.635-0.081,0.949c-0.981,6.688-1.164,45.26-1.022,48.188
			c0.051,1.033,0.181,2.474-0.877,2.914c-2.113,0.884-8.882,0.248-8.854-0.443c0.438-11.127-1.386-43.855-1.468-48.756
			c-0.112-0.061-0.219-0.114-0.32-0.162c-0.979-0.454-1.521-0.375-1.655-1.643c-0.081-0.768-0.008-3.006,0.023-4.541
			c0.009-0.535,0.015-0.984,0.007-1.256c-0.191-0.939-0.3-1.904-0.346-2.867c-0.016-0.35-0.022-0.694-0.024-1.043
			c-0.004-1.295,1.515-1.658,2.368-1.09c0.066,0.144,0.107,0.309,0.12,0.488c0.019,0.314,0.03,0.684,0.038,1.084
			c1.185-0.242,2.019-0.385,2.019-0.385l7.629-1.866c0,0.247-0.002,0.42-0.002,0.457c-0.002,0.056,0,0.11,0,0.165
			c0.785,0.775,1.089,2.146,1.308,3.197C137.768,120.625,138.521,122.85,138.455,125.055z"/>
		<path fill="#14396F" d="M138.455,125.055l-0.12,0.756c0,0-3.651-1.922-4.185-4.479c-0.771,0.434-3.933,0.598-7.221,0.438
			c-0.015,0-0.029,0-0.046-0.002c-0.188-0.011-0.376-0.021-0.563-0.031c-0.717-0.043-1.432-0.103-2.122-0.176
			c-2.283-0.246-4.31-0.668-5.239-1.285c-1.484-0.983,1.809-2.08,4.9-2.838c0.892-0.219,1.766-0.407,2.502-0.562
			c1.185-0.242,2.019-0.385,2.019-0.385l7.629-1.866c0,0.247-0.002,0.42-0.002,0.457c-0.002,0.057,0,0.109,0,0.165
			c0.785,0.776,1.089,2.147,1.308,3.196C137.768,120.625,138.521,122.85,138.455,125.055z"/>
		<path fill="#C2E8E8" d="M120.109,78.889c0.142,0.042,0.277,0.093,0.412,0.161c0.272,0.135,0.399,0.343,0.42,0.56
			c0.488,0.639,1.518,1.358,3.676,1.417c3.936,0.104,5.063-2.046,5.063-2.046l0.094,0.053c0.168-0.101,0.387-0.137,0.637-0.065
			c1.758,0.506,3.722,0.659,5.48,1.298c0.029,0.011,0.058,0.021,0.086,0.031c0.455,0.112,0.906,0.247,1.358,0.394
			c0.979,0.317-0.8,13.416-0.739,14.118c0.176,2.04-0.533,4.674-0.297,6.709c0.264,2.301,0.01,4.619,0.338,6.912
			c0.07,0.496,0.139,0.995,0.162,1.496c0.26,0.924,0.35,6.002,0.072,6.963c-0.242,0.84-0.602,1.117-1.326,1.256
			c-0.814,0.153-6.904,1.056-9.695,1.301c-2.759,0.24-5.674,0.701-7.646-1.211c-1.141-1.104-1.688-1.228-2.09-2.721
			c-0.49-1.824,0.281-16.257,0.265-17.148c-0.036-1.733,0.045-3.627-0.258-5.393C116.012,88.561,113.07,78.889,120.109,78.889z"/>
		<path fill="#F0C185" d="M139.456,131.615c0.879,0.279,2.271,0.716,2.94-0.303c0.043-0.041,0.082-0.088,0.123-0.143
			c0.006-0.006,0.01-0.012,0.015-0.02c0.553-0.416,0.932-1.043,1.155-1.809c0.353-0.725,0.595-1.531,0.651-2.523
			c0.091-1.568,0.089-3.447-0.455-4.861c-0.381-0.998-1.169-0.896-1.634-0.303c-0.093-0.045-0.2-0.051-0.32,0.001
			c-0.341,0.146-0.68-0.009-1.021,0.243c-0.276,0.207-0.481,0.523-0.649,0.894c-0.431,0.944-0.558,2.015-0.564,3.115
			c0,0.159,0.031,0.29,0.078,0.397c-0.289,1-0.137,1.99,0.177,2.951c-0.194,0.197-0.302,0.576-0.22,0.896
			C139.063,129.957,138.782,131.398,139.456,131.615z M141.032,128.904c0.045-0.303,0.092-0.604,0.151-0.896
			c0.051-0.24,0.115-0.449,0.188-0.676c0.024-0.078,0.024-0.116,0.022-0.131c0.004,0.01,0.019,0.031,0.058,0.051
			c0.125,0.066,0.235,0.064,0.329,0.021c0,0.02,0.001,0.039,0.001,0.059c0.002,0.148-0.031,0.713-0.017,0.59
			c0,0.021-0.007,0.041-0.011,0.063c-0.134,0.228-0.29,0.438-0.45,0.648C141.2,128.706,141.109,128.798,141.032,128.904z"/>
		<polygon fill="#C2E8E8" points="144.611,120.477 144.659,122.539 140.291,122.539 140.291,119.333 		"/>
		<path fill="#5A3522" d="M130.744,64.758c0,0-0.578,3.419-1.436,3.581c-0.854,0.161,0.525-3.6-0.078-5.666
			C128.625,60.607,130.744,64.758,130.744,64.758z"/>
		<path fill="#C2E8E8" d="M132.04,79.353c0,0-7.146,15.452-7.146,16.727c0,1.115,11.699-1.271,11.699-1.271l1.983,8.68l1.202,17.118
			c0.025,0.345,0.326,0.609,0.688,0.609h4.61c0,0,0.071-14.299-0.419-17.697c-0.492-3.4-1.424-21.752-5.364-22.829
			C135.354,79.616,132.04,79.353,132.04,79.353z"/>
		<path fill="#C2E8E8" d="M120.109,78.889c0,0-4.896,0.521-6.805,3.295c-1.912,2.773,2.707,12.697,2.707,12.697L122.439,96
			L120.109,78.889z"/>
		<polygon fill="#8CD2CD" points="123.139,81.027 122.02,119.674 123.118,119.734 124.195,81.027 		"/>
		<polygon fill="#231F20" points="123.529,89.738 119.732,78.92 119.925,78.858 123.586,89.285 130.32,78.919 130.493,79.02 		"/>
		<polygon fill="#8CD2CD" points="123.559,81.027 129.176,77.525 130.407,78.969 125.32,83.453 		"/>
		<polygon fill="#8CD2CD" points="123.559,81.027 122.188,83.177 119.829,78.889 120.707,77.871 		"/>
		<g>
			<path fill="#F79537" d="M123.668,88.788h-0.109h-0.109c-0.137,0-0.247,0.106-0.247,0.235v1.213h0.356h0.357v-1.213
				C123.917,88.894,123.805,88.788,123.668,88.788z"/>
			<path fill="#FFFFFF" d="M125.633,93.34h-4.148c-0.459,0-0.834-0.354-0.834-0.792v-2.101c0-0.438,0.375-0.792,0.834-0.792h4.148
				c0.459,0,0.832,0.354,0.832,0.792v2.101C126.465,92.985,126.092,93.34,125.633,93.34z"/>
			<g>
				<ellipse fill="#D6D6D6" cx="122.15" cy="91.103" rx="0.742" ry="0.706"/>
				<path fill="#D6D6D6" d="M122.15,91.818c-0.416,0-0.754,0.316-0.76,0.711h0.76h0.762
					C122.904,92.135,122.566,91.818,122.15,91.818z"/>
			</g>
			<rect x="123.581" y="90.543" fill="#D6D6D6" width="1.667" height="0.218"/>
			<rect x="123.581" y="91.023" fill="#D6D6D6" width="2.147" height="0.219"/>
			<rect x="123.581" y="91.737" fill="#D6D6D6" width="2.147" height="0.218"/>
			<rect x="123.581" y="92.211" fill="#D6D6D6" width="2.147" height="0.219"/>
		</g>
	</g>
	<g>
		<path fill="#F0C185" d="M89.352,122.566c0,0,0.904,5.259,0.904,5.725s-0.326,1.064-0.326,1.064l-0.578,1.664l0,0
			c-0.189,0.35-0.705,0.385-0.938,0.06c-0.396-0.54-0.864-1.324-0.923-2.026c-0.104-1.228-0.355-2.625-0.355-2.625l0.355,1.799
			c0,0-2.211-2.385,0-5.52C88.953,122.1,89.352,122.566,89.352,122.566z"/>
		<path fill="#231F20" d="M66.54,172.302c-0.11-0.416,0.04,1.119-0.288,1.091c-0.617-0.059-1.275-0.064-1.902,0.074
			c-0.139-0.525,0.137-1.977-0.347-1.583c-1.319,1.079-1.886,4.278-2.019,5.976c-0.139,1.787-0.191,3.885,1.299,4.871
			c2.427,1.604,3.781-2.457,3.869-4.449C67.211,176.955,67.482,175.889,66.54,172.302z"/>
		<path fill="#F0C185" d="M62.457,176.354c0.191-1.049,0.669-2.023,0.909-3.061c0.25-1.091,0.082-2.229,0.001-3.334
			c-0.182-2.457-0.486-4.902-0.625-7.365c-0.073-1.311-0.135-2.619-0.161-3.932c-0.104-4.979,1.142-9.736,2.047-14.613
			c1.306,0.193,2.624,0.342,3.94,0.432c1.271,0.09,2.552,0.125,3.82,0.012c-0.523,0.048-1.984,6.111-2.181,6.813
			c-0.653,2.332-1.097,4.738-1.56,7.113c-0.541,2.777-1.021,5.564-1.442,8.359c-0.319,2.117-0.722,4.229-0.595,6.373
			c0.104,1.759,0.688,4.591-1.112,5.817C63.514,180.327,62.159,177.973,62.457,176.354z"/>
		<path fill="#4C2A1B" d="M74.195,62.184c0.104-1.755-1.731-3.09-3.488-2.805c-2.423,0.396-3.262,3.188-3.043,5.186
			c0.127,1.153,0.541,2.257,0.734,3.392c0.115,0.663,0.605,1.868,0.344,2.534c-0.121,0.306-0.497,0.705-0.996,0.878
			c0.22,0.373,0.555,0.69,0.954,0.912c0.769,0.429,1.72,0.611,2.597,0.463c0.924-0.157,1.646-0.69,2.35-1.247
			c0.769-0.605,0.467-1.803,0.058-2.519c-0.608-1.066-1.529-1.657-1.904-2.86c-0.165-0.53-0.259-1.085-0.288-1.637
			c-0.013-0.236,0.219-1.366,0.116-1.499C72.279,63.826,74.113,63.557,74.195,62.184z"/>
		<path fill="#D6D6D6" d="M75.333,62.775c-0.104-0.164-0.218-0.322-0.36-0.459c-0.215-0.21-0.502-0.327-0.803-0.366
			c-0.322-0.041-0.597,0.018-0.893,0.158c-0.119,0.057-0.229,0.127-0.338,0.205c-0.426,0.308-0.789,0.599-0.866,1.151
			c-0.066,0.463,0.122,0.962,0.478,1.291c0.225,0.207,0.483,0.322,0.771,0.377c-0.021-0.002-0.045-0.005-0.065-0.009
			c0.003,0.001,0.005,0.001,0.007,0.002c0.12,0.035,0.239,0.049,0.359,0.045c0.002,0,0.004,0,0.006,0h-0.004
			c0.064-0.002,0.132-0.007,0.195-0.021c0.188-0.008,0.359-0.062,0.521-0.158c0.153-0.085,0.301-0.214,0.42-0.362
			c0.023-0.013,0.047-0.023,0.069-0.037c0.299-0.183,0.562-0.456,0.644-0.794C75.557,63.452,75.529,63.089,75.333,62.775z"/>
		<path fill="#5A3522" d="M82.955,64.237c-0.417-0.793-1.264-0.813-1.873-0.438c-0.158-0.19-0.355-0.365-0.604-0.521
			c-0.996-0.62-2.119-0.628-3.106-0.24c-0.213-0.345-0.597-0.593-1.147-0.589c-0.933,0.005-1.898,0.054-2.731,0.497
			c-0.894,0.475-1.552,1.329-1.991,2.188c-1.675,3.278-0.846,7.587,1.633,10.3c0.734,0.803,1.922,1.028,2.428-0.146
			c0.022,0.011,0.047,0.023,0.071,0.032c0.119,0.127,0.269,0.23,0.447,0.306c0.03,0.021,0.06,0.041,0.09,0.061
			c1.406,0.825,3.413-0.034,4.179-1.309c0.031-0.053,0.063-0.107,0.088-0.165c0.09-0.028,0.181-0.066,0.271-0.116
			c1.336-0.734,2.438-2.354,2.938-3.72C84.34,68.466,83.876,66,82.955,64.237z"/>
		<path fill="#F0C185" d="M82.521,93.235c0.021-1.337-0.229-10.171,1.008-11.287c0.437-0.389,1.371,0.774,1.637,1.123
			c0.811,1.076,1.029,2.38,1.377,3.727c0.885,3.464,1.078,7.007,1.195,10.606c0.142,4.275,0.791,8.644,1.255,12.938
			c0.269,2.493,0.347,5.01,0.358,7.521c0.004,1.336-0.011,2.672-0.021,4.008c-0.007,0.697,0.035,1.545-0.557,1.883
			c-0.977,0.563-1.23-0.773-1.408-1.582c-0.357-1.623-0.698-3.252-1.021-4.885c-0.732-3.715-1.496-7.475-1.822-11.279
			c-0.103-1.252-0.396-2.457-0.703-3.639c-0.633-2.436-1.161-5.229-1.289-7.813c-0.018-0.375-0.016-0.752-0.012-1.127
			C82.52,93.363,82.52,93.299,82.521,93.235z"/>
		<path fill="#231F20" d="M84.186,176.632c-1.258-1.448-4.861-0.893-6.502-0.64c-0.631,0.097-1.262,0.099-1.896,0.021
			c-0.26-0.031-1.585-0.175-1.598-0.531c-0.014-0.457-0.346-0.719-0.715-0.778c0.074-0.313-0.01-0.666-0.344-0.904
			c-0.023-0.018-0.05-0.034-0.074-0.055c-0.262-0.187,0.144-0.84-0.125-0.729c-0.843,0.344-1.426,2.4-1.604,3.063
			c-0.482,1.807,0.883,2.385,2.09,2.401c3.723,0.054,7.652,0.274,10.387-0.474C84.473,177.824,84.592,177.102,84.186,176.632z"/>
		<path fill="#F0C185" d="M72.535,172.291c0-0.043-0.002-0.086-0.008-0.129c-0.065-0.684-0.172-1.365-0.28-2.045
			c-0.513-3.184-0.854-6.402-0.853-9.625c0.002-3.371,0.862-6.281,1.389-9.566c0.18-1.117,0.205-2.188,0.053-3.232
			c0.113-0.559,0.227-1.113,0.339-1.672c2.505,0.19,5.017,0.254,7.539,0.268c-0.657,1.965-1.294,3.936-1.819,5.945
			c-1.498,3.369-2.125,6.928-2.52,10.553c-0.182,1.668-0.299,3.34-0.402,5.014c-0.055,0.896-0.121,1.787-0.145,2.684
			c-0.037,1.449-0.016,2.982,1.365,3.896c1.18,0.778,2.724,1.015,4.002,1.616c0.199,0.093-1.489,0.357-1.561,0.363
			c-1.926,0.173-4.843,0.656-6.707-0.305c-0.188-0.099-0.367-0.211-0.531-0.34C71.3,174.857,72.525,173.339,72.535,172.291z"/>
		<path fill="#231F20" d="M63.777,143.467c0.945-2.352,1.445-5.046,1.632-7.554c0.188-2.57-0.532-5.142-0.718-7.693
			c-0.209-2.836-0.049-5.814,0.281-8.644c0.17-1.436,2.063-6.831,3.359-7.378c0.516-0.216,1.072-0.28,1.57-0.152
			c0.056,0.017,0.106,0.031,0.16,0.05c0.119-0.089,0.242-0.172,0.375-0.248c1.231-0.712,2.85-0.55,4.153-0.123
			c0.735,0.238,1.49,0.56,2.138,1.002c0.25-0.213,0.53-0.396,0.847-0.526c0.571-0.239,1.194-0.291,1.729-0.104
			c0.118-0.089,0.242-0.173,0.375-0.248c1.23-0.712,2.848-0.55,4.153-0.123c0.804,0.262,1.632,0.621,2.315,1.133
			c0.135,1.179,0.326,2.352,0.545,3.52c0.582,3.104,0.563,6.244,0.065,9.344c-0.263,1.637-0.657,3.262-1.167,4.864
			c-1.589,5.002-3.242,10.416-3.416,15.675c-0.02,0.608-0.424,1.098-1.027,1.28c-4.129,1.269-8.666,0.685-12.799-0.229
			c-1.592-0.354-4.713-0.72-4.826-2.763C63.504,144.156,63.634,143.826,63.777,143.467z"/>
		<path fill="#F0C185" d="M72.538,81.459c0.006,0.558,0.42,0.897,0.821,0.88c0.799,1.088,2.455,1.057,3.627,0.512h0.008
			c0.799,0,1.583-0.633,1.398-1.329c-0.127-0.485-0.27-0.972-0.42-1.454c-0.072-0.229-0.146-0.561-0.224-0.938
			c-0.149-0.734-0.31-1.643-0.478-2.285c-0.051-0.199-0.104-0.375-0.16-0.509c-0.086-0.219-0.174,0.045-0.268,0.21
			c-0.059,0.11-0.119,0.179-0.182,0.036c-0.004-0.009-0.008-0.019-0.014-0.027c-0.293-0.651-0.916-1.107-1.709-0.9
			c-0.467,0.121-0.898,0.551-1.019,1.025c-0.302-0.01-0.604,0.192-0.729,0.67c-0.022,0.093-0.045,0.186-0.064,0.279
			c-0.007,0.036-0.016,0.073-0.023,0.109c-0.011,0.014-0.02,0.03-0.029,0.048c-0.082,0.143-0.131,0.334-0.126,0.57
			c0.003,0.115,0.002,0.232,0,0.351c0,0.004-0.001,0.012-0.005,0.021c-0.002,0.021-0.004,0.041-0.008,0.063
			c-0.02,0.151-0.037,0.303-0.057,0.454c-0.052,0.439-0.105,0.876-0.182,1.309c-0.004,0.01-0.004,0.017-0.004,0.021
			c-0.049,0.127-0.072,0.253-0.076,0.375c-0.018,0.071-0.031,0.145-0.051,0.218C72.547,81.271,72.538,81.369,72.538,81.459z"/>
		<path fill="#F0C185" d="M85.805,109.969c-0.402-1.141-0.951-2.229-1.359-3.367c-0.446-1.242-0.618-2.621-0.557-3.932
			c0.121-2.498,0.943-4.889,1.379-7.34c0.006-0.029,0.01-0.053,0.016-0.075c0-0.012,0.001-0.027,0.003-0.051
			c0.007-0.152,0.028-0.304,0.04-0.454c0.021-0.267,0.031-0.532,0.025-0.799c-0.004-0.302-0.031-0.603-0.06-0.904
			c-0.001-0.009-0.004-0.043-0.01-0.083c-0.017-0.088-0.038-0.229-0.046-0.266c-0.213-1.176-0.551-2.326-0.875-3.479
			c-0.699-2.485-1.184-4.922-0.834-7.478c-1.322-0.369-2.851-0.319-4.135-0.551c-0.815-0.147-1.5-0.262-2.246,0.172
			c-0.418,0.244-0.816,0.549-1.299,0.642c-0.867,0.166-1.367-0.374-2.078-0.682c-0.293-0.126-0.574-0.176-0.867-0.183
			c-0.646-0.015-1.365,0.609-1.932,0.872c-1.283,0.597-2.609,1.108-3.921,1.648c-0.707,0.291-1.082,0.657-1.149,1.397
			c-0.092,1.01,0.427,1.943,0.562,2.927c0.185,1.339,0.375,2.662,0.697,3.979c0.631,2.575,1.733,5.019,2.319,7.603
			c0.492,2.162,0.397,3.888-0.39,5.938c-0.517,1.343-1.03,2.683-1.547,4.022c-0.259,0.668-0.819,1.391-0.856,2.117
			c-0.078,1.52,3.24,1.969,4.354,2.279c2.509,0.705,5.109,1.301,7.722,1.5c1.599,0.123,3.237,0.141,4.802-0.232
			c0.791-0.188,1.942-0.554,2.75-1.145c-0.057-1.068-0.144-2.14-0.238-3.207C85.995,110.548,85.908,110.256,85.805,109.969z"/>
		<path fill="#4C2A1B" d="M82.678,63.801c-0.277,1.278-0.96,2.397-2.38,2.871c-1.266,0.423-2.919,0.079-4.032-0.564
			c-1.318-0.765-2.142-1.937-2.303-3.367c0.129-0.127,0.322-0.195,0.482-0.28c0.177-0.094,0.354-0.182,0.537-0.264
			c0.356-0.16,0.729-0.295,1.108-0.395c0.736-0.188,1.503-0.234,2.261-0.142C80.098,61.877,81.55,62.675,82.678,63.801z"/>
		<path fill="#E2A971" d="M78.17,81.459c-1.313,0.529-4.386-0.398-5.211-2.329c0.148-0.734,0.309-4.615,0.477-5.258
			c0.168-0.081,0.315,2.798,0.428,2.674c0.058-0.062,0.104-0.131,0.139-0.21l0.057,0.221l0.467,1.839l1.687-0.329l1.422-4.272
			c0.083,0.145,0.132,4.328,0.125,4.564c-0.002,0.116-0.001,0.232,0.003,0.351c0,0.004,0,0.013,0.002,0.021
			c0.002,0.021,0.006,0.041,0.008,0.063c0.021,0.151,0.037,0.304,0.057,0.454c0.053,0.439,0.105,0.876,0.184,1.31
			c0.002,0.009,0.002,0.016,0.002,0.021c0.049,0.127,0.073,0.253,0.077,0.375c0.019,0.071,0.031,0.146,0.05,0.218
			C78.161,81.271,78.17,81.369,78.17,81.459z"/>
		<path fill="#F0C185" d="M82.729,66.889c-0.244-0.231-0.559-0.432-0.955-0.59c-0.766-0.307-1.959,0.028-2.758-0.104
			c-1.369-0.225-3.293-0.742-4.393,0.314c-1.021,0.981-0.777,2.473-0.938,3.786c-0.033,0.276-0.084,0.546-0.144,0.815
			c-0.015-0.012-0.028-0.025-0.04-0.036c-0.309-0.257-0.672-0.4-1.083-0.388c-0.312,0.009-0.688,0.218-0.742,0.537
			c-0.183,1.046,0.388,1.98,1.21,2.646c0.008,0.006,0.014,0.01,0.021,0.018c-0.055,0.441-0.064,0.893,0.004,1.356
			c0.234,1.612,1.348,2.744,2.511,3.854c1.073,1.021,2.319,1.192,3.757,0.771c1.454-0.427,2.148-1.472,2.705-2.749
			c0.605-1.387,1.163-2.749,1.196-4.265C83.124,70.999,84.25,68.327,82.729,66.889z"/>
		<path fill="#E6E7E7" d="M69.482,99.566c0.492,2.162,0.398,3.888-0.391,5.938c-0.514,1.343-1.029,2.683-1.546,4.022
			c-0.257,0.668-0.821,1.391-0.858,2.117c-0.045,0.854,0.983,1.369,2.09,1.713c0.865,0.269,1.775,0.431,2.265,0.565
			c1.142,0.321,2.304,0.619,3.474,0.868c0.33,0.068,0.66,0.136,0.991,0.195c1.08,0.201,2.167,0.354,3.257,0.438
			c1.598,0.124,3.236,0.141,4.803-0.232c0.789-0.188,1.941-0.553,2.748-1.144c-0.039-0.771-0.099-1.542-0.162-2.313
			c-0.252-1.221-0.416-2.455-0.584-3.689c-0.024-0.17-0.049-0.341-0.069-0.512c-0.005-0.031-0.024-0.174-0.033-0.233
			c-0.046-0.298-0.09-0.597-0.142-0.896c-0.108-0.645-0.266-1.278-0.366-1.922c-0.267-1.689-0.174-3.424,0.19-5.094
			c0.078-0.349,0.156-0.732,0.256-1.115c0.119-0.474,0.275-0.938,0.502-1.326c0.004-0.004,0.007-0.008,0.009-0.014
			c0.013-0.022,0.024-0.045,0.041-0.065c0.344-0.548,0.84-0.941,1.063-1.59c0.448-1.292,0.142-2.614-0.397-3.898
			c0.592-0.15,1.146-0.682,1.071-1.284c-0.321-2.661-0.922-5.682-2.719-7.847c-0.152-0.186-0.313-0.363-0.486-0.537
			c-0.146-0.146-0.307-0.251-0.467-0.315c-0.439-0.181-0.91-0.078-1.271,0.177c-0.021-0.003-0.041-0.008-0.063-0.012
			c-0.059,0.074-0.117,0.146-0.178,0.22c-0.043,0.043-0.082,0.09-0.119,0.138c-1.195,1.378-2.818,2.376-4.767,2.74
			c-2.784,0.518-5.813,0.008-8.119-1.611c-0.114-0.08-0.22-0.166-0.319-0.255c-0.377,0.156-2.119,0.313-2.51,0.498
			c-1.104,0.525-1.951,1.565-2.674,2.481c-0.738,0.936-1.46,2.02-1.768,3.164c-0.817,3.063,3.916,4.551,5.658,6.397
			C68.918,96.418,69.17,98.193,69.482,99.566z"/>
		<path fill="#D6D6D6" d="M85.954,96.869c-0.017,0.021-0.028,0.042-0.041,0.064c-0.004,0.006-0.006,0.01-0.011,0.014
			c-0.227,0.388-0.381,0.854-0.5,1.326c-0.68,0.039-1.549-0.107-2.646-0.57C84.027,97.896,85.12,97.45,85.954,96.869z"/>
		<path fill="#D6D6D6" d="M71.32,98.532c0.559,2.469,0.675,6.544,0,8.139c-0.51,1.203-1.893,4.929-2.543,6.687
			c-1.105-0.344-2.135-0.858-2.092-1.711c0.039-0.729,0.604-1.449,0.859-2.119c0.516-1.34,1.032-2.683,1.546-4.021
			c0.789-2.05,0.882-3.773,0.392-5.938c-0.262-1.152-0.627-2.276-1.006-3.397c0.439-1.033,0.748-2.106,0.867-3.217
			c-0.021,0.362,0.161,4.39,1.977,4.623c1.845,0.235,3.094,0,3.094,0S73.021,98.898,71.32,98.532z"/>
		<path fill="#F0C185" d="M87.659,105.598c-0.238-0.49-0.31-0.412-0.9-0.654c-1.321-0.543-3.036-0.112-4.517-0.211
			c-1.215-0.08-3.166-0.448-4.355-0.59c-2.552-0.302-4.662-1.112-7.24-1.129c-2.015-0.013-2.477-5.238-3.047-7.967
			c-1.404-1.256-4.027-2.389-5.041-4.035c-0.002,0.003-0.006,0.007-0.01,0.01c0.025,0.048,0.051,0.097,0.076,0.145
			c-0.119,1.088-0.113,2.202,0.096,3.266c-0.096,0.16-0.135,0.362-0.076,0.599c0.619,2.522,0.959,4.774,1.992,7.09
			c1.678,3.761,2.108,3.841,3.979,4.467c2.129,0.713,4.666,0.441,7.026,0.403c0.494-0.008,0.979-0.018,1.451-0.021
			c1.986-0.019,3.973-0.078,5.955-0.179C84.154,106.734,88.365,107.041,87.659,105.598z"/>
		<polygon fill="#231F20" points="78.587,93.411 71.555,81.889 71.73,81.792 78.432,92.77 79.292,81.186 79.495,81.199 		"/>
		<g>
			<path fill="#F79537" d="M78.62,92.367h-0.11H78.4c-0.137,0-0.248,0.105-0.248,0.234v1.213h0.357h0.357v-1.213
				C78.867,92.472,78.756,92.367,78.62,92.367z"/>
			<path fill="#FFFFFF" d="M80.583,96.918h-4.147c-0.459,0-0.834-0.354-0.834-0.792v-2.101c0-0.438,0.373-0.792,0.834-0.792h4.147
				c0.461,0,0.833,0.354,0.833,0.792v2.101C81.416,96.564,81.043,96.918,80.583,96.918z"/>
			<g>
				<ellipse fill="#D6D6D6" cx="77.102" cy="94.682" rx="0.744" ry="0.706"/>
				<path fill="#D6D6D6" d="M77.102,95.397c-0.416,0-0.754,0.316-0.762,0.711h0.762h0.76C77.855,95.714,77.518,95.397,77.102,95.397
					z"/>
			</g>
			<rect x="78.531" y="94.122" fill="#D6D6D6" width="1.668" height="0.218"/>
			<rect x="78.531" y="94.602" fill="#D6D6D6" width="2.15" height="0.219"/>
			<rect x="78.531" y="95.316" fill="#D6D6D6" width="2.15" height="0.219"/>
			<rect x="78.531" y="95.79" fill="#D6D6D6" width="2.15" height="0.218"/>
		</g>
		<g>
			<polygon fill="#FFFFFF" points="96.501,118.57 103.035,99.75 90.25,95.09 83.616,113.626 			"/>
			<polygon fill="#D1D3D3" points="99.188,100.084 92.797,97.83 92.657,98.445 99.014,100.708 			"/>
			<polygon fill="#D1D3D3" points="100.566,102.412 90.575,98.745 90.417,99.354 100.359,103.023 			"/>
			<polygon fill="#D1D3D3" points="100.079,103.695 90.087,100.027 89.93,100.635 99.872,104.307 			"/>
			<polygon fill="#D1D3D3" points="99.589,104.979 89.598,101.311 89.441,101.918 99.383,105.589 			"/>
			<polygon fill="#D1D3D3" points="99.102,106.26 89.109,102.593 88.953,103.202 98.895,106.872 			"/>
			<polygon fill="#D1D3D3" points="98.613,107.543 88.623,103.876 88.464,104.484 98.407,108.154 			"/>
			<polygon fill="#D1D3D3" points="98.125,108.826 88.133,105.159 87.977,105.768 97.919,109.438 			"/>
			<polygon fill="#D1D3D3" points="97.637,110.109 87.645,106.441 87.488,107.05 97.43,110.719 			"/>
		</g>
		<path fill="#F0C185" d="M92.514,105.113c0.074-0.227-0.125-0.48-0.551-0.549c-0.447-0.069-0.881-0.101-1.309-0.104
			c-0.1-0.113-0.266-0.212-0.479-0.25c-1.443-0.26-2.799,0.189-4.17,0.27c0.197-0.203,0.604-0.405,0.85-0.594
			c0.492-0.381,0.557-0.932-0.078-0.697c-0.824,0.304-2.896,0.625-3.754,0.896c-0.592,0.188-1.228,0.403-1.514,0.776
			c-0.193,0.252-0.089,0.474,0.283,0.639c0.05,0.021,0.102,0.042,0.148,0.063c-0.435,0.138-0.674,0.476-0.195,0.715
			c0.673,0.334,1.25,0.771,2.013,1.039c0.772,0.271,1.542,0.596,2.386,0.514c1.146-0.113,2.309-0.153,3.461-0.229
			c0.932-0.063,1.578-0.645,2.416-0.863c0.557-0.146,0.472-0.646-0.006-0.809c0.155-0.06,0.313-0.119,0.459-0.188
			C92.813,105.59,92.766,105.294,92.514,105.113z"/>
	</g>
</g>
<g>
	<g>
		<path fill="#214568" d="M153.191,44.635h-13.774v-12.08c0-0.792,0.676-1.435,1.51-1.435h10.759c0.832,0,1.508,0.644,1.508,1.435
			L153.191,44.635L153.191,44.635z"/>
		<path fill="#4B9EC8" d="M153.598,45.021h-14.59V32.555c0-1.005,0.859-1.821,1.917-1.821h10.759c1.057,0,1.914,0.815,1.914,1.821
			V45.021z M139.823,44.249h12.962V32.555c0-0.578-0.493-1.049-1.104-1.049h-10.758c-0.607,0-1.104,0.471-1.104,1.049v11.693
			L139.823,44.249L139.823,44.249z"/>
	</g>
	<g>
		<path fill="#214568" d="M139.416,34.372h13.775H139.416z"/>
		<rect x="139.416" y="33.986" fill="#4B9EC8" width="13.775" height="0.771"/>
	</g>
	<g>
		<path fill="#214568" d="M141.247,29.105v1.925V29.105z"/>
		<rect x="140.84" y="29.105" fill="#4B9EC8" width="0.813" height="1.925"/>
	</g>
	<g>
		<path fill="#214568" d="M151.438,29.105v1.925V29.105z"/>
		<rect x="151.032" y="29.105" fill="#4B9EC8" width="0.813" height="1.925"/>
	</g>
	<g>
		<path fill="#214568" d="M139.416,37.552h13.775H139.416z"/>
		<rect x="139.416" y="37.166" fill="#4B9EC8" width="13.775" height="0.772"/>
	</g>
	<g>
		<path fill="#214568" d="M139.416,41.009h13.775H139.416z"/>
		<rect x="139.416" y="40.623" fill="#4B9EC8" width="13.775" height="0.772"/>
	</g>
	<g>
		<path fill="#214568" d="M143.896,34.372v10.263V34.372z"/>
		<rect x="143.491" y="34.372" fill="#4B9EC8" width="0.813" height="10.263"/>
	</g>
	<g>
		<path fill="#214568" d="M148.704,34.372v10.263V34.372z"/>
		<rect x="148.297" y="34.372" fill="#4B9EC8" width="0.813" height="10.263"/>
	</g>
	<g>
		<rect x="143.896" y="37.552" fill="#214568" width="4.809" height="3.457"/>
		<path fill="#4B9EC8" d="M149.111,41.395h-5.619v-4.229h5.619V41.395z M144.303,40.623h3.994v-2.684h-3.994V40.623z"/>
	</g>
	<g>
		<polygon fill="#214568" points="147.094,35.438 141.516,40.743 138.887,38.244 137.42,39.635 140.051,42.135 141.66,43.663 
			143.124,42.271 148.704,36.967 		"/>
		<path fill="#4B9EC8" d="M141.66,44.209l-4.813-4.574l2.041-1.938l2.629,2.498l5.578-5.304l2.187,2.074L141.66,44.209z
			 M137.998,39.635l3.662,3.481l6.47-6.149l-1.034-0.981l-5.578,5.303l-2.629-2.499L137.998,39.635z"/>
	</g>
</g>
<g>
	<g>
		<path fill="#214568" d="M74.76,15.946h-0.287h-0.285c-0.355,0-0.645,0.273-0.645,0.612v3.156h0.93h0.932v-3.156
			C75.404,16.219,75.116,15.946,74.76,15.946z"/>
		<path fill="#4B9EC8" d="M75.811,20.102h-2.674v-3.544c0-0.552,0.471-0.999,1.051-0.999h0.572c0.58,0,1.051,0.447,1.051,0.999
			V20.102z M73.95,19.329h1.048v-2.771c0-0.125-0.105-0.227-0.236-0.227h-0.572c-0.133,0-0.237,0.102-0.237,0.227L73.95,19.329
			L73.95,19.329z"/>
	</g>
	<g>
		<path fill="#214568" d="M79.875,27.8H69.07c-1.197,0-2.17-0.923-2.17-2.062v-5.472c0-1.139,0.973-2.062,2.17-2.062h10.805
			c1.198,0,2.17,0.923,2.17,2.062v5.472C82.045,26.877,81.074,27.8,79.875,27.8z"/>
		<path fill="#4B9EC8" d="M79.875,28.187H69.07c-1.422,0-2.575-1.1-2.575-2.448v-5.472c0-1.351,1.153-2.448,2.575-2.448h10.805
			c1.42,0,2.576,1.098,2.576,2.448v5.472C82.452,27.087,81.295,28.187,79.875,28.187z M69.072,18.592
			c-0.973,0-1.764,0.751-1.764,1.676v5.472c0,0.924,0.793,1.675,1.764,1.675h10.805c0.973,0,1.762-0.751,1.762-1.675v-5.472
			c0-0.924-0.789-1.676-1.762-1.676H69.072z"/>
	</g>
	<g>
		<g>
			<ellipse fill="#214568" cx="71.111" cy="21.879" rx="1.938" ry="1.84"/>
			<path fill="#4B9EC8" d="M71.111,24.105c-1.291,0-2.342-0.999-2.342-2.227s1.049-2.226,2.342-2.226
				c1.291,0,2.344,0.998,2.344,2.226S72.402,24.105,71.111,24.105z M71.111,20.426c-0.842,0-1.527,0.652-1.527,1.453
				c0,0.802,0.686,1.454,1.527,1.454c0.845,0,1.529-0.652,1.529-1.454C72.641,21.078,71.955,20.426,71.111,20.426z"/>
		</g>
		<g>
			<path fill="#214568" d="M71.111,23.74c-1.084,0-1.963,0.827-1.979,1.853h1.979h1.98C73.075,24.567,72.195,23.74,71.111,23.74z"/>
			<path fill="#4B9EC8" d="M73.504,25.979h-4.787l0.008-0.393c0.021-1.23,1.09-2.232,2.387-2.232s2.365,1.001,2.388,2.232
				L73.504,25.979z M69.6,25.207h3.023c-0.191-0.622-0.8-1.081-1.512-1.081C70.398,24.126,69.791,24.585,69.6,25.207z"/>
		</g>
	</g>
	<g>
		<path fill="#214568" d="M75.459,20.71h3.729H75.459z"/>
		<rect x="75.459" y="20.324" fill="#4B9EC8" width="3.729" height="0.772"/>
	</g>
	<g>
		<path fill="#214568" d="M75.459,21.96h4.809H75.459z"/>
		<rect x="75.459" y="21.574" fill="#4B9EC8" width="4.809" height="0.772"/>
	</g>
	<g>
		<path fill="#214568" d="M75.459,23.819h4.809H75.459z"/>
		<rect x="75.459" y="23.433" fill="#4B9EC8" width="4.809" height="0.772"/>
	</g>
	<g>
		<path fill="#214568" d="M75.459,25.052h4.809H75.459z"/>
		<rect x="75.459" y="24.667" fill="#4B9EC8" width="4.809" height="0.772"/>
	</g>
</g>
<g>
	<g>
		<path fill="#214568" d="M48.313,25.463H30.816c-1.456,0-2.636,1.123-2.636,2.506V39.52c0,1.384,1.18,2.506,2.636,2.506h8.747l0,0
			h8.748c0.045,0,0.09-0.002,0.135-0.004c1.395-0.067,2.502-1.162,2.502-2.502V27.969C50.948,26.586,49.768,25.463,48.313,25.463z"
			/>
		<path fill="#4B9EC8" d="M48.311,42.412H30.816c-1.677,0-3.042-1.297-3.042-2.892V27.969c0-1.594,1.365-2.892,3.042-2.892h17.495
			c1.678,0,3.045,1.298,3.045,2.892v11.552c0,1.542-1.271,2.81-2.889,2.888C48.416,42.411,48.363,42.412,48.311,42.412z
			 M30.816,25.85c-1.229,0-2.229,0.95-2.229,2.119v11.552c0,1.168,1,2.119,2.229,2.119h17.495c0.039,0,0.076,0,0.114-0.002
			c1.187-0.058,2.115-0.987,2.115-2.116V27.969c0-1.168-1-2.119-2.229-2.119H30.816z"/>
	</g>
	<g>
		<rect x="36.923" y="23.348" fill="#214568" width="0.349" height="2.411"/>
		<rect x="36.516" y="22.962" fill="#4B9EC8" width="1.162" height="3.186"/>
	</g>
	<g>
		<rect x="41.723" y="23.348" fill="#214568" width="0.35" height="2.411"/>
		<rect x="41.318" y="22.962" fill="#4B9EC8" width="1.16" height="3.186"/>
	</g>
	<g>
		<path fill="#214568" d="M48.313,25.463h-8.773h-8.722c-1.456,0-2.636,1.123-2.636,2.506v1.117
			c2.099,2.563,5.629,5.115,11.357,5.123l0,0c0.01,0,0.019,0,0.026,0c5.535,0,9.137-2.375,11.384-4.844v-1.396
			C50.948,26.586,49.768,25.463,48.313,25.463z"/>
		<path fill="#4B9EC8" d="M39.564,34.596h-0.021c-6.096-0.01-9.718-2.872-11.686-5.271l-0.085-0.105v-1.25
			c0-1.594,1.365-2.892,3.042-2.892h17.496c1.678,0,3.043,1.298,3.043,2.892v1.54l-0.1,0.109
			C48.292,32.875,44.249,34.596,39.564,34.596z M28.588,28.954c2.689,3.226,6.374,4.863,10.951,4.869l0.025,0.001
			c4.453,0,8.146-1.548,10.977-4.603v-1.252c0-1.168-1-2.119-2.229-2.119H30.816c-1.229,0-2.229,0.95-2.229,2.119L28.588,28.954
			L28.588,28.954z"/>
	</g>
	<path fill="#2174AF" d="M40.529,32.683H38.6c-0.479,0-0.871,0.371-0.871,0.826v1.399c0,0.457,0.391,0.827,0.871,0.827h1.93
		c0.482,0,0.871-0.371,0.871-0.827V33.51C41.4,33.054,41.012,32.683,40.529,32.683z M40.753,34.909c0,0.118-0.101,0.213-0.226,0.213
		h-1.93c-0.125,0-0.226-0.095-0.226-0.213V33.51c0-0.116,0.101-0.213,0.226-0.213h1.93c0.125,0,0.226,0.097,0.226,0.213V34.909z"/>
	<g>
		<path fill="#214568" d="M42.236,22.969h-2.697H36.84c-0.344,0-0.622,0.266-0.622,0.592s0.278,0.591,0.622,0.591h2.698h2.698
			c0.345,0,0.623-0.265,0.623-0.591S42.581,22.969,42.236,22.969z"/>
		<path fill="#4B9EC8" d="M42.236,24.539H36.84c-0.567,0-1.029-0.438-1.029-0.978c0-0.539,0.461-0.979,1.029-0.979h5.396
			c0.566,0,1.027,0.438,1.027,0.979S42.805,24.539,42.236,24.539z M36.839,23.356c-0.118,0-0.216,0.092-0.216,0.205
			c0,0.112,0.098,0.205,0.216,0.205h5.396c0.119,0,0.217-0.093,0.217-0.205c0-0.113-0.098-0.205-0.217-0.205H36.839z"/>
	</g>
</g>
</svg>
