<?xml version="1.0" encoding="utf-8"?>
<!-- Generator: Adobe Illustrator 15.0.0, SVG Export Plug-In . SVG Version: 6.00 Build 0)  -->
<!DOCTYPE svg PUBLIC "-//W3C//DTD SVG 1.1//EN" "http://www.w3.org/Graphics/SVG/1.1/DTD/svg11.dtd">
<svg version="1.1" id="Capa_1" xmlns="http://www.w3.org/2000/svg" xmlns:xlink="http://www.w3.org/1999/xlink" x="0px" y="0px"
	 width="122.761px" height="178.01px" viewBox="0 0 122.761 178.01" enable-background="new 0 0 122.761 178.01"
	 xml:space="preserve">
<path fill="#9E8A66" d="M95.14,40.2c-0.805,0-1.606-0.067-2.393-0.199l0.146-0.761c0.962,0.163,1.965,0.22,2.94,0.171l0.043,0.771
	C95.636,40.195,95.386,40.2,95.14,40.2z M98.97,39.678l-0.229-0.741c0.942-0.265,1.854-0.635,2.711-1.1l0.403,0.671
	C100.944,39.003,99.974,39.398,98.97,39.678z M89.747,39.139c-0.959-0.396-1.871-0.899-2.709-1.497l0.486-0.619
	c0.789,0.562,1.646,1.035,2.547,1.407L89.747,39.139z M104.377,36.738l-0.557-0.564c0.723-0.639,1.363-1.356,1.908-2.137l0.678,0.43
	C105.825,35.293,105.144,36.058,104.377,36.738z M84.76,35.592c-0.674-0.764-1.254-1.604-1.723-2.491l0.729-0.347
	c0.439,0.835,0.984,1.623,1.617,2.343L84.76,35.592z M107.831,31.814l-0.762-0.271c0.342-0.877,0.576-1.792,0.695-2.723l0.808,0.095
	C108.444,29.906,108.196,30.879,107.831,31.814z M81.965,30.299c-0.236-0.967-0.358-1.961-0.358-2.961h0.813
	c0,0.94,0.113,1.877,0.338,2.783L81.965,30.299z M82.42,27.175l-0.813-0.011c0.014-1,0.147-1.993,0.401-2.955l0.787,0.188
	C82.561,25.3,82.435,26.236,82.42,27.175z M107.784,26.02c-0.104-0.934-0.326-1.852-0.656-2.731l0.77-0.258
	c0.351,0.937,0.584,1.916,0.695,2.906L107.784,26.02z M83.842,21.779l-0.723-0.355c0.481-0.883,1.072-1.714,1.758-2.469l0.615,0.504
	C84.851,20.169,84.293,20.949,83.842,21.779z M105.823,20.777c-0.533-0.785-1.164-1.513-1.877-2.16l0.563-0.559
	c0.758,0.689,1.431,1.463,1.998,2.299L105.823,20.777z M87.659,17.56l-0.477-0.626c0.848-0.587,1.768-1.079,2.731-1.465l0.313,0.714
	C89.321,16.544,88.458,17.006,87.659,17.56z M101.599,16.921c-0.852-0.478-1.758-0.857-2.694-1.135l0.241-0.738
	c0.998,0.294,1.964,0.7,2.867,1.208L101.599,16.921z M93.062,15.41l-0.131-0.763c1.023-0.16,2.091-0.209,3.13-0.144l-0.056,0.771
	C95.028,15.214,94.026,15.258,93.062,15.41z"/>
<path fill="#9E8A66" d="M48.89,27.726c-0.803,0-1.606-0.068-2.391-0.2l0.143-0.761c0.964,0.161,1.966,0.221,2.943,0.17l0.043,0.771
	C49.385,27.717,49.137,27.726,48.89,27.726z M52.719,27.202l-0.229-0.74c0.944-0.265,1.855-0.635,2.712-1.101l0.403,0.671
	C54.694,26.529,53.724,26.921,52.719,27.202z M43.498,26.663c-0.959-0.396-1.871-0.899-2.711-1.497l0.487-0.619
	c0.788,0.563,1.646,1.035,2.547,1.407L43.498,26.663z M58.129,24.262l-0.557-0.564c0.721-0.64,1.362-1.358,1.908-2.136l0.676,0.429
	C59.577,22.818,58.895,23.582,58.129,24.262z M38.511,23.116c-0.675-0.764-1.255-1.602-1.725-2.49l0.729-0.348
	c0.439,0.836,0.984,1.623,1.618,2.342L38.511,23.116z M61.583,19.337l-0.763-0.269c0.343-0.876,0.575-1.792,0.694-2.724l0.808,0.096
	C62.194,17.43,61.945,18.405,61.583,19.337z M35.717,17.823c-0.237-0.965-0.358-1.96-0.358-2.961h0.813
	c0,0.94,0.114,1.877,0.339,2.783L35.717,17.823z M36.172,14.7l-0.813-0.011c0.014-0.999,0.147-1.993,0.4-2.954l0.789,0.186
	C36.311,12.825,36.184,13.759,36.172,14.7z M61.536,13.544c-0.106-0.932-0.328-1.852-0.656-2.729l0.767-0.26
	c0.352,0.938,0.586,1.914,0.699,2.906L61.536,13.544z M37.592,9.302l-0.721-0.355c0.481-0.883,1.072-1.713,1.756-2.467l0.617,0.504
	C38.6,7.694,38.045,8.474,37.592,9.302z M59.575,8.3c-0.535-0.784-1.167-1.513-1.878-2.16l0.563-0.558
	c0.757,0.689,1.43,1.462,1.997,2.297L59.575,8.3z M41.411,5.083l-0.479-0.625c0.848-0.586,1.767-1.079,2.73-1.463l0.314,0.713
	C43.072,4.069,42.209,4.531,41.411,5.083z M55.35,4.447c-0.85-0.478-1.756-0.857-2.695-1.135l0.24-0.738
	c1,0.295,1.965,0.699,2.868,1.208L55.35,4.447z M46.813,2.935L46.68,2.17c1.024-0.16,2.092-0.207,3.132-0.141L49.757,2.8
	C48.779,2.739,47.775,2.784,46.813,2.935z"/>
<path fill="#9E8A66" d="M80.437,73.205h-3.049v-0.771h3.049V73.205z M74.338,73.205h-3.051v-0.771h3.051V73.205z M68.239,73.205
	H65.19v-0.771h3.049V73.205z M62.04,72.947c-1.056-0.332-1.963-0.961-2.625-1.814l0.654-0.459c0.563,0.726,1.333,1.259,2.227,1.541
	L62.04,72.947z M58.377,68.206c-0.001-0.029-0.001-0.059-0.001-0.088v-2.816h0.813v2.816c0,0.024,0,0.051,0.001,0.074L58.377,68.206
	z M59.189,62.404h-0.813v-2.898h0.813V62.404z M59.189,56.608h-0.813v-2.898h0.813V56.608z M59.189,50.811h-0.813v-0.815
	c0-0.646-0.146-1.27-0.437-1.848l0.732-0.333c0.344,0.685,0.518,1.418,0.518,2.181V50.811z M56.06,46.233
	c-0.676-0.362-1.443-0.552-2.224-0.552c-0.187,0-0.374-0.011-0.56-0.028l0.085-0.77c0.157,0.017,0.314,0.023,0.475,0.023
	c0.918,0,1.825,0.227,2.621,0.651L56.06,46.233z M50.303,44.415c-0.839-0.702-1.419-1.615-1.677-2.644l0.791-0.18
	c0.22,0.871,0.711,1.646,1.422,2.242L50.303,44.415z M49.297,38.794h-0.813v-2.897h0.813V38.794z M49.297,32.998h-0.813v-2.896
	h0.813V32.998z"/>
<path fill="#9E8A66" d="M95.547,77.49h-0.813v-2.897h0.813V77.49z M95.547,71.695h-0.813v-2.898h0.813V71.695z M95.547,65.898
	h-0.813V63h0.813V65.898z M95.547,60.102h-0.813v-2.897h0.813V60.102z M95.547,54.305h-0.813v-2.898h0.813V54.305z M95.547,48.508
	h-0.813v-2.897h0.813V48.508z M95.547,42.712h-0.813v-2.896h0.813V42.712z"/>
<g>
	<g>
		<g>
			<path fill="#FFFFFF" d="M35.52,51.448v-5.396V51.448z"/>
			<path fill="#231F20" d="M35.52,51.834c-0.226,0-0.407-0.173-0.407-0.386v-5.396c0-0.214,0.183-0.387,0.407-0.387
				c0.224,0,0.408,0.173,0.408,0.387v5.396C35.928,51.661,35.744,51.834,35.52,51.834z"/>
		</g>
		<g>
			<path fill="#FFFFFF" d="M33.418,124.174v45.129V124.174z"/>
			<path fill="#231F20" d="M33.418,169.691c-0.225,0-0.405-0.172-0.405-0.388v-45.129c0-0.215,0.182-0.387,0.405-0.387
				c0.225,0,0.407,0.172,0.407,0.387v45.129C33.825,169.519,33.643,169.691,33.418,169.691z"/>
		</g>
		<g>
			<path fill="#FFFFFF" d="M21.207,124.191l-9.524,39.787L21.207,124.191z"/>
			<path fill="#231F20" d="M11.682,164.365c-0.029,0-0.06-0.002-0.092-0.01c-0.219-0.047-0.354-0.256-0.306-0.463l9.525-39.791
				c0.049-0.207,0.268-0.338,0.485-0.289c0.22,0.045,0.355,0.252,0.307,0.461l-9.524,39.791
				C12.035,164.242,11.867,164.365,11.682,164.365z"/>
		</g>
		<g>
			<path fill="#FFFFFF" d="M45.561,124.191l9.523,39.787L45.561,124.191z"/>
			<path fill="#231F20" d="M55.085,164.365c-0.186,0-0.354-0.123-0.396-0.301l-9.525-39.791c-0.05-0.209,0.088-0.416,0.308-0.461
				c0.218-0.049,0.437,0.082,0.485,0.289l9.525,39.791c0.049,0.207-0.087,0.416-0.308,0.463
				C55.146,164.364,55.115,164.365,55.085,164.365z"/>
		</g>
		<rect x="6.388" y="51.448" fill="#FFFFFF" width="53.617" height="78.833"/>
		<rect x="2.542" y="130.281" fill="#194B8E" width="62.108" height="5.574"/>
		<g>
			<path fill="#D22940" d="M33.838,59.027c3.64,0,7.026,1.028,9.855,2.797l-9.855,13.661l2.196,17.568c0.46-0.053,0.46-0.053,0,0
				c-0.72,0.084-1.452,0.128-2.196,0.128c-9.923,0-17.969-7.646-17.969-17.078S23.915,59.027,33.838,59.027z"/>
		</g>
		<path fill="#6EC0C3" d="M51.807,76.103c0,3.911-1.386,7.515-3.715,10.394L33.838,75.485l9.855-13.661
			c1.027,0.643,1.983,1.382,2.85,2.205c2.254,2.145,3.914,4.854,4.719,7.889C51.619,73.256,51.807,74.659,51.807,76.103z"/>
		<path fill="#F79537" d="M48.227,86.329c-0.045,0.057-0.088,0.112-0.135,0.167c-2.859,3.546-7.153,5.991-12.059,6.559
			l-2.196-17.569L48.227,86.329z"/>
		<rect x="23.039" y="99.882" fill="#D1D3D3" width="20.654" height="2.474"/>
		<rect x="15.869" y="105.715" fill="#D1D3D3" width="34.992" height="2.476"/>
		<rect x="15.869" y="109.908" fill="#D1D3D3" width="34.992" height="2.476"/>
		<rect x="15.869" y="114.103" fill="#D1D3D3" width="34.992" height="2.475"/>
		<rect x="15.869" y="118.295" fill="#D1D3D3" width="34.992" height="2.476"/>
		<rect x="15.869" y="122.487" fill="#D1D3D3" width="34.992" height="2.474"/>
		<path fill="#F1F2F1" d="M60.006,51.48l-10.547,0.052c0.894,0.184,8.746,2.073,8.746,17.086c0,12.024,1.801,61.665,1.801,61.665
			V51.48z"/>
		<path fill="#C9C9C9" d="M54.568,51.533l0.33-0.002C54.693,51.488,54.568,51.533,54.568,51.533z"/>
	</g>
	<g>
		<path fill="#4C2A1B" d="M102.694,161.823c0.059-0.014,0.12-0.021,0.184-0.026c0.34-0.192,1.285-0.041,1.756,0.168
			c0.516,0.033,1.095,0.144,1.523,0.281c1.434,0.454,2.393,1.271,3.072,1.896c1.11,1.022,1.944,2.299,3.131,3.688
			c0.449,0.527,0.988,1.217,0.969,1.951c-0.023,0.926-0.896,1.551-2.018,1.807c-1.97,0.451-3.806-0.4-5.185-1.465
			c-1.53-1.182-3.021-2.367-4.008-3.564c-0.377-0.459-2.341-1.602-2.703-2.057C98.577,163.451,100.854,158.978,102.694,161.823z"/>
		<path fill="#4C2A1B" d="M92.79,162.265c-0.055-0.019-0.113-0.029-0.174-0.039c-0.337-0.273-1.213-0.048-1.629,0.256
			c-0.484,0.053-1.018,0.213-1.406,0.414c-1.283,0.66-2.016,1.787-2.511,2.627c-0.778,1.321-1.207,2.879-1.89,4.485
			c-0.248,0.586-0.523,1.33-0.308,2.067c0.266,0.892,1.121,1.418,2.069,1.58c1.615,0.277,2.892-0.594,3.816-1.655
			c1.068-1.226,2.146-2.504,2.863-3.832c0.283-0.524,1.863-1.908,2.162-2.461C96.499,164.392,94.356,157.91,92.79,162.265z"/>
		<path fill="#843817" d="M106.036,58.42c-0.047,0.019-0.094,0.039-0.143,0.065c-2.105,1.184-4.479,1.913-6.941,1.464
			c-1.379-0.251-2.686-0.787-4.016-1.066c-0.027-0.064-0.06-0.132-0.087-0.196c-2.823-0.274-3.577-3.418-3.707-5.709
			c-0.074-1.322-0.016-2.718,0.474-3.969c0.732-1.88,2.221-2.91,4.168-3.558c0.975-0.324,2.029-0.537,3.066-0.498
			c1.021,0.039,2.03,0.207,3.055,0.247c1.846,0.071,3.332,0.829,4.459,2.212c1.318,1.613,0.995,3.396,0.832,5.287
			C107.026,54.677,106.763,56.574,106.036,58.42z"/>
		<path fill="#F0C185" d="M95.045,69.011c0.012-0.081,0.02-0.162,0.027-0.244c0.309-0.753,0.57-1.519,0.738-2.304
			c0.02-0.076,0.032-0.151,0.048-0.229c0.168-0.885,0.252-1.774,0.271-2.668c0.181-0.094,0.477-0.033,0.49,0.201
			c0.008,0.129,0.008,0.254,0.002,0.382c0.435-0.197,0.992-0.177,1.442,0.021c0.468-0.062,0.968,0.074,1.313,0.387
			c0.19,0.013,0.379,0.052,0.554,0.12l0.026-0.001c0.258-0.302,0.621-0.471,1.006-0.516c0.468-0.479,1.367-0.591,1.992-0.291
			c0.01,0.291,0.037,0.582,0.084,0.877c0.063,0.396,0.137,0.806,0.238,1.213c0,0,0,0,0.001,0c0.216,0.875,0.548,1.745,1.101,2.488
			c0.05,0.204,0.084,0.412,0.103,0.623c0.002,0.012,0,0.022-0.002,0.035c0.483,0.467,0.641,1.211-0.019,1.783
			c-0.471,0.408-1.065,0.584-1.693,0.646c-0.229,0.426-0.707,0.684-1.244,0.743c-2.137,0.243-5.067,0.362-6.698-1.227
			C94.167,70.411,94.353,69.476,95.045,69.011z"/>
		<path fill="#E2A971" d="M95.812,66.463c1.038,0.215,2.386,0.578,3.813,0.498c1.641-0.092,2.826-0.641,3.655-1
			c-0.104-0.406-0.177-0.815-0.239-1.213c-0.047-0.295-0.074-0.586-0.084-0.877c-0.625-0.3-1.523-0.188-1.992,0.291
			c-0.385,0.045-0.748,0.214-1.006,0.516l-0.025,0.002c-0.174-0.069-0.361-0.108-0.555-0.121c-0.346-0.313-0.846-0.447-1.313-0.387
			c-0.451-0.198-1.01-0.22-1.443-0.021c0.006-0.128,0.006-0.253-0.002-0.382c-0.015-0.234-0.311-0.295-0.49-0.201
			c-0.021,0.894-0.104,1.783-0.271,2.668C95.845,66.312,95.831,66.387,95.812,66.463z"/>
		<path fill="#F0C185" d="M94.616,61.783c-0.371-0.95-0.68-1.972-0.795-2.82c-0.039-0.288-0.068-0.572-0.084-0.855
			c-0.072-1.355-0.33-5.4-0.305-6.109c0.053-1.455,0.595-2.307,1.407-2.77c0.884-0.504,2.086-0.544,3.328-0.4
			c1.777,0.206,3.707-0.475,5.41,0.254c1.81,0.773,2.279,2.451,2.211,4.197c-0.035,0.854-0.144,1.729-0.291,2.574
			c-0.164,0.924,0.035,1.83-0.029,2.75c-0.053,0.733-1.354,4.713-2.198,5.737c-1.132,1.371-3.008,1.492-4.712,1.445
			c-1.546-0.043-2.592-1.164-3.227-2.396C95.09,62.914,94.842,62.363,94.616,61.783z"/>
		<path fill="#F0C185" d="M104.692,58.43c-0.041-0.047-0.068-0.106-0.076-0.182c-0.006-0.061-0.008-0.12-0.011-0.179
			c-0.063-0.087-0.089-0.199-0.044-0.321c0.02-0.049,0.036-0.098,0.055-0.147c0.039-0.464,0.17-0.918,0.403-1.328
			c-0.233-0.015-0.452-0.224-0.301-0.465c0.263-0.421,0.768-1.136,1.387-0.839c0.592,0.281,0.488,1.144,0.421,1.644
			c-0.128,0.948-0.398,2.555-1.744,2.414C104.43,58.99,104.45,58.579,104.692,58.43z"/>
		<path fill="#F0C185" d="M93.131,55.295c0.104-0.105,0.226-0.179,0.369-0.188c0.418-0.027,0.652,0.442,0.785,0.85
			c0.078,0.24-0.043,0.419-0.201,0.475c0.15,0.562,0.24,1.167,0.316,1.427c0.063,0.211-0.048,0.398-0.191,0.475
			c-0.015,0.021-0.03,0.038-0.049,0.056c0.076,0.126,0.155,0.251,0.236,0.37c0.229,0.347-0.21,0.803-0.476,0.494
			c-0.476-0.549-0.938-1.349-1.102-2.176c-0.014-0.047-0.027-0.093-0.041-0.139C92.649,56.43,92.61,55.51,93.131,55.295z"/>
		<path fill="#FFFFFF" d="M89.268,82.405c-0.001-0.045-0.003-0.088-0.011-0.13c1.049-1.902,0.316-3.63,0.309-5.951
			c-0.008-1.918-0.293-3.942-0.979-5.742c-0.6-1.578,3.604-2.248,6.654-2.521c0.196,0.512,0.473,0.991,0.846,1.424
			c1.16,0.02,2.322,0.225,3.479,0.283c1.115,0.057,2.847,0.155,3.613-0.813c0.229-0.291,0.564-0.375,0.869-0.324
			c0.158-0.205,0.307-0.417,0.439-0.637c3.557,0.256,7.168,0.945,6.958,2.718c-0.063,0.503-0.604,1.196-0.79,1.688
			c-0.305,0.812-0.547,1.641-0.689,2.493c-0.227,1.347-0.406,2.669-0.182,4.021c0.301,1.805,0.539,3.585,1.275,5.27
			c-0.041,0.112-0.068,0.23-0.084,0.353c-0.523,3.848-1.052,7.713-0.886,11.602c0.121,2.774,0.451,5.564,0.476,8.348
			c-0.164,0.082-0.344,0.162-0.546,0.242c-0.108,0.043-0.219,0.086-0.325,0.127c-4.871,1.871-10.169,2.615-15.369,2.164
			c-1.936-0.168-3.967-0.557-5.459-1.775c-0.084-0.069-0.168-0.143-0.25-0.219c-0.115-0.106-0.221-0.213-0.316-0.317
			C89.417,97.334,89.397,89.835,89.268,82.405z"/>
		<path fill="#194B8E" d="M87.875,127.997c-0.422-5.326-0.842-10.619-0.578-16.011c0.057-1.153,0.012-2.371-0.018-3.602
			c-0.031-1.5-0.031-3.016,0.221-4.438c0.934,0.185,1.873,0.289,2.813,0.427c0.909,0.135,1.808,0.327,2.715,0.476
			c1.931,0.307,3.882,0.522,5.837,0.623c3.866,0.19,7.821-0.06,11.557-1.078c0.017-0.004,0.027-0.011,0.041-0.017
			c0.037,0.09,0.07,0.185,0.098,0.285c0.38,1.383-0.016,2.827,0.021,4.228c0.058,1.981,0.17,3.961,0.278,5.938
			c0.158,2.801-0.116,5.604-0.161,8.409c-0.076,4.767-1.076,8.082-1.638,12.813c-0.508,4.291,0.158,10.162,0.034,14.523
			c-0.067,2.281-0.118,4.529-0.313,6.795c-0.146,1.732,0.354,3.736-1.348,4.922c-0.984,0.688-2.285,0.857-3.498,0.713
			c-1.511-0.178-3.865-0.613-4.394-2.191c-0.203-0.604-0.226-1.274-0.262-1.904c-0.447-7.465,0.508-15.125,0.846-22.59
			c-0.959-9.85,0.084-14.646-0.021-22.571c0,0.155-1.596,0.151-1.766,0.155c-0.863,2.32-0.406,5.586-0.51,8.043
			c0,4.785-0.869,9.304-1.306,14.017c-0.146,1.569,0.026,3.112,0.281,4.664c0.245,1.517,0.49,3.024,0.538,4.563
			c0.046,1.541-0.011,3.084-0.095,4.625c-0.146,2.658-0.301,5.311-0.395,7.971c-0.109,3.125-1.617,7.072-5.834,6.074
			c-2.726-0.646-3.111-3.055-3.174-5.351c-0.196-7.426-1.271-15.44,0.634-22.729c-0.126-0.537-0.132-1.074-0.167-1.658
			C88.196,132.069,88.034,130.03,87.875,127.997z"/>
		<path fill="#14396F" d="M105.211,103.101c0.902,1.176,2.039,2.586,2.039,2.586s0.889,2.543,3.332,3.203
			c-0.15-0.039-0.051-2.8-0.031-3.084c0.063-0.91,0.102-1.914-0.822-2.464c-0.711-0.437-1.797-0.433-3.387-0.312
			C105.963,103.062,105.588,103.081,105.211,103.101z"/>
		<path fill="#14396F" d="M87.28,108.387c2.527-0.616,3.438-3.233,3.438-3.233s0.424-0.523,0.957-1.201
			c-0.291-0.025-0.576-0.072-0.856-0.146c0.003-0.041,0.008-0.082,0.014-0.125c0.043-0.557-0.52-1.027-1.004-1.014
			c-0.004,0-0.008,0-0.01,0c0-0.08-0.012-0.16-0.037-0.23c-0.643,0.023-1.146,0.133-1.539,0.375
			c-0.27,0.162-0.482,0.389-0.652,0.689C87.247,105.056,87.245,106.73,87.28,108.387z"/>
		<polygon fill="#14396F" points="101.708,106.655 100.131,111.24 100.131,105.531 		"/>
		<path fill="#AA3229" d="M99.661,69.81l1.258,1.277c0,0-0.738,1.998-1.258,1.998s-1.228-1.953-1.228-1.953L99.661,69.81z"/>
		<path fill="#14396F" d="M108.596,105.465c0,0-7.995,2.64-19.124,0.207c1.547-0.903,1.547-0.903,1.547-0.903s8.336,0.866,16.879,0
			C108.105,105.335,108.596,105.465,108.596,105.465z"/>
		<path fill="#D22940" d="M100.303,72.424l1.126,7.096v11.675l-1.553,1.638c0,0-1.902-1.376-1.902-1.509c0-0.132,0-11.76,0-11.76
			l1.062-7.142L100.303,72.424z"/>
		<path fill="#194B8E" d="M100.918,81.872c0,0.786,0.318,15.478,0.383,22.725c0.01,0.862,0.785,1.538,1.693,1.473
			c2.019-0.154,3.832-1.156,5.832-1.473c0.586-0.095,1.797-0.785,2.381-0.886c-1.561-7.641-0.443-13.994-0.277-17.229
			c0.074-1.486,0.133-2.302,0.133-2.302l1.246-14.371c0,0-1.85-1.164-5.729-1.607C106.579,68.202,100.918,80.807,100.918,81.872z"/>
		<path fill="#F0C185" d="M64.196,89.253c-0.479-0.418-0.554-1.052-0.22-1.629c-0.397-0.354-0.668-0.83-0.264-1.326
			c0.436-0.528,1.315-0.609,1.906-0.885c0.149-0.071,0.287-0.07,0.402-0.027c0.563-0.188,1.166-0.284,1.842-0.255
			c0.434,0.021,0.887,0.055,1.346,0.109c0.942,0.116,1.832,0.521,2.511,1.172c0.43,0.413,0.889,0.789,1.379,1.128
			c-0.052,0.379-0.265,0.744-0.573,1c0.025,0.127,0.013,0.271-0.061,0.423c-0.202,0.435-0.108,0.903-0.416,1.325
			c-0.25,0.342-0.596,0.578-0.981,0.754c-0.996,0.455-2.06,0.494-3.132,0.367c-0.156-0.018-0.276-0.074-0.375-0.15
			c-0.756,0.193-1.463,0.063-2.139-0.229c-0.096-0.01-0.189-0.025-0.283-0.053C64.329,90.732,63.938,89.915,64.196,89.253z"/>
		<path fill="#194B8E" d="M89.868,79.003c-0.051-0.014-0.098-0.029-0.146-0.051c-0.135,0.141-0.288,0.383-0.465,0.814
			c0.019,0.477-0.039,0.959-0.143,1.436c0.305,0.157,0.518,0.471,0.411,0.881c-0.616,2.439-1.463,4.816-2.28,7.201
			c-0.384,1.113-0.791,2.228-1.033,3.379c-0.113,0.542-0.758,1.089-0.824,1.637c-0.014,0.221-0.024,0.438-0.035,0.658
			c-0.239-0.094-0.485-0.182-0.737-0.259c-1.554-0.777-2.669-1.133-4.465-1.067c-0.053,0-0.105,0-0.158,0.001
			c0.457-1.956-0.301-1.23-0.147-3.193c0.069-0.929,1.313-4.521,1.384-5.447c0.176-2.214,0.851-4.373,1.579-6.453
			c0.518-1.479,1.145-4.676,2.509-6.762c0.748-1.463,1.958-2.76,3.823-2.687c0.709,0.029,0.954,0.729,0.729,1.192
			c0.52,0.44,0.754,1.142,0.92,1.827c0.457,1.893,1.549,4.023,0.811,5.978C91.342,78.767,90.638,79.21,89.868,79.003z"/>
		<path fill="#194B8E" d="M86.899,102.962c0.615,0.399,2.061,1.239,2.88,1.496c2.472,0.774,5.8,1.795,7.653,1.834
			c0.893,0.021,1.618-0.675,1.602-1.521c-0.172-7.188-0.732-21.716-0.732-22.5c0-1.066-5.674-14.07-5.674-14.07
			c-3.883,0.443-5.729,1.607-5.729,1.607l1.246,14.371c0,0,0.067,0.721,0.131,2.038C88.418,89.275,89.004,96.249,86.899,102.962z"/>
		<path fill="#1963AA" d="M105.797,68.202c0,0-4.879,8.277-4.879,13.67c0,1.596,0.142,5.697,0.142,5.697s0.819-5.743,2.3-8.627
			c1.127-2.197,6.709-10.25,6.709-10.25S107.543,67.775,105.797,68.202z"/>
		<path fill="#1963AA" d="M93.276,68.202c0,0,5.018,8.277,5.018,13.67c0,1.596,0.142,5.697,0.142,5.697s-1.24-5.743-2.72-8.627
			c-1.129-2.197-6.711-10.25-6.711-10.25S91.528,67.775,93.276,68.202z"/>
		<polygon fill="#E5E5E5" points="103.73,67.078 99.592,69.81 101.312,72.82 104.903,67.96 		"/>
		<polygon fill="#E5E5E5" points="95.522,67.078 99.661,69.81 97.938,72.82 94.349,67.96 		"/>
		<path fill="#F0C185" d="M114.02,120.737c1.024,0.281,2.649,0.722,3.436-0.305c0.051-0.043,0.1-0.09,0.146-0.145
			c0.005-0.006,0.01-0.012,0.016-0.018c0.646-0.42,1.088-1.052,1.35-1.822c0.412-0.729,0.693-1.541,0.764-2.545
			c0.105-1.578,0.103-3.473-0.528-4.896c-0.447-1.006-1.369-0.905-1.91-0.308c-0.106-0.045-0.232-0.051-0.373,0.003
			c-0.397,0.147-0.795-0.011-1.19,0.245c-0.324,0.207-0.564,0.527-0.76,0.898c-0.503,0.949-0.651,2.027-0.66,3.139
			c-0.001,0.16,0.035,0.293,0.09,0.398c-0.338,1.01-0.156,2.008,0.205,2.975c-0.228,0.201-0.353,0.58-0.256,0.903
			C113.562,119.067,113.233,120.521,114.02,120.737z M115.862,118.004c0.053-0.306,0.104-0.604,0.178-0.899
			c0.061-0.244,0.135-0.455,0.221-0.683c0.029-0.078,0.029-0.116,0.025-0.133c0.006,0.012,0.021,0.03,0.068,0.051
			c0.145,0.065,0.272,0.065,0.384,0.021c0,0.019,0.001,0.039,0.001,0.058c0.002,0.149-0.037,0.722-0.017,0.597
			c-0.004,0.021-0.01,0.041-0.014,0.061c-0.158,0.232-0.34,0.445-0.526,0.656C116.057,117.808,115.952,117.9,115.862,118.004z"/>
		<path fill="#194B8E" d="M110.555,69.105c1.592,0.146,2.653,1.34,3.335,2.672c1.363,2.086,1.99,5.283,2.511,6.762
			c0.729,2.08,1.403,4.239,1.579,6.453c0.068,0.927,0.051,1.857,0.123,2.784c0.257,3.335,1.529,6.596,1.863,9.997
			c0.033,4.442,0.093,8.884,0.109,13.33c-0.908,0.188-1.818,0.264-2.748,0.104c-0.936-0.162-1.853-0.408-2.777-0.606
			c-0.158-3.199-0.404-6.386-0.68-9.574c-0.174-0.849-0.313-1.696-0.381-2.548c-0.109-1.393-0.152-2.786-0.234-4.18
			c-0.065-0.548-0.148-1.095-0.264-1.637c-0.244-1.151-0.652-2.266-1.033-3.379c-0.627-1.824-1.268-3.643-1.813-5.489
			C110.194,78.896,110.424,74.001,110.555,69.105z"/>
		<path fill="#843817" d="M93.122,48.99c0.063-0.004,0.129-0.002,0.193-0.002c-0.148-0.312-0.09-0.646,0.092-0.906
			c0.002-0.031,0.002-0.061,0.002-0.09c0.098-1.299,2.146-1.365,2.24-0.176c0.078-0.021,0.163-0.033,0.255-0.033
			c1.511-0.016,2.968,0.306,4.462,0.459c1.184,0.119,2.396,0.205,3.549,0.508c0.508-0.275,1.248-0.172,1.418,0.524
			c0.051,0.209,0.069,0.406,0.066,0.595c0.135,0.121,0.24,0.285,0.297,0.502c0.035,0.135,0.057,0.261,0.072,0.386
			c0.104,0.104,0.205,0.212,0.305,0.321c0.014,0.014,0.025,0.027,0.038,0.043c0.458,0.499-1.878,1.814-2.149,1.925
			c-1.305,0.536-2.748,0.771-4.166,0.665c-1.258-0.093-2.49-0.453-3.594-1.037c-0.99-0.524-1.854-1.616-3.08-1.553
			C91.681,51.194,91.685,49.064,93.122,48.99z"/>
		<path fill="#194B8E" d="M88.276,86.219c0,0-1.607,11.023-5.812,10.824c-4.2-0.2-11.688-4.848-11.688-4.848l1.202-5.756
			l7.443,3.027L88.276,86.219z"/>
		<path fill="#E2A971" d="M70.364,88.557c0.021-0.19-0.001-0.383-0.063-0.563c-0.172-0.507-0.576-1.437-1.137-1.056
			c-0.75,0.514-2.568,3.513-2.568,3.513l2.389,0.032c0.585-0.104,1.284-1.063,1.349-1.641L70.364,88.557z"/>
		<path fill="#F0C185" d="M67.588,84.351c0.602,0.024,1.248,0.076,1.811,0.298c0.59,0.23,1.033,0.689,1.498,1.095
			c0.556,0.479-0.153,1.365-0.71,0.885c-0.644-0.557-1.088-0.987-1.97-1.094c-0.297-0.037-0.617-0.09-0.918-0.068
			c-0.063,0.004-0.141,0.002-0.209,0.015c0,0.008,0.002,0.016,0.002,0.024c0.041,0.119,0.093,0.233,0.152,0.345
			c0.321,0.652-0.752,1.065-1.07,0.415C65.577,85.051,66.303,84.295,67.588,84.351z"/>
		<polygon fill="#843817" points="40.165,63.238 40.032,63.88 88.693,105.321 89.379,104.079 		"/>
		<path fill="#F0C185" d="M64.245,86.14c0.93-0.195,1.926-0.558,2.871-0.649c0.525-0.053,1.227,0.157,1.324,0.748
			c0.02,0.114,0.014,0.218-0.015,0.313c0.518-0.055,1.146-0.043,1.416,0.439c0.322,0.572-0.129,1.158-0.676,1.358
			c0.295,0.148,0.539,0.369,0.6,0.678c0.265,1.351-2.926,1.339-3.654,1.484c-0.729,0.146-0.971-0.952-0.243-1.099
			c0.072-0.015,0.146-0.026,0.219-0.04c-0.244-0.016-0.482-0.061-0.728-0.143c-0.545-0.184-0.5-0.954,0.058-1.084
			c0.119-0.026,0.239-0.053,0.359-0.075c-0.299-0.02-0.596-0.084-0.888-0.22c-0.27-0.125-0.4-0.382-0.379-0.618
			c-0.008,0.003-0.016,0.004-0.021,0.005C63.764,87.392,63.52,86.294,64.245,86.14z"/>
	</g>
	<g>
		<path fill="#9E8A66" d="M46.783,22.081h-3.96v-6.064h3.96V22.081z M43.636,21.309h2.335v-4.521h-2.335V21.309z"/>
		<path fill="#9E8A66" d="M51.178,22.081h-3.962v-8.448h3.962V22.081z M48.031,21.309h2.334v-6.903h-2.334V21.309z"/>
		<path fill="#9E8A66" d="M55.64,22.081h-3.962V11.566h3.962V22.081z M52.491,21.309h2.335v-8.971h-2.335V21.309z"/>
		<polygon fill="#9E8A66" points="42.352,15.792 41.941,15.126 52.708,9.124 53.119,9.792 		"/>
		<path fill="#9E8A66" d="M53.444,10.911l-1.757-2.506l5.35-1.243L53.444,10.911z M53.008,8.894l0.535,0.766l1.101-1.146
			L53.008,8.894z"/>
	</g>
</g>
<g>
	<g>
		<polygon fill="#E9E2CE" points="95.87,25.29 100.032,36.156 96.815,34.741 93.508,26.108 		"/>
		<path fill="#9E8A66" d="M100.749,36.898l-4.258-1.873l-3.504-9.148l3.127-1.081L100.749,36.898z M97.14,34.458l2.176,0.957
			l-3.688-9.629l-1.598,0.553L97.14,34.458z"/>
	</g>
	<g>
		<polygon fill="#E9E2CE" points="94.407,25.29 90.247,36.156 93.463,34.741 96.771,26.108 		"/>
		<path fill="#9E8A66" d="M89.532,36.898l4.633-12.104l3.127,1.081l-3.504,9.148L89.532,36.898z M94.651,25.786l-3.688,9.629
			l2.177-0.957l3.108-8.119L94.651,25.786z"/>
	</g>
	<g>
		<path fill="#E9E2CE" d="M94.185,18.584L94.185,18.584c-0.813-0.855-2.309-0.269-2.244,0.883l0,0
			c0.039,0.726-0.59,1.321-1.354,1.284l0,0c-1.211-0.059-1.83,1.359-0.93,2.133l0,0c0.566,0.486,0.566,1.332,0,1.816l0,0
			c-0.9,0.773-0.281,2.191,0.93,2.133l0,0c0.764-0.037,1.393,0.562,1.354,1.285l0,0c-0.063,1.15,1.431,1.738,2.244,0.884l0,0
			c0.511-0.539,1.398-0.539,1.911,0l0,0c0.813,0.854,2.304,0.268,2.241-0.884l0,0c-0.039-0.725,0.592-1.322,1.354-1.285l0,0
			c1.209,0.06,1.828-1.358,0.929-2.133l0,0c-0.565-0.484-0.565-1.33,0-1.816l0,0c0.899-0.772,0.28-2.19-0.929-2.133l0,0
			c-0.764,0.037-1.395-0.56-1.354-1.284l0,0c0.063-1.15-1.43-1.738-2.241-0.883l0,0C95.584,19.122,94.695,19.122,94.185,18.584z"/>
		<path fill="#9E8A66" d="M97.043,29.795c-0.467,0-0.918-0.188-1.25-0.536c-0.168-0.178-0.398-0.275-0.652-0.275
			c-0.253,0-0.485,0.099-0.654,0.275c-0.487,0.514-1.235,0.674-1.905,0.409c-0.674-0.264-1.084-0.88-1.045-1.569
			c0.014-0.24-0.078-0.468-0.259-0.637c-0.178-0.17-0.414-0.257-0.668-0.244c-0.723,0.034-1.374-0.354-1.651-0.992
			c-0.278-0.638-0.108-1.35,0.431-1.813c0.188-0.16,0.291-0.382,0.291-0.622c0-0.239-0.104-0.461-0.291-0.621
			c-0.539-0.464-0.709-1.174-0.431-1.813c0.277-0.64,0.926-1.025,1.651-0.992c0.253,0.01,0.49-0.075,0.668-0.244
			c0.181-0.171,0.271-0.396,0.259-0.637c-0.039-0.689,0.371-1.307,1.045-1.569c0.67-0.265,1.418-0.104,1.905,0.408l0,0
			c0.169,0.179,0.401,0.276,0.654,0.276c0.254,0,0.484-0.099,0.652-0.276c0.487-0.513,1.235-0.673,1.906-0.408
			c0.672,0.265,1.081,0.88,1.045,1.569c-0.014,0.24,0.078,0.466,0.258,0.637c0.18,0.169,0.416,0.256,0.668,0.244
			c0.729-0.035,1.373,0.354,1.651,0.992c0.279,0.639,0.109,1.349-0.429,1.813c-0.188,0.16-0.291,0.382-0.291,0.621
			c0,0.24,0.104,0.462,0.291,0.622c0.538,0.463,0.708,1.175,0.429,1.813c-0.278,0.639-0.925,1.026-1.651,0.992
			c-0.252-0.013-0.488,0.074-0.668,0.244c-0.18,0.169-0.271,0.396-0.258,0.637c0.036,0.689-0.373,1.307-1.045,1.569
			C97.486,29.753,97.264,29.795,97.043,29.795z M95.14,28.211c0.479,0,0.938,0.194,1.258,0.531c0.308,0.323,0.715,0.323,0.992,0.213
			c0.277-0.107,0.564-0.382,0.543-0.816c-0.024-0.455,0.154-0.898,0.492-1.222c0.341-0.322,0.81-0.492,1.285-0.47
			c0.459,0.024,0.744-0.251,0.859-0.517c0.116-0.265,0.117-0.65-0.223-0.943c-0.355-0.305-0.562-0.74-0.562-1.195
			s0.205-0.891,0.562-1.194c0.34-0.292,0.339-0.681,0.223-0.943c-0.115-0.264-0.396-0.538-0.859-0.516
			c-0.477,0.021-0.944-0.148-1.285-0.472c-0.338-0.319-0.518-0.767-0.492-1.221c0.021-0.437-0.266-0.707-0.543-0.816
			c-0.277-0.108-0.686-0.11-0.992,0.213c-0.319,0.339-0.778,0.531-1.258,0.531c-0.48,0-0.938-0.192-1.26-0.531
			c-0.307-0.323-0.715-0.321-0.99-0.213c-0.278,0.109-0.567,0.381-0.543,0.816c0.021,0.454-0.156,0.9-0.494,1.221
			c-0.339,0.322-0.809,0.492-1.286,0.472c-0.456-0.022-0.742,0.252-0.859,0.516c-0.112,0.264-0.115,0.651,0.227,0.943
			c0.354,0.305,0.56,0.739,0.56,1.194s-0.205,0.892-0.56,1.195c-0.342,0.293-0.339,0.68-0.227,0.943
			c0.115,0.266,0.397,0.538,0.859,0.517c0.479-0.021,0.947,0.146,1.286,0.47c0.338,0.322,0.519,0.767,0.494,1.222
			c-0.024,0.436,0.265,0.709,0.543,0.816c0.275,0.108,0.685,0.11,0.99-0.213C94.204,28.406,94.661,28.211,95.14,28.211z"/>
	</g>
</g>
</svg>
