<?xml version="1.0" encoding="utf-8"?>
<!-- Generator: Adobe Illustrator 15.0.0, SVG Export Plug-In . SVG Version: 6.00 Build 0)  -->
<!DOCTYPE svg PUBLIC "-//W3C//DTD SVG 1.1//EN" "http://www.w3.org/Graphics/SVG/1.1/DTD/svg11.dtd">
<svg version="1.1" id="Capa_1" xmlns="http://www.w3.org/2000/svg" xmlns:xlink="http://www.w3.org/1999/xlink" x="0px" y="0px"
	 width="199.5px" height="143.5px" viewBox="0 0 199.5 143.5" enable-background="new 0 0 199.5 143.5" xml:space="preserve">
<g>
	<g>
		<path opacity="0.29" fill="#231F20" enable-background="new    " d="M5.874,130.954c-1.162,0.688-1.165,2.364-0.011,3.063
			c1.572,0.94,3.55,0.938,5.118-0.011L77.153,94.03c1.001-0.604,0.96-2.066-0.071-2.614c-1.45-0.771-3.21-0.73-4.624,0.105
			L5.874,130.954z"/>
		<g>
			<g>
				<g enable-background="new    ">
					<g enable-background="new    ">
						<g>
							<g>
								<defs>
									<path id="SVGID_1_" d="M19.697,128.204l-0.008,1.567c-0.002,0.864-0.575,1.733-1.717,2.399
										c-2.298,1.336-6.034,1.336-8.349,0c-1.165-0.672-1.747-1.557-1.746-2.438l0.01-1.564c-0.002,0.883,0.58,1.764,1.742,2.436
										c2.315,1.334,6.053,1.334,8.351,0C19.125,129.939,19.694,129.075,19.697,128.204z"/>
								</defs>
								<clipPath id="SVGID_2_">
									<use xlink:href="#SVGID_1_"  overflow="visible"/>
								</clipPath>
								<g clip-path="url(#SVGID_2_)">
									<path fill="#2C3E50" d="M19.697,128.204l-0.008,1.567c-0.002,0.864-0.575,1.733-1.717,2.399
										c-2.298,1.336-6.034,1.336-8.349,0c-1.165-0.672-1.747-1.557-1.746-2.438l0.01-1.564c-0.002,0.883,0.58,1.764,1.742,2.436
										c2.315,1.334,6.053,1.334,8.351,0C19.125,129.939,19.694,129.075,19.697,128.204L19.697,128.204z"/>
								</g>
							</g>
						</g>
					</g>
					<g>
						<path fill="#23313E" d="M17.953,125.768c2.314,1.336,2.326,3.5,0.026,4.836c-2.298,1.334-6.034,1.334-8.351,0
							c-2.313-1.336-2.323-3.5-0.027-4.836C11.903,124.432,15.639,124.432,17.953,125.768z"/>
					</g>
				</g>
			</g>
			<g>
				<g enable-background="new    ">
					<g enable-background="new    ">
						<g>
							<g>
								<defs>
									<path id="SVGID_3_" d="M74.995,95.323l-0.009,1.563c-0.004,0.87-0.574,1.742-1.716,2.404c-2.298,1.334-6.035,1.334-8.352,0
										c-1.165-0.674-1.746-1.556-1.742-2.435l0.006-1.567c-0.002,0.881,0.582,1.761,1.746,2.435c2.313,1.336,6.05,1.336,8.349,0
										C74.42,97.057,74.992,96.191,74.995,95.323z"/>
								</defs>
								<clipPath id="SVGID_4_">
									<use xlink:href="#SVGID_3_"  overflow="visible"/>
								</clipPath>
								<g clip-path="url(#SVGID_4_)">
									<path fill="#2C3E50" d="M74.995,95.323l-0.009,1.563c-0.004,0.87-0.574,1.742-1.716,2.404
										c-2.298,1.334-6.035,1.334-8.352,0c-1.165-0.674-1.746-1.556-1.742-2.435l0.006-1.567
										c-0.002,0.881,0.582,1.761,1.746,2.435c2.313,1.336,6.05,1.336,8.349,0C74.42,97.057,74.992,96.191,74.995,95.323
										L74.995,95.323z"/>
								</g>
							</g>
						</g>
					</g>
					<g>
						<path fill="#23313E" d="M73.251,92.885c2.315,1.336,2.326,3.5,0.026,4.836c-2.299,1.336-6.035,1.336-8.349,0
							c-2.315-1.336-2.326-3.5-0.028-4.836C67.199,91.549,70.936,91.549,73.251,92.885z"/>
					</g>
				</g>
			</g>
			<g>
				<g>
					<g enable-background="new    ">
						<g enable-background="new    ">
							<g>
								<g>
									<defs>
										<path id="SVGID_5_" d="M15.979,69.911l-0.053,57.565c-0.001,0.319-0.21,0.644-0.629,0.885c-0.84,0.488-2.21,0.488-3.056,0
											c-0.429-0.247-0.64-0.571-0.64-0.896l0.053-57.567c0,0.321,0.214,0.646,0.64,0.894c0.846,0.485,2.214,0.487,3.055,0
											C15.769,70.548,15.979,70.23,15.979,69.911z"/>
									</defs>
									<clipPath id="SVGID_6_">
										<use xlink:href="#SVGID_5_"  overflow="visible"/>
									</clipPath>
									<g clip-path="url(#SVGID_6_)" enable-background="new    ">
										<path fill="#2C3E50" d="M15.979,69.911l-0.053,57.565c-0.001,0.319-0.21,0.644-0.629,0.885
											c-0.84,0.488-2.21,0.488-3.056,0c-0.429-0.247-0.64-0.571-0.64-0.896l0.053-57.567c0,0.321,0.214,0.646,0.64,0.894
											c0.846,0.485,2.214,0.487,3.055,0C15.769,70.548,15.979,70.23,15.979,69.911L15.979,69.911z"/>
									</g>
								</g>
							</g>
						</g>
						<g>
							<path fill="#263545" d="M15.344,87.084c0.845,0.49,0.85,1.283,0.005,1.771c-0.841,0.485-2.209,0.485-3.055,0
								c-0.849-0.487-0.854-1.28-0.014-1.771C13.125,86.596,14.495,86.596,15.344,87.084z"/>
						</g>
					</g>
				</g>
				<g>
					<g enable-background="new    ">
						<g enable-background="new    ">
							<g>
								<g>
									<defs>
										<path id="SVGID_7_" d="M71.236,37.229l-0.057,57.565c-0.001,0.323-0.208,0.642-0.63,0.884c-0.839,0.49-2.207,0.49-3.053,0
											c-0.43-0.248-0.642-0.568-0.642-0.895l0.054-57.565c-0.004,0.321,0.212,0.646,0.641,0.894
											c0.844,0.488,2.214,0.488,3.056,0C71.025,37.868,71.233,37.547,71.236,37.229z"/>
									</defs>
									<clipPath id="SVGID_8_">
										<use xlink:href="#SVGID_7_"  overflow="visible"/>
									</clipPath>
									<g clip-path="url(#SVGID_8_)" enable-background="new    ">
										<path fill="#2C3E50" d="M71.236,37.229l-0.057,57.565c-0.001,0.323-0.208,0.642-0.63,0.884
											c-0.839,0.49-2.207,0.49-3.053,0c-0.43-0.248-0.642-0.568-0.642-0.895l0.054-57.565c-0.004,0.321,0.212,0.646,0.641,0.894
											c0.844,0.488,2.214,0.488,3.056,0C71.025,37.868,71.233,37.547,71.236,37.229L71.236,37.229z"/>
									</g>
								</g>
							</g>
						</g>
						<g>
							<path fill="#263545" d="M70.598,54.402c0.844,0.488,0.849,1.283,0.007,1.771c-0.842,0.489-2.212,0.489-3.056,0
								c-0.848-0.488-0.854-1.283-0.012-1.771C68.38,53.913,69.748,53.913,70.598,54.402z"/>
						</g>
					</g>
				</g>
				<g enable-background="new    ">
					<g enable-background="new    ">
						<g>
							<g>
								<defs>
									<path id="SVGID_9_" d="M73.905,51.764l1.899,1.104c-0.216-0.123-0.515-0.107-0.842,0.082l-1.9-1.104
										C73.39,51.658,73.688,51.641,73.905,51.764z"/>
								</defs>
								<clipPath id="SVGID_10_">
									<use xlink:href="#SVGID_9_"  overflow="visible"/>
								</clipPath>
								<g clip-path="url(#SVGID_10_)" enable-background="new    ">
									<path fill="#2C3E50" d="M74.962,52.95l-1.9-1.103c0.328-0.189,0.626-0.209,0.843-0.086l1.899,1.104
										C75.588,52.745,75.29,52.76,74.962,52.95L74.962,52.95z"/>
								</g>
							</g>
						</g>
					</g>
					<g>
						<polygon fill="#263545" points="9.43,90.785 7.531,89.682 73.062,51.848 74.962,52.95 						"/>
					</g>
					<g enable-background="new    ">
						<g>
							<g>
								<defs>
									<path id="SVGID_11_" d="M8.595,93.588l-1.901-1.104c-0.209-0.125-0.342-0.389-0.342-0.76
										c-0.005-0.752,0.523-1.666,1.179-2.043l1.899,1.104c-0.654,0.38-1.182,1.293-1.179,2.041
										C8.253,93.202,8.383,93.463,8.595,93.588z"/>
								</defs>
								<clipPath id="SVGID_12_">
									<use xlink:href="#SVGID_11_"  overflow="visible"/>
								</clipPath>
								<g clip-path="url(#SVGID_12_)" enable-background="new    ">
									<path fill="#2C3E50" d="M8.595,93.588l-1.901-1.104c-0.209-0.125-0.342-0.389-0.342-0.76
										c-0.005-0.752,0.523-1.666,1.179-2.043l1.899,1.104c-0.654,0.38-1.182,1.293-1.179,2.041
										C8.253,93.202,8.383,93.463,8.595,93.588L8.595,93.588z"/>
								</g>
							</g>
						</g>
					</g>
					<g>
						<path fill="#23313E" d="M74.962,52.95c0.65-0.377,1.183-0.074,1.187,0.676c0.002,0.754-0.524,1.666-1.181,2.045L9.439,93.504
							c-0.654,0.38-1.184,0.078-1.188-0.678c-0.003-0.748,0.523-1.661,1.179-2.041L74.962,52.95z"/>
					</g>
				</g>
				<g>
					<g enable-background="new    ">
						<g enable-background="new    ">
							<g>
								<g>
									<defs>
										<path id="SVGID_13_" d="M49.966,49.42l-0.948-0.552c0.358,0.207,0.857,0.177,1.406-0.142
											c1.097-0.634,1.984-2.166,1.98-3.426c0-0.225-0.028-0.424-0.083-0.6l0.948,0.554c0.057,0.171,0.083,0.374,0.084,0.599
											c0.003,1.262-0.886,2.795-1.981,3.424C50.825,49.6,50.327,49.629,49.966,49.42z"/>
									</defs>
									<clipPath id="SVGID_14_">
										<use xlink:href="#SVGID_13_"  overflow="visible"/>
									</clipPath>
									<g clip-path="url(#SVGID_14_)" enable-background="new    ">
										<path fill="#F2D541" d="M49.966,49.42l-0.948-0.552c0.358,0.207,0.857,0.177,1.406-0.142
											c1.097-0.634,1.984-2.166,1.98-3.426c0-0.225-0.028-0.424-0.083-0.6l0.948,0.554c0.057,0.171,0.083,0.374,0.084,0.599
											c0.003,1.262-0.886,2.795-1.981,3.424C50.825,49.6,50.327,49.629,49.966,49.42L49.966,49.42z"/>
									</g>
								</g>
							</g>
						</g>
						<g>
							<polygon fill="#993228" points="51.486,48.557 50.536,48.006 50.598,48.031 51.547,48.581 							"/>
						</g>
						<g>
							<polygon fill="#A9372C" points="51.438,48.646 50.489,48.094 50.536,48.006 51.486,48.557 							"/>
						</g>
						<g>
							<polygon fill="#A9382D" points="51.547,48.581 50.598,48.031 52.125,45.221 53.075,45.775 							"/>
						</g>
						<g>
							<polygon fill="#993228" points="53.007,45.747 52.055,45.193 52.125,45.221 53.075,45.775 							"/>
						</g>
						<g>
							<polygon fill="#A9372C" points="53.007,45.747 52.055,45.193 52.323,44.704 53.271,45.257 							"/>
						</g>
						<g>
							<polygon fill="#B33B2F" points="51.438,48.646 51.051,48.385 51.486,48.557 							"/>
						</g>
						<g>
							<polygon fill="#74261F" points="51.438,48.646 50.489,48.094 50.1,47.833 51.051,48.385 							"/>
						</g>
						<g>
							<polygon fill="#993228" points="51.051,48.385 50.1,47.833 50.536,48.006 51.486,48.557 							"/>
						</g>
						<g enable-background="new    ">
							<g>
								<g>
									<defs>
										<path id="SVGID_15_" d="M63.168,24.865c1.092-0.632,1.975-2.166,1.972-3.423c0.317,0.185,0.635,0.367,0.951,0.554
											c0.002,1.254-0.881,2.789-1.974,3.42C63.834,25.249,63.453,25.028,63.168,24.865z"/>
									</defs>
									<clipPath id="SVGID_16_">
										<use xlink:href="#SVGID_15_"  overflow="visible"/>
									</clipPath>
									<g clip-path="url(#SVGID_16_)" enable-background="new    ">
										<path fill="#F2D541" d="M64.118,25.415l-0.949-0.551c1.092-0.632,1.975-2.166,1.972-3.423
											c-0.002-0.627-0.224-1.066-0.579-1.274l0.95,0.551c0.356,0.208,0.577,0.649,0.58,1.277
											C66.093,23.249,65.21,24.784,64.118,25.415L64.118,25.415z"/>
									</g>
								</g>
							</g>
						</g>
						<g enable-background="new    ">
							<g>
								<g>
									<defs>
										<path id="SVGID_17_" d="M63.025,24.939c0.05-0.021,0.096-0.048,0.145-0.074l0.949,0.551
											c-0.05,0.027-0.096,0.054-0.145,0.078C63.689,25.327,63.309,25.104,63.025,24.939z"/>
									</defs>
									<clipPath id="SVGID_18_">
										<use xlink:href="#SVGID_17_"  overflow="visible"/>
									</clipPath>
									<g clip-path="url(#SVGID_18_)" enable-background="new    ">
										<path fill="#F2D541" d="M63.974,25.493l-0.949-0.555c0.05-0.021,0.096-0.048,0.145-0.074l0.949,0.551
											C64.069,25.443,64.023,25.468,63.974,25.493L63.974,25.493z"/>
									</g>
								</g>
							</g>
						</g>
						<g>
							<polygon fill="#B19B2D" points="53.271,45.257 52.323,44.704 63.025,24.939 63.974,25.493 							"/>
						</g>
						<g>
							<polygon fill="#A9372D" points="63.974,25.493 63.025,24.939 64.08,22.99 65.03,23.542 							"/>
						</g>
						<g enable-background="new    ">
							<g>
								<g>
									<defs>
										<path id="SVGID_19_" d="M65.14,21.442c-0.002-0.627-0.224-1.066-0.579-1.274l0.95,0.551
											c0.356,0.208,0.577,0.649,0.58,1.277C65.775,21.809,65.458,21.625,65.14,21.442z"/>
									</defs>
									<clipPath id="SVGID_20_">
										<use xlink:href="#SVGID_19_"  overflow="visible"/>
									</clipPath>
									<g clip-path="url(#SVGID_20_)" enable-background="new    ">
										<path fill="#F2D541" d="M64.118,25.415l-0.949-0.551c1.092-0.632,1.975-2.166,1.972-3.423
											c-0.002-0.627-0.224-1.066-0.579-1.274l0.95,0.551c0.356,0.208,0.577,0.649,0.58,1.277
											C66.093,23.249,65.21,24.784,64.118,25.415L64.118,25.415z"/>
									</g>
								</g>
							</g>
						</g>
						<g>
							<polygon fill="#993228" points="51.278,45.064 50.327,44.512 52.055,45.193 53.007,45.747 							"/>
						</g>
						<g>
							<polygon fill="#A9372D" points="51.278,45.064 50.327,44.512 50.553,44.096 51.502,44.646 							"/>
						</g>
						<g enable-background="new    ">
							<g>
								<g>
									<defs>
										<path id="SVGID_21_" d="M49.966,49.42l-0.948-0.552c-0.354-0.208-0.578-0.649-0.579-1.275
											c0-0.133,0.011-0.269,0.029-0.405l0.948,0.553c-0.019,0.139-0.027,0.271-0.027,0.402
											C49.391,48.771,49.612,49.213,49.966,49.42z"/>
									</defs>
									<clipPath id="SVGID_22_">
										<use xlink:href="#SVGID_21_"  overflow="visible"/>
									</clipPath>
									<g clip-path="url(#SVGID_22_)" enable-background="new    ">
										<path fill="#E74B3D" d="M49.966,49.42l-0.948-0.552c-0.354-0.208-0.578-0.649-0.579-1.275
											c0-0.133,0.011-0.269,0.029-0.405l0.948,0.553c-0.019,0.139-0.027,0.271-0.027,0.402
											C49.391,48.771,49.612,49.213,49.966,49.42L49.966,49.42z"/>
									</g>
								</g>
							</g>
						</g>
						<g>
							<path fill="#E14139" d="M53.271,45.257c0.057,0.171,0.083,0.374,0.084,0.599c0.003,1.262-0.886,2.795-1.981,3.426
								c-1.092,0.632-1.979,0.125-1.983-1.139c0-0.131,0.01-0.266,0.027-0.402l1.635,0.646l0.387,0.263l0.048-0.09l0.063,0.022
								l1.527-2.808l-0.067-0.026L53.271,45.257z"/>
						</g>
						<g>
							<polygon fill="#993228" points="49.417,47.74 48.468,47.188 50.1,47.833 51.051,48.385 							"/>
						</g>
						<g>
							<polygon fill="#993228" points="51.013,44.96 50.062,44.408 50.327,44.512 51.278,45.064 							"/>
						</g>
						<g>
							<path fill="#E14139" d="M51.502,44.646l-0.226,0.418l-0.265-0.104c0.112-0.091,0.228-0.168,0.347-0.236
								C51.408,44.695,51.456,44.67,51.502,44.646z"/>
						</g>
						<g enable-background="new    ">
							<g>
								<g>
									<defs>
										<path id="SVGID_23_" d="M51.013,44.96l-0.951-0.553c0.112-0.089,0.23-0.171,0.351-0.237
											c0.048-0.025,0.096-0.054,0.142-0.074l0.949,0.551c-0.047,0.023-0.095,0.049-0.144,0.076
											C51.241,44.792,51.126,44.87,51.013,44.96z"/>
									</defs>
									<clipPath id="SVGID_24_">
										<use xlink:href="#SVGID_23_"  overflow="visible"/>
									</clipPath>
									<g clip-path="url(#SVGID_24_)" enable-background="new    ">
										<path fill="#E74B3D" d="M51.013,44.96l-0.951-0.553c0.112-0.089,0.23-0.171,0.351-0.237
											c0.048-0.025,0.096-0.054,0.142-0.074l0.949,0.551c-0.047,0.023-0.095,0.049-0.144,0.076
											C51.241,44.792,51.126,44.87,51.013,44.96L51.013,44.96z"/>
									</g>
								</g>
							</g>
						</g>
						<g>
							<polygon fill="#A9372D" points="51.502,44.646 50.553,44.096 61.255,24.331 62.209,24.883 							"/>
						</g>
						<g>
							<polygon fill="#74261F" points="65.03,23.542 64.08,22.99 62.548,21.948 63.498,22.5 							"/>
						</g>
						<g>
							<polygon fill="#E14139" points="63.498,22.5 65.03,23.542 63.974,25.493 53.271,45.257 53.007,45.747 51.278,45.064 
								51.502,44.646 62.209,24.883 							"/>
						</g>
						<g>
							<polygon fill="#A9372D" points="62.209,24.883 61.255,24.331 62.548,21.948 63.498,22.5 							"/>
						</g>
						<g enable-background="new    ">
							<g>
								<g>
									<defs>
										<path id="SVGID_25_" d="M64.561,20.167c0.315,0.186,0.633,0.369,0.95,0.551c-0.36-0.207-0.857-0.178-1.406,0.141
											l-0.949-0.553C63.706,19.987,64.203,19.959,64.561,20.167z"/>
									</defs>
									<clipPath id="SVGID_26_">
										<use xlink:href="#SVGID_25_"  overflow="visible"/>
									</clipPath>
									<g clip-path="url(#SVGID_26_)" enable-background="new    ">
										<path fill="#E74B3D" d="M64.105,20.858l-0.949-0.553c0.551-0.318,1.048-0.346,1.405-0.139l0.95,0.551
											C65.151,20.51,64.654,20.54,64.105,20.858L64.105,20.858z"/>
									</g>
								</g>
							</g>
						</g>
						<g>
							<path fill="#E14139" d="M64.105,20.858c1.091-0.633,1.981-0.127,1.986,1.138c0.002,1.254-0.881,2.789-1.974,3.42
								c-0.05,0.027-0.096,0.054-0.145,0.078l1.056-1.951l-1.53-1.042l-1.288,2.383c-0.058-0.174-0.084-0.375-0.084-0.599
								C62.121,23.024,63.008,21.491,64.105,20.858z"/>
						</g>
						<g enable-background="new    ">
							<g>
								<g>
									<defs>
										<path id="SVGID_27_" d="M62.209,24.883l-0.954-0.553c-0.054-0.174-0.081-0.375-0.081-0.603
											c-0.004-1.26,0.883-2.789,1.98-3.424l0.949,0.553c-1.097,0.634-1.983,2.166-1.979,3.428
											C62.126,24.508,62.153,24.709,62.209,24.883z"/>
									</defs>
									<clipPath id="SVGID_28_">
										<use xlink:href="#SVGID_27_"  overflow="visible"/>
									</clipPath>
									<g clip-path="url(#SVGID_28_)" enable-background="new    ">
										<path fill="#E74B3D" d="M62.209,24.883l-0.954-0.553c-0.054-0.174-0.081-0.375-0.081-0.603
											c-0.004-1.26,0.883-2.789,1.98-3.424l0.949,0.553c-1.097,0.634-1.983,2.166-1.979,3.428
											C62.126,24.508,62.153,24.709,62.209,24.883L62.209,24.883z"/>
									</g>
								</g>
							</g>
						</g>
						<g enable-background="new    ">
							<g>
								<g>
									<defs>
										<path id="SVGID_29_" d="M30.251,67.264L29.3,66.713c0.363,0.21,0.861,0.182,1.412-0.137
											c1.099-0.635,1.979-2.168,1.978-3.426c0-0.219-0.027-0.416-0.08-0.59l0.948,0.555c0.053,0.172,0.081,0.367,0.082,0.587
											c0.003,1.257-0.881,2.792-1.979,3.425C31.115,67.445,30.613,67.477,30.251,67.264z"/>
									</defs>
									<clipPath id="SVGID_30_">
										<use xlink:href="#SVGID_29_"  overflow="visible"/>
									</clipPath>
									<g clip-path="url(#SVGID_30_)" enable-background="new    ">
										<path fill="#F2D541" d="M30.251,67.264L29.3,66.713c0.363,0.21,0.861,0.182,1.412-0.137
											c1.099-0.635,1.979-2.168,1.978-3.426c0-0.219-0.027-0.416-0.08-0.59l0.948,0.555c0.053,0.172,0.081,0.367,0.082,0.587
											c0.003,1.257-0.881,2.792-1.979,3.425C31.115,67.445,30.613,67.477,30.251,67.264L30.251,67.264z"/>
									</g>
								</g>
							</g>
						</g>
						<g>
							<polygon fill="#A9372D" points="31.657,66.77 30.708,66.219 32.229,63.414 33.178,63.965 							"/>
						</g>
						<g>
							<polygon fill="#74261F" points="31.519,66.852 30.57,66.296 29.034,65.26 29.983,65.813 							"/>
						</g>
						<g>
							<polygon fill="#74261F" points="31.589,66.723 30.637,66.17 29.104,65.129 30.051,65.682 							"/>
						</g>
						<g>
							<polygon fill="#AA382D" points="29.983,65.813 29.034,65.26 29.104,65.129 30.051,65.682 							"/>
						</g>
						<g>
							<polygon fill="#74261F" points="30.051,65.682 29.104,65.129 28.772,64.902 29.723,65.456 							"/>
						</g>
						<g enable-background="new    ">
							<g>
								<g>
									<defs>
										<path id="SVGID_31_" d="M30.251,67.264L29.3,66.713c-0.355-0.205-0.577-0.646-0.578-1.271c0-0.176,0.017-0.355,0.05-0.541
											l0.951,0.555c-0.035,0.184-0.052,0.363-0.052,0.54C29.674,66.62,29.897,67.059,30.251,67.264z"/>
									</defs>
									<clipPath id="SVGID_32_">
										<use xlink:href="#SVGID_31_"  overflow="visible"/>
									</clipPath>
									<g clip-path="url(#SVGID_32_)" enable-background="new    ">
										<path fill="#E74B3D" d="M30.251,67.264L29.3,66.713c-0.355-0.205-0.577-0.646-0.578-1.271c0-0.176,0.017-0.355,0.05-0.541
											l0.951,0.555c-0.035,0.184-0.052,0.363-0.052,0.54C29.674,66.62,29.897,67.059,30.251,67.264L30.251,67.264z"/>
									</g>
								</g>
							</g>
						</g>
						<g>
							<path fill="#E14139" d="M33.558,63.116c0.053,0.172,0.081,0.368,0.082,0.587c0.003,1.257-0.881,2.792-1.979,3.425
								c-1.093,0.633-1.984,0.121-1.99-1.132c0-0.176,0.017-0.357,0.052-0.54l0.328,0.226l-0.068,0.133l1.536,1.037l0.07-0.127
								l0.066,0.047l1.521-2.806l-0.059-0.041L33.558,63.116z"/>
						</g>
						<g>
							<polygon fill="#74261F" points="31.657,66.77 30.708,66.219 30.637,66.17 31.589,66.723 							"/>
						</g>
						<g>
							<polygon fill="#AA382D" points="31.519,66.852 31.589,66.723 30.637,66.172 30.607,66.232 							"/>
						</g>
						<g>
							<polygon fill="#74261F" points="33.178,63.965 32.229,63.414 32.169,63.373 33.12,63.924 							"/>
						</g>
						<g>
							<polygon fill="#AA382D" points="33.12,63.924 32.169,63.373 32.61,62.563 33.558,63.116 							"/>
						</g>
						<g>
							<polygon fill="#A08C2B" points="43.726,45.495 42.776,44.941 48.468,47.188 49.417,47.74 							"/>
						</g>
						<g>
							<polygon fill="#993228" points="45.153,42.65 44.205,42.1 50.062,44.408 51.013,44.96 							"/>
						</g>
						<g enable-background="new    ">
							<g>
								<g>
									<defs>
										<path id="SVGID_33_" d="M44.205,42.1c0.003-0.062,0.003-0.119,0.003-0.174c0.318,0.184,0.634,0.365,0.95,0.551
											c0,0.059,0,0.111-0.006,0.174C44.868,42.482,44.488,42.264,44.205,42.1z"/>
									</defs>
									<clipPath id="SVGID_34_">
										<use xlink:href="#SVGID_33_"  overflow="visible"/>
									</clipPath>
									<g clip-path="url(#SVGID_34_)" enable-background="new    ">
										<path fill="#F2D541" d="M45.153,42.65L44.206,42.1c0.003-0.062,0.003-0.119,0.003-0.174
											c-0.002-0.627-0.222-1.066-0.577-1.271l0.949,0.55c0.355,0.208,0.574,0.646,0.578,1.271
											C45.158,42.534,45.158,42.588,45.153,42.65L45.153,42.65z"/>
									</g>
								</g>
							</g>
						</g>
						<g enable-background="new    ">
							<g>
								<g>
									<defs>
										<path id="SVGID_35_" d="M42.898,46.038l-0.952-0.554c0.095-0.036,0.188-0.084,0.281-0.14
											c0.189-0.108,0.375-0.245,0.549-0.405l0.95,0.556c-0.175,0.155-0.358,0.292-0.548,0.403
											C43.083,45.955,42.989,45.998,42.898,46.038z"/>
									</defs>
									<clipPath id="SVGID_36_">
										<use xlink:href="#SVGID_35_"  overflow="visible"/>
									</clipPath>
									<g clip-path="url(#SVGID_36_)" enable-background="new    ">
										<path fill="#F2D541" d="M42.898,46.038l-0.952-0.554c0.095-0.036,0.188-0.084,0.281-0.14
											c0.189-0.108,0.375-0.245,0.549-0.405l0.95,0.556c-0.175,0.155-0.358,0.292-0.548,0.403
											C43.083,45.955,42.989,45.998,42.898,46.038L42.898,46.038z"/>
									</g>
								</g>
							</g>
						</g>
						<g>
							<polygon fill="#B29C2E" points="33.558,63.116 32.61,62.563 41.946,45.484 42.898,46.038 							"/>
						</g>
						<g>
							<polygon fill="#993228" points="43.287,45.325 42.338,44.771 42.776,44.941 43.726,45.495 							"/>
						</g>
						<g>
							<path fill="#E14139" d="M42.898,46.038l0.39-0.713l0.438,0.17c-0.175,0.155-0.358,0.292-0.548,0.403
								C43.083,45.955,42.989,45.998,42.898,46.038z"/>
						</g>
						<g>
							<polygon fill="#AA382D" points="42.898,46.038 41.946,45.484 42.338,44.771 43.287,45.325 							"/>
						</g>
						<g>
							<polygon fill="#AA382D" points="43.287,45.325 42.338,44.771 43.658,42.355 44.608,42.911 							"/>
						</g>
						<g enable-background="new    ">
							<g>
								<g>
									<defs>
										<path id="SVGID_37_" d="M44.208,41.926c-0.002-0.627-0.222-1.066-0.577-1.271l0.949,0.55
											c0.355,0.208,0.574,0.646,0.578,1.271C44.841,42.292,44.527,42.109,44.208,41.926z"/>
									</defs>
									<clipPath id="SVGID_38_">
										<use xlink:href="#SVGID_37_"  overflow="visible"/>
									</clipPath>
									<g clip-path="url(#SVGID_38_)" enable-background="new    ">
										<path fill="#F2D541" d="M45.153,42.65L44.206,42.1c0.003-0.062,0.003-0.119,0.003-0.174
											c-0.002-0.627-0.222-1.066-0.577-1.271l0.949,0.55c0.355,0.208,0.574,0.646,0.578,1.271
											C45.158,42.534,45.158,42.588,45.153,42.65L45.153,42.65z"/>
									</g>
								</g>
							</g>
						</g>
						<g>
							<polygon fill="#E14139" points="29.983,65.813 30.051,65.682 31.589,66.723 31.519,66.852 							"/>
						</g>
						<g>
							<polygon fill="#74261F" points="33.12,63.924 32.169,63.373 30.633,62.329 31.583,62.883 							"/>
						</g>
						<g>
							<polygon fill="#AA382D" points="31.583,62.883 30.633,62.329 30.848,61.938 31.797,62.494 							"/>
						</g>
						<g enable-background="new    ">
							<g>
								<g>
									<defs>
										<path id="SVGID_39_" d="M31.382,62.747l-0.95-0.556c0.089-0.063,0.179-0.121,0.271-0.174
											c0.047-0.026,0.098-0.056,0.146-0.08l0.949,0.557c-0.049,0.021-0.1,0.05-0.146,0.076
											C31.56,62.624,31.469,62.68,31.382,62.747z"/>
									</defs>
									<clipPath id="SVGID_40_">
										<use xlink:href="#SVGID_39_"  overflow="visible"/>
									</clipPath>
									<g clip-path="url(#SVGID_40_)" enable-background="new    ">
										<path fill="#E74B3D" d="M31.382,62.747l-0.95-0.556c0.089-0.063,0.179-0.121,0.271-0.174
											c0.047-0.026,0.098-0.056,0.146-0.08l0.949,0.557c-0.049,0.021-0.1,0.05-0.146,0.076
											C31.56,62.624,31.469,62.68,31.382,62.747L31.382,62.747z"/>
									</g>
								</g>
							</g>
						</g>
						<g>
							<path fill="#E14139" d="M31.797,62.494l-0.215,0.39l-0.2-0.137c0.087-0.065,0.178-0.123,0.269-0.177
								C31.699,62.543,31.749,62.516,31.797,62.494z"/>
						</g>
						<g>
							<polygon fill="#74261F" points="31.583,62.883 30.633,62.329 30.432,62.191 31.382,62.747 							"/>
						</g>
						<g>
							<polygon fill="#AA382D" points="31.797,62.494 30.848,61.938 40.291,44.67 41.24,45.221 							"/>
						</g>
						<g>
							<polygon fill="#74261F" points="44.608,42.911 43.658,42.355 42.142,41.332 43.093,41.884 							"/>
						</g>
						<g>
							<polygon fill="#E14139" points="43.113,41.844 45.153,42.65 51.013,44.96 51.278,45.064 53.007,45.747 53.075,45.775 
								51.547,48.581 51.35,48.939 51.051,48.385 49.417,47.74 43.726,45.495 43.287,45.325 44.608,42.911 43.093,41.884 							"/>
						</g>
						<g>
							<polygon fill="#993228" points="43.113,41.844 42.165,41.293 44.205,42.1 45.153,42.65 							"/>
						</g>
						<g>
							<polygon fill="#AA382D" points="41.24,45.221 40.291,44.67 42.12,41.318 43.069,41.87 							"/>
						</g>
						<g>
							<polygon fill="#E14139" points="43.069,41.87 44.608,42.911 43.287,45.325 42.898,46.038 33.558,63.116 33.12,63.924 
								31.583,62.883 31.797,62.494 41.24,45.221 							"/>
						</g>
						<g>
							<polygon fill="#74261F" points="43.093,41.884 42.142,41.332 42.12,41.318 43.069,41.87 							"/>
						</g>
						<g enable-background="new    ">
							<g>
								<g>
									<defs>
										<path id="SVGID_41_" d="M43.63,40.656l0.949,0.55c-0.36-0.209-0.86-0.181-1.415,0.142l-0.949-0.553
											C42.767,40.475,43.268,40.441,43.63,40.656z"/>
									</defs>
									<clipPath id="SVGID_42_">
										<use xlink:href="#SVGID_41_"  overflow="visible"/>
									</clipPath>
									<g clip-path="url(#SVGID_42_)" enable-background="new    ">
										<path fill="#E74B3D" d="M43.165,41.346l-0.949-0.553c0.552-0.318,1.053-0.354,1.415-0.141l0.949,0.552
											C44.219,40.996,43.719,41.025,43.165,41.346L43.165,41.346z"/>
									</g>
								</g>
							</g>
						</g>
						<g>
							<path fill="#E14139" d="M43.165,41.346c1.097-0.633,1.989-0.131,1.993,1.131c0,0.059,0,0.111-0.006,0.174l-2.04-0.807
								l-0.02,0.04l-0.024-0.015l-1.829,3.352c-0.032-0.136-0.047-0.291-0.047-0.455C41.187,43.504,42.07,41.975,43.165,41.346z"/>
						</g>
						<g enable-background="new    ">
							<g>
								<g>
									<defs>
										<path id="SVGID_43_" d="M41.24,45.221l-0.948-0.551c-0.031-0.139-0.047-0.289-0.047-0.455
											c-0.006-1.26,0.878-2.792,1.972-3.422l0.949,0.553c-1.096,0.629-1.979,2.158-1.973,3.42
											C41.193,44.93,41.207,45.085,41.24,45.221z"/>
									</defs>
									<clipPath id="SVGID_44_">
										<use xlink:href="#SVGID_43_"  overflow="visible"/>
									</clipPath>
									<g clip-path="url(#SVGID_44_)" enable-background="new    ">
										<path fill="#E74B3D" d="M41.24,45.221l-0.948-0.551c-0.031-0.139-0.047-0.289-0.047-0.455
											c-0.006-1.26,0.878-2.792,1.972-3.422l0.949,0.553c-1.096,0.629-1.979,2.158-1.973,3.42
											C41.193,44.93,41.207,45.085,41.24,45.221L41.24,45.221z"/>
									</g>
								</g>
							</g>
						</g>
						<g>
							<polygon fill="#7A6B20" points="31.382,62.747 30.432,62.191 27.529,60.219 28.48,60.77 							"/>
						</g>
						<g>
							<polygon fill="#74261F" points="29.723,65.456 28.772,64.902 25.793,62.883 26.742,63.434 							"/>
						</g>
						<g enable-background="new    ">
							<g>
								<g>
									<defs>
										<path id="SVGID_45_" d="M27.529,60.219c0.047-0.221,0.07-0.438,0.07-0.646c0.316,0.183,0.634,0.364,0.949,0.549
											c0.001,0.213-0.022,0.433-0.068,0.647C28.193,60.605,27.814,60.385,27.529,60.219z"/>
									</defs>
									<clipPath id="SVGID_46_">
										<use xlink:href="#SVGID_45_"  overflow="visible"/>
									</clipPath>
									<g clip-path="url(#SVGID_46_)" enable-background="new    ">
										<path fill="#F2D541" d="M28.48,60.77l-0.951-0.551c0.047-0.221,0.07-0.438,0.07-0.646
											c-0.001-0.628-0.223-1.065-0.578-1.276l0.949,0.555c0.355,0.207,0.576,0.646,0.578,1.271
											C28.549,60.333,28.526,60.552,28.48,60.77L28.48,60.77z"/>
									</g>
								</g>
							</g>
						</g>
						<g>
							<polygon fill="#AE392E" points="26.484,63.258 25.534,62.706 26.708,60.745 27.657,61.297 							"/>
						</g>
						<g>
							<polygon fill="#74261F" points="26.742,63.434 25.793,62.883 25.534,62.706 26.484,63.258 							"/>
						</g>
						<g enable-background="new    ">
							<g>
								<g>
									<defs>
										<path id="SVGID_47_" d="M26.212,63.713l-0.951-0.551c0.117-0.047,0.238-0.104,0.359-0.172
											c0.06-0.035,0.115-0.07,0.172-0.107l0.949,0.551c-0.057,0.039-0.112,0.074-0.171,0.107
											C26.45,63.613,26.328,63.668,26.212,63.713z"/>
									</defs>
									<clipPath id="SVGID_48_">
										<use xlink:href="#SVGID_47_"  overflow="visible"/>
									</clipPath>
									<g clip-path="url(#SVGID_48_)" enable-background="new    ">
										<path fill="#F2D541" d="M26.212,63.713l-0.951-0.551c0.117-0.047,0.238-0.104,0.359-0.172
											c0.06-0.035,0.115-0.07,0.172-0.107l0.949,0.551c-0.057,0.039-0.112,0.074-0.171,0.107
											C26.45,63.613,26.328,63.668,26.212,63.713L26.212,63.713z"/>
									</g>
								</g>
							</g>
						</g>
						<g>
							<polygon fill="#AE392E" points="26.212,63.713 25.261,63.163 25.534,62.706 26.484,63.258 							"/>
						</g>
						<g enable-background="new    ">
							<g>
								<g>
									<defs>
										<path id="SVGID_49_" d="M14.934,80.818c1.091-0.633,1.977-2.16,1.971-3.418c0.319,0.185,0.636,0.367,0.951,0.555
											c0.004,1.255-0.881,2.781-1.973,3.415C15.568,81.184,15.251,81.001,14.934,80.818z"/>
									</defs>
									<clipPath id="SVGID_50_">
										<use xlink:href="#SVGID_49_"  overflow="visible"/>
									</clipPath>
									<g clip-path="url(#SVGID_50_)" enable-background="new    ">
										<path fill="#F2D541" d="M14.471,81.506l-0.949-0.553c0.361,0.211,0.86,0.182,1.412-0.137
											c1.091-0.633,1.977-2.16,1.971-3.418c0-0.084-0.001-0.166-0.012-0.24l0.95,0.55c0.008,0.079,0.013,0.159,0.013,0.245
											c0.004,1.255-0.881,2.781-1.973,3.415C15.332,81.686,14.834,81.717,14.471,81.506L14.471,81.506z"/>
									</g>
								</g>
							</g>
						</g>
						<g enable-background="new    ">
							<g>
								<g>
									<defs>
										<path id="SVGID_51_" d="M16.905,77.4c0-0.084-0.001-0.166-0.012-0.24l0.95,0.55c0.008,0.079,0.013,0.159,0.013,0.245
											C17.54,77.768,17.224,77.583,16.905,77.4z"/>
									</defs>
									<clipPath id="SVGID_52_">
										<use xlink:href="#SVGID_51_"  overflow="visible"/>
									</clipPath>
									<g clip-path="url(#SVGID_52_)" enable-background="new    ">
										<path fill="#F2D541" d="M14.471,81.506l-0.949-0.553c0.361,0.211,0.86,0.182,1.412-0.137
											c1.091-0.633,1.977-2.16,1.971-3.418c0-0.084-0.001-0.166-0.012-0.24l0.95,0.55c0.008,0.079,0.013,0.159,0.013,0.245
											c0.004,1.255-0.881,2.781-1.973,3.415C15.332,81.686,14.834,81.717,14.471,81.506L14.471,81.506z"/>
									</g>
								</g>
							</g>
						</g>
						<g>
							<polygon fill="#B69F2F" points="17.843,77.708 16.893,77.159 25.261,63.163 26.212,63.713 							"/>
						</g>
						<g>
							<polygon fill="#AE392E" points="16.433,80.073 15.481,79.518 16.893,77.159 17.843,77.708 							"/>
						</g>
						<g enable-background="new    ">
							<g>
								<g>
									<defs>
										<path id="SVGID_53_" d="M27.599,59.573c-0.001-0.628-0.223-1.065-0.578-1.276l0.949,0.555
											c0.355,0.207,0.576,0.646,0.578,1.271C28.233,59.938,27.916,59.754,27.599,59.573z"/>
									</defs>
									<clipPath id="SVGID_54_">
										<use xlink:href="#SVGID_53_"  overflow="visible"/>
									</clipPath>
									<g clip-path="url(#SVGID_54_)" enable-background="new    ">
										<path fill="#F2D541" d="M28.48,60.77l-0.951-0.551c0.047-0.221,0.07-0.438,0.07-0.646
											c-0.001-0.628-0.223-1.065-0.578-1.276l0.949,0.555c0.355,0.207,0.576,0.646,0.578,1.271
											C28.549,60.333,28.526,60.552,28.48,60.77L28.48,60.77z"/>
									</g>
								</g>
							</g>
						</g>
						<g enable-background="new    ">
							<g>
								<g>
									<defs>
										<path id="SVGID_55_" d="M13.522,80.954c0.361,0.211,0.86,0.182,1.412-0.136c0.316,0.184,0.634,0.365,0.949,0.551
											c-0.552,0.316-1.05,0.349-1.412,0.138C14.186,81.341,13.807,81.123,13.522,80.954z"/>
									</defs>
									<clipPath id="SVGID_56_">
										<use xlink:href="#SVGID_55_"  overflow="visible"/>
									</clipPath>
									<g clip-path="url(#SVGID_56_)" enable-background="new    ">
										<path fill="#F2D541" d="M14.471,81.506l-0.949-0.553c0.361,0.211,0.86,0.182,1.412-0.137
											c1.091-0.633,1.977-2.16,1.971-3.418c0-0.084-0.001-0.166-0.012-0.24l0.95,0.55c0.008,0.079,0.013,0.159,0.013,0.245
											c0.004,1.255-0.881,2.781-1.973,3.415C15.332,81.686,14.834,81.717,14.471,81.506L14.471,81.506z"/>
									</g>
								</g>
							</g>
						</g>
						<g>
							<polygon fill="#953127" points="26.437,60.719 25.487,60.168 26.708,60.745 27.657,61.297 							"/>
						</g>
						<g>
							<polygon fill="#74261F" points="28.48,60.77 27.529,60.219 26.016,59.191 26.966,59.743 							"/>
						</g>
						<g>
							<polygon fill="#E14139" points="26.966,59.743 28.48,60.77 31.382,62.747 31.583,62.883 33.12,63.924 33.178,63.965 
								31.657,66.77 31.589,66.723 30.051,65.682 29.723,65.456 26.742,63.434 26.484,63.258 27.657,61.297 26.437,60.719 							
								"/>
						</g>
						<g>
							<polygon fill="#A9382D" points="26.437,60.719 25.487,60.168 26.016,59.191 26.966,59.743 							"/>
						</g>
						<g>
							<polygon fill="#953127" points="25.978,60.502 25.026,59.952 25.487,60.168 26.437,60.719 							"/>
						</g>
						<g>
							<polygon fill="#AE392E" points="24.615,62.779 23.666,62.227 25.026,59.952 25.978,60.502 							"/>
						</g>
						<g>
							<polygon fill="#AE392E" points="16.351,76.605 15.402,76.055 23.666,62.227 24.615,62.779 							"/>
						</g>
						<g enable-background="new    ">
							<g>
								<g>
									<defs>
										<path id="SVGID_57_" d="M27.021,58.295l0.949,0.555c-0.359-0.209-0.858-0.18-1.412,0.137l-0.949-0.549
											C26.163,58.119,26.658,58.086,27.021,58.295z"/>
									</defs>
									<clipPath id="SVGID_58_">
										<use xlink:href="#SVGID_57_"  overflow="visible"/>
									</clipPath>
									<g clip-path="url(#SVGID_58_)" enable-background="new    ">
										<path fill="#E74B3D" d="M26.558,58.986l-0.949-0.549c0.555-0.317,1.05-0.352,1.412-0.143l0.949,0.555
											C27.611,58.641,27.112,58.67,26.558,58.986L26.558,58.986z"/>
									</g>
								</g>
							</g>
						</g>
						<g>
							<polygon fill="#953127" points="14.754,79.279 13.801,78.727 15.481,79.518 16.433,80.073 							"/>
						</g>
						<g>
							<polygon fill="#AE392E" points="14.754,79.279 13.801,78.727 15.402,76.055 16.351,76.605 							"/>
						</g>
						<g enable-background="new    ">
							<g>
								<g>
									<defs>
										<path id="SVGID_59_" d="M15.87,76.816l-0.948-0.555c0.164-0.096,0.325-0.164,0.479-0.207l0.949,0.551
											C16.197,76.652,16.036,76.721,15.87,76.816z"/>
									</defs>
									<clipPath id="SVGID_60_">
										<use xlink:href="#SVGID_59_"  overflow="visible"/>
									</clipPath>
									<g clip-path="url(#SVGID_60_)" enable-background="new    ">
										<path fill="#E74B3D" d="M15.87,76.816l-0.948-0.555c0.164-0.096,0.325-0.164,0.479-0.207l0.949,0.551
											C16.197,76.652,16.036,76.721,15.87,76.816L15.87,76.816z"/>
									</g>
								</g>
							</g>
						</g>
						<g>
							<path fill="#E14139" d="M26.558,58.986c1.099-0.631,1.986-0.121,1.99,1.136c0.001,0.213-0.022,0.433-0.068,0.647
								l-1.514-1.025l-0.529,0.977l-0.459-0.217l-1.363,2.275c-0.018-0.111-0.027-0.234-0.028-0.365
								C24.583,61.15,25.466,59.62,26.558,58.986z"/>
						</g>
						<g enable-background="new    ">
							<g>
								<g>
									<defs>
										<path id="SVGID_61_" d="M24.615,62.779l-0.948-0.553c-0.018-0.115-0.028-0.236-0.028-0.369
											c-0.005-1.264,0.878-2.789,1.972-3.42l0.949,0.549c-1.092,0.635-1.976,2.164-1.973,3.428
											C24.586,62.543,24.597,62.667,24.615,62.779z"/>
									</defs>
									<clipPath id="SVGID_62_">
										<use xlink:href="#SVGID_61_"  overflow="visible"/>
									</clipPath>
									<g clip-path="url(#SVGID_62_)" enable-background="new    ">
										<path fill="#E74B3D" d="M24.615,62.779l-0.948-0.553c-0.018-0.115-0.028-0.236-0.028-0.369
											c-0.005-1.264,0.878-2.789,1.972-3.42l0.949,0.549c-1.092,0.635-1.976,2.164-1.973,3.428
											C24.586,62.543,24.597,62.667,24.615,62.779L24.615,62.779z"/>
									</g>
								</g>
							</g>
						</g>
						<g enable-background="new    ">
							<g>
								<g>
									<defs>
										<path id="SVGID_63_" d="M14.471,81.506l-0.949-0.553c-0.354-0.205-0.576-0.645-0.577-1.268
											c-0.004-1.261,0.881-2.791,1.978-3.426l0.948,0.555c-1.098,0.635-1.979,2.16-1.977,3.422
											C13.895,80.865,14.117,81.303,14.471,81.506z"/>
									</defs>
									<clipPath id="SVGID_64_">
										<use xlink:href="#SVGID_63_"  overflow="visible"/>
									</clipPath>
									<g clip-path="url(#SVGID_64_)" enable-background="new    ">
										<path fill="#E74B3D" d="M14.471,81.506l-0.949-0.553c-0.354-0.205-0.576-0.645-0.577-1.268
											c-0.004-1.261,0.881-2.791,1.978-3.426l0.948,0.555c-1.098,0.635-1.979,2.16-1.977,3.422
											C13.895,80.865,14.117,81.303,14.471,81.506L14.471,81.506z"/>
									</g>
								</g>
							</g>
						</g>
						<g>
							<path fill="#E14139" d="M15.87,76.816c0.166-0.096,0.326-0.164,0.48-0.211l-1.597,2.674l1.679,0.795l1.41-2.364
								c0.008,0.079,0.013,0.159,0.013,0.245c0.004,1.255-0.881,2.781-1.973,3.415c-1.097,0.633-1.986,0.13-1.989-1.13
								C13.891,78.977,14.773,77.45,15.87,76.816z"/>
						</g>
						<g>
							<path fill="#FFFFFF" d="M9.309,43.92L72.531,7.422l0.13,45.719L9.439,89.639L9.309,43.92z M64.118,25.415
								c1.093-0.631,1.976-2.166,1.974-3.42c-0.005-1.265-0.896-1.771-1.986-1.138c-1.097,0.634-1.983,2.166-1.979,3.428
								c0,0.224,0.026,0.425,0.084,0.599L51.502,44.646c-0.047,0.023-0.096,0.049-0.144,0.076c-0.119,0.069-0.233,0.146-0.347,0.237
								l-5.86-2.312c0.005-0.063,0.005-0.115,0.005-0.174c-0.003-1.262-0.896-1.764-1.992-1.131
								c-1.096,0.629-1.979,2.158-1.973,3.42c0,0.164,0.015,0.319,0.047,0.455l-9.441,17.272c-0.049,0.021-0.1,0.05-0.146,0.075
								c-0.091,0.055-0.182,0.109-0.269,0.178L28.48,60.77c0.046-0.218,0.069-0.437,0.068-0.647
								c-0.004-1.257-0.893-1.767-1.99-1.136c-1.092,0.635-1.976,2.164-1.973,3.428c0.001,0.131,0.012,0.254,0.028,0.365
								l-8.264,13.826c-0.154,0.047-0.314,0.115-0.48,0.211c-1.098,0.635-1.979,2.16-1.977,3.424c0.003,1.26,0.894,1.763,1.989,1.13
								c1.092-0.634,1.977-2.16,1.973-3.415c0-0.086-0.005-0.166-0.013-0.245l8.369-13.995c0.115-0.045,0.236-0.102,0.358-0.172
								c0.059-0.033,0.114-0.068,0.17-0.107l2.981,2.021c-0.035,0.184-0.052,0.363-0.052,0.54c0.006,1.253,0.897,1.765,1.99,1.132
								c1.098-0.633,1.98-2.168,1.979-3.425c-0.001-0.22-0.029-0.415-0.082-0.587l9.34-17.078c0.091-0.04,0.186-0.083,0.28-0.141
								c0.188-0.11,0.373-0.248,0.548-0.402l5.69,2.244c-0.019,0.139-0.027,0.271-0.027,0.402c0.004,1.262,0.893,1.771,1.983,1.137
								c1.097-0.629,1.984-2.162,1.981-3.424c-0.001-0.225-0.027-0.428-0.084-0.599l10.703-19.765
								C64.023,25.468,64.069,25.443,64.118,25.415L64.118,25.415z"/>
						</g>
						<g>
							<path fill="#E14139" d="M26.212,63.713l0.271-0.455l0.259,0.176c-0.057,0.039-0.112,0.074-0.171,0.107
								C26.45,63.613,26.328,63.668,26.212,63.713z"/>
						</g>
						<g>
							<polygon fill="#E14139" points="25.978,60.502 26.437,60.719 27.657,61.297 26.484,63.258 26.212,63.713 17.843,77.708 
								16.433,80.073 14.754,79.279 16.351,76.605 24.615,62.779 							"/>
						</g>
						<g>
							<polygon fill="#B2B2B2" points="9.439,89.639 8.489,89.086 8.358,43.371 9.309,43.92 							"/>
						</g>
						<g>
							<polygon fill="#D1B737" points="9.309,43.92 8.358,43.371 71.58,6.869 72.531,7.422 							"/>
						</g>
					</g>
				</g>
				<g enable-background="new    ">
					<g enable-background="new    ">
						<g>
							<g>
								<defs>
									<path id="SVGID_65_" d="M72.928,5.631c0.635,0.367,1.268,0.739,1.903,1.104c-0.217-0.125-0.516-0.106-0.847,0.084
										l-1.896-1.104C72.417,5.524,72.713,5.506,72.928,5.631z"/>
								</defs>
								<clipPath id="SVGID_66_">
									<use xlink:href="#SVGID_65_"  overflow="visible"/>
								</clipPath>
								<g clip-path="url(#SVGID_66_)" enable-background="new    ">
									<path fill="#2C3E50" d="M73.986,6.819L72.09,5.715c0.328-0.189,0.625-0.207,0.84-0.082l1.903,1.104
										C74.616,6.61,74.317,6.627,73.986,6.819L73.986,6.819z"/>
								</g>
							</g>
						</g>
					</g>
					<g>
						<polygon fill="#263545" points="8.458,44.652 6.557,43.549 72.088,5.713 73.986,6.819 						"/>
					</g>
					<g enable-background="new    ">
						<g>
							<g>
								<defs>
									<path id="SVGID_67_" d="M7.623,47.454l-1.9-1.101c-0.211-0.127-0.345-0.39-0.345-0.763
										c-0.002-0.751,0.523-1.664,1.18-2.043l1.9,1.104c-0.655,0.378-1.186,1.291-1.183,2.043
										C7.278,47.068,7.409,47.333,7.623,47.454z"/>
								</defs>
								<clipPath id="SVGID_68_">
									<use xlink:href="#SVGID_67_"  overflow="visible"/>
								</clipPath>
								<g clip-path="url(#SVGID_68_)" enable-background="new    ">
									<path fill="#2C3E50" d="M7.623,47.454l-1.9-1.101c-0.211-0.127-0.345-0.39-0.345-0.763
										c-0.002-0.751,0.523-1.664,1.18-2.043l1.9,1.104c-0.655,0.378-1.186,1.291-1.183,2.043
										C7.278,47.068,7.409,47.333,7.623,47.454L7.623,47.454z"/>
								</g>
							</g>
						</g>
					</g>
					<g>
						<path fill="#23313E" d="M73.986,6.819c0.654-0.377,1.188-0.073,1.188,0.677c0.003,0.751-0.527,1.664-1.18,2.044L8.462,47.374
							c-0.654,0.377-1.186,0.074-1.188-0.679C7.271,45.943,7.8,45.03,8.457,44.652L73.986,6.819z"/>
					</g>
				</g>
			</g>
		</g>
		<g>
			<path fill="#383736" d="M81.187,96.482c0,0,0.025,4.104,0.022,4.188c-0.032,1.611,0.803,4.364,4.501,4.867
				c0.931,0.127,1.658,0.021,1.658,0.021s2.43-0.298,1.813-3.896c-0.215-1.254-0.969-5.527-0.969-5.527L81.187,96.482z"/>
			<path fill="#545454" d="M81.187,95.583c0,0-0.084-0.097,0.022,4.499c0.037,1.611,0.763,3.882,3.921,4.396
				c0.811,0.131,2.052,0.108,2.436-0.067c1.041-0.476,1.867-1.129,1.545-3.431c-0.143-1-1.113-5.385-1.188-5.385L81.187,95.583z"/>
			<g>
				<path fill="#E6C7B1" d="M98.416,61.969c0.224,0.852,1.519,1.113,2.291,0.914c0.271-0.07,0.846,1.484,1.396,1.979
					c0.579,0.52,1.129-0.021,1.187-0.236c0.045-0.166-1.271-2.314-1.584-2.867c-1.035-1.848-1.852-1.711-2.625-1.509
					C98.302,60.448,98.197,61.117,98.416,61.969z"/>
				<path fill="#6DC6C5" d="M98.432,61.297c-0.882,0.189-2.937-1.145-2.937-1.145s-0.084-0.211-0.227-0.578
					c-0.803-2.072-3.706-9.166-4.35-11.856c-0.707-2.95-1.607-8.325-1.607-8.325s-1.473-6.224,1.537-7.662
					c1.722-0.819,4.886,0.379,5.389,5.336c0.192,1.904,1.063,9.906,1.063,9.906l3.015,11.57
					C100.315,58.543,100.153,60.922,98.432,61.297z"/>
				<path fill="#E6C7B1" d="M97.071,60.792l2.232-0.604l1.53,2.434l0.106,0.434l0.558,3.553c0,0,0.4,1.688-1.377,2.17
					c-1.162,0.313-0.125,0.033-0.125,0.033c-1.594,0.432-2.181-1.248-2.181-1.248l-1.569-4.369
					C95.971,62.252,96.048,61.064,97.071,60.792z"/>
				<path fill="#B9E5E5" d="M101.062,59.909c0.087,0.393-0.615,1.352-1.751,1.711c-1.472,0.463-2.243,0.33-2.243,0.33
					c-0.747-0.091-1.188-0.283-1.347-0.763c0,0-0.604-1.767-0.769-2.332c-0.104-0.362,0.073-0.401,0.073-0.401
					s0.093,0.285,0.177,0.377c0.312,0.338,1.063,0.719,2.551,0.444c2.338-0.424,2.313-1.854,2.313-1.854
					c0.336-0.071,0.479,0.058,0.55,0.447L101.062,59.909z"/>
			</g>
			<g>
				<path fill="#545454" d="M102.944,92.023l1.417,1.016c0,0,5.704,2.014,6.1,2.16c0.443,0.17,1.424,0.445,1.389,1.244
					c-0.01,0.188,0.01,0.307-0.094,0.483c-0.369,0.64-1.211,0.987-2.004,1.202c-1.727,0.463-5.472,0.276-5.472,0.276
					c-1.087-0.028-2.927-0.386-3.137-0.522c0,0-0.953-0.182-1.087,0.152c-0.049,0.117,0.099,0.64,0.121,0.746l-2.389-0.705
					c-0.123-0.051-0.445-1.127-0.547-1.61l-0.267-3.22L102.944,92.023z"/>
				<g>
					<path fill="#282827" d="M110.689,97.477c-0.436,0.266-1.07,0.436-1.705,0.564c-2.533,0.521-6.489,0.021-6.489,0.021
						c-0.393-0.051-1.881-0.27-1.881-0.27s-0.591,0.104-0.559,0.24c-0.008-0.072,0.006-0.01-0.021,0.002
						c-0.058,0.025,0.145,0.744,0.145,0.744l0.576-0.444c0,0,1.813,0.22,2.137,0.291c0,0,3.807,0.472,6.36-0.028
						c0.807-0.158,2.137-0.756,2.551-1.543c0.072-0.139,0.145-0.468,0.023-0.685C111.818,96.414,111.285,97.123,110.689,97.477z"/>
					<path fill="#282827" d="M100.056,98.036l-2.621-0.875c0,0,0.298,0.938,0.33,0.922l2.388,0.703
						C100.137,98.713,100.083,98.239,100.056,98.036z"/>
				</g>
			</g>
			<path fill="#282827" d="M96.448,60.781c0,0,4.657,13.75,6.019,18.357c0.893,3.014,1.843,12.705,1.843,12.705
				c0.298,1.354,0.519,1.613,0.161,2.109c-1.34,1.859-6.094,4.852-7.268,2.037c0,0-1.826-10.313-3.064-13.405
				c-1.952-4.885-8.592-18.411-8.592-18.411L96.448,60.781z"/>
			<path fill="#81CFD3" d="M93.812,32.186c1.645,2.81,2.502,5.17,2.727,10.912l0.234,15.996c0.03,0.771,0.191,1.697-0.455,2.152
				c0,0-5.771,5.021-8.805,4.779c-1.932-0.15-6.042-1.857-6.042-1.857c-1.434-0.623-1.483-1.486-1.532-1.867L77.845,39.16
				c-0.141-1.788,6.204-5.86,7.265-6.539l4.349-1.516C89.458,31.106,92.697,30.275,93.812,32.186z"/>
			<path fill="#DCB9A2" d="M90.962,34.371c-2.365,2.355-3.756-0.083-5.297-1.905l-0.291-6.563l5.426,1.562L90.962,34.371z"/>
			<path fill="#B9E5E5" d="M85.564,30.254c0,0-0.001,0.887,0.035,1.045c0.613,2.656,3.9,3.629,3.9,3.629
				c0.418,0.2,0.41,0.688,0.371,1.329l-0.17,1.889c-0.039,0.618-0.363,0.565-0.613,0.318c0,0-2.541-2.046-3.256-2.741
				c-1.688-1.627-1.563-2.016-1.011-4.16C85.156,30.27,85.564,30.254,85.564,30.254z"/>
			<path fill="#B9E5E5" d="M90.275,34.813c-0.268,0.343-0.206,0.568-0.02,0.814l1.014,1.352c0.521,0.594,0.564,0.096,0.561-0.405
				l-0.01-3.593c-0.293-2.258-0.898-2.344-0.898-2.344s-0.015,0.522,0.043,0.987C91.059,32.399,91.003,33.875,90.275,34.813z"/>
			<path fill="#F6E8D9" d="M87.041,22.157c1.336-0.056,1.535,1.225,1.535,1.225l0.104,2.684c0,0-0.042,0.585-0.54,0.707
				c-0.754,0.188-1.111-0.465-1.479-1.184c-0.022-0.04-0.498-1.103-0.527-1.164C85.728,23.522,85.776,22.204,87.041,22.157z"/>
			<path fill="#E6C7B1" d="M89.712,18.168v0.002l-5.164,0.223l0.285,9.321c0.094,0.638,0.086,1.214,0.215,1.753
				c0.142,0.588,0.43,1.13,1.177,1.65c0,0,1.348,0.985,2.585,1.418c0.566,0.196,1.179,0.372,1.77,0.254
				c0.45-0.09,1.525-0.779,1.525-0.779c0.7-0.457,1.275-0.722,1.625-1.842c0.157-0.498,0.577-2.037,0.605-2.578l0.506-5.555
				l0.15-4.988L89.712,18.168z"/>
			<path fill="#8C8C8C" d="M93.91,16.049c1.479,0.756,2.209,1.816,1.578,4.093c-0.511,1.846-0.703,2.206-0.678,2.231
				c0.021,0.021,0.012-1.23,0.018-1.965c0.006-1.099-1.105-0.692-1.548-0.318c-0.646,0.553-2.194,1.59-2.231,1.615
				c-0.58,0.364-0.709,0.113-0.77-0.312c-0.013-0.097-0.037-0.665-0.037-0.665c-0.076,0.057-1.425,0.755-1.781,0.985
				c-1.027,0.665-1.176,1.575-1.099,2.387l0.032,0.813c0.018,0.424,0.109,0.903-0.309,0.874c-0.445-0.031-0.412-0.201-0.556-0.649
				c0,0-0.118-2.104-1.812-1.223c-0.891,0.463-0.153,2.475-0.09,2.59l0.438,3.045c-0.373,0.129-1.245-0.469-1.771-1.508
				c-0.972-1.91-1.588-3.285-1.859-3.869c-2.668-5.74,1.974-11.656,8.509-9.947C91.167,14.546,93.91,16.049,93.91,16.049z"/>
			<g>
				<g>
					<polygon fill="#232323" points="83.795,23.313 84.144,23.147 83.347,23.522 82.999,23.687 					"/>
				</g>
				<polygon fill="#222222" points="88.121,26.372 88.468,26.205 88.507,25.737 88.158,25.906 				"/>
				<path fill="#1F1F1F" d="M84.144,23.147c0.229-0.104,0.521-0.053,0.813,0.147l3.551,2.441l-0.35,0.168l-3.551-2.442
					c-0.292-0.201-0.587-0.254-0.813-0.148L84.144,23.147z"/>
				<path fill="#3A3A3A" d="M84.609,23.461c-0.292-0.201-0.587-0.254-0.813-0.148l-0.797,0.374c-0.085,0.04-0.099,0.196-0.027,0.345
					c0.036,0.072,0.084,0.135,0.138,0.169c0.053,0.036,0.106,0.049,0.149,0.026l0.858-0.401c0.113-0.054,0.262-0.027,0.406,0.073
					l3.598,2.474l0.037-0.468L84.609,23.461z"/>
				<g>
					<g enable-background="new    ">
						<path fill="#6B6B6B" d="M88.371,26.221L88.36,26.33c-0.001,0.013,0.009,0.027,0.022,0.039c0.035,0.021,0.091,0.026,0.125,0.01
							l0.01-0.109c-0.035,0.017-0.094,0.013-0.126-0.011C88.378,26.247,88.371,26.233,88.371,26.221L88.371,26.221z"/>
					</g>
					<path fill="#6B6B6B" d="M88.4,26.184c-0.037,0.019-0.04,0.051-0.008,0.075c0.033,0.022,0.091,0.026,0.126,0.011l0.099-0.049
						c0.037-0.016,0.037-0.049,0.006-0.07s-0.091-0.027-0.125-0.01L88.4,26.184z"/>
					<path fill="#4F4F4F" d="M88.617,26.221c0.018-0.008,0.025-0.02,0.026-0.033l-0.009,0.11c0,0.015-0.01,0.026-0.029,0.036
						l-0.098,0.045l0.01-0.109L88.617,26.221z"/>
				</g>
				<g>
					<path fill="#4B4B4B" d="M88.292,26.063l0.088,0.061l-0.008,0.109l-0.088-0.061c-0.019-0.013-0.025-0.025-0.022-0.042
						l0.007-0.11C88.268,26.036,88.276,26.049,88.292,26.063z"/>
					<g enable-background="new    ">
						<path fill="#959595" d="M88.38,26.123l-0.008,0.109c0.033,0.025,0.096,0.029,0.131,0.012c0.021-0.01,0.031-0.022,0.031-0.038
							l0.01-0.107c-0.002,0.013-0.015,0.025-0.032,0.035C88.475,26.151,88.416,26.148,88.38,26.123L88.38,26.123z"/>
					</g>
					<path fill="#6B6B6B" d="M88.3,25.985c-0.038,0.021-0.043,0.055-0.008,0.078l0.088,0.061c0.035,0.024,0.095,0.027,0.132,0.011
						c0.038-0.017,0.043-0.053,0.007-0.077l-0.088-0.06C88.398,25.971,88.337,25.965,88.3,25.985z"/>
				</g>
				<g>
					<g enable-background="new    ">
						<path fill="#8D8D8D" d="M88.389,25.961l-0.007,0.111c-0.002,0.014,0.007,0.024,0.021,0.036
							c0.032,0.023,0.09,0.029,0.125,0.011l0.01-0.109c-0.037,0.018-0.095,0.015-0.127-0.009
							C88.398,25.99,88.389,25.975,88.389,25.961L88.389,25.961z"/>
					</g>
					<path fill="#959595" d="M88.421,25.928c-0.037,0.018-0.041,0.05-0.01,0.073c0.032,0.022,0.09,0.025,0.127,0.009l0.096-0.046
						c0.037-0.017,0.039-0.049,0.008-0.072c-0.033-0.021-0.092-0.026-0.126-0.01L88.421,25.928z"/>
					<path fill="#4F4F4F" d="M88.634,25.964c0.02-0.009,0.029-0.021,0.031-0.036l-0.012,0.111c0,0.014-0.01,0.024-0.027,0.035
						l-0.098,0.045l0.01-0.109L88.634,25.964z"/>
				</g>
				<polygon fill="#222222" points="96.189,23.103 96.539,22.937 96.578,22.467 96.228,22.636 				"/>
				<g>
					<g enable-background="new    ">
						<path fill="#6B6B6B" d="M96.439,22.952l-0.007,0.11c0,0.013,0.006,0.025,0.022,0.037c0.031,0.023,0.088,0.027,0.125,0.012
							L96.589,23c-0.037,0.018-0.096,0.015-0.129-0.011C96.446,22.979,96.439,22.965,96.439,22.952L96.439,22.952z"/>
					</g>
					<path fill="#6B6B6B" d="M96.468,22.92c-0.036,0.016-0.038,0.048-0.008,0.067c0.033,0.025,0.092,0.028,0.129,0.012l0.095-0.046
						c0.037-0.018,0.041-0.052,0.006-0.072c-0.03-0.022-0.09-0.027-0.125-0.01L96.468,22.92z"/>
					<path fill="#4F4F4F" d="M96.684,22.954c0.021-0.009,0.028-0.021,0.028-0.033l-0.006,0.109
						c-0.002,0.014-0.013,0.026-0.031,0.033l-0.096,0.048L96.589,23L96.684,22.954z"/>
				</g>
				<g>
					<path fill="#4B4B4B" d="M96.365,22.794l0.088,0.06l-0.011,0.109l-0.086-0.062c-0.019-0.013-0.026-0.024-0.024-0.041
						l0.008-0.108C96.337,22.768,96.346,22.781,96.365,22.794z"/>
					<g enable-background="new    ">
						<path fill="#959595" d="M96.451,22.854l-0.01,0.109c0.037,0.023,0.094,0.029,0.135,0.011c0.018-0.007,0.027-0.021,0.029-0.036
							l0.007-0.109c-0.001,0.017-0.013,0.027-0.028,0.036C96.544,22.883,96.486,22.877,96.451,22.854L96.451,22.854z"/>
					</g>
					<path fill="#6B6B6B" d="M96.369,22.716c-0.039,0.02-0.039,0.052-0.005,0.078l0.087,0.06c0.034,0.023,0.096,0.029,0.133,0.011
						c0.037-0.019,0.041-0.052,0.006-0.076l-0.088-0.062C96.464,22.704,96.407,22.7,96.369,22.716z"/>
				</g>
				<g>
					<g enable-background="new    ">
						<path fill="#8D8D8D" d="M96.46,22.694l-0.01,0.108c0,0.015,0.008,0.028,0.021,0.042c0.035,0.021,0.09,0.025,0.126,0.007
							l0.01-0.109c-0.037,0.016-0.094,0.015-0.128-0.012C96.466,22.719,96.46,22.707,96.46,22.694L96.46,22.694z"/>
					</g>
					<path fill="#959595" d="M96.489,22.659c-0.032,0.018-0.036,0.049-0.007,0.07c0.034,0.025,0.091,0.026,0.128,0.012l0.097-0.046
						c0.035-0.017,0.039-0.05,0.006-0.072c-0.032-0.022-0.09-0.027-0.127-0.009L96.489,22.659z"/>
					<path fill="#4F4F4F" d="M96.705,22.696c0.021-0.008,0.028-0.02,0.028-0.034l-0.008,0.108c0,0.015-0.011,0.026-0.028,0.035
						l-0.098,0.046l0.01-0.109L96.705,22.696z"/>
				</g>
				<path fill="#2F2F2F" d="M95.867,23.565l0.09-1.159c0.008-0.104-0.021-0.177-0.076-0.213l0.315,0.222
					c0.056,0.036,0.085,0.109,0.077,0.21l-0.087,1.16c-0.019,0.2-0.181,0.438-0.36,0.525l-0.322-0.22
					C95.689,24.002,95.851,23.765,95.867,23.565z"/>
				<g enable-background="new    ">
					<g>
						<g>
							<defs>
								<path id="SVGID_69_" d="M96.517,21.949c-0.104-0.073-0.213-0.146-0.316-0.219c-0.125-0.088-0.309-0.092-0.516,0.009
									l0.318,0.221C96.21,21.86,96.393,21.865,96.517,21.949z"/>
							</defs>
							<clipPath id="SVGID_70_">
								<use xlink:href="#SVGID_69_"  overflow="visible"/>
							</clipPath>
							<g clip-path="url(#SVGID_70_)" enable-background="new    ">
								<path fill="#3A3A3A" d="M96.517,21.949l-0.316-0.219c-0.125-0.088-0.309-0.092-0.516,0.009l0.318,0.221
									C96.21,21.86,96.393,21.865,96.517,21.949L96.517,21.949z"/>
							</g>
						</g>
					</g>
				</g>
				<path fill="#1F1F1F" d="M93.595,25l1.908-0.909l0.322,0.22l-1.912,0.907c-0.095,0.047-0.172,0.045-0.229,0.007l-0.315-0.222
					C93.421,25.042,93.503,25.043,93.595,25z"/>
				<path opacity="0.67" fill="#B1D2D1" enable-background="new    " d="M93.93,23.215c-0.185,0.086-0.347,0.322-0.362,0.525
					l-0.089,1.159c-0.017,0.199,0.122,0.294,0.308,0.207l1.907-0.907c0.187-0.091,0.349-0.324,0.361-0.526l0.09-1.16
					c0.017-0.2-0.121-0.296-0.308-0.208L93.93,23.215z"/>
				<g>
					<polygon fill="#282828" points="96.003,21.959 95.685,21.74 93.777,22.648 94.093,22.868 					"/>
				</g>
				<path fill="#2F2F2F" d="M92.975,24.354c0.021,0.015,0.026,0.037,0.022,0.074l-0.01,0.115c-0.006,0.095,0.021,0.165,0.069,0.207
					l0.055,0.037c0.058,0.039,0.104,0.092,0.097,0.187l-0.019,0.237c-0.019,0.224,0.052,0.391,0.173,0.475l-0.316-0.221
					c-0.123-0.084-0.188-0.249-0.172-0.476l0.017-0.235c0.006-0.076-0.022-0.13-0.065-0.164l-0.074-0.053
					c-0.057-0.038-0.088-0.111-0.078-0.215l0.011-0.116c0.001-0.038-0.006-0.063-0.024-0.075L92.975,24.354z"/>
				<g enable-background="new    ">
					<path fill="#3A3A3A" d="M94.093,22.868l-0.316-0.221c-0.413,0.197-0.779,0.729-0.814,1.184l0.318,0.219
						C93.315,23.594,93.68,23.064,94.093,22.868L94.093,22.868z"/>
				</g>
				<polygon fill="#1D1D1D" points="93.285,24.012 92.964,23.792 92.958,23.911 93.274,24.131 				"/>
				<g enable-background="new    ">
					<path fill="#3A3A3A" d="M93.201,24.027l-0.316-0.222c-0.074-0.047-0.197-0.051-0.383,0.037
						c-0.252,0.122-0.401,0.298-0.479,0.469l0.318,0.222c0.076-0.173,0.227-0.349,0.479-0.468
						C93.005,23.975,93.126,23.975,93.201,24.027L93.201,24.027z"/>
				</g>
				<path fill="#2F2F2F" d="M91.519,25.635l0.089-1.162c0.009-0.098-0.022-0.172-0.076-0.21l0.318,0.22
					c0.053,0.039,0.081,0.112,0.075,0.212l-0.09,1.159c-0.015,0.202-0.176,0.438-0.358,0.526l-0.32-0.221
					C91.341,26.073,91.503,25.836,91.519,25.635z"/>
				<g enable-background="new    ">
					<path fill="#3A3A3A" d="M92.171,24.02l-0.319-0.219c-0.123-0.088-0.308-0.092-0.515,0.008l0.316,0.219
						C91.864,23.931,92.044,23.934,92.171,24.02L92.171,24.02z"/>
				</g>
				<path fill="#1F1F1F" d="M89.25,27.071l1.906-0.91l0.32,0.221l-1.91,0.911c-0.092,0.041-0.171,0.04-0.229,0.002l-0.317-0.219
					C89.078,27.112,89.157,27.115,89.25,27.071z"/>
				<path opacity="0.67" fill="#B1D2D1" enable-background="new    " d="M89.583,25.285c-0.186,0.089-0.348,0.322-0.359,0.524
					l-0.092,1.159c-0.014,0.204,0.123,0.296,0.305,0.209l1.912-0.908c0.186-0.088,0.344-0.324,0.359-0.526l0.09-1.158
					c0.016-0.204-0.121-0.297-0.305-0.208L89.583,25.285z"/>
				<path fill="#2F2F2F" d="M88.934,26.12l-0.088,1.16c-0.019,0.228,0.05,0.393,0.172,0.477l-0.315-0.221
					c-0.125-0.086-0.191-0.25-0.174-0.478l0.088-1.16L88.934,26.12z"/>
				<polygon fill="#282828" points="91.656,24.028 91.337,23.809 89.428,24.719 89.748,24.939 				"/>
				<path fill="#1F1F1F" d="M91.656,24.028c0.413-0.193,0.723,0.015,0.688,0.47l-0.002,0.035c0.076-0.173,0.227-0.349,0.479-0.468
					c0.277-0.133,0.411-0.064,0.455,0.066l0.008-0.082c0.033-0.455,0.398-0.985,0.813-1.182l1.909-0.908
					c0.414-0.197,0.723,0.012,0.687,0.465l-0.09,1.16c-0.033,0.455-0.396,0.985-0.812,1.184l-1.91,0.91
					c-0.414,0.195-0.725-0.015-0.688-0.467l0.02-0.237c0.01-0.114-0.063-0.169-0.131-0.21c-0.063-0.037-0.097-0.113-0.09-0.221
					l0.01-0.115c0.008-0.099-0.062-0.113-0.203-0.045c-0.217,0.104-0.225,0.201-0.229,0.249l-0.008,0.118
					c-0.008,0.1-0.052,0.207-0.115,0.304c-0.079,0.116-0.163,0.244-0.171,0.36l-0.02,0.241c-0.035,0.453-0.398,0.984-0.813,1.181
					l-1.91,0.912c-0.412,0.196-0.722-0.015-0.686-0.47l0.088-1.159c0.033-0.455,0.398-0.983,0.813-1.182L91.656,24.028z
					 M93.609,25.012c-0.016,0.201,0.121,0.294,0.307,0.205l1.912-0.907c0.182-0.089,0.344-0.325,0.359-0.525l0.087-1.16
					c0.017-0.202-0.121-0.295-0.306-0.206l-1.908,0.91c-0.188,0.085-0.348,0.32-0.363,0.523L93.609,25.012L93.609,25.012z
					 M89.261,27.081c-0.016,0.203,0.121,0.297,0.306,0.211l1.91-0.911c0.185-0.088,0.346-0.324,0.358-0.526l0.09-1.159
					c0.016-0.201-0.12-0.294-0.305-0.208l-1.91,0.908c-0.185,0.089-0.344,0.324-0.36,0.525L89.261,27.081L89.261,27.081z"/>
				<g enable-background="new    ">
					<path fill="#3A3A3A" d="M89.748,24.939l-0.318-0.22c-0.413,0.197-0.778,0.727-0.813,1.18l0.316,0.222
						C88.968,25.665,89.333,25.136,89.748,24.939L89.748,24.939z"/>
				</g>
			</g>
			<path fill="#E6C7B1" d="M84.637,23.538c1.336-0.055,1.536,1.225,1.536,1.225l0.104,2.682c0,0-0.041,0.589-0.54,0.712
				c-0.755,0.186-1.11-0.468-1.479-1.188c-0.022-0.039-0.497-1.104-0.527-1.166C83.324,24.906,83.37,23.586,84.637,23.538z"/>
			<polygon fill="#2E5770" points="90.269,36.235 91.515,37.711 91.1,39.745 89.944,38.635 			"/>
			<polygon fill="#2E5770" points="90.779,37.406 93.792,50.396 92.686,55.325 90.835,51.477 			"/>
			<path fill="#282827" d="M91.9,61.559c0,0,3.355-0.4,4.896-1.691l0.014,1.244l0.311,1.906l-3.635,1.729L91.9,61.559z"/>
			<path fill="#383736" d="M92.218,62.958l-3.252,31.788l-0.096,2.919c-0.013,0.994-1.314,2.062-2.969,2.349
				c-2.04,0.354-3.159-0.191-3.159-0.191c-1.342-0.383-1.952-1.856-1.987-2.204l-0.359-14.935l-0.285-19.031L92.218,62.958z"/>
			<path fill="#A5DDDF" d="M82.922,61.12c-0.77,1.147-3.042,0.657-3.042,0.657s-3.538-2.313-6.6-4.646
				c-3.063-2.332-3.277-4.138-1.716-7.092l4.827-8.822c0,0,1.543-3.904,3.973-3.781c2.776,0.14,4.324,3.995,2.939,6.551
				c-0.762,1.408-4.057,5.64-5.587,7.578c-0.512,0.647-0.432,1.194-0.099,1.438l5.271,4.881
				C82.892,57.883,84.099,59.357,82.922,61.12z"/>
			<path fill="#383736" d="M80.184,66.406l-0.493-4.615c0,0,9.959,0.215,12.948-0.355c0.44-0.084,1.397,3.926,0.229,5.648
				c-1.193,1.764-1.602,4.807-1.602,4.807L80.184,66.406z"/>
			<path fill="#E6C7B1" d="M81.403,62.361l-0.071-0.897l2.082-2.765l3.016,0.67c0,0,2.788,0.588,3.304,2.298
				c0.941,3.13-1.436,3.063-1.436,3.063c-0.125-0.032-1.557-0.719-2.061-0.719c-0.255,0-2.44-0.24-2.44-0.24
				C82.456,63.629,81.725,63.368,81.403,62.361z"/>
			<path fill="#DDF0F1" d="M84.492,58.732c0.32,0.289,0.355,1.904-0.646,3.125c-0.931,1.131-1.451,1.145-1.451,1.145
				c-0.646,0.287-1.092,0.346-1.448,0.031c0,0-1.315-0.975-1.715-1.355c-0.258-0.25-0.105-0.402-0.105-0.402
				s0.207,0.194,0.475,0.186c0.428-0.02,1.271-0.16,2.086-0.99c1.578-1.609,0.98-2.844,0.98-2.844
				c0.237-0.229,0.505-0.195,0.745,0.094L84.492,58.732z"/>
		</g>
	</g>
	<g>
		<path opacity="0.29" fill="#231F20" enable-background="new    " d="M127.576,97.411c8.467,0.995,5.514,1.955,5.514,3.78
			c0,2.586,4.498,2.785,9.846,2.785c9.531,0,14.063-2.908,14.063-6.233c0-3.322-5.891-6.623-15.428-6.623
			c-10.043,0-17.34,1.122-18.92,3.31C121.48,96.047,125.973,97.221,127.576,97.411z"/>
		<path fill="#383736" d="M152.506,93.027c0,0-0.023,3.818-0.021,3.897c0.029,1.499-0.711,4.53-4.186,4.53c-2.863,0-1.426,0-1.426,0
			s-2.377-0.266-1.809-3.609c0.205-1.168,0.906-5.142,0.906-5.142L152.506,93.027z"/>
		<path fill="#545454" d="M152.506,92.195c0,0,0.078-0.092-0.021,4.186c-0.031,1.499-0.734,3.997-4.143,3.997
			c-1.379,0-1.73,0.028-1.771,0.028c-1.002-0.028-1.732-1.057-1.436-3.19c0.133-0.929,1.035-5.011,1.102-5.011L152.506,92.195z"/>
		<g>
			<path fill="#76A5B2" d="M136.799,55.723c0.83,0.107,2.637-1.283,2.637-1.283s0.061-0.199,0.162-0.553
				c0.586-1.98,2.744-8.781,3.135-11.32c0.436-2.791,0.859-7.842,0.859-7.842s1.359-7.955-1.541-9.061
				c-1.656-0.63-4.66,1.107-4.752,5.738c-0.033,1.782-0.297,10.69-0.297,10.69l-2.156,11.22
				C134.846,53.313,135.176,55.508,136.799,55.723z"/>
			<path fill="#E6C5AC" d="M138.023,55.148l-2.113-0.391l-0.59-0.49l-1.09,3.465l0.127,3.146c0,0-0.244,1.595,1.441,1.907
				c1.102,0.201,0.119,0.021,0.119,0.021c1.51,0.276,1.926-1.324,1.926-1.324l1.127-4.168
				C139.152,56.422,138.992,55.329,138.023,55.148z"/>
			<path fill="#E5ECED" d="M134.256,54.634c-0.051,0.372,0.674,1.208,1.752,1.454c1.4,0.318,2.104,0.135,2.104,0.135
				c0.688-0.141,1.078-0.352,1.191-0.807c0,0,0.428-1.686,0.535-2.219c0.068-0.348-0.1-0.369-0.1-0.369s-0.064,0.271-0.137,0.359
				c-0.262,0.338-0.934,0.746-2.332,0.607c-2.193-0.217-2.285-1.543-2.285-1.543c-0.316-0.045-0.439,0.088-0.475,0.455
				L134.256,54.634z"/>
		</g>
		<g>
			<path fill="#545454" d="M132.268,88.881l-1.314,0.947c0,0-5.307,1.865-5.674,2.007c-0.416,0.159-1.322,0.417-1.291,1.156
				c0.01,0.176-0.01,0.284,0.084,0.452c0.35,0.598,1.133,0.916,1.865,1.113c1.607,0.436,5.088,0.26,5.088,0.26
				c1.014-0.023,2.725-0.355,2.92-0.485c0,0,0.889-0.168,1.014,0.144c0.045,0.109-0.094,0.594-0.115,0.691l2.223-0.656
				c0.113-0.043,0.414-1.047,0.508-1.494l0.246-2.996L132.268,88.881z"/>
			<g>
				<path fill="#282827" d="M125.063,93.954c0.408,0.244,0.998,0.401,1.588,0.524c2.357,0.489,6.037,0.021,6.037,0.021
					c0.363-0.047,1.748-0.248,1.748-0.248s0.551,0.098,0.521,0.221c0.004-0.063-0.008-0.007,0.021,0.004
					c0.051,0.023-0.137,0.688-0.137,0.688l-0.537-0.412c0,0-1.684,0.205-1.986,0.271c0,0-3.539,0.438-5.914-0.023
					c-0.748-0.146-1.986-0.705-2.369-1.438c-0.07-0.127-0.135-0.436-0.023-0.638C124.016,92.963,124.514,93.626,125.063,93.954z"/>
				<path fill="#282827" d="M134.959,94.475l2.436-0.813c0,0-0.275,0.875-0.307,0.856l-2.221,0.655
					C134.879,95.102,134.93,94.663,134.959,94.475z"/>
			</g>
		</g>
		<path fill="#282827" d="M138.092,53.771l-7.09,34.945c-0.279,1.258-0.482,1.498-0.148,1.961c1.244,1.729,5.666,4.516,6.758,1.896
			l10.279-40.779L138.092,53.771z"/>
		<path fill="#231F20" d="M143.338,52.412l1.932,39.004l0.088,2.714c0.016,0.925,1.227,1.914,2.764,2.183
			c1.896,0.332,2.938-0.177,2.938-0.177c1.248-0.355,1.816-1.728,1.85-2.05l0.451-19.626l0.596-20.416L143.338,52.412z"/>
		<path fill="#8CB9C9" d="M139.773,26.95c-1.525,2.614-1.721,5.862-1.623,22.887l-1.119,7.144c-0.027,0.722-0.84,3.223,0.352,3.711
			c0,0,3.361,2.242,8.055,2.521c6.326,0.377,8.193-0.42,8.193-0.42c1.119-0.069,1.215-3.845,1.26-4.201l0.508-25.676
			c0.133-1.665-5.77-5.451-6.756-6.084l-4.045-1.406C144.596,25.424,140.813,25.178,139.773,26.95z"/>
		<path fill="#E6C7B1" d="M152.088,54.491l0.064-0.835l-1.936-2.571l-2.807,0.625c0,0-2.596,0.545-3.072,2.138
			c-0.875,2.911,1.336,2.851,1.336,2.851c0.115-0.031,1.447-0.669,1.914-0.669c0.234,0,2.271-0.223,2.271-0.223
			C151.107,55.672,151.787,55.43,152.088,54.491z"/>
		<path fill="#BDCCCF" d="M142.141,31.209c-0.744-1.17-0.363-4.461,1.494-5.933c0.557,0.044,0.961,0.146,0.961,0.146l3.564,1.057
			c0,0,1.754,1.113,2.861,2.028c-0.563-0.007-1.896,0.622-3.879,2.362C145.301,32.494,143.17,32.829,142.141,31.209z"/>
		<path fill="#E6C5AC" d="M143.195,28.459c2.201,2.192,3.494-0.078,4.932-1.773l0.27-6.104l-5.047,1.451L143.195,28.459z"/>
		<path fill="#EDEDED" d="M148.219,24.629c0,0,0.002,0.824-0.033,0.973c-0.57,2.469-3.629,3.374-3.629,3.374
			c-0.389,0.188-0.381,0.641-0.346,1.237l0.158,1.758c0.033,0.574,0.334,0.525,0.568,0.295c0,0,2.363-1.904,3.029-2.549
			c1.57-1.516,1.455-1.875,0.938-3.869C148.598,24.645,148.219,24.629,148.219,24.629z"/>
		<path fill="#EDEDED" d="M143.838,28.87c0.246,0.317,0.188,0.525,0.012,0.758l-0.938,1.256c-0.486,0.554-0.527,0.088-0.521-0.377
			l0.006-3.342c0.275-2.099,0.84-2.181,0.84-2.181s0.01,0.485-0.043,0.921C143.105,26.624,143.16,27.996,143.838,28.87z"/>
		<path fill="#F6E8D9" d="M144.172,17.493c-1.242-0.052-1.428,1.141-1.428,1.141l-0.1,2.494c0,0,0.037,0.545,0.502,0.66
			c0.703,0.172,1.033-0.436,1.377-1.104c0.021-0.038,0.461-1.024,0.49-1.084C145.393,18.764,145.348,17.536,144.172,17.493z"/>
		<g>
			<path fill="#E6C7B1" d="M144.359,13.386v0.003l4.805,0.209l-0.266,8.67c-0.088,0.593-0.016,0.842-0.133,1.342
				c-0.131,0.55-0.404,1.025-1.191,1.521c0,0-1.77,1.038-2.662,1.462c-0.508,0.238-0.799,0.386-1.355,0.396
				c-1.846,0.032-2.604-1.396-2.934-2.438c-0.145-0.465-0.535-1.897-0.563-2.4l-0.471-5.164l-0.145-4.643L144.359,13.386z"/>
			<path fill="#633A13" d="M140.457,11.417c-1.377,0.703-2.057,1.688-1.471,3.807c0.477,1.716,0.656,2.052,0.631,2.076
				c-0.021,0.019-0.014-1.147-0.018-1.831c-0.004-1.019,1.029-0.643,1.439-0.294c0.602,0.515,2.043,1.478,2.08,1.501
				c0.535,0.34,0.656,0.108,0.713-0.289c0.012-0.086,0.035-0.616,0.035-0.616c0.066,0.055,1.32,0.7,1.656,0.915
				c0.953,0.62,1.094,1.465,1.02,2.222l-0.029,0.756c-0.016,0.392-0.1,0.84,0.287,0.813c0.412-0.03,0.74-0.109,0.871-0.527
				c0,0,0.393-1.447,1.326-1.215c0.906,0.229,0.145,2.301,0.086,2.409l-0.408,2.834c0.348,0.119,1.158-0.438,1.645-1.4
				c0.906-1.778,1.48-3.06,1.73-3.603c2.482-5.339-1.836-10.841-7.91-9.255C143.004,10.018,140.457,11.417,140.457,11.417z"/>
			<path fill="#E6C7B1" d="M148.889,18.573c-1.244-0.05-1.43,1.139-1.43,1.139l-0.1,2.5c0,0,0.039,0.543,0.504,0.659
				c0.703,0.171,1.033-0.438,1.375-1.104c0.021-0.04,0.465-1.025,0.49-1.084C150.111,19.844,150.066,18.619,148.889,18.573z"/>
		</g>
		<path fill="#9EC8D1" d="M150.678,53.338c0.713,1.068,2.826,0.612,2.826,0.612s3.293-2.153,6.139-4.323
			c2.852-2.166,3.047-3.85,1.596-6.596l-4.486-8.205c0,0-1.439-3.634-3.697-3.519c-2.582,0.128-4.021,3.719-2.734,6.096
			c0.709,1.31,3.775,5.244,5.197,7.05c0.479,0.598,0.402,1.109,0.09,1.334l-4.898,4.541
			C150.705,50.329,149.58,51.698,150.678,53.338z"/>
		<path fill="#E5ECED" d="M149.217,51.12c-0.301,0.266-0.334,1.771,0.6,2.905c0.867,1.05,1.354,1.062,1.354,1.062
			c0.602,0.269,1.014,0.324,1.346,0.033c0,0,1.225-0.908,1.596-1.267c0.24-0.229,0.1-0.371,0.1-0.371s-0.191,0.181-0.439,0.17
			c-0.396-0.016-1.182-0.147-1.938-0.92c-1.473-1.498-0.914-2.646-0.914-2.646c-0.223-0.213-0.473-0.186-0.693,0.084L149.217,51.12z
			"/>
	</g>
	<g>
		<path opacity="0.29" fill="#231F20" enable-background="new    " d="M167.846,126.159c-0.826,0.967-2.762,3.596,1.211,5.526
			c3.975,1.929,12.805,2.851,14.85,0.653c2.043-2.194,2.688-3.391,4.594-5.7C191.322,123.208,177.295,115.133,167.846,126.159z"/>
		<g>
			<g>
				<path fill="#F6E8D9" d="M183.459,88.436c0.012,0.946-1.217,1.582-2.051,1.59c-0.291,0.002-0.447,1.781-0.865,2.449
					c-0.439,0.701-1.141,0.291-1.254,0.084c-0.092-0.16,0.645-2.76,0.811-3.422c0.539-2.207,1.396-2.297,2.23-2.305
					C183.162,86.823,183.447,87.49,183.459,88.436z"/>
				<path fill="#F6E8D9" d="M184.488,86.836l-2.402-0.001l-0.875,2.951l0.006,0.481l0.406,3.849c0,0,0.055,1.862,1.971,1.866
					c1.25,0,0.135,0,0.135,0c1.715,0.002,2.172-1.914,2.172-1.914l0.393-4.975C186.311,88.042,185.588,86.838,184.488,86.836z"/>
				<path fill="#107A7F" d="M181.533,87.318h3.859l1.871-14.271l-0.492-8.362c0.076-2.647-1.291-7.375-3.965-7.778
					c-3.139-0.474-2.248,4.886-2.248,4.886l1.313,11.046L181.533,87.318z"/>
			</g>
			<path fill="#E6C5AC" d="M187.152,97.986c0.016-1.682,0.578-10.781,0.305-12.008l-11.807,6.162
				c0.039,0.404,0.061,0.547,0.061,0.547l4.545,28.014l0.043,0.066c0,0,0.201,1.816-1.908,3.203
				c-0.473,0.324-3.125,2.041-3.166,2.055c-0.016,0.01-0.021,0.01-0.037,0.012c0.061,0.029,0.113,0.109,0.113,0.314
				c0,0.688,6.99,0.076,6.99,0.076s1.709,0.127,2.521-0.479c0.693-0.521,0.877-0.604,0.877-1.24L187.152,97.986z"/>
			<g>
				<path fill="#7C7676" d="M183.367,126.542l0.172,1.629c0,0,0.461,0.315,0.982,0.226c0.691-0.119,0.945-0.453,0.945-0.453
					l0.529-2.555c0,0-0.504,0.864-1.916,1.116C183.641,126.583,183.367,126.542,183.367,126.542z"/>
				<path fill="#0E0E0D" d="M181.961,124.385c-2.67,1.695-4.338,0.777-4.576,0.648c-0.963-0.521-0.563-1.127-0.043-1.496
					c0.217-0.15,0.533-0.225,0.533-0.225c0.027,0.004-2.553-0.217-3.281,0.287c-0.244,0.168-0.467,0.398-0.48,0.58
					c-0.025,0.393,0.258,0.674,0.258,0.674s1.539,0.623,2.602,1.166c1.809,0.932,6.205,0.367,7.852,0.438
					c0.563,0.024,1.322-0.842,1.383-1.924c0.084-1.554-0.42-2.136-0.42-2.136s-0.686-0.065-1.914,0.765
					C183.576,123.366,182.516,124.031,181.961,124.385z"/>
				<path fill="#7C7676" d="M184.654,126.202c-0.244,0.053-1.131,0.094-2.49,0.228c-2.494,0.241-3.59,0.106-5.119-0.521
					c-1.107-0.451-1.666-0.717-2.18-1.02c-0.264-0.156-0.813-0.473-0.748-0.707c-0.121,0.365,0.105,0.668,0.105,0.668
					s2.193,1.326,3.273,1.627c1.318,0.371,3.4,0.201,5.195,0.152c0.934-0.027,2.012-0.057,2.523-0.152
					c0.553-0.1,0.656-0.771,0.688-0.865C185.922,125.557,185.43,126.032,184.654,126.202z"/>
			</g>
			<path fill="#423B3B" d="M179.711,85.314l0.73,37.039c0,0,1.127,0.543,2.564,0.482c1.805-0.076,2.963-0.43,2.963-0.43
				l1.182-24.422c0.016-1.574,0.797-10.945,0.146-13.617c-0.043-0.18-0.115-0.377-0.162-0.563L179.711,85.314z"/>
			<path fill="#E6C5AC" d="M175.186,126.036C175.086,125.979,174.99,126.09,175.186,126.036L175.186,126.036z"/>
			<path fill="#E6C5AC" d="M175.186,126.036C175.086,125.979,174.99,126.09,175.186,126.036L175.186,126.036z"/>
			<path fill="#E6C7B1" d="M185.895,88.152c0.084-1.104-0.871-3.77-0.871-3.77l-12.68,1.36v1.72l0.176,2.739
				c0,0,3.137,34.187,3.139,34.479c0.01,1.135-1.115,1.741-3.283,2.422c-0.588,0.187-1.678,0.729-1.711,0.739
				c-0.389,0.127-1.105,1.242-0.15,1.615c2.014,0.785,6.744,0.685,6.744,0.685s2.391-0.521,3.078-0.574
				c0.863-0.065,0.699-2.467,0.699-2.467c0.246-2.718,2.881-31.438,2.994-32.438C184.23,92.941,185.633,91.551,185.895,88.152z"/>
			<g>
				<path fill="#7C7676" d="M179.117,130.02l0.359,1.6c0,0,0.512,0.258,1.037,0.104c0.697-0.205,0.922-0.566,0.922-0.566
					l0.254-2.604c0,0-0.826,1.396-2.104,1.433C179.125,129.999,179.117,130.02,179.117,130.02z"/>
				<path fill="#0E0E0D" d="M176.803,128.191c-2.451,1.457-4.361,0.834-4.59,0.748c-1.307-0.488-1.428-1.221,0.188-1.836
					c0.252-0.096-3.047,0.502-3.385,1.213c-0.131,0.271-0.246,0.449-0.238,0.635c0.021,0.391,0.342,0.637,0.342,0.637
					s1.652,0.434,2.809,0.844c1.969,0.699,6.977-0.537,8.68-0.668c0.582-0.045,1.279-1.002,1.199-2.08
					c-0.104-1.457-0.678-2.023-0.678-2.023s-0.707-0.027-1.875,0.943C178.969,126.84,177.229,127.939,176.803,128.191z"/>
				<path fill="#7C7676" d="M180.674,129.303c-0.246,0.084-1.488,0.289-2.852,0.518c-2.924,0.486-3.18,0.832-5.184,0.643
					c-1.227-0.115-2.346-0.533-2.896-0.793c-0.32-0.152-0.967-0.582-0.967-0.719c-0.014,0.518,0.188,0.65,0.188,0.65
					s1.143,1.033,3.637,1.393c2.65,0.379,4.801-0.732,6.258-0.896c1.039-0.115,1.615-0.139,2.082-0.404
					c0.629-0.359,0.658-0.811,0.682-0.902C181.633,128.729,181.453,129.04,180.674,129.303z"/>
			</g>
			<path fill="#5B5353" d="M172.344,85.744v1.72l0.176,2.739c0,0,2.934,34.294,2.936,34.589c0.002,0.176-0.033,0.336-0.086,0.49
				c0,0,0.609,0.518,2.656,0.641c2.414,0.146,3.422-0.733,3.422-0.733c0.652-7.11,2.746-29.526,2.852-30.412
				c0.199-1.723,1.521-3.101,1.775-6.5c0.113-1.532-0.396-3.992-0.396-3.992L172.344,85.744z"/>
			<path opacity="0.52" fill="#3A3535" enable-background="new    " d="M172.344,86.833c0,0,0.461,2.854,7.117,2.229
				c4.836-0.457,7.961-3.521,7.961-3.521c-0.035-0.599-0.078-0.796-0.213-1.478l-14.701,0.316c0.006,0.262-0.188,0.34-0.164,0.628
				C172.385,85.531,172.322,86.632,172.344,86.833z"/>
			<path fill="#1492A0" d="M174.814,57.969l-4.775,10.111c0,0-0.428,0.67-0.41,1.264c0.016,0.586,0.02,1.301,0.746,2.411
				c0.078,0.118,0.154,0.229,0.236,0.335c0.781,1.016,1.584,2.116,1.584,3.398l-0.203,8.556c0,0,0.002,1.241,0.051,1.401
				c0,0,1.783,2.199,5.611,2.242c3.654,0.039,7.85-2.125,9.203-2.766c0.268-0.125,0.502-0.32,0.549-0.352l-2.074-7.185
				c-0.299-1.239-0.352-1.979-0.303-2.714l0.912-8.402c0,0,0.16-3.302-0.305-5.07c-1.209-4.617-4.387-5.242-4.559-5.596
				C181.078,55.607,175.176,57.339,174.814,57.969z"/>
			<g>
				<path fill="#E6C7B1" d="M175.5,92.848c0.01,0.865-1.117,1.447-1.879,1.457c-0.27,0.004-0.41,1.633-0.795,2.246
					c-0.404,0.641-1.045,0.266-1.15,0.076c-0.082-0.146,0.594-2.531,0.744-3.139c0.494-2.023,1.277-2.105,2.045-2.111
					c0.451-0.006,0.729,0.208,0.883,0.563C175.451,92.184,175.496,92.495,175.5,92.848z"/>
				<path fill="#E6C7B1" d="M176.443,91.379h-2.205l-0.801,2.706l0.004,0.442l0.375,3.527c0,0,0.049,1.711,1.807,1.713
					c1.146,0,0.125,0,0.125,0c1.57,0,1.779-2.211,1.779-2.211l0.191-3.781C177.738,92.813,177.455,91.379,176.443,91.379z"/>
			</g>
			<path fill="#21A4AF" d="M173.311,91.702c0,0,0.994,0.438,2.34,0.438c0.963,0,1.617-0.298,1.617-0.298l0.27-2.641l1.053-11.541
				l-0.16-9.037c0.152-2.422-0.568-6.209-3.219-6.209c-3.174,0-2.672,4.294-2.672,4.294l1.311,11.047L173.311,91.702z"/>
			<path fill="#E6C7B1" d="M173.836,40.491l-4.584,0.217l2.338,12.125c0.455,2.271,1.799,3.246,2.828,3.278
				c1.986,0.063,3.385-1.452,5.193-3.885c1.605-2.154,1.273-3.502,1.289-3.821l0.688-7.914H173.836z"/>
			<path fill="#68400D" d="M185.014,48.302c0.391-3.633-0.037-9.261-5.184-10.823c-4.494-1.367-8.289-0.037-10.258,2.991
				c-1.592,2.446-0.979,5.368-0.846,5.437c0.318,0.158,0.566,0.24,0.768,0.294c-0.033-0.226-0.061-0.488-0.061-0.8
				c0-1.107,0.203-1.715,0.203-1.715s-0.012,1.248,0.41,2.646c2.299,0.813,3.02,4.182,2.768,6.736
				c-0.172,1.76-1.471,4.115-2.467,5.004c0,0,0.164,0.049,0.457,0.113c0.316-0.188,0.949,0.186,1.273-0.184
				c0.84-0.945,1.441-1.998,1.441-1.998s-0.105,0.699-0.766,2.205c-0.143,0.32-0.596,0.05-0.715,0.293
				c1.984,0.257,5.469,0.354,9.537-1.1c2.77-0.988,5.17-3.764,5.047-3.836C184.771,52.473,184.863,49.715,185.014,48.302z"/>
		</g>
	</g>
</g>
</svg>
