<?xml version="1.0" encoding="utf-8"?>
<!-- Generator: Adobe Illustrator 15.0.0, SVG Export Plug-In . SVG Version: 6.00 Build 0)  -->
<!DOCTYPE svg PUBLIC "-//W3C//DTD SVG 1.1//EN" "http://www.w3.org/Graphics/SVG/1.1/DTD/svg11.dtd">
<svg version="1.1" id="Capa_1" xmlns="http://www.w3.org/2000/svg" xmlns:xlink="http://www.w3.org/1999/xlink" x="0px" y="0px"
	 width="136.835px" height="140.14px" viewBox="0 0 136.835 140.14" enable-background="new 0 0 136.835 140.14"
	 xml:space="preserve">
<g>
	<defs>
		<rect id="SVGID_1_" y="1" width="136.835" height="139.14"/>
	</defs>
	<clipPath id="SVGID_2_">
		<use xlink:href="#SVGID_1_"  overflow="visible"/>
	</clipPath>
	<g clip-path="url(#SVGID_2_)">
		<defs>
			<rect id="SVGID_3_" y="1" width="136.835" height="139.14"/>
		</defs>
		<clipPath id="SVGID_4_">
			<use xlink:href="#SVGID_3_"  overflow="visible"/>
		</clipPath>
		<g opacity="0.5" clip-path="url(#SVGID_4_)">
			<g>
				<defs>
					<rect id="SVGID_5_" x="6.362" y="14.301" width="125.402" height="89.772"/>
				</defs>
				<clipPath id="SVGID_6_">
					<use xlink:href="#SVGID_5_"  overflow="visible"/>
				</clipPath>
				<g opacity="0.5" clip-path="url(#SVGID_6_)">
					<g>
						<defs>
							<rect id="SVGID_7_" x="7.693" y="26.797" width="122.369" height="77.275"/>
						</defs>
						<clipPath id="SVGID_8_">
							<use xlink:href="#SVGID_7_"  overflow="visible"/>
						</clipPath>
						<path clip-path="url(#SVGID_8_)" fill="#99B8D6" d="M72.853,46.629c-5.443-0.946-10.601-3.557-15.052-7.515
							c-6.647-5.912-20.561-15.973-33.832-10.962C5.664,35.065,5.582,55.06,10.35,65.922c4.77,10.861,38.58,42.67,82.416,37.61
							c39.227-4.531,46.871-56.372,25.95-65.751C100.571,29.644,94.38,50.375,72.853,46.629"/>
					</g>
				</g>
				<path clip-path="url(#SVGID_6_)" fill="#99B8D6" d="M126.238,45.735c-0.001-14.506-10.142-30.401-22.758-31.361
					c-0.222-0.016-0.447-0.031-0.672-0.044c-18.09-1.003-19.468,25.279-35.835,28.244c-16.365,2.964-28.864-12.001-48.448-2.238
					c-17.589,8.77-22.354,58.046,29.325,60.022C89.198,101.938,126.244,89.013,126.238,45.735"/>
				<path clip-path="url(#SVGID_6_)" fill="#99B8D6" d="M26.745,98.841c0.893,1.604,0.336,3.641-1.243,4.548
					c-1.577,0.906-3.581,0.342-4.472-1.262c-0.891-1.606-0.335-3.643,1.243-4.548C23.852,96.672,25.853,97.237,26.745,98.841"/>
				<path clip-path="url(#SVGID_6_)" fill="#99B8D6" d="M39.579,23.274c0,1.585-1.264,2.87-2.82,2.87
					c-1.559,0-2.822-1.284-2.822-2.87c0-1.584,1.264-2.869,2.822-2.869C38.315,20.405,39.579,21.69,39.579,23.274"/>
				<g opacity="0.5" clip-path="url(#SVGID_6_)">
					<g>
						<defs>
							<rect id="SVGID_9_" x="112.771" y="96.471" width="5.646" height="5.739"/>
						</defs>
						<clipPath id="SVGID_10_">
							<use xlink:href="#SVGID_9_"  overflow="visible"/>
						</clipPath>
						<path clip-path="url(#SVGID_10_)" fill="#99B8D6" d="M118.357,98.766c0.312,1.552-0.675,3.068-2.199,3.387
							c-1.527,0.317-3.018-0.686-3.33-2.238c-0.313-1.553,0.672-3.068,2.2-3.386C116.555,96.211,118.046,97.213,118.357,98.766"/>
					</g>
				</g>
				<g opacity="0.5" clip-path="url(#SVGID_6_)">
					<g>
						<defs>
							<rect id="SVGID_11_" x="128.362" y="38.36" width="3.402" height="3.457"/>
						</defs>
						<clipPath id="SVGID_12_">
							<use xlink:href="#SVGID_11_"  overflow="visible"/>
						</clipPath>
						<path clip-path="url(#SVGID_12_)" fill="#99B8D6" d="M131.765,40.088c0,0.956-0.762,1.729-1.702,1.729
							c-0.938,0-1.7-0.772-1.7-1.729c0-0.955,0.762-1.729,1.7-1.729C131.003,38.36,131.765,39.133,131.765,40.088"/>
					</g>
				</g>
				<path clip-path="url(#SVGID_6_)" fill="#99B8D6" d="M31.497,21.195c1.387,1.852-0.67,3.945-2.491,2.535
					C27.617,21.879,29.678,19.785,31.497,21.195"/>
				<g opacity="0.5" clip-path="url(#SVGID_6_)">
					<g>
						<defs>
							<rect id="SVGID_13_" x="14.894" y="95.417" width="3.402" height="3.459"/>
						</defs>
						<clipPath id="SVGID_14_">
							<use xlink:href="#SVGID_13_"  overflow="visible"/>
						</clipPath>
						<path clip-path="url(#SVGID_14_)" fill="#99B8D6" d="M18.076,96.294c0.461,0.832,0.173,1.887-0.644,2.357
							c-0.819,0.471-1.856,0.177-2.318-0.653c-0.462-0.833-0.173-1.888,0.644-2.359C16.575,95.17,17.614,95.462,18.076,96.294"/>
					</g>
				</g>
				<path clip-path="url(#SVGID_6_)" fill="#99B8D6" d="M122.816,96.105c0.189,0.937-0.406,1.85-1.326,2.042
					c-0.919,0.19-1.817-0.413-2.006-1.35c-0.188-0.936,0.404-1.849,1.324-2.04C121.73,94.565,122.628,95.169,122.816,96.105"/>
			</g>
		</g>
		<path clip-path="url(#SVGID_4_)" fill="#99B8D6" d="M59.065,27.233c-0.072,0-0.146-0.012-0.218-0.04l-2.816-1.028H46.6
			c-0.838,0-1.521-0.695-1.521-1.548V19.31c0-0.854,0.684-1.549,1.521-1.549H57.07c0.84,0,1.522,0.695,1.522,1.549v4.247
			l1.063,2.793c0.093,0.24,0.039,0.502-0.138,0.686C59.396,27.164,59.233,27.233,59.065,27.233 M46.6,18.317
			c-0.538,0-0.974,0.445-0.974,0.992v5.309c0,0.547,0.436,0.992,0.974,0.992h9.526l2.905,1.061c0.049,0.017,0.08-0.006,0.097-0.023
			c0.015-0.016,0.037-0.05,0.019-0.097l-1.101-2.89V19.31c0-0.547-0.437-0.992-0.976-0.992H46.6z"/>
		<path clip-path="url(#SVGID_4_)" fill="#99B8D6" d="M54.49,23.312c-0.651,0-1.178-0.537-1.178-1.198
			c0-0.661,0.526-1.198,1.178-1.198c0.648,0,1.177,0.537,1.177,1.198C55.667,22.775,55.139,23.312,54.49,23.312 M54.49,21.474
			c-0.35,0-0.631,0.287-0.631,0.641s0.281,0.642,0.631,0.642c0.347,0,0.629-0.288,0.629-0.642S54.837,21.474,54.49,21.474"/>
		<path clip-path="url(#SVGID_4_)" fill="#99B8D6" d="M51.629,23.312c-0.652,0-1.181-0.537-1.181-1.198
			c0-0.661,0.528-1.198,1.181-1.198c0.647,0,1.176,0.537,1.176,1.198C52.805,22.775,52.276,23.312,51.629,23.312 M51.629,21.474
			c-0.349,0-0.633,0.287-0.633,0.641s0.284,0.642,0.633,0.642c0.347,0,0.629-0.288,0.629-0.642S51.976,21.474,51.629,21.474"/>
		<path clip-path="url(#SVGID_4_)" fill="#99B8D6" d="M48.765,23.312c-0.649,0-1.177-0.537-1.177-1.198
			c0-0.661,0.527-1.198,1.177-1.198c0.651,0,1.179,0.537,1.179,1.198C49.943,22.775,49.416,23.312,48.765,23.312 M48.765,21.474
			c-0.348,0-0.63,0.287-0.63,0.641s0.282,0.642,0.63,0.642c0.349,0,0.632-0.288,0.632-0.642S49.113,21.474,48.765,21.474"/>
		<g opacity="0.5" clip-path="url(#SVGID_4_)">
			<g>
				<defs>
					<rect id="SVGID_15_" x="34.907" y="101.194" width="68.378" height="5.757"/>
				</defs>
				<clipPath id="SVGID_16_">
					<use xlink:href="#SVGID_15_"  overflow="visible"/>
				</clipPath>
				<path clip-path="url(#SVGID_16_)" fill="#99B8D6" d="M103.285,104.073c0,1.59-15.309,2.878-34.188,2.878
					c-18.884,0-34.19-1.288-34.19-2.878c0-1.589,15.307-2.879,34.19-2.879C87.977,101.194,103.285,102.484,103.285,104.073"/>
			</g>
		</g>
		<path clip-path="url(#SVGID_4_)" d="M123.65,33.882v55.41c0,1.761-1.404,3.188-3.138,3.188H18.406
			c-1.73,0-3.136-1.428-3.136-3.188v-55.41c0-1.762,1.405-3.188,3.136-3.188h102.106C122.246,30.693,123.65,32.12,123.65,33.882"/>
		<path clip-path="url(#SVGID_4_)" fill="#FFFFFF" d="M123.65,81.867v7.425c0,1.761-1.404,3.188-3.138,3.188H18.406
			c-1.73,0-3.136-1.428-3.136-3.188v-7.425H123.65z"/>
		<g opacity="0.5" clip-path="url(#SVGID_4_)">
			<g>
				<defs>
					<rect id="SVGID_17_" x="62.029" y="85.681" width="14.862" height="2.985"/>
				</defs>
				<clipPath id="SVGID_18_">
					<use xlink:href="#SVGID_17_"  overflow="visible"/>
				</clipPath>
				<path clip-path="url(#SVGID_18_)" fill="#99B8D6" d="M75.444,88.667H63.476c-0.795,0-1.446-0.661-1.446-1.472v-0.044
					c0-0.81,0.651-1.47,1.446-1.47h11.969c0.797,0,1.447,0.66,1.447,1.47v0.044C76.892,88.005,76.241,88.667,75.444,88.667"/>
			</g>
		</g>
		<path clip-path="url(#SVGID_4_)" fill="#1E8DBE" d="M119.821,35.816V81.87H19.101V35.816c0-0.679,0.543-1.229,1.209-1.229h98.3
			C119.277,34.587,119.821,35.137,119.821,35.816"/>
		<g opacity="0.5" clip-path="url(#SVGID_4_)">
			<g>
				<defs>
					<rect id="SVGID_19_" x="114.932" y="59.728" width="4.89" height="17.79"/>
				</defs>
				<clipPath id="SVGID_20_">
					<use xlink:href="#SVGID_19_"  overflow="visible"/>
				</clipPath>
				<path clip-path="url(#SVGID_20_)" fill="#1C51A1" d="M119.821,59.728v17.79h-4.294c-0.327,0-0.596-0.27-0.596-0.605v-16.58
					c0-0.333,0.269-0.604,0.596-0.604H119.821z"/>
			</g>
		</g>
		<rect x="19.074" y="77.712" clip-path="url(#SVGID_4_)" fill="#1C51A1" width="100.739" height="4.154"/>
		<path clip-path="url(#SVGID_4_)" fill="#FFFFFF" d="M119.821,35.816v4.272H19.101v-4.272c0-0.679,0.541-1.229,1.209-1.229h98.3
			C119.277,34.587,119.821,35.137,119.821,35.816"/>
		<path clip-path="url(#SVGID_4_)" fill="#CFDBE2" d="M103.546,38.482H29.651c-0.271,0-0.493-0.235-0.493-0.522v-1.242
			c0-0.29,0.222-0.525,0.493-0.525h73.895c0.27,0,0.491,0.235,0.491,0.525v1.242C104.037,38.247,103.815,38.482,103.546,38.482"/>
		<polygon clip-path="url(#SVGID_4_)" fill="#CFDBE2" points="23.354,36.156 21.779,37.462 23.354,38.521 		"/>
		<polygon clip-path="url(#SVGID_4_)" fill="#CFDBE2" points="24.647,36.156 26.221,37.462 24.647,38.521 		"/>
		<path clip-path="url(#SVGID_4_)" fill="#1C51A1" d="M112.945,37.337c0,0.632-0.504,1.145-1.124,1.145
			c-0.622,0-1.127-0.513-1.127-1.145c0-0.633,0.505-1.146,1.127-1.146C112.441,36.192,112.945,36.705,112.945,37.337"/>
		<path clip-path="url(#SVGID_4_)" fill="#F6605B" d="M109.536,37.337c0,0.632-0.503,1.145-1.126,1.145
			c-0.621,0-1.125-0.513-1.125-1.145c0-0.633,0.504-1.146,1.125-1.146C109.033,36.192,109.536,36.705,109.536,37.337"/>
		<path clip-path="url(#SVGID_4_)" d="M116.354,37.337c0,0.632-0.504,1.145-1.125,1.145c-0.622,0-1.125-0.513-1.125-1.145
			c0-0.633,0.503-1.146,1.125-1.146C115.851,36.192,116.354,36.705,116.354,37.337"/>
	</g>
	<g clip-path="url(#SVGID_2_)">
		<defs>
			<rect id="SVGID_21_" x="19.101" y="21.968" width="100.721" height="59.904"/>
		</defs>
		<clipPath id="SVGID_22_">
			<use xlink:href="#SVGID_21_"  overflow="visible"/>
		</clipPath>
		<path clip-path="url(#SVGID_22_)" fill="#FFFFFF" d="M91.569,81.047c-4.38,0-7.349-1.19-9.051-3.618
			c-4.075-5.82-8.25-19.105-8.713-20.602c-0.736-2.38,0.565-4.916,2.906-5.665c2.34-0.748,4.834,0.573,5.57,2.954
			c1.106,3.574,4.493,13.488,7.219,17.689c0.438,0.125,1.634,0.344,4.128,0.095c1.96-0.195,3.591-0.573,3.606-0.578
			c2.392-0.563,4.779,0.95,5.333,3.381c0.555,2.43-0.933,4.857-3.323,5.423c-0.114,0.026-2.852,0.666-5.925,0.863
			C92.713,81.028,92.13,81.047,91.569,81.047"/>
		<path clip-path="url(#SVGID_22_)" fill="#FFFFFF" d="M84.199,96.199c-2.092,1.986-5.216,3.64-8.851,4.692
			c-2.783,0.808-5.868,1.265-9.019,1.252c-4.144-0.015-8.403-0.838-12.249-2.741c-1.159-3.228-2.437-14.74-2.779-18.18
			c-0.067-0.686-0.122-1.372-0.167-2.058c-0.214-3.301-0.169-6.625-0.011-10.106c0.008-0.187,0.017-0.377,0.026-0.567
			c0.139-2.861,0.345-5.831,0.54-8.98c0.386-6.236,2.435-10.08,5.989-10.656c1.656-0.266,2.964-0.739,3.929-1.204
			c0.116-0.056,0.229-0.111,0.337-0.168c1.147-0.595,1.796-1.13,1.796-1.13h7.936c0.683,1.014,1.543,1.649,2.469,2.099
			c0.103,0.049,0.205,0.096,0.309,0.145c2.817,1.234,6.102,0.988,6.778,4.442c0.426,2.167-1.208,6.629-1.037,15.673
			c0.014,0.664,0.035,1.35,0.069,2.065c0.031,0.666,0.073,1.356,0.125,2.07c0.049,0.665,0.106,1.351,0.177,2.056
			c0.06,0.618,0.128,1.25,0.204,1.898c0.079,0.666,0.167,1.349,0.268,2.048C81.566,82.608,82.982,91.368,84.199,96.199"/>
		<path clip-path="url(#SVGID_22_)" fill="#CFDBE2" d="M60.979,47.539c0,0-2.192,0.429-3.053,1.274l1.086,5.189l2.602,1.479
			l-2.241,0.647l0.783,10.959l3.646,2.978L62.77,51.46C62.77,51.46,62.378,49.446,60.979,47.539"/>
		<path clip-path="url(#SVGID_22_)" fill="#CFDBE2" d="M74.658,48.458c0,0,1.909,0.21,2.802,1.019l-0.892,4.028l-1.775,1.9
			l1.489,0.676l-0.214,10.921l-2.437,3.176l-0.831-16.905C72.801,53.272,73.734,50.271,74.658,48.458"/>
		<path clip-path="url(#SVGID_22_)" fill="#FFFFFF" d="M85.98,102.636c-0.183-0.663-0.363-1.331-0.543-2.005
			c-0.039-0.139-0.074-0.28-0.112-0.421c-0.09-0.338-0.179-0.68-0.268-1.02c-0.035-0.141-0.073-0.282-0.108-0.423
			c-1.111-4.332-2.119-8.851-2.878-13.32l-6.723,15.443c0,0,0.025,0.643,0.071,1.745H85.98z"/>
		<path clip-path="url(#SVGID_22_)" fill="#CFDBE2" d="M76.8,102.636c-1.022-16.976-1.685-34.573-1.696-34.857
			c-0.004-0.12-0.104-0.213-0.221-0.208c-0.118,0.004-0.212,0.104-0.206,0.226c0.01,0.284,0.672,17.863,1.694,34.84H76.8z"/>
		<path clip-path="url(#SVGID_22_)" fill="#CFDBE2" d="M77.772,129.377c-0.116,0-0.213-0.096-0.214-0.215
			c-0.002-0.121,0.093-0.218,0.211-0.22c0.091-0.003,9.203-0.166,15.615-3.332c0.105-0.054,0.234-0.009,0.287,0.101
			c0.051,0.107,0.007,0.238-0.101,0.29c-6.498,3.21-15.704,3.373-15.796,3.376H77.772z"/>
		<path clip-path="url(#SVGID_22_)" fill="#2AABCD" d="M75.349,100.891c-2.783,0.808-5.868,1.265-9.019,1.252
			c-0.018-0.032-0.026-0.048-0.026-0.048s-1.691-17.167-1.96-23.436c-0.27-6.241-1.932-26.63-1.945-26.808l0,0
			c0.125-0.138,0.248-0.268,0.371-0.392c0.606,1.035,1.329,2.074,2.087,2.76l3.36-4.637c0.047-0.069,0.124-0.109,0.207-0.105
			c0.082,0,0.159,0.04,0.205,0.109l3.134,4.524c0.168-0.308,0.431-0.792,0.747-1.386c0.192,0.33,0.291,0.542,0.291,0.542v0.004
			L75.349,100.891z"/>
		<path clip-path="url(#SVGID_22_)" fill="#CFDBE2" d="M80.894,72.748c-0.248-4.755-0.251-10.457-0.251-10.529
			c0-0.145-0.115-0.263-0.256-0.263c-0.142,0-0.256,0.118-0.256,0.263c0,0.072,0.004,5.761,0.251,10.529H80.894z"/>
		<path clip-path="url(#SVGID_22_)" fill="#1058A5" d="M70.777,93.917c-0.029,0.336-0.317,0.585-0.647,0.555
			c-0.329-0.029-0.573-0.322-0.544-0.657c0.028-0.334,0.317-0.583,0.647-0.555C70.563,93.287,70.807,93.583,70.777,93.917"/>
		<path clip-path="url(#SVGID_22_)" fill="#1058A5" d="M71.058,97.329c0.061,0.45-0.352,0.804-0.779,0.669
			c-0.214-0.069-0.375-0.265-0.406-0.492c-0.058-0.451,0.354-0.803,0.779-0.668C70.867,96.907,71.029,97.101,71.058,97.329"/>
		<path clip-path="url(#SVGID_22_)" d="M76.38,26.711c0,0,1.029,1.253,0.905,2.622c0,0,0.61,1.5,0.329,2.729
			c-0.281,1.231-1.021,2.796-1.021,2.796s-0.581-5.971-1.884-6.374c-1.305-0.403-2.865-1.532-2.865-1.532
			S72.663,25.406,76.38,26.711"/>
		<path clip-path="url(#SVGID_22_)" d="M77.505,27.485c0,0,1.961,1.617,0,3.236C75.543,32.337,77.505,27.485,77.505,27.485"/>
		<path clip-path="url(#SVGID_22_)" d="M62.009,30.583c0,0-0.567,1.411,0.024,2.172c0.592,0.761-0.197,1.879,0.611,2.627
			c0.812,0.75,2.228,0.438,2.228,0.438s0.928-7.343,1.63-7.986C66.502,27.834,64.096,27.662,62.009,30.583"/>
		<path clip-path="url(#SVGID_22_)" d="M62.897,30.532c0,0-0.955-2.805-0.477-3.882c0.477-1.08,1.96-1.134,1.96-1.134
			s0.69-2.803,3.977-2.695c3.289,0.108,9.228,1.94,11.189,0.431c0,0,0.636,5.23-2.068,5.499
			C74.774,29.021,65.784,26.917,62.897,30.532"/>
		<path clip-path="url(#SVGID_22_)" fill="#434C56" d="M65.124,26.583c-0.007,0-0.016,0-0.022-0.002
			c-0.052-0.012-0.082-0.065-0.069-0.116c0.006-0.026,0.606-2.433,2.867-2.636c1.273-0.113,2.695,0.116,4.068,0.334
			c1.591,0.255,3.233,0.518,4.672,0.262c0.052-0.01,0.102,0.025,0.11,0.078c0.009,0.052-0.024,0.102-0.077,0.112
			c-1.469,0.263-3.13-0.003-4.734-0.26c-1.363-0.217-2.771-0.443-4.022-0.332c-2.124,0.188-2.694,2.463-2.699,2.488
			C65.206,26.555,65.165,26.583,65.124,26.583"/>
		<path clip-path="url(#SVGID_22_)" fill="#F6B88C" d="M72.122,44.602l-0.161,2.122c-0.26,0.183-0.554,0.283-0.778,0.467
			c-4.117,3.37-7.494-1.12-7.494-1.12l0.563-7.359l6.933,5.188L72.122,44.602z"/>
		<path clip-path="url(#SVGID_22_)" d="M72.129,44.542l-0.168,2.183c-0.26,0.183-0.521,0.337-0.778,0.467
			c-2.991-1.484-4.986-4.956-4.986-4.956l4.988,1.665L72.129,44.542z"/>
		<path clip-path="url(#SVGID_22_)" fill="#F9896A" d="M75.451,35.404c0,0,1.294-1.331,1.854,0.146
			c0.562,1.478-0.175,4.319-1.941,3.705L75.451,35.404z"/>
		<path clip-path="url(#SVGID_22_)" fill="#F6B88C" d="M76.332,40.496c0,0-0.329,4.389-4.815,4.025
			c-4.46-0.362-7.228-4.165-7.372-4.342c-0.003-0.002-0.005-0.004-0.005-0.004l0.021-0.927l0.112-4.807l0.06-2.569
			c0,0-0.216-4.651,4.151-5.15c3.194-0.366,6.102,0.398,7.463,2.186c0.045,0.057,0.087,0.116,0.126,0.175
			c0.424,0.624,0.668,1.363,0.683,2.215l-0.212,4.604l-0.053,1.13L76.332,40.496z"/>
		<path clip-path="url(#SVGID_22_)" d="M72.755,36.708c-0.046,0-0.093-0.019-0.123-0.059c-0.056-0.07-0.045-0.172,0.022-0.227
			l0.896-0.735l-0.737-0.789c-0.025-0.03-0.041-0.067-0.044-0.105l-0.069-1.817c-0.004-0.088,0.064-0.164,0.152-0.167
			c0.086-0.003,0.162,0.065,0.165,0.154l0.066,1.758l0.813,0.872c0.03,0.033,0.048,0.077,0.044,0.12
			c-0.003,0.046-0.024,0.087-0.058,0.116l-1.029,0.845C72.824,36.697,72.789,36.708,72.755,36.708"/>
		<path clip-path="url(#SVGID_22_)" d="M72.047,31.793c-0.177-0.28-0.453-0.479-0.767-0.57c-0.506-0.146-1.432-0.316-2.23,0.075
			c-1.165,0.572-0.559,1.475,0.751,1.444c1.312-0.028,1.938-0.048,2.276-0.4C72.224,32.188,72.162,31.979,72.047,31.793"/>
		<path clip-path="url(#SVGID_22_)" d="M73.575,31.898c0.17-0.342,0.51-0.429,0.834-0.472c0.52-0.068,1.461-0.093,2.192,0.415
			c1.066,0.743,0.338,1.542-0.955,1.314c-1.292-0.229-1.734-0.172-2.015-0.571C73.51,32.408,73.479,32.095,73.575,31.898"/>
		<path clip-path="url(#SVGID_22_)" fill="#F9896A" d="M70.648,36.004c-0.025,0.32-0.691,0.528-1.491,0.465
			c-0.797-0.063-1.425-0.374-1.4-0.693c0.025-0.32,0.691-0.527,1.49-0.465C70.046,35.375,70.672,35.684,70.648,36.004"/>
		<path clip-path="url(#SVGID_22_)" fill="#F9896A" d="M76.491,37.032c-0.111,0.003-0.229-0.001-0.349-0.011
			c-0.797-0.063-1.425-0.372-1.399-0.692c0.024-0.32,0.69-0.527,1.489-0.465c0.107,0.01,0.212,0.021,0.312,0.038L76.491,37.032z"/>
		<path clip-path="url(#SVGID_22_)" d="M66.132,34.256c0,0,1.121,2.882,2.57,2.49c1.451-0.391,3.15-0.31,4.435,0.351
			c0,0,2.204-1.246,3.481-0.284c0.857,0.642,0.106,6.854-3.008,7.629s-7.177-0.606-8.086-3.597
			c-0.909-2.992-0.766-5.508-0.766-5.508L66.132,34.256z"/>
		<path clip-path="url(#SVGID_22_)" fill="#434C56" d="M72.893,40.44c-0.019-0.071-0.09-0.121-0.163-0.109
			c-0.63,0.106-1.181-0.107-1.216-0.123c-0.077-0.03-0.164,0.007-0.195,0.084c-0.029,0.078,0.008,0.165,0.082,0.196
			c0.04,0.015,0.655,0.259,1.368,0.142C72.857,40.616,72.916,40.529,72.893,40.44"/>
		<path clip-path="url(#SVGID_22_)" fill="#FFFFFF" d="M70.071,37.883c0,0,2.717,0.341,4.412,0.278c0,0-0.307,1.791-2.206,1.74
			C70.494,39.853,70.071,37.883,70.071,37.883"/>
		<path clip-path="url(#SVGID_22_)" d="M76.073,29.083c-0.685-0.308-1.212-0.112-2.345,0.291c-1.641,0.583-3.364-0.193-4.87-1.132
			c-1.505-0.938-2.531,0.121-2.055,0.907c0.478,0.785,0.373,1.382-0.29,2.285c-0.666,0.9,1.014,1.478,0.01,2.146
			c-0.422,0.283-0.434,0.751-0.308,1.2c0.14,0.49-0.309,0.945-0.792,0.812c-0.501-0.17-1.15-1.147-1.15-1.147l0.061-2.569
			c0,0-0.217-4.651,4.15-5.15c3.194-0.366,6.102,0.398,7.463,2.186C75.992,28.965,76.034,29.024,76.073,29.083"/>
		<path clip-path="url(#SVGID_22_)" fill="#434C56" d="M74.951,28.193c-1.962,0-4.021-0.476-4.148-0.506
			c-0.051-0.013-0.084-0.064-0.071-0.117c0.013-0.051,0.063-0.083,0.115-0.072c0.044,0.011,4.624,1.069,6.616,0.062
			c1.315-0.667,1.404-2.46,1.405-2.479c0.002-0.054,0.048-0.094,0.099-0.092c0.052,0.002,0.093,0.047,0.09,0.1
			c-0.002,0.079-0.096,1.928-1.508,2.643C76.868,28.076,75.921,28.193,74.951,28.193"/>
		<path clip-path="url(#SVGID_22_)" d="M70.442,34.492c-0.034,0.438-0.257,0.779-0.498,0.76c-0.242-0.018-0.41-0.391-0.377-0.828
			c0.033-0.439,0.256-0.78,0.497-0.76C70.307,33.681,70.475,34.052,70.442,34.492"/>
		<path clip-path="url(#SVGID_22_)" d="M74.78,34.767c-0.031,0.44-0.255,0.78-0.496,0.76c-0.241-0.019-0.409-0.389-0.376-0.827
			s0.257-0.779,0.497-0.761C74.646,33.958,74.816,34.33,74.78,34.767"/>
		<path clip-path="url(#SVGID_22_)" d="M65.686,38.51c-0.024,0.048-0.696,1.341-1.541,1.669l-0.004-0.004l0.021-0.927
			C64.162,39.249,64.881,39.182,65.686,38.51"/>
		<path clip-path="url(#SVGID_22_)" fill="#F6B88C" d="M65.126,35.401c0,0-1.543-2.493-2.949-0.741
			c-1.157,1.442,0.507,5.575,2.673,4.375L65.126,35.401z"/>
		<path clip-path="url(#SVGID_22_)" d="M64.668,38.308c-0.089-0.007-0.161-0.083-0.165-0.176c-0.055-1.798-1.477-2.536-1.536-2.566
			c-0.088-0.046-0.125-0.153-0.08-0.244c0.043-0.088,0.148-0.125,0.237-0.082c0.068,0.034,1.675,0.86,1.735,2.882
			c0.004,0.1-0.074,0.184-0.171,0.187C64.68,38.308,64.675,38.308,64.668,38.308"/>
		<path clip-path="url(#SVGID_22_)" d="M63.095,37.083c-0.052-0.005-0.101-0.032-0.131-0.079c-0.058-0.081-0.038-0.193,0.043-0.252
			c0.077-0.052,0.751-0.511,1.275-0.331c0.091,0.034,0.142,0.137,0.108,0.23c-0.029,0.094-0.132,0.146-0.224,0.115
			c-0.301-0.106-0.793,0.169-0.957,0.284C63.175,37.075,63.135,37.084,63.095,37.083"/>
		<path clip-path="url(#SVGID_22_)" fill="#2AABCD" d="M63.793,44.714c0,0-2.33,0.633-2.977,3.376
			c1.231,2.139,1.441,4.371,4.04,6.132c1.926-2.071,3.984-4.164,3.569-5.86C68.426,48.362,65.502,47.393,63.793,44.714"/>
		<path clip-path="url(#SVGID_22_)" fill="#2AABCD" d="M72.148,45.656c0,0,1.932,0.459,2.749,3.196
			c-0.736,2.028-1.663,3.698-3.098,5.458l-3.271-4.313l0.004-1.636C68.532,48.362,70.441,48.335,72.148,45.656"/>
		<polygon clip-path="url(#SVGID_22_)" points="73.632,83.101 72.339,86.479 72.339,86.48 71.758,87.999 70.116,92.286 
			69.247,90.662 68.938,90.088 68.239,88.786 67.934,88.21 67.234,86.91 66.927,86.334 66.227,85.034 66.227,85.033 65.92,84.46 
			65.264,83.236 65.274,83.101 65.352,82.119 65.529,79.889 65.604,78.904 65.781,76.675 65.858,75.689 66.036,73.46 66.113,72.476 
			66.289,70.248 66.366,69.264 66.541,67.035 66.619,66.049 66.796,63.822 66.873,62.836 67.051,60.607 67.128,59.625 
			67.304,57.394 67.382,56.41 67.563,54.105 69.232,54.002 69.291,54.384 69.409,55.161 69.674,56.922 69.79,57.697 70.057,59.458 
			70.175,60.235 70.441,61.996 70.56,62.771 70.825,64.531 70.942,65.309 71.208,67.07 71.326,67.847 71.593,69.608 71.71,70.382 
			71.976,72.143 72.093,72.921 72.36,74.681 72.478,75.458 72.743,77.217 72.86,77.996 73.127,79.754 73.244,80.534 73.511,82.293 
			73.628,83.07 		"/>
		<polygon clip-path="url(#SVGID_22_)" points="66.196,52.551 68.426,55.924 70.563,52.551 68.426,49.738 		"/>
		<path clip-path="url(#SVGID_22_)" fill="#1E8DBE" d="M75.015,48.969c-0.754,1.542-1.61,3.172-2.214,4.303
			c-0.465,0.868-0.781,1.44-0.789,1.455c-0.044,0.077-0.122,0.127-0.21,0.131c-0.087,0.007-0.17-0.035-0.222-0.11l-3.163-4.565
			l-3.311,4.571c-0.041,0.057-0.104,0.093-0.172,0.104c-0.012,0.001-0.021,0.001-0.033,0.001c-0.059,0-0.116-0.019-0.159-0.056
			c-0.859-0.697-1.67-1.822-2.344-2.95l0,0c-1.057-1.771-1.776-3.543-1.825-3.662c-0.054-0.133,0.009-0.286,0.14-0.34
			c0.132-0.055,0.28,0.009,0.335,0.142c0.011,0.028,0.706,1.741,1.722,3.469c0.606,1.035,1.329,2.074,2.087,2.76l3.36-4.637
			c0.047-0.069,0.124-0.109,0.207-0.105c0.082,0,0.159,0.04,0.205,0.109l3.134,4.524c0.168-0.308,0.431-0.792,0.747-1.386
			c0.585-1.103,1.358-2.582,2.047-3.988c0.063-0.131,0.217-0.182,0.343-0.117C75.027,48.685,75.078,48.841,75.015,48.969"/>
		<path clip-path="url(#SVGID_22_)" fill="#1E8DBE" d="M68.421,49.997c-0.142,0-0.255-0.114-0.255-0.259v-1.163
			c0-0.143,0.113-0.26,0.255-0.26c0.141,0,0.257,0.117,0.257,0.26v1.163C68.678,49.882,68.562,49.997,68.421,49.997"/>
		<path clip-path="url(#SVGID_22_)" fill="#FFFFFF" d="M66.437,102.636l-2.777-34.544l-12.356,13.13c0,0,0.718,11.635,0.829,21.414
			H66.437z"/>
		<path clip-path="url(#SVGID_22_)" fill="#CFDBE2" d="M64.235,131.355c-5.806,0-13.499-0.972-13.914-1.022
			c-0.117-0.017-0.2-0.124-0.186-0.245c0.014-0.118,0.121-0.204,0.238-0.188c0.13,0.019,13.075,1.65,18.108,0.742
			c0.118-0.021,0.228,0.057,0.248,0.177c0.022,0.117-0.057,0.23-0.173,0.251C67.42,131.276,65.905,131.355,64.235,131.355"/>
		<path clip-path="url(#SVGID_22_)" fill="#CFDBE2" d="M65.605,102.636c-1.12-14.088-2.908-34.577-2.933-34.86
			c-0.01-0.12-0.115-0.209-0.231-0.197c-0.118,0.011-0.205,0.116-0.195,0.235c0.025,0.282,1.808,20.74,2.931,34.822H65.605z"/>
		<path clip-path="url(#SVGID_22_)" fill="#F6B88C" d="M79.008,65.614c0,0,0.718-2.491,2.572-3.122
			c1.853-0.631,2.868-0.604,3.557-0.154c0.688,0.451,0.935,1.423,0.77,1.975C85.741,64.861,79.008,65.614,79.008,65.614"/>
		<path clip-path="url(#SVGID_22_)" fill="#FFFFFF" d="M82.082,67.868c-1.018-2.27-3.653-3.27-5.885-2.234l-0.082,0.038
			l-0.601,0.278l-0.63,0.287c-0.425,0.189-0.851,0.378-1.278,0.564c-0.854,0.372-1.717,0.731-2.579,1.085
			c-1.725,0.7-3.46,1.36-5.188,1.947c-0.864,0.294-1.727,0.569-2.582,0.819c-0.855,0.252-1.704,0.477-2.533,0.662
			c-0.206,0.051-0.409,0.09-0.616,0.134c-0.199,0.037-0.405,0.082-0.603,0.115c-0.399,0.073-0.785,0.127-1.156,0.17
			c-0.268,0.035-0.522,0.053-0.76,0.065c0.018-0.583,0.068-1.244,0.143-1.915c0.094-0.857,0.224-1.748,0.372-2.647
			c0.184-1.104,0.397-2.224,0.633-3.35c-0.769-4.531-0.882-9.155-1.582-13.699c-2.553-0.66-5.155,0.896-5.824,3.493l-0.196,0.767
			l-0.185,0.743l-0.355,1.481c-0.232,0.986-0.454,1.978-0.665,2.973c-0.421,1.992-0.809,3.999-1.124,6.076
			c-0.154,1.039-0.292,2.093-0.396,3.189c-0.026,0.276-0.053,0.546-0.07,0.831c-0.019,0.285-0.044,0.56-0.055,0.855
			c-0.011,0.293-0.027,0.575-0.029,0.887l-0.005,0.457c-0.003,0.074-0.001,0.153,0.001,0.237l0.006,0.24l0.015,0.485l0.036,0.523
			l0.02,0.261c0.007,0.088,0.021,0.191,0.032,0.287l0.077,0.58c0.038,0.214,0.085,0.442,0.133,0.662l0.013,0.057l0.024,0.11
			l0.018,0.083l0.029,0.1c0.036,0.134,0.077,0.267,0.119,0.396c0.042,0.134,0.086,0.267,0.132,0.398l0.017,0.049
			c0.005,0.015,0.018,0.04,0.025,0.061l0.054,0.128c0.036,0.085,0.074,0.17,0.112,0.253s0.078,0.168,0.118,0.252l0.062,0.124
			l0.071,0.123c0.095,0.164,0.196,0.326,0.299,0.485c0.102,0.162,0.219,0.309,0.337,0.458c0.118,0.146,0.241,0.295,0.368,0.428
			c0.126,0.131,0.258,0.259,0.392,0.382c0.068,0.062,0.136,0.126,0.203,0.181l0.201,0.16c0.135,0.104,0.273,0.205,0.412,0.304
			c0.134,0.085,0.268,0.168,0.405,0.249c0.281,0.169,0.529,0.281,0.796,0.401c0.134,0.066,0.25,0.108,0.376,0.154
			c0.036,0.015,0.071,0.027,0.108,0.04c0.087,0.033,0.174,0.063,0.263,0.094c0.233,0.073,0.465,0.139,0.695,0.197
			c0.217,0.047,0.435,0.096,0.648,0.135c0.201,0.03,0.406,0.062,0.606,0.087c0.785,0.092,1.479,0.095,2.135,0.072
			c0.652-0.027,1.271-0.083,1.856-0.163c0.587-0.078,1.157-0.17,1.706-0.28c0.552-0.106,1.088-0.225,1.614-0.354
			c1.053-0.254,2.068-0.543,3.063-0.853c0.997-0.307,1.971-0.636,2.933-0.979c1.924-0.689,3.796-1.434,5.645-2.218
			c0.924-0.394,1.843-0.796,2.756-1.211c0.457-0.208,0.912-0.416,1.369-0.631l0.685-0.323l0.712-0.345
			C82.133,72.766,83.089,70.117,82.082,67.868"/>
		<path clip-path="url(#SVGID_22_)" fill="#CFDBE2" d="M53.262,80.593c-0.037-0.013-0.072-0.025-0.108-0.04
			c-0.126-0.046-0.242-0.088-0.376-0.154c-0.267-0.12-0.515-0.232-0.796-0.401c-0.138-0.081-0.271-0.164-0.405-0.249
			c-0.139-0.099-0.277-0.199-0.412-0.304l-0.201-0.16c-0.067-0.055-0.135-0.119-0.203-0.181c-0.134-0.123-0.266-0.251-0.392-0.382
			c-0.127-0.133-0.25-0.282-0.368-0.428c-0.118-0.149-0.235-0.296-0.337-0.458c-0.103-0.159-0.204-0.321-0.299-0.485l-0.071-0.123
			l-0.062-0.124c-0.04-0.084-0.08-0.169-0.118-0.252s-0.076-0.168-0.112-0.253l-0.054-0.128c-0.008-0.021-0.021-0.046-0.025-0.061
			l-0.017-0.05c-0.046-0.131-0.09-0.264-0.132-0.397c-0.042-0.13-0.083-0.263-0.119-0.396l-0.029-0.1l-0.018-0.083l-0.024-0.11
			c0.818-0.104,1.983,0.011,3.241,0.955C53.327,77.357,53.407,79.306,53.262,80.593"/>
		<path clip-path="url(#SVGID_22_)" fill="#CFDBE2" d="M74.268,73.582c-0.1,0-0.191-0.069-0.217-0.173
			c-0.03-0.122,0.043-0.245,0.163-0.275c0.021-0.005,2.231-0.575,4.327-2.04c0.101-0.07,0.24-0.045,0.31,0.06
			c0.07,0.103,0.046,0.245-0.058,0.315c-2.165,1.512-4.379,2.082-4.472,2.105C74.303,73.581,74.285,73.582,74.268,73.582"/>
		<path clip-path="url(#SVGID_22_)" fill="#CFDBE2" d="M75.942,67.771c0,0.279-0.224,0.504-0.497,0.504s-0.496-0.225-0.496-0.504
			s0.223-0.506,0.496-0.506S75.942,67.492,75.942,67.771"/>
		<path clip-path="url(#SVGID_22_)" fill="#CFDBE2" d="M53.795,74.659c-0.064,0-0.129-0.024-0.182-0.071
			c-0.108-0.103-0.115-0.275-0.013-0.385c0.078-0.087,1.962-2.139,3.922-2.668c0.142-0.037,0.289,0.049,0.326,0.194
			c0.039,0.146-0.047,0.294-0.189,0.332c-1.808,0.487-3.649,2.491-3.667,2.511C53.939,74.629,53.868,74.659,53.795,74.659"/>
		<path clip-path="url(#SVGID_22_)" fill="#CFDBE2" d="M57.408,72.125c-0.048,0-0.096-0.013-0.139-0.041
			c-0.627-0.384-1.84-0.694-1.853-0.7c-0.144-0.037-0.231-0.185-0.195-0.328c0.036-0.147,0.182-0.236,0.326-0.198
			c0.052,0.013,1.302,0.333,1.998,0.762c0.126,0.078,0.167,0.245,0.093,0.372C57.588,72.079,57.499,72.125,57.408,72.125"/>
		<path clip-path="url(#SVGID_22_)" fill="#CFDBE2" d="M57.59,72.071c-0.147,0-0.267-0.122-0.267-0.271
			c0-4.203,1.389-10.333,1.405-10.395c0.032-0.147,0.177-0.238,0.32-0.203c0.144,0.034,0.234,0.18,0.2,0.326
			c-0.015,0.062-1.391,6.13-1.391,10.271C57.858,71.949,57.738,72.071,57.59,72.071"/>
		<path clip-path="url(#SVGID_22_)" fill="#CFDBE2" d="M57.236,81.888c-0.293,0-0.583-0.012-0.869-0.036
			c-3.691-0.311-4.921-1.42-4.97-1.467C51.288,80.284,51.28,80.111,51.38,80c0.1-0.109,0.267-0.117,0.376-0.018
			c0.021,0.018,1.192,1.037,4.654,1.328c3.531,0.297,7.594-1.513,7.634-1.53c0.137-0.061,0.295,0,0.354,0.137
			c0.06,0.139-0.001,0.299-0.136,0.359C64.104,80.348,60.645,81.888,57.236,81.888"/>
		<path clip-path="url(#SVGID_22_)" fill="#F6605B" d="M87.962,69.513c-0.194-0.021-0.382-0.133-0.491-0.318l-5.789-9.827
			c-0.185-0.313-0.084-0.723,0.225-0.911c0.31-0.186,0.71-0.084,0.896,0.229l5.788,9.826c0.186,0.314,0.084,0.722-0.224,0.91
			C88.239,69.499,88.098,69.528,87.962,69.513"/>
		<path clip-path="url(#SVGID_22_)" fill="#F6B88C" d="M85.325,71.279c-1.778,0.2-2.799,0.152-5.223,0.754
			c-2.421,0.6-4.878-4.017-2.723-6.247c0,0,0.675-1.149,1.4-1.732c0.725-0.583,4.48-1.731,5.581-1.693
			c0.934,0.034,2.327,0.001,2.922,0.43c1.494,1.076-0.974,1.917-0.974,1.917s1.044,0.02,1.194,0.886
			c0.152,0.863-0.441,1.005-0.441,1.005s0.4,0.23,0.705,0.835c0.301,0.603-0.398,1.181-0.398,1.181S88.173,69,87.984,69.69
			C87.676,70.811,85.325,71.279,85.325,71.279"/>
		<path clip-path="url(#SVGID_22_)" fill="#F9896A" d="M84.588,65.184c-0.06,0-0.109-0.047-0.113-0.108
			c-0.001-0.063,0.047-0.115,0.106-0.117c0.011-0.002,0.872-0.046,1.688-0.359c0.058-0.021,0.123,0.01,0.144,0.068
			c0.022,0.059-0.007,0.124-0.066,0.146c-0.851,0.325-1.718,0.369-1.753,0.371C84.592,65.184,84.59,65.184,84.588,65.184"/>
		<path clip-path="url(#SVGID_22_)" fill="#F9896A" d="M85.449,67.114c-0.059,0-0.107-0.046-0.112-0.105
			c-0.005-0.063,0.041-0.116,0.103-0.121c0.007-0.001,0.578-0.047,1.395-0.358c0.058-0.022,0.123,0.008,0.144,0.065
			c0.022,0.06-0.007,0.124-0.064,0.147c-0.851,0.323-1.432,0.371-1.457,0.372C85.454,67.114,85.451,67.114,85.449,67.114"/>
		<path clip-path="url(#SVGID_22_)" fill="#F9896A" d="M85.764,69.15H85.76c-0.063-0.001-0.11-0.053-0.11-0.115
			s0.049-0.112,0.112-0.112l0,0c0.019,0,0.688-0.003,1.365-0.372c0.054-0.028,0.123-0.009,0.152,0.048
			c0.029,0.054,0.007,0.124-0.048,0.153C86.514,69.14,85.828,69.15,85.764,69.15"/>
		<path clip-path="url(#SVGID_22_)" fill="#434C56" d="M96.557,84.07l10.033-21.938c0.169-0.368,0.01-0.668-0.355-0.666
			l-15.201,0.079c-0.365,0.001-0.799,0.303-0.969,0.674L80.032,84.156c-0.171,0.369-0.013,0.67,0.354,0.666l15.202-0.078
			C95.951,84.743,96.387,84.44,96.557,84.07"/>
		<path clip-path="url(#SVGID_22_)" d="M98.389,84.07l10.034-21.938c0.169-0.368,0.009-0.668-0.354-0.666l-15.204,0.079
			c-0.365,0.001-0.798,0.303-0.968,0.674L81.863,84.156c-0.172,0.369-0.012,0.67,0.354,0.666l15.203-0.078
			C97.784,84.743,98.22,84.44,98.389,84.07"/>
		<path clip-path="url(#SVGID_22_)" fill="#F6B88C" d="M104.848,69.949l0.391-0.898c0,0,0.749,1.72-0.118,3.219
			c-0.867,1.502-1.671,3.487-2.089,4.425c-0.419,0.938-0.906,3.041-1.63,3.41c-0.724,0.367-1.447,0.124-2.564-0.575
			c-1.117-0.701-0.738-1.416,0.022-1.517c0.846-0.112,1.975,0.013,1.975,0.013s-0.361-0.269-1.819-0.969
			c-1.538-0.735-0.878-1.613-0.013-1.657c1.2-0.06,3.129,0.269,3.129,0.269s-1.652-0.725-2.725-1.185
			c-1.07-0.46-0.194-1.64,1.631-1.176c1.829,0.463,1.874,0.185,1.874,0.185s-0.411-0.367-1.738-0.868
			c-1.326-0.499-1.817-1.483-0.917-1.673c0.89-0.187,3.625,0.757,3.625,0.757l0.409-0.749
			C104.504,70.659,104.694,70.284,104.848,69.949"/>
		<path clip-path="url(#SVGID_22_)" fill="#434C56" d="M97.824,73.101c-0.515,1.136-1.838,2.058-2.955,2.058
			c-1.118,0-1.605-0.922-1.092-2.058c0.514-1.137,1.838-2.058,2.956-2.058C97.851,71.043,98.339,71.964,97.824,73.101"/>
		<path clip-path="url(#SVGID_22_)" d="M63.479,66.861c0,1.63-1.3,2.951-2.903,2.951c-1.603,0-2.9-1.321-2.9-2.951
			c0-1.629,1.298-2.95,2.9-2.95C62.18,63.911,63.479,65.232,63.479,66.861"/>
		<path clip-path="url(#SVGID_22_)" fill="#434C56" d="M62.153,66.861c0,0.887-0.706,1.604-1.577,1.604
			c-0.87,0-1.576-0.718-1.576-1.604c0-0.886,0.706-1.604,1.576-1.604C61.447,65.257,62.153,65.975,62.153,66.861"/>
		<path clip-path="url(#SVGID_22_)" d="M75.836,59.958c-1.563,0-2.835,1.293-2.835,2.882v4.083c0,0.042,0.008,0.079,0.021,0.119
			c0.205-0.084,0.41-0.163,0.614-0.247c0.006-0.001,0.011-0.002,0.016-0.004c0.012-0.005,0.025-0.011,0.035-0.018v-3.934
			c0-1.202,0.964-2.185,2.149-2.185c1.183,0,2.147,0.982,2.147,2.185v2.032c0.225-0.235,0.446-0.473,0.688-0.688v-1.344
			C78.671,61.25,77.399,59.958,75.836,59.958"/>
		<path clip-path="url(#SVGID_22_)" fill="#434C56" d="M73.344,66.123c-0.436,0-0.789,0.357-0.789,0.8
			c0,0.103,0.021,0.2,0.056,0.291c0.338-0.148,0.683-0.28,1.025-0.419c0.007-0.002,0.013-0.002,0.018-0.004
			c0.077-0.038,0.15-0.073,0.227-0.112c0.017-0.01,0.036-0.013,0.053-0.013c0.044-0.025,0.086-0.05,0.127-0.076
			C73.938,66.313,73.663,66.123,73.344,66.123"/>
		<path clip-path="url(#SVGID_22_)" d="M63.83,44.323c-1.334,0.42-2.419,1.104-3.085,1.993c-1.436,1.917-2.053,5.53-1.835,10.739
			c0.163,3.841,0.742,7.18,0.747,7.212c0.031,0.17,0.175,0.285,0.336,0.285c0.021,0,0.04-0.001,0.062-0.005
			c0.184-0.033,0.309-0.213,0.275-0.402c-0.024-0.129-2.257-13.119,0.956-17.408c0.552-0.736,1.438-1.313,2.541-1.689
			C63.831,44.805,63.834,44.566,63.83,44.323"/>
		<path clip-path="url(#SVGID_22_)" d="M76.707,55.465c-0.049-3.599-0.64-6.309-1.756-8.058c-0.64-1.001-1.633-1.846-2.884-2.458
			c0.019,0.266-0.048,0.445-0.042,0.713c0.971,0.534,1.838,1.313,2.354,2.124c2.505,3.924,1.405,12.364,1.395,12.449
			c-0.025,0.189,0.104,0.364,0.292,0.391c0.186,0.024,0.358-0.107,0.383-0.297C76.452,60.307,76.742,58.122,76.707,55.465"/>
	</g>
	<g clip-path="url(#SVGID_2_)">
		<defs>
			<rect id="SVGID_23_" y="1" width="136.835" height="139.14"/>
		</defs>
		<clipPath id="SVGID_24_">
			<use xlink:href="#SVGID_23_"  overflow="visible"/>
		</clipPath>
		<path clip-path="url(#SVGID_24_)" fill="#CFDBE2" d="M76.439,75.471c-0.056,0.139-0.213,0.199-0.347,0.135
			c-1.508-0.737-2.532-2.436-2.977-4.935c-0.271-1.531-0.253-2.93-0.23-3.495c0.006-0.145,0.131-0.254,0.273-0.243h0.002
			c0.134,0.01,0.237,0.127,0.232,0.265c-0.045,1.206-0.063,6.49,2.918,7.944C76.433,75.201,76.489,75.343,76.439,75.471
			L76.439,75.471z"/>
		<path clip-path="url(#SVGID_24_)" fill="#FFFFFF" d="M92.005,104.768H47.146v-0.522c0-2.446,1.949-4.431,4.357-4.431h36.144
			c2.406,0,4.358,1.984,4.358,4.431V104.768z"/>
		<rect x="61.318" y="92.48" clip-path="url(#SVGID_24_)" fill="#FFFFFF" width="16.261" height="7.335"/>
		<g opacity="0.5" clip-path="url(#SVGID_24_)">
			<g>
				<defs>
					<rect id="SVGID_25_" x="61.318" y="92.48" width="16.261" height="4.723"/>
				</defs>
				<clipPath id="SVGID_26_">
					<use xlink:href="#SVGID_25_"  overflow="visible"/>
				</clipPath>
				<polygon clip-path="url(#SVGID_26_)" fill="#99B8D6" points="77.579,94.28 61.318,97.203 61.318,92.48 77.579,92.48 				"/>
			</g>
		</g>
		<path clip-path="url(#SVGID_24_)" fill="#2AABCD" d="M25.37,75.513l-2.563-4.515c-0.04-0.073-0.04-0.163,0-0.237l2.563-4.514
			c0.041-0.073,0.12-0.119,0.204-0.119h5.123c0.084,0,0.162,0.046,0.205,0.119l2.561,4.514c0.043,0.074,0.043,0.164,0,0.237
			l-2.561,4.515c-0.043,0.073-0.121,0.118-0.205,0.118h-5.123C25.49,75.631,25.411,75.586,25.37,75.513"/>
		<path clip-path="url(#SVGID_24_)" fill="#FFFFFF" d="M31.074,69.826c-0.027-0.168-0.171-0.25-0.287-0.288
			c0.036-0.031,0.055-0.065,0.067-0.094c0.114,0.074,0.302,0.258,0.486,0.705c0.008,0.018,0.014,0.035,0.02,0.054
			c0.003,0.005,0.004,0.009,0.006,0.015c-0.028-0.002-0.058-0.014-0.086-0.031C31.182,70.123,31.1,69.98,31.074,69.826"/>
		<path clip-path="url(#SVGID_24_)" fill="#FFFFFF" d="M24.827,71.332L24.827,71.332c0,0.104,0.008,0.211,0.025,0.32
			c0.009,0.062,0.021,0.124,0.033,0.179c0.004,0.016,0.008,0.028,0.012,0.044c-0.004-0.016-0.008-0.028-0.012-0.045
			c0.352,0.064,0.572-0.202,0.582-0.212c0.018-0.023,0.051-0.027,0.074-0.01c0.021,0.019,0.026,0.054,0.007,0.077
			c-0.01,0.013-0.214,0.263-0.555,0.263c-0.024,0-0.05-0.003-0.075-0.005c-0.006-0.016-0.011-0.03-0.015-0.049
			c0.004,0.019,0.009,0.033,0.015,0.049c0.018,0.062,0.041,0.116,0.064,0.166c0.017,0.034,0.032,0.067,0.051,0.098
			c0.191,0.321,0.48,0.42,0.711,0.439c0.02,0.033,0.314,0.523,0.784,0.684c0.014,0.003,0.024,0.007,0.037,0.011
			c0.017-0.018,0.026-0.04,0.039-0.069c0.016-0.036,0.036-0.08,0.077-0.142c0.12-0.175,0.352-0.265,0.604-0.234
			c0.105,0.013,0.174-0.069,0.241-0.15c0.042-0.049,0.075-0.091,0.118-0.112c0.055-0.023,0.124-0.012,0.194,0.004
			c0.106,0.018,0.177,0.026,0.2-0.021c0.085-0.172,0.337-0.152,0.348-0.15c0.029,0.001,0.051,0.028,0.049,0.057
			c-0.001,0.02-0.013,0.036-0.028,0.044c-0.009,0.004-0.02,0.006-0.028,0.005c-0.003,0-0.192-0.012-0.245,0.095
			c-0.063,0.12-0.207,0.095-0.312,0.075c-0.05-0.01-0.11-0.02-0.132-0.01c-0.022,0.01-0.053,0.048-0.083,0.084
			c-0.071,0.086-0.171,0.207-0.337,0.188c-0.167-0.021-0.387,0.017-0.503,0.188c-0.035,0.051-0.052,0.091-0.067,0.122
			c-0.009,0.02-0.016,0.039-0.027,0.055c0.392,0.085,0.584-0.076,0.584-0.076s0.163,0.06,0.315-0.009
			c0.138-0.063,0.12-0.27,0.116-0.309l0.916,0.208h0.001h-0.001c0.011-0.008,0.025-0.013,0.037-0.013
			c0.37,0.021,0.618-0.179,0.736-0.423c-0.034-0.048-0.159-0.182-0.507-0.25c-0.028-0.006-0.047-0.034-0.042-0.063
			c0.007-0.029,0.034-0.049,0.063-0.043c0.301,0.059,0.456,0.167,0.53,0.244c0.013-0.041,0.022-0.081,0.029-0.122
			c0.047-0.311-0.192-0.51-0.205-0.521c-0.023-0.018-0.027-0.052-0.009-0.074c0.02-0.025,0.052-0.027,0.077-0.009
			c0.01,0.009,0.299,0.246,0.24,0.622c-0.01,0.079-0.034,0.156-0.066,0.228c0,0.003,0,0.003,0,0.003
			c-0.001,0-0.002,0.002-0.002,0.003c-0.001,0.002-0.001,0.003-0.002,0.005c-0.05,0.106-0.119,0.205-0.201,0.285
			c-0.076,0.068-0.16,0.124-0.254,0.161l0,0c-0.134,0.007-0.249-0.004-0.326-0.017c0.077,0.013,0.192,0.023,0.326,0.017
			c0.098-0.005,0.202-0.019,0.308-0.048c0.107-0.029,0.215-0.075,0.314-0.143c0.31-0.209,0.372-0.676,0.266-0.902
			c-0.019-0.004-0.037-0.017-0.044-0.037c-0.001-0.004-0.146-0.427-0.405-0.451c-0.107-0.01-0.195,0.02-0.278,0.047
			c-0.141,0.049-0.283,0.096-0.461-0.06c-0.085-0.073-0.153-0.155-0.219-0.233c-0.127-0.148-0.237-0.278-0.433-0.324
			c-0.022,0.01-0.048,0.02-0.076,0.023c-0.063,0.01-0.132,0.021-0.201,0.021c-0.101,0-0.202-0.021-0.282-0.085
			c-0.085-0.067-0.134-0.178-0.145-0.325c-0.008-0.092-0.009-0.173-0.014-0.244c-0.008-0.216-0.014-0.306-0.089-0.351
			c-0.024-0.014-0.033-0.048-0.017-0.073c0.014-0.025,0.046-0.033,0.07-0.018c0.129,0.075,0.133,0.212,0.143,0.438
			c0.002,0.071,0.005,0.15,0.014,0.241c0.008,0.118,0.04,0.199,0.103,0.249c0.1,0.078,0.267,0.063,0.4,0.041
			c0.008-0.002,0.019-0.004,0.026-0.008c0.012-0.015,0.029-0.024,0.047-0.024c0.139-0.098,0.139-0.387,0.139-0.391
			c-0.004-0.028,0.021-0.054,0.051-0.055c0.027,0,0.054,0.023,0.054,0.054c0,0.013,0.002,0.271-0.121,0.424
			c0.18,0.065,0.293,0.198,0.41,0.338c0.064,0.074,0.131,0.152,0.209,0.221c0.133,0.115,0.227,0.083,0.357,0.038
			c0.091-0.028,0.193-0.063,0.32-0.051c0.317,0.029,0.48,0.475,0.497,0.521h-0.104l0,0h0.203c0.464,0,0.861-0.23,1.106-0.571
			c-0.087,0.025-0.193,0.05-0.3,0.05c-0.046,0-0.094-0.005-0.137-0.015c-0.167-0.037-0.226-0.168-0.275-0.284
			c-0.026-0.06-0.051-0.116-0.089-0.156c-0.021-0.021-0.044-0.035-0.075-0.047c-0.057-0.021-0.147-0.041-0.243-0.063
			c-0.29-0.065-0.649-0.147-0.723-0.349c-0.008-0.026,0.006-0.058,0.033-0.069c0.028-0.011,0.058,0.006,0.067,0.034
			c0.053,0.145,0.409,0.226,0.644,0.278c0.104,0.022,0.193,0.044,0.258,0.065c0.043,0.016,0.079,0.038,0.107,0.066
			c0.054,0.027,0.149,0.019,0.22-0.021c0.042-0.027,0.097-0.077,0.097-0.163c0-0.079,0.023-0.144,0.072-0.188
			c0.081-0.08,0.198-0.075,0.203-0.075c0.03,0.002,0.051,0.027,0.05,0.059c-0.001,0.028-0.026,0.052-0.055,0.051
			c-0.001,0-0.045-0.001-0.087,0.019c0.245,0.092,0.344,0.377,0.351,0.391c0.006,0.027-0.008,0.058-0.035,0.066
			c-0.006,0.003-0.011,0.006-0.017,0.006c-0.022,0-0.04-0.016-0.05-0.039c-0.001-0.002-0.097-0.278-0.321-0.337
			c-0.003,0.014-0.006,0.03-0.006,0.049c0,0.105-0.053,0.195-0.149,0.255c-0.056,0.033-0.125,0.052-0.188,0.053h0.001
			c0.012,0.026,0.022,0.049,0.033,0.075c0.045,0.104,0.085,0.194,0.198,0.22c0.188,0.041,0.413-0.039,0.508-0.078h0.001
			c0.162-0.295,0.219-0.652,0.125-1.008c-0.008-0.027-0.015-0.055-0.025-0.082c0.011,0.027,0.018,0.055,0.025,0.082
			c-0.058,0.005-0.116-0.011-0.174-0.046c-0.125-0.08-0.223-0.25-0.253-0.434c-0.029-0.178-0.271-0.224-0.326-0.23h-0.001
			c-0.011,0.003-0.023,0.005-0.035,0.008c-0.091,0.021-0.173,0.01-0.243-0.003c-0.011,0-0.021-0.002-0.032-0.004
			c0.12,0.059,0.254,0.151,0.284,0.281c0.024,0.112,0,0.218-0.068,0.287c-0.062,0.065-0.154,0.095-0.242,0.075
			c-0.074-0.013-0.209-0.031-0.284,0.02c-0.028,0.02-0.045,0.048-0.053,0.086c-0.005,0.026-0.027,0.045-0.052,0.045
			c-0.003,0-0.007,0-0.011-0.002c-0.028-0.006-0.047-0.034-0.041-0.063c0.012-0.068,0.045-0.121,0.098-0.156
			c0.103-0.069,0.254-0.057,0.365-0.034c0.051,0.012,0.106-0.006,0.144-0.046c0.042-0.043,0.058-0.111,0.042-0.188
			c-0.031-0.135-0.275-0.234-0.392-0.271c-0.022,0.018-0.047,0.04-0.072,0.07c-0.011,0.013-0.025,0.019-0.041,0.019
			c-0.013,0-0.024-0.003-0.034-0.014c-0.023-0.019-0.024-0.052-0.006-0.075c0.039-0.047,0.077-0.079,0.115-0.103
			c0.001,0,0.001-0.001,0.002-0.001c0.002,0,0.005-0.002,0.007-0.003c0,0,0,0,0.001,0l0,0c0.068-0.038,0.137-0.045,0.198-0.039
			c-0.027-0.08-0.098-0.211-0.272-0.284c-0.273-0.116-0.427-0.11-0.427-0.11c-0.029,0.002-0.054-0.021-0.057-0.051
			c-0.002-0.029,0.021-0.054,0.05-0.057c0.007,0,0.174-0.011,0.476,0.118c0.01,0.005,0.019,0.008,0.029,0.013l0,0
			c0.057-0.216-0.102-0.37-0.162-0.419c0.085,0.041,0.163,0.082,0.232,0.124c0.046,0.099,0.067,0.219,0.023,0.351l0,0
			c0.152,0.11,0.206,0.259,0.223,0.329c0.06,0.008,0.115,0.015,0.177,0c0.121-0.026,0.161-0.084,0.173-0.119
			c-0.009-0.002-0.012-0.003-0.012-0.003s-0.145-0.289-0.584-0.556v-0.002c-0.069-0.042-0.147-0.083-0.232-0.124
			c-0.144-0.067-0.308-0.129-0.496-0.182c0.023,0.05,0.039,0.105,0.025,0.146c-0.01,0.033-0.035,0.054-0.068,0.063
			c-0.033,0.01-0.083,0.007-0.15,0.004c-0.16-0.01-0.398-0.021-0.497,0.134c-0.01,0.018-0.025,0.025-0.046,0.025
			c-0.009,0-0.018-0.002-0.027-0.008c-0.024-0.016-0.032-0.048-0.016-0.073c0.13-0.209,0.419-0.195,0.592-0.186
			c0.044,0.002,0.09,0.004,0.112,0.001c-0.003-0.027-0.034-0.088-0.071-0.142c0.05,0.012,0.101,0.023,0.146,0.035l0,0
			c-0.046-0.012-0.097-0.023-0.146-0.035c-0.004-0.001-0.009-0.002-0.013-0.002c-0.521-0.117-0.991-0.113-1.352-0.077
			c-0.019,0.077-0.024,0.168,0.002,0.196l0.002,0.004c0.064,0.065,0.088,0.087,0.332,0.094c0.069,0,0.119,0.019,0.152,0.059
			c0.06,0.063,0.052,0.162,0.045,0.259c-0.007,0.079-0.014,0.161,0.019,0.214c0.023,0.043,0.053,0.061,0.091,0.055
			c0.057-0.011,0.132-0.083,0.157-0.189c0.051-0.234,0.366-0.232,0.38-0.232c0.029,0,0.053,0.026,0.053,0.055
			c-0.001,0.03-0.025,0.055-0.053,0.055c0,0-0.001,0-0.002,0c-0.012,0-0.243,0.001-0.275,0.147c-0.032,0.14-0.134,0.253-0.244,0.271
			c-0.01,0.001-0.022,0.003-0.03,0.003c-0.067,0-0.127-0.039-0.168-0.108c-0.05-0.082-0.04-0.188-0.034-0.278
			c0.007-0.072,0.011-0.147-0.016-0.177c-0.013-0.017-0.039-0.024-0.075-0.024c-0.278-0.007-0.323-0.04-0.405-0.125l-0.005-0.005
			c-0.059-0.062-0.052-0.175-0.037-0.257c0.03-0.005,0.063-0.009,0.096-0.013c-0.032,0.004-0.065,0.008-0.096,0.013
			c-0.185,0.022-0.333,0.055-0.434,0.081c0.112,0.054,0.25,0.155,0.223,0.324c-0.013,0.068-0.023,0.146-0.015,0.169
			c0.003,0.007,0.035,0.019,0.071,0.03l0.016,0.007c0.008,0.001,0.018,0.004,0.028,0.007c0.176,0.058,0.72,0.233,0.625,0.558
			c-0.022,0.074-0.043,0.133-0.06,0.179c-0.013,0.034-0.027,0.073-0.03,0.09c0.007,0.004,0.022,0.01,0.057,0.016
			c0.055,0.012,0.246,0.058,0.405,0.2c0.175,0.156,0.256,0.382,0.234,0.651c-0.001,0.027-0.025,0.049-0.052,0.049
			c-0.003,0-0.003-0.002-0.006-0.002c-0.029,0-0.052-0.027-0.047-0.056c0.046-0.59-0.454-0.716-0.555-0.735
			c-0.055-0.01-0.105-0.024-0.131-0.067c-0.025-0.047-0.007-0.099,0.023-0.183c0.017-0.046,0.037-0.103,0.059-0.175
			c0.043-0.146-0.143-0.288-0.558-0.422c-0.01-0.002-0.018-0.006-0.027-0.007l-0.015-0.007c-0.063-0.021-0.113-0.036-0.136-0.093
			c-0.019-0.047-0.015-0.104,0.007-0.227c0.027-0.174-0.273-0.25-0.279-0.251c-0.008-0.002-0.014-0.007-0.021-0.01l0,0
			c-0.062,0.001-0.221,0.011-0.419,0.063c-0.201,0.055-0.439,0.152-0.657,0.33c0.089-0.001,0.229-0.016,0.391-0.073
			c0.202-0.069,0.339-0.1,0.434-0.05c0.053,0.028,0.089,0.083,0.109,0.164c0.009,0.028-0.01,0.058-0.037,0.065
			c-0.029,0.007-0.058-0.01-0.064-0.038c-0.019-0.067-0.042-0.087-0.06-0.096c-0.06-0.031-0.182-0.001-0.347,0.057
			c-0.188,0.066-0.351,0.078-0.447,0.078c-0.056,0-0.09-0.003-0.092-0.003c-0.001,0-0.001,0-0.001,0l0,0
			c-0.099,0.099-0.189,0.217-0.266,0.358l0,0c0.095-0.039,0.236-0.075,0.358-0.014c0.097,0.046,0.116,0.124,0.135,0.188
			c0.001,0.007,0.003,0.016,0.005,0.021c0.1-0.126,0.336-0.353,0.741-0.312c0.476,0.048,0.94,0.769,1.061,0.964
			c0.02-0.019,0.043-0.039,0.066-0.053c0.146-0.089,0.301-0.041,0.306-0.039c0.029,0.01,0.045,0.04,0.036,0.067
			c-0.01,0.029-0.039,0.045-0.065,0.036c-0.002,0-0.116-0.037-0.221,0.028c-0.085,0.05-0.139,0.154-0.164,0.307
			c-0.006,0.025-0.029,0.044-0.055,0.044c-0.002,0-0.005,0-0.008,0c-0.029-0.006-0.048-0.034-0.043-0.063
			c0.015-0.093,0.041-0.17,0.078-0.235c-0.061-0.102-0.545-0.903-1-0.95c-0.393-0.038-0.603,0.205-0.671,0.301
			c0.023,0.014,0.058,0.022,0.106,0.027c0.117,0.01,0.194,0.042,0.243,0.102c0.079,0.099,0.065,0.256,0.045,0.49
			c-0.003,0.022-0.005,0.046-0.006,0.071c-0.015,0.155,0.024,0.305,0.062,0.451c0.011,0.048,0.023,0.097,0.032,0.144
			c0.017,0.04,0.204,0.509,0.57,0.63c0.17,0.056,0.321,0.074,0.455,0.089c0.193,0.023,0.358,0.043,0.509,0.16
			c0.023,0.019,0.027,0.054,0.01,0.076c-0.01,0.015-0.026,0.021-0.042,0.021c-0.012,0-0.022-0.005-0.033-0.012
			c-0.127-0.101-0.271-0.117-0.455-0.138c-0.14-0.018-0.298-0.035-0.476-0.094c-0.063-0.021-0.12-0.05-0.172-0.085
			c-0.02,0.049-0.038,0.125-0.025,0.208c0.129,0.121,0.433,0.186,0.436,0.186c0.028,0.006,0.047,0.034,0.042,0.063
			c-0.005,0.026-0.026,0.045-0.052,0.045c-0.004,0-0.007-0.001-0.011-0.001c-0.016-0.004-0.359-0.076-0.502-0.229
			c-0.037-0.04-0.164-0.019-0.284,0.002c-0.122,0.021-0.26,0.042-0.393,0.03c-0.023,0.091-0.085,0.271-0.214,0.325
			c-0.006,0.002-0.014,0.003-0.021,0.003c-0.021,0-0.039-0.012-0.049-0.032c-0.011-0.028,0.002-0.059,0.029-0.07
			c0.074-0.032,0.125-0.162,0.149-0.245c-0.071-0.02-0.139-0.053-0.199-0.106c-0.021-0.019-0.024-0.055-0.006-0.077
			c0.021-0.023,0.053-0.024,0.075-0.005c0.059,0.052,0.128,0.081,0.201,0.095c0.001,0,0.001,0,0.003,0.001c0,0,0.001,0,0.003,0
			c0.127,0.021,0.271-0.003,0.402-0.024c0.105-0.018,0.202-0.033,0.278-0.021c0-0.09,0.026-0.165,0.047-0.211
			c-0.115-0.098-0.203-0.217-0.265-0.32c-0.014,0.066-0.044,0.127-0.102,0.179c-0.072,0.067-0.176,0.102-0.293,0.102
			c-0.085,0-0.176-0.018-0.267-0.054c-0.165-0.065-0.347-0.204-0.358-0.396l-0.003-0.041c-0.009-0.149-0.018-0.271-0.048-0.29
			c-0.011-0.009-0.035-0.007-0.057-0.004c-0.026,0.008-0.055-0.011-0.062-0.041c-0.005-0.029,0.014-0.058,0.041-0.063
			c0.039-0.007,0.097-0.015,0.141,0.021c0.069,0.053,0.076,0.157,0.091,0.37l0.004,0.039c0.007,0.117,0.121,0.238,0.289,0.306
			c0.179,0.07,0.354,0.061,0.449-0.028c0.111-0.103,0.082-0.249,0.024-0.479c-0.036-0.147-0.078-0.313-0.063-0.487
			c0.002-0.024,0.004-0.049,0.006-0.071c0.02-0.208,0.033-0.346-0.021-0.41c-0.029-0.036-0.083-0.057-0.171-0.063
			c-0.104-0.012-0.167-0.043-0.204-0.087h-0.001c-0.002-0.001-0.002-0.002-0.002-0.002c-0.001-0.001-0.001-0.002-0.003-0.002
			c0-0.002,0-0.002-0.001-0.002c-0.032-0.042-0.044-0.089-0.056-0.129c-0.016-0.062-0.027-0.1-0.076-0.123
			c-0.149-0.072-0.363,0.065-0.366,0.066c-0.012,0.008-0.027,0.009-0.043,0.006c-0.095,0.088-0.385,0.375-0.593,0.813
			c-0.013,0.023-0.024,0.049-0.034,0.075c0.01-0.026,0.021-0.052,0.034-0.076c0.002,0.008,0.005,0.016,0.005,0.021
			c0,0.003,0.025,0.271,0.153,0.271c0.001,0,0.003,0,0.007,0c0.062-0.005,0.082-0.098,0.106-0.242
			c0.02-0.117,0.04-0.238,0.108-0.315c0.193-0.227,0.458-0.276,0.764-0.144c0.028,0.011,0.041,0.042,0.029,0.069
			c-0.013,0.028-0.043,0.04-0.069,0.028c-0.265-0.112-0.479-0.074-0.645,0.116c0.103-0.035,0.201-0.014,0.286,0.068
			c0.045,0.044,0.073,0.114,0.102,0.185c0.06,0.147,0.108,0.246,0.227,0.247c0.044,0,0.073-0.01,0.09-0.035
			c0.044-0.06,0.021-0.189,0.009-0.229c-0.009-0.03,0.007-0.06,0.035-0.068c0.029-0.008,0.059,0.009,0.065,0.038
			c0.008,0.021,0.061,0.212-0.025,0.324c-0.025,0.037-0.075,0.078-0.171,0.078c-0.001,0-0.003-0.002-0.003-0.002
			c-0.198,0-0.271-0.18-0.323-0.312c-0.026-0.06-0.05-0.119-0.079-0.147c-0.029-0.027-0.12-0.115-0.275,0.013
			c-0.008,0.034-0.014,0.069-0.02,0.104c-0.024,0.152-0.054,0.322-0.205,0.333c-0.003,0-0.01,0-0.015,0
			c-0.126,0-0.197-0.113-0.231-0.229c-0.021,0.053-0.038,0.104-0.055,0.16l0,0c-0.046,0.152-0.079,0.315-0.09,0.49
			c-0.001,0.015-0.001,0.027-0.002,0.045c0.001-0.018,0.001-0.03,0.002-0.045c0.076,0.073,0.179,0.094,0.28,0.094
			c0.182,0,0.359-0.074,0.363-0.075c0.026-0.012,0.059,0.003,0.07,0.029c0.01,0.026-0.002,0.058-0.029,0.071
			c-0.012,0.004-0.2,0.082-0.403,0.082C25.016,71.403,24.915,71.387,24.827,71.332 M28.883,69.814
			c-0.015-0.025-0.009-0.059,0.017-0.074c0.025-0.017,0.059-0.008,0.074,0.019c0,0,0.054,0.088,0.13,0.1
			c0.034,0.006,0.069-0.008,0.107-0.04c0.115-0.1,0.089-0.487,0.048-0.71c-0.006-0.029,0.014-0.058,0.041-0.063
			c0.027-0.008,0.057,0.012,0.062,0.041c0.014,0.065,0.118,0.641-0.081,0.813c-0.001,0.002-0.003,0.002-0.004,0.002
			c0.068,0.055,0.177,0.125,0.267,0.113c0.111-0.015,0.201-0.2,0.226-0.273c0.012-0.026,0.041-0.04,0.068-0.03
			c0.028,0.01,0.042,0.039,0.033,0.067c-0.012,0.033-0.118,0.318-0.315,0.344c-0.01,0.001-0.021,0.001-0.031,0.001
			c-0.147,0-0.289-0.115-0.346-0.166c-0.021,0.006-0.039,0.01-0.059,0.01c-0.011,0-0.022,0-0.033-0.004
			C28.961,69.944,28.886,69.819,28.883,69.814 M26.461,72.093c0.201-0.045,0.371,0.026,0.565,0.11
			c0.122,0.052,0.246,0.104,0.399,0.138c0.367,0.084,0.692-0.261,0.695-0.266c0.02-0.021,0.055-0.022,0.076-0.002
			c0.021,0.02,0.021,0.055,0.003,0.076c-0.015,0.014-0.295,0.313-0.657,0.313c-0.045,0-0.092-0.005-0.14-0.016
			c-0.164-0.037-0.301-0.096-0.421-0.148c-0.147,0-0.258,0.128-0.261,0.129c-0.009,0.014-0.024,0.021-0.039,0.021
			c-0.014,0-0.024-0.004-0.037-0.012c-0.021-0.021-0.023-0.055-0.004-0.077c0.004-0.007,0.068-0.079,0.171-0.128
			c-0.112-0.04-0.216-0.059-0.328-0.033c-0.029,0.008-0.058-0.011-0.063-0.039C26.414,72.129,26.433,72.102,26.461,72.093
			 M25.573,72.241c0.115,0.001,0.152-0.204,0.152-0.206c0.008-0.03,0.033-0.05,0.062-0.045c0.031,0.004,0.05,0.033,0.045,0.063
			c-0.014,0.08-0.059,0.196-0.139,0.257c0.085,0.038,0.173,0.043,0.307,0.006c0.027-0.007,0.057,0.009,0.063,0.037
			c0.009,0.03-0.008,0.061-0.036,0.067c-0.073,0.02-0.135,0.03-0.189,0.03c-0.118,0-0.21-0.044-0.31-0.111h-0.001
			c-0.036-0.026-0.074-0.054-0.117-0.083l-0.003-0.003c-0.156-0.115-0.33-0.063-0.373-0.047c-0.019-0.03-0.034-0.063-0.051-0.096
			c0.019-0.008,0.265-0.109,0.486,0.056l0.002,0.001C25.51,72.195,25.543,72.218,25.573,72.241"/>
		<path clip-path="url(#SVGID_24_)" fill="#1C51A1" d="M47.182,68.667H35.91c-0.12,0-0.221-0.099-0.221-0.223
			c0-0.123,0.101-0.222,0.221-0.222h11.271c0.122,0,0.219,0.099,0.219,0.222C47.4,68.569,47.304,68.667,47.182,68.667"/>
		<path clip-path="url(#SVGID_24_)" fill="#1C51A1" d="M47.182,70.313H35.91c-0.12,0-0.221-0.099-0.221-0.222
			s0.101-0.225,0.221-0.225h11.271c0.122,0,0.219,0.102,0.219,0.225S47.304,70.313,47.182,70.313"/>
		<path clip-path="url(#SVGID_24_)" fill="#1C51A1" d="M47.182,71.919H35.91c-0.12,0-0.221-0.1-0.221-0.222
			c0-0.124,0.101-0.223,0.221-0.223h11.271c0.122,0,0.219,0.099,0.219,0.223C47.4,71.82,47.304,71.919,47.182,71.919"/>
		<path clip-path="url(#SVGID_24_)" fill="#1C51A1" d="M47.182,73.566H35.91c-0.12,0-0.221-0.101-0.221-0.224
			c0-0.124,0.101-0.222,0.221-0.222h11.271c0.122,0,0.219,0.098,0.219,0.222C47.4,73.465,47.304,73.566,47.182,73.566"/>
		<path clip-path="url(#SVGID_24_)" fill="#1C51A1" d="M45.995,56.559H35.064c-0.122,0-0.219-0.101-0.219-0.225
			c0-0.121,0.097-0.222,0.219-0.222h10.931c0.121,0,0.22,0.101,0.22,0.222C46.215,56.458,46.116,56.559,45.995,56.559"/>
		<path clip-path="url(#SVGID_24_)" fill="#1C51A1" d="M45.995,58.203H35.064c-0.122,0-0.219-0.1-0.219-0.222
			c0-0.123,0.097-0.222,0.219-0.222h10.931c0.121,0,0.22,0.099,0.22,0.222C46.215,58.103,46.116,58.203,45.995,58.203"/>
		<path clip-path="url(#SVGID_24_)" fill="#1C51A1" d="M45.995,59.81H35.064c-0.122,0-0.219-0.101-0.219-0.224
			c0-0.122,0.097-0.223,0.219-0.223h10.931c0.121,0,0.22,0.101,0.22,0.223C46.215,59.709,46.116,59.81,45.995,59.81"/>
		<path clip-path="url(#SVGID_24_)" fill="#1C51A1" d="M45.995,61.457H35.064c-0.122,0-0.219-0.1-0.219-0.225
			c0-0.123,0.097-0.223,0.219-0.223h10.931c0.121,0,0.22,0.1,0.22,0.223C46.215,61.357,46.116,61.457,45.995,61.457"/>
		<path clip-path="url(#SVGID_24_)" fill="#2AABCD" d="M33.574,58.826c0,2.865-2.283,5.188-5.102,5.188
			c-2.817,0-5.102-2.322-5.102-5.188s2.284-5.189,5.102-5.189C31.291,53.636,33.574,55.96,33.574,58.826"/>
		<path clip-path="url(#SVGID_24_)" fill="#1C51A1" d="M31.188,57.787l-0.968,1.8l-3.322-1.846l0.968-1.801
			c0.502-0.932,1.651-1.275,2.568-0.765c0.459,0.254,0.772,0.673,0.909,1.146C31.479,56.793,31.439,57.32,31.188,57.787"/>
		<path clip-path="url(#SVGID_24_)" fill="#FFFFFF" d="M26.726,58.064l3.322,1.846L29.08,61.71c-0.5,0.933-1.648,1.275-2.567,0.767
			c-0.918-0.51-1.255-1.679-0.755-2.613L26.726,58.064z"/>
		<path clip-path="url(#SVGID_24_)" fill="#1C51A1" d="M46.166,45.032H34.894c-0.12,0-0.219-0.101-0.219-0.223
			s0.099-0.222,0.219-0.222h11.272c0.121,0,0.219,0.1,0.219,0.222S46.287,45.032,46.166,45.032"/>
		<path clip-path="url(#SVGID_24_)" fill="#1C51A1" d="M46.166,46.676H34.894c-0.12,0-0.219-0.098-0.219-0.222
			s0.099-0.222,0.219-0.222h11.272c0.121,0,0.219,0.098,0.219,0.222S46.287,46.676,46.166,46.676"/>
		<path clip-path="url(#SVGID_24_)" fill="#1C51A1" d="M46.166,48.284H34.894c-0.12,0-0.219-0.101-0.219-0.223
			c0-0.124,0.099-0.224,0.219-0.224h11.272c0.121,0,0.219,0.1,0.219,0.224C46.385,48.183,46.287,48.284,46.166,48.284"/>
		<path clip-path="url(#SVGID_24_)" fill="#1C51A1" d="M46.166,49.929H34.894c-0.12,0-0.219-0.1-0.219-0.223
			s0.099-0.223,0.219-0.223h11.272c0.121,0,0.219,0.1,0.219,0.223S46.287,49.929,46.166,49.929"/>
		<path clip-path="url(#SVGID_24_)" fill="#2AABCD" d="M33.489,47.243c0,2.864-2.282,5.188-5.102,5.188
			c-2.817,0-5.103-2.323-5.103-5.188c0-2.866,2.285-5.188,5.103-5.188C31.207,42.054,33.489,44.376,33.489,47.243"/>
		<path clip-path="url(#SVGID_24_)" fill="#FFFFFF" d="M30.106,44.333h-3.436c-0.064,0-0.117-0.053-0.117-0.118
			c0-0.066,0.053-0.118,0.117-0.118h3.436c0.063,0,0.115,0.052,0.115,0.118C30.222,44.28,30.17,44.333,30.106,44.333"/>
		<path clip-path="url(#SVGID_24_)" fill="#FFFFFF" d="M30.106,45.328h-3.436c-0.064,0-0.117-0.054-0.117-0.12
			c0-0.064,0.053-0.118,0.117-0.118h3.436c0.063,0,0.115,0.054,0.115,0.118C30.222,45.274,30.17,45.328,30.106,45.328"/>
		<path clip-path="url(#SVGID_24_)" fill="#FFFFFF" d="M30.106,46.321h-3.436c-0.064,0-0.117-0.053-0.117-0.118
			c0-0.064,0.053-0.12,0.117-0.12h3.436c0.063,0,0.115,0.056,0.115,0.12C30.222,46.268,30.17,46.321,30.106,46.321"/>
		<path clip-path="url(#SVGID_24_)" fill="#FFFFFF" d="M30.106,48.309h-3.436c-0.064,0-0.117-0.054-0.117-0.119
			c0-0.067,0.053-0.119,0.117-0.119h3.436c0.063,0,0.115,0.052,0.115,0.119C30.222,48.255,30.17,48.309,30.106,48.309"/>
		<path clip-path="url(#SVGID_24_)" fill="#FFFFFF" d="M30.106,49.302h-3.436c-0.064,0-0.117-0.054-0.117-0.119
			c0-0.064,0.053-0.119,0.117-0.119h3.436c0.063,0,0.115,0.055,0.115,0.119C30.222,49.249,30.17,49.302,30.106,49.302"/>
		<path clip-path="url(#SVGID_24_)" fill="#FFFFFF" d="M30.106,50.294h-3.436c-0.064,0-0.117-0.052-0.117-0.117
			c0-0.064,0.053-0.119,0.117-0.119h3.436c0.063,0,0.115,0.055,0.115,0.119C30.222,50.243,30.17,50.294,30.106,50.294"/>
		<path clip-path="url(#SVGID_24_)" fill="#1C51A1" d="M27.371,46.511c-0.218,0.081-0.396,0.179-0.528,0.266
			c-0.11-0.087-0.211-0.188-0.305-0.296c-0.86-1.026-0.611-2.695-0.601-2.767c0.021-0.139,0.15-0.234,0.288-0.213
			c0.135,0.022,0.23,0.153,0.209,0.293c0,0.005-0.034,0.231-0.034,0.554c0,0.517,0.086,1.282,0.521,1.8
			C27.048,46.298,27.197,46.418,27.371,46.511"/>
		<path clip-path="url(#SVGID_24_)" fill="#1C51A1" d="M30.853,50.416c-0.016,0.13-0.123,0.224-0.248,0.224
			c-0.012,0-0.021-0.001-0.034-0.003c-0.136-0.019-0.234-0.145-0.217-0.285c0.002-0.018,0.193-1.643-0.578-2.53
			c-0.113-0.13-0.243-0.241-0.391-0.327c0.18-0.056,0.366-0.132,0.543-0.235c0.08,0.067,0.154,0.143,0.226,0.225
			C31.075,48.548,30.863,50.341,30.853,50.416"/>
		<path clip-path="url(#SVGID_24_)" fill="#1C51A1" d="M26.172,50.639c-0.124,0-0.231-0.094-0.249-0.224
			c-0.01-0.074-0.223-1.869,0.699-2.933c0.434-0.499,1.039-0.755,1.798-0.755c0.629,0,1.111-0.194,1.435-0.581
			c0.712-0.847,0.49-2.337,0.486-2.353c-0.021-0.14,0.073-0.271,0.212-0.293c0.137-0.021,0.265,0.074,0.287,0.213
			c0.011,0.071,0.26,1.74-0.602,2.767c-0.424,0.505-1.036,0.762-1.818,0.762c-0.608,0-1.084,0.195-1.419,0.578
			c-0.771,0.888-0.579,2.513-0.577,2.53c0.016,0.141-0.081,0.27-0.22,0.285C26.193,50.638,26.184,50.639,26.172,50.639"/>
		<path clip-path="url(#SVGID_24_)" fill="#99B8D6" d="M113.241,70.124h0.187v-5.651h-0.187c-0.287,0-0.523,0.24-0.523,0.53v4.592
			C112.718,69.886,112.954,70.124,113.241,70.124"/>
		<path clip-path="url(#SVGID_24_)" fill="#2AABCD" d="M95.867,56.334c0,1.339-1.065,2.423-2.381,2.423s-2.382-1.084-2.382-2.423
			c0-1.337,1.066-2.421,2.382-2.421S95.867,54.998,95.867,56.334"/>
		<path clip-path="url(#SVGID_24_)" fill="#FFFFFF" d="M92.879,57.671c-0.047,0-0.094-0.018-0.128-0.049l-0.641-0.579
			c-0.078-0.073-0.087-0.197-0.016-0.277c0.071-0.083,0.194-0.091,0.273-0.017l0.489,0.441l1.728-2.121
			c0.067-0.083,0.188-0.096,0.272-0.025c0.082,0.069,0.094,0.193,0.025,0.277l-1.855,2.277c-0.032,0.043-0.08,0.067-0.134,0.07
			C92.889,57.671,92.884,57.671,92.879,57.671"/>
		<path clip-path="url(#SVGID_24_)" fill="#2AABCD" d="M101.841,56.334c0,1.339-1.065,2.423-2.382,2.423
			c-1.314,0-2.381-1.084-2.381-2.423c0-1.337,1.066-2.421,2.381-2.421C100.775,53.914,101.841,54.998,101.841,56.334"/>
		<path clip-path="url(#SVGID_24_)" fill="#FFFFFF" d="M98.852,57.671c-0.047,0-0.094-0.018-0.129-0.049l-0.638-0.579
			c-0.08-0.073-0.087-0.197-0.018-0.277c0.072-0.083,0.194-0.091,0.274-0.017l0.49,0.441l1.725-2.121
			c0.069-0.083,0.191-0.096,0.273-0.025c0.083,0.069,0.094,0.193,0.026,0.277l-1.854,2.277c-0.034,0.043-0.082,0.067-0.136,0.07
			C98.861,57.671,98.857,57.671,98.852,57.671"/>
		<path clip-path="url(#SVGID_24_)" fill="#2AABCD" d="M107.901,56.334c0,1.339-1.068,2.423-2.382,2.423
			c-1.316,0-2.383-1.084-2.383-2.423c0-1.337,1.066-2.421,2.383-2.421C106.833,53.914,107.901,54.998,107.901,56.334"/>
		<path clip-path="url(#SVGID_24_)" fill="#FFFFFF" d="M106.617,55.07c0.068-0.081,0.189-0.096,0.271-0.025
			c0.083,0.069,0.095,0.193,0.025,0.277l-1.854,2.277c-0.033,0.042-0.082,0.068-0.135,0.07c-0.004,0.002-0.01,0.002-0.016,0.002
			c-0.046,0-0.092-0.018-0.127-0.049l-0.641-0.579c-0.08-0.072-0.088-0.197-0.016-0.277c0.071-0.083,0.194-0.091,0.273-0.017
			l0.488,0.441"/>
		<path clip-path="url(#SVGID_24_)" fill="#F6605B" d="M93.49,45.476c-0.176,2.309-3.364,4.958-4.612,5.885
			c-0.284,0.212-0.671,0.212-0.956,0c-1.246-0.927-4.438-3.576-4.611-5.885c-0.217-2.863,3.277-4.4,5.091-1.345
			C90.213,41.076,93.706,42.613,93.49,45.476"/>
		<path clip-path="url(#SVGID_24_)" fill="#EFECE6" d="M92.723,46.236c-0.009,0.047-0.054,0.082-0.102,0.082h-0.926
			c-0.044,0-0.084-0.026-0.1-0.07L91.55,46.13l-0.24-0.617l-0.19,0.493c-0.015,0.039-0.051,0.063-0.09,0.063h-0.563
			c-0.038,0-0.074-0.023-0.089-0.063l-0.179-0.459l-0.667,1.716c-0.013,0.036-0.049,0.06-0.089,0.06s-0.074-0.023-0.09-0.06
			l-0.34-0.876l-0.99,2.555c-0.015,0.037-0.05,0.063-0.09,0.063s-0.075-0.025-0.091-0.063l-1.064-2.744h-0.405
			c-0.04,0-0.077-0.025-0.091-0.062l-0.211-0.544l-0.258,0.662c-0.015,0.038-0.049,0.063-0.09,0.063h-1.546
			c-0.047,0-0.092-0.035-0.098-0.082c-0.01-0.063,0.036-0.115,0.095-0.115h1.483l0.322-0.832c0.016-0.038,0.051-0.063,0.091-0.063
			s0.075,0.024,0.09,0.063l0.277,0.714h0.405c0.04,0,0.075,0.022,0.091,0.062l0.999,2.574l0.991-2.555
			c0.015-0.037,0.05-0.062,0.089-0.062c0.041,0,0.076,0.024,0.09,0.062l0.34,0.875l0.665-1.715c0.015-0.037,0.05-0.062,0.091-0.062
			c0.039,0,0.075,0.024,0.091,0.062l0.243,0.629h0.43l0.258-0.664c0.014-0.036,0.049-0.06,0.089-0.06s0.076,0.023,0.091,0.06
			l0.353,0.912h0.873C92.686,46.121,92.732,46.173,92.723,46.236"/>
		<path clip-path="url(#SVGID_24_)" fill="#1C51A1" d="M107.662,44.229H96.391c-0.12,0-0.221-0.099-0.221-0.223
			s0.101-0.222,0.221-0.222h11.271c0.119,0,0.218,0.098,0.218,0.222S107.781,44.229,107.662,44.229"/>
		<path clip-path="url(#SVGID_24_)" fill="#1C51A1" d="M107.662,45.874H96.391c-0.12,0-0.221-0.1-0.221-0.222
			s0.101-0.224,0.221-0.224h11.271c0.119,0,0.218,0.102,0.218,0.224S107.781,45.874,107.662,45.874"/>
		<path clip-path="url(#SVGID_24_)" fill="#1C51A1" d="M107.662,47.48H96.391c-0.12,0-0.221-0.101-0.221-0.222
			c0-0.123,0.101-0.223,0.221-0.223h11.271c0.119,0,0.218,0.1,0.218,0.223C107.88,47.379,107.781,47.48,107.662,47.48"/>
		<path clip-path="url(#SVGID_24_)" fill="#1C51A1" d="M107.662,49.126H96.391c-0.12,0-0.221-0.1-0.221-0.224
			s0.101-0.223,0.221-0.223h11.271c0.119,0,0.218,0.099,0.218,0.223S107.781,49.126,107.662,49.126"/>
		<path clip-path="url(#SVGID_24_)" fill="#FFFFFF" d="M114.933,50.217c-0.046-0.008-0.087-0.033-0.114-0.072l-0.862-1.222
			c-0.004-0.004-0.012-0.006-0.019-0.002l-0.722,0.527c-0.05,0.039-0.115,0.044-0.173,0.021c-0.057-0.024-0.096-0.077-0.104-0.139
			l-0.437-3.106c-0.009-0.065,0.02-0.131,0.072-0.17c0.054-0.039,0.122-0.045,0.182-0.015l2.755,1.409
			c0.055,0.028,0.093,0.083,0.097,0.146c0.005,0.062-0.022,0.122-0.073,0.159l-0.723,0.529c-0.004,0.002-0.005,0.005-0.005,0.008
			c-0.001,0.001,0,0.005,0.002,0.008l0.863,1.222c0.026,0.039,0.038,0.087,0.029,0.135c-0.007,0.045-0.03,0.088-0.069,0.115
			l-0.568,0.415c-0.035,0.025-0.076,0.038-0.119,0.033C114.941,50.217,114.938,50.217,114.933,50.217"/>
		<g opacity="0.5" clip-path="url(#SVGID_24_)">
			<g>
				<defs>
					<rect id="SVGID_27_" x="109.672" y="112.557" width="17.971" height="14.689"/>
				</defs>
				<clipPath id="SVGID_28_">
					<use xlink:href="#SVGID_27_"  overflow="visible"/>
				</clipPath>
				<path clip-path="url(#SVGID_28_)" fill="#99B8D6" d="M110.217,114.948c1.699-2.994,6.857-3.204,11.521-0.468
					c4.661,2.736,7.061,7.383,5.359,10.378c-1.7,2.994-6.856,3.203-11.517,0.465C110.918,122.588,108.517,117.942,110.217,114.948"
					/>
			</g>
		</g>
		<path clip-path="url(#SVGID_24_)" fill="#FFFFFF" d="M126.999,122.144h-0.005c-0.029,0.145-0.078,0.279-0.149,0.396
			c0,0,0,0.003-0.003,0.003c-1.765,2.905-11.182,1.246-12.23-1.323c-0.091-0.223-0.182-0.431-0.267-0.62
			c-1.307-2.855-2.139-2.062-4.432-3.995c-0.102-0.083-0.191-0.173-0.268-0.26c-0.01-0.012-0.02-0.021-0.029-0.033
			c-1.292-1.497,0.297-3.404,0.297-3.404c0.098-0.078,0.194-0.153,0.29-0.224v-0.003c0.768-0.565,1.563-0.947,2.374-1.177
			c0.368-0.108,0.746-0.179,1.121-0.223C120.414,110.505,127.615,119.191,126.999,122.144"/>
		<path clip-path="url(#SVGID_24_)" fill="#99B8D6" d="M126.842,122.542c-1.896,3.563-11.182,1.246-12.23-1.323
			c-0.091-0.223-0.182-0.431-0.267-0.62c-1.316-2.842-2.209-1.979-4.432-3.995c-0.099-0.088-0.185-0.174-0.268-0.26
			c-0.01-0.012-0.02-0.021-0.029-0.033c-1.292-1.497,0.297-3.404,0.297-3.404c0.098-0.078,0.194-0.153,0.29-0.224
			c-0.188,0.553-0.368,1.8,1.123,3.014c0.35,0.285,0.748,0.497,1.159,0.684c0.326,0.143,0.981,0.648,2.148,2.305
			c1.872,2.648,3.782,3.923,5.943,4.145C124.477,123.231,126.742,122.603,126.842,122.542"/>
		<path clip-path="url(#SVGID_24_)" fill="#99B8D6" d="M116.692,113.606c-2.402-2.026-4.115-2.103-4.115-2.103
			c0.368-0.108,0.746-0.179,1.121-0.223C115.613,111.941,116.668,113.524,116.692,113.606"/>
		<g opacity="0.5" clip-path="url(#SVGID_24_)">
			<g>
				<defs>
					<rect id="SVGID_29_" x="16.64" y="109.051" width="98.466" height="21.301"/>
				</defs>
				<clipPath id="SVGID_30_">
					<use xlink:href="#SVGID_29_"  overflow="visible"/>
				</clipPath>
				<path clip-path="url(#SVGID_30_)" fill="#99B8D6" d="M17.55,130.352h96.645c0.718,0,1.152-0.801,0.771-1.417l-12.053-19.452
					c-0.164-0.269-0.456-0.432-0.767-0.432H29.603c-0.313,0-0.604,0.163-0.771,0.432l-12.05,19.452
					C16.4,129.551,16.835,130.352,17.55,130.352"/>
			</g>
		</g>
		<polygon clip-path="url(#SVGID_24_)" fill="#FFFFFF" points="19.26,123.782 112.71,123.782 103.609,109.051 28.358,109.051 		"/>
		<path clip-path="url(#SVGID_24_)" fill="#99B8D6" d="M22.192,127.118h87.582c1.621,0,2.936-1.335,2.936-2.983v-0.353H19.26v0.353
			C19.26,125.783,20.572,127.118,22.192,127.118"/>
		<path clip-path="url(#SVGID_24_)" fill="#99B8D6" d="M98.81,111.651h4.093c0.203,0,0.337-0.212,0.252-0.4l-0.434-0.945
			c-0.046-0.099-0.144-0.162-0.252-0.162h-4c-0.191,0-0.326,0.193-0.26,0.376l0.34,0.948
			C98.588,111.58,98.691,111.651,98.81,111.651"/>
		<path clip-path="url(#SVGID_24_)" fill="#99B8D6" d="M97.851,111.265l-0.374-0.946c-0.042-0.107-0.144-0.176-0.257-0.176h-4.013
			c-0.186,0-0.318,0.182-0.266,0.362l0.28,0.945c0.035,0.12,0.144,0.2,0.267,0.2h4.106C97.79,111.651,97.924,111.449,97.851,111.265
			"/>
		<path clip-path="url(#SVGID_24_)" fill="#99B8D6" d="M92.547,111.28l-0.316-0.946c-0.036-0.114-0.142-0.19-0.262-0.19h-4.022
			c-0.178,0-0.311,0.168-0.271,0.346l0.222,0.946c0.029,0.127,0.142,0.216,0.27,0.216h4.116
			C92.474,111.651,92.607,111.462,92.547,111.28"/>
		<path clip-path="url(#SVGID_24_)" fill="#99B8D6" d="M87.223,111.296l-0.255-0.946c-0.033-0.122-0.143-0.207-0.269-0.207h-4.031
			c-0.172,0-0.302,0.157-0.272,0.329l0.161,0.946c0.023,0.135,0.139,0.232,0.273,0.232h4.127
			C87.139,111.651,87.271,111.475,87.223,111.296"/>
		<path clip-path="url(#SVGID_24_)" fill="#99B8D6" d="M81.904,111.289l-0.188-0.907c-0.027-0.14-0.149-0.238-0.289-0.238h-4.001
			c-0.177,0-0.314,0.155-0.296,0.333l0.098,0.907c0.017,0.152,0.144,0.268,0.295,0.268h4.092
			C81.801,111.651,81.942,111.477,81.904,111.289"/>
		<path clip-path="url(#SVGID_24_)" fill="#99B8D6" d="M76.59,111.306l-0.13-0.905c-0.022-0.149-0.146-0.258-0.294-0.258h-4.007
			c-0.168,0-0.304,0.142-0.295,0.313l0.041,0.908c0.007,0.16,0.138,0.286,0.295,0.286h4.097
			C76.477,111.651,76.615,111.487,76.59,111.306"/>
		<path clip-path="url(#SVGID_24_)" fill="#99B8D6" d="M71.291,111.378l-0.08-1.004c-0.012-0.132-0.118-0.231-0.248-0.231h-4.101
			c-0.136,0-0.246,0.108-0.247,0.246l-0.02,1.006c-0.003,0.141,0.109,0.256,0.249,0.256h4.2
			C71.188,111.651,71.303,111.526,71.291,111.378"/>
		<path clip-path="url(#SVGID_24_)" fill="#99B8D6" d="M66.018,111.395L66,110.389c-0.005-0.138-0.114-0.246-0.25-0.246h-4.1
			c-0.13,0-0.237,0.1-0.248,0.231l-0.081,1.004c-0.012,0.147,0.103,0.272,0.247,0.272h4.199
			C65.907,111.651,66.019,111.536,66.018,111.395"/>
		<path clip-path="url(#SVGID_24_)" fill="#99B8D6" d="M60.707,111.411l0.044-1.004c0.007-0.146-0.106-0.264-0.247-0.264h-4.099
			c-0.123,0-0.228,0.092-0.245,0.215l-0.146,1.007c-0.022,0.15,0.095,0.286,0.244,0.286h4.199
			C60.591,111.651,60.699,111.546,60.707,111.411"/>
		<path clip-path="url(#SVGID_24_)" fill="#99B8D6" d="M55.38,111.427l0.108-1.006c0.017-0.148-0.099-0.278-0.247-0.278h-4.095
			c-0.116,0-0.219,0.083-0.243,0.2l-0.207,1.004c-0.032,0.158,0.084,0.304,0.242,0.304h4.195
			C55.261,111.651,55.366,111.554,55.38,111.427"/>
		<path clip-path="url(#SVGID_24_)" fill="#99B8D6" d="M50.053,111.442l0.17-1.004c0.026-0.154-0.09-0.295-0.244-0.295H45.89
			c-0.113,0-0.209,0.075-0.239,0.186l-0.271,1.004c-0.044,0.161,0.075,0.318,0.238,0.318h4.189
			C49.928,111.651,50.031,111.562,50.053,111.442"/>
		<path clip-path="url(#SVGID_24_)" fill="#99B8D6" d="M44.708,111.462l0.238-1.015c0.036-0.157-0.079-0.305-0.237-0.305h-4.091
			c-0.104,0-0.196,0.066-0.23,0.166l-0.337,1.017c-0.053,0.16,0.064,0.325,0.23,0.325h4.192
			C44.586,111.651,44.684,111.573,44.708,111.462"/>
		<path clip-path="url(#SVGID_24_)" fill="#99B8D6" d="M39.383,111.477l0.302-1.017c0.047-0.159-0.071-0.317-0.233-0.317H35.37
			c-0.099,0-0.189,0.06-0.225,0.154l-0.403,1.015c-0.063,0.163,0.055,0.339,0.227,0.339h4.183
			C39.259,111.651,39.352,111.58,39.383,111.477"/>
		<path clip-path="url(#SVGID_24_)" fill="#99B8D6" d="M33.826,111.651h-4.17c-0.178,0-0.296-0.187-0.221-0.351l0.466-1.016
			c0.04-0.087,0.125-0.142,0.221-0.142h4.07c0.168,0,0.287,0.169,0.229,0.33l-0.365,1.015
			C34.021,111.587,33.93,111.651,33.826,111.651"/>
		<path clip-path="url(#SVGID_24_)" fill="#99B8D6" d="M99.788,114.475h4.268c0.204,0,0.337-0.216,0.253-0.401l-0.46-1.001
			c-0.045-0.101-0.144-0.164-0.252-0.164h-4.166c-0.193,0-0.327,0.195-0.261,0.38l0.36,0.999
			C99.57,114.4,99.672,114.475,99.788,114.475"/>
		<path clip-path="url(#SVGID_24_)" fill="#99B8D6" d="M98.809,114.086l-0.396-1.002c-0.043-0.105-0.145-0.176-0.259-0.176h-4.181
			c-0.185,0-0.318,0.182-0.265,0.361l0.297,1.005c0.036,0.119,0.145,0.2,0.267,0.2h4.279
			C98.748,114.475,98.883,114.272,98.809,114.086"/>
		<path clip-path="url(#SVGID_24_)" fill="#99B8D6" d="M93.307,114.102l-0.333-1.001c-0.037-0.115-0.142-0.192-0.261-0.192h-4.191
			c-0.179,0-0.312,0.171-0.27,0.348l0.234,1.001c0.027,0.127,0.141,0.218,0.269,0.218h4.291
			C93.235,114.475,93.368,114.286,93.307,114.102"/>
		<path clip-path="url(#SVGID_24_)" fill="#99B8D6" d="M87.787,114.119l-0.269-1.003c-0.033-0.122-0.144-0.207-0.268-0.207H83.05
			c-0.171,0-0.302,0.157-0.273,0.33l0.171,1c0.024,0.136,0.14,0.236,0.274,0.236h4.3C87.702,114.475,87.837,114.297,87.787,114.119"
			/>
		<path clip-path="url(#SVGID_24_)" fill="#99B8D6" d="M82.273,114.111l-0.201-0.961c-0.027-0.142-0.147-0.241-0.288-0.241h-4.17
			c-0.178,0-0.313,0.156-0.295,0.334l0.103,0.964c0.018,0.152,0.144,0.269,0.296,0.269h4.265
			C82.171,114.475,82.312,114.298,82.273,114.111"/>
		<path clip-path="url(#SVGID_24_)" fill="#99B8D6" d="M76.762,114.129l-0.138-0.964c-0.021-0.146-0.147-0.257-0.294-0.257h-4.176
			c-0.167,0-0.302,0.143-0.295,0.315l0.045,0.962c0.007,0.163,0.138,0.289,0.294,0.289h4.271
			C76.649,114.475,76.788,114.311,76.762,114.129"/>
		<path clip-path="url(#SVGID_24_)" fill="#99B8D6" d="M71.268,114.201l-0.085-1.061c-0.012-0.13-0.119-0.231-0.247-0.231h-4.27
			c-0.135,0-0.246,0.11-0.248,0.247l-0.02,1.062c-0.003,0.142,0.109,0.258,0.248,0.258h4.373
			C71.166,114.475,71.28,114.349,71.268,114.201"/>
		<path clip-path="url(#SVGID_24_)" fill="#99B8D6" d="M65.799,114.217l-0.02-1.062c-0.002-0.137-0.112-0.247-0.249-0.247h-4.269
			c-0.128,0-0.236,0.102-0.246,0.231l-0.086,1.061c-0.013,0.148,0.104,0.274,0.246,0.274h4.375
			C65.689,114.475,65.802,114.359,65.799,114.217"/>
		<path clip-path="url(#SVGID_24_)" fill="#99B8D6" d="M60.291,114.233l0.05-1.06c0.005-0.145-0.106-0.265-0.249-0.265h-4.267
			c-0.122,0-0.228,0.092-0.245,0.216l-0.152,1.062c-0.022,0.15,0.094,0.289,0.246,0.289h4.37
			C60.177,114.475,60.287,114.369,60.291,114.233"/>
		<path clip-path="url(#SVGID_24_)" fill="#99B8D6" d="M54.77,114.249l0.115-1.06c0.016-0.15-0.1-0.28-0.246-0.28h-4.264
			c-0.118,0-0.219,0.083-0.242,0.2l-0.22,1.062c-0.033,0.156,0.085,0.305,0.242,0.305h4.368
			C54.649,114.475,54.757,114.377,54.77,114.249"/>
		<path clip-path="url(#SVGID_24_)" fill="#99B8D6" d="M49.245,114.264l0.181-1.06c0.027-0.155-0.089-0.296-0.245-0.296h-4.255
			c-0.112,0-0.21,0.075-0.24,0.185l-0.285,1.062c-0.044,0.16,0.074,0.32,0.238,0.32h4.362
			C49.121,114.475,49.226,114.386,49.245,114.264"/>
		<path clip-path="url(#SVGID_24_)" fill="#99B8D6" d="M43.707,114.284l0.25-1.071c0.035-0.154-0.081-0.304-0.236-0.304h-4.259
			c-0.106,0-0.197,0.068-0.23,0.169l-0.358,1.07c-0.052,0.159,0.065,0.327,0.23,0.327h4.365
			C43.582,114.475,43.68,114.396,43.707,114.284"/>
		<path clip-path="url(#SVGID_24_)" fill="#99B8D6" d="M38.185,114.298l0.315-1.071c0.049-0.16-0.068-0.318-0.232-0.318h-4.249
			c-0.099,0-0.188,0.062-0.225,0.154l-0.425,1.071c-0.063,0.163,0.053,0.341,0.227,0.341h4.354
			C38.059,114.475,38.152,114.403,38.185,114.298"/>
		<path clip-path="url(#SVGID_24_)" fill="#99B8D6" d="M32.432,114.475h-4.345c-0.179,0-0.296-0.189-0.219-0.353l0.489-1.071
			c0.041-0.087,0.126-0.143,0.221-0.143h4.238c0.17,0,0.286,0.171,0.229,0.331l-0.385,1.071
			C32.624,114.41,32.534,114.475,32.432,114.475"/>
		<path clip-path="url(#SVGID_24_)" fill="#99B8D6" d="M100.669,117.248h4.414c0.203,0,0.336-0.216,0.251-0.401l-0.481-1.048
			c-0.044-0.102-0.143-0.164-0.251-0.164h-4.311c-0.19,0-0.325,0.195-0.259,0.378l0.375,1.048
			C100.448,117.172,100.552,117.248,100.669,117.248"/>
		<path clip-path="url(#SVGID_24_)" fill="#99B8D6" d="M99.669,116.858l-0.415-1.047c-0.042-0.107-0.144-0.177-0.257-0.177h-4.323
			c-0.186,0-0.318,0.182-0.265,0.361l0.31,1.05c0.037,0.118,0.143,0.202,0.267,0.202h4.426
			C99.606,117.248,99.741,117.045,99.669,116.858"/>
		<path clip-path="url(#SVGID_24_)" fill="#99B8D6" d="M94.002,116.875l-0.349-1.048c-0.037-0.115-0.144-0.192-0.263-0.192h-4.332
			c-0.181,0-0.312,0.169-0.271,0.347l0.247,1.049c0.027,0.127,0.14,0.218,0.269,0.218h4.437
			C93.93,117.248,94.064,117.056,94.002,116.875"/>
		<path clip-path="url(#SVGID_24_)" fill="#99B8D6" d="M88.316,116.89l-0.283-1.049c-0.032-0.123-0.143-0.207-0.266-0.207h-4.343
			c-0.174,0-0.304,0.157-0.275,0.329l0.181,1.048c0.021,0.136,0.139,0.236,0.272,0.236h4.446
			C88.231,117.248,88.363,117.07,88.316,116.89"/>
		<path clip-path="url(#SVGID_24_)" fill="#99B8D6" d="M82.634,116.883l-0.209-1.008c-0.028-0.141-0.148-0.241-0.288-0.241h-4.313
			c-0.176,0-0.312,0.156-0.293,0.334l0.107,1.011c0.019,0.151,0.145,0.269,0.294,0.269h4.413
			C82.532,117.248,82.674,117.071,82.634,116.883"/>
		<path clip-path="url(#SVGID_24_)" fill="#99B8D6" d="M76.958,116.902l-0.145-1.011c-0.022-0.148-0.146-0.257-0.294-0.257h-4.317
			c-0.167,0-0.302,0.144-0.295,0.313l0.044,1.012c0.009,0.16,0.14,0.289,0.298,0.289h4.416
			C76.846,117.248,76.984,117.083,76.958,116.902"/>
		<path clip-path="url(#SVGID_24_)" fill="#99B8D6" d="M71.3,116.974l-0.092-1.108c-0.01-0.131-0.118-0.231-0.245-0.231h-4.412
			c-0.135,0-0.245,0.109-0.248,0.247l-0.021,1.107c-0.002,0.142,0.109,0.259,0.249,0.259h4.521
			C71.197,117.248,71.311,117.121,71.3,116.974"/>
		<path clip-path="url(#SVGID_24_)" fill="#99B8D6" d="M65.665,116.989l-0.02-1.107c-0.004-0.138-0.114-0.247-0.247-0.247h-4.414
			c-0.128,0-0.234,0.101-0.245,0.231l-0.09,1.108c-0.012,0.146,0.103,0.273,0.248,0.273h4.521
			C65.556,117.248,65.668,117.13,65.665,116.989"/>
		<path clip-path="url(#SVGID_24_)" fill="#99B8D6" d="M59.993,117.005l0.051-1.109c0.005-0.142-0.106-0.262-0.25-0.262h-4.407
			c-0.124,0-0.229,0.092-0.246,0.216l-0.159,1.106c-0.022,0.152,0.095,0.291,0.245,0.291h4.519
			C59.878,117.248,59.987,117.14,59.993,117.005"/>
		<path clip-path="url(#SVGID_24_)" fill="#99B8D6" d="M54.305,117.021l0.119-1.106c0.016-0.15-0.098-0.28-0.247-0.28h-4.403
			c-0.118,0-0.22,0.081-0.244,0.2l-0.229,1.108c-0.031,0.156,0.086,0.305,0.244,0.305h4.516
			C54.186,117.248,54.291,117.149,54.305,117.021"/>
		<path clip-path="url(#SVGID_24_)" fill="#99B8D6" d="M48.615,117.037l0.188-1.107c0.026-0.154-0.092-0.295-0.244-0.295H44.16
			c-0.111,0-0.209,0.075-0.24,0.185l-0.299,1.108c-0.042,0.16,0.077,0.32,0.241,0.32h4.507
			C48.492,117.248,48.594,117.159,48.615,117.037"/>
		<path clip-path="url(#SVGID_24_)" fill="#99B8D6" d="M42.909,117.056l0.26-1.118c0.037-0.154-0.079-0.304-0.235-0.304h-4.401
			c-0.104,0-0.195,0.068-0.231,0.167l-0.37,1.119c-0.054,0.159,0.064,0.327,0.229,0.327h4.514
			C42.785,117.248,42.883,117.167,42.909,117.056"/>
		<path clip-path="url(#SVGID_24_)" fill="#99B8D6" d="M37.222,117.071l0.329-1.118c0.048-0.16-0.069-0.318-0.232-0.318h-4.39
			c-0.101,0-0.189,0.062-0.227,0.154l-0.443,1.118c-0.063,0.163,0.055,0.341,0.227,0.341h4.504
			C37.096,117.248,37.189,117.174,37.222,117.071"/>
		<path clip-path="url(#SVGID_24_)" fill="#99B8D6" d="M31.304,117.248h-4.492c-0.178,0-0.295-0.189-0.219-0.353l0.512-1.118
			c0.039-0.088,0.125-0.143,0.22-0.143h4.38c0.17,0,0.286,0.171,0.229,0.331l-0.4,1.118
			C31.497,117.182,31.405,117.248,31.304,117.248"/>
		<path clip-path="url(#SVGID_24_)" fill="#99B8D6" d="M101.893,120.076h4.59c0.203,0,0.336-0.215,0.251-0.401l-0.507-1.106
			c-0.045-0.101-0.143-0.161-0.25-0.161h-4.481c-0.192,0-0.326,0.194-0.26,0.378l0.396,1.104
			C101.671,120.001,101.774,120.076,101.893,120.076"/>
		<path clip-path="url(#SVGID_24_)" fill="#99B8D6" d="M100.87,119.687l-0.438-1.105c-0.043-0.105-0.145-0.175-0.257-0.175h-4.492
			c-0.185,0-0.319,0.183-0.266,0.361l0.326,1.106c0.037,0.118,0.145,0.201,0.266,0.201h4.604
			C100.809,120.076,100.942,119.873,100.87,119.687"/>
		<path clip-path="url(#SVGID_24_)" fill="#99B8D6" d="M95.006,119.703l-0.367-1.104c-0.039-0.116-0.145-0.192-0.264-0.192h-4.503
			c-0.179,0-0.312,0.169-0.27,0.347l0.258,1.104c0.03,0.127,0.142,0.218,0.27,0.218h4.611
			C94.933,120.076,95.064,119.885,95.006,119.703"/>
		<path clip-path="url(#SVGID_24_)" fill="#99B8D6" d="M89.119,119.716l-0.297-1.103c-0.034-0.123-0.143-0.207-0.269-0.207h-4.511
			c-0.171,0-0.303,0.156-0.274,0.329l0.189,1.105c0.021,0.135,0.138,0.234,0.271,0.234h4.623
			C89.035,120.076,89.169,119.898,89.119,119.716"/>
		<path clip-path="url(#SVGID_24_)" fill="#99B8D6" d="M83.24,119.711l-0.22-1.066c-0.028-0.139-0.149-0.238-0.29-0.238h-4.483
			c-0.175,0-0.313,0.154-0.292,0.334l0.113,1.064c0.017,0.154,0.144,0.271,0.294,0.271h4.587
			C83.139,120.076,83.279,119.898,83.24,119.711"/>
		<path clip-path="url(#SVGID_24_)" fill="#99B8D6" d="M54.781,118.664c0.023-0.148,0.146-0.257,0.295-0.257h4.796H60.6h5.052h0.691
			h5.053h5.523c0.147,0,0.271,0.108,0.293,0.257l0.153,1.065c0.027,0.182-0.113,0.347-0.292,0.347H71.53h-5.218h-0.629h-5.22h-0.667
			h-4.876c-0.181,0-0.318-0.165-0.292-0.347L54.781,118.664z"/>
		<path clip-path="url(#SVGID_24_)" fill="#99B8D6" d="M53.922,119.854l0.124-1.174c0.017-0.146-0.095-0.273-0.24-0.273h-4.584
			c-0.114,0-0.214,0.079-0.238,0.195l-0.243,1.174c-0.031,0.155,0.084,0.3,0.237,0.3h4.701
			C53.804,120.076,53.907,119.98,53.922,119.854"/>
		<path clip-path="url(#SVGID_24_)" fill="#99B8D6" d="M48.031,119.87l0.2-1.176c0.026-0.15-0.089-0.287-0.238-0.287h-4.579
			c-0.109,0-0.204,0.073-0.233,0.182l-0.318,1.173c-0.042,0.157,0.075,0.314,0.234,0.314h4.696
			C47.91,120.076,48.012,119.989,48.031,119.87"/>
		<path clip-path="url(#SVGID_24_)" fill="#99B8D6" d="M42.129,119.884l0.273-1.174c0.035-0.154-0.08-0.304-0.236-0.304h-4.57
			c-0.104,0-0.197,0.068-0.23,0.167l-0.391,1.176c-0.055,0.158,0.063,0.326,0.229,0.326h4.689
			C42.004,120.076,42.102,119.996,42.129,119.884"/>
		<path clip-path="url(#SVGID_24_)" fill="#99B8D6" d="M36.241,119.898l0.349-1.174c0.047-0.159-0.07-0.317-0.234-0.317h-4.561
			c-0.098,0-0.188,0.061-0.226,0.154l-0.464,1.173c-0.063,0.164,0.053,0.342,0.225,0.342h4.681
			C36.117,120.076,36.211,120.003,36.241,119.898"/>
		<path clip-path="url(#SVGID_24_)" fill="#99B8D6" d="M30.126,120.076h-4.667c-0.178,0-0.295-0.188-0.221-0.352l0.538-1.176
			c0.042-0.087,0.126-0.142,0.22-0.142h4.553c0.166,0,0.285,0.171,0.227,0.331l-0.422,1.175
			C30.319,120.01,30.229,120.076,30.126,120.076"/>
	</g>
</g>
</svg>
