<?xml version="1.0" encoding="utf-8"?>
<!-- Generator: Adobe Illustrator 15.0.0, SVG Export Plug-In . SVG Version: 6.00 Build 0)  -->
<!DOCTYPE svg PUBLIC "-//W3C//DTD SVG 1.1//EN" "http://www.w3.org/Graphics/SVG/1.1/DTD/svg11.dtd">
<svg version="1.1" id="Capa_1" xmlns="http://www.w3.org/2000/svg" xmlns:xlink="http://www.w3.org/1999/xlink" x="0px" y="0px"
	 width="143.5px" height="184.326px" viewBox="0 0 143.5 184.326" enable-background="new 0 0 143.5 184.326" xml:space="preserve">
<path fill="#C6201E" d="M123.003,77.694c-0.247,0-0.494-0.008-0.738-0.021l0.045-0.771c0.977,0.052,1.979-0.008,2.941-0.171
	l0.143,0.763C124.608,77.627,123.808,77.694,123.003,77.694z M119.173,77.171c-1.004-0.28-1.975-0.674-2.885-1.17l0.402-0.67
	c0.854,0.465,1.769,0.836,2.713,1.101L119.173,77.171z M128.394,76.632l-0.323-0.709c0.899-0.373,1.759-0.846,2.548-1.406
	l0.484,0.618C130.267,75.731,129.353,76.235,128.394,76.632z M113.767,74.23c-0.768-0.682-1.449-1.443-2.029-2.271l0.677-0.429
	c0.546,0.776,1.188,1.495,1.907,2.137L113.767,74.23z M133.384,73.085l-0.623-0.496c0.633-0.718,1.178-1.506,1.617-2.342
	l0.729,0.348C134.636,71.483,134.058,72.321,133.384,73.085z M110.31,69.305c-0.363-0.933-0.612-1.907-0.739-2.896l0.807-0.095
	c0.12,0.931,0.354,1.847,0.696,2.722L110.31,69.305z M136.177,67.792l-0.791-0.178c0.225-0.906,0.34-1.844,0.34-2.783h0.813
	C136.536,65.831,136.415,66.827,136.177,67.792z M135.724,64.669c-0.016-0.939-0.143-1.875-0.379-2.777l0.789-0.188
	c0.252,0.961,0.389,1.956,0.401,2.954L135.724,64.669z M110.356,63.513l-0.809-0.083c0.113-0.991,0.348-1.971,0.698-2.907
	l0.767,0.26C110.683,61.661,110.464,62.581,110.356,63.513z M134.302,59.271c-0.453-0.83-1.01-1.609-1.65-2.32l0.615-0.503
	c0.684,0.756,1.273,1.587,1.756,2.468L134.302,59.271z M112.315,58.269l-0.682-0.42c0.568-0.834,1.24-1.606,1.998-2.299l0.563,0.559
	C113.485,56.758,112.851,57.483,112.315,58.269z M130.479,55.052c-0.797-0.552-1.66-1.016-2.566-1.375l0.313-0.713
	c0.965,0.385,1.883,0.875,2.732,1.464L130.479,55.052z M116.543,54.415l-0.413-0.666c0.903-0.506,1.867-0.914,2.867-1.207
	l0.24,0.738C118.298,53.557,117.392,53.938,116.543,54.415z M125.08,52.903c-0.964-0.15-1.966-0.194-2.944-0.133l-0.055-0.771
	c1.04-0.065,2.104-0.02,3.131,0.143L125.08,52.903z"/>
<path fill="#C6201E" d="M100.052,41.554c-0.246,0-0.494-0.007-0.74-0.02l0.045-0.771c0.979,0.051,1.979-0.008,2.941-0.171
	l0.145,0.763C101.657,41.486,100.851,41.554,100.052,41.554z M96.224,41.031c-1.006-0.281-1.979-0.676-2.889-1.171l0.404-0.671
	c0.854,0.467,1.77,0.836,2.711,1.1L96.224,41.031z M105.44,40.491l-0.322-0.708c0.898-0.373,1.758-0.848,2.547-1.408l0.488,0.619
	C107.312,39.591,106.399,40.094,105.44,40.491z M90.81,38.091c-0.766-0.68-1.446-1.443-2.027-2.271l0.678-0.427
	c0.546,0.775,1.188,1.495,1.908,2.135L90.81,38.091z M110.433,36.945l-0.625-0.496c0.633-0.718,1.178-1.507,1.619-2.342l0.728,0.348
	C111.683,35.343,111.101,36.181,110.433,36.945z M87.356,33.165c-0.362-0.933-0.611-1.906-0.738-2.896l0.809-0.095
	c0.118,0.932,0.354,1.847,0.693,2.722L87.356,33.165z M113.226,31.651l-0.793-0.177c0.226-0.907,0.338-1.844,0.338-2.783h0.813
	C113.584,29.691,113.462,30.688,113.226,31.651z M112.767,28.528c-0.014-0.938-0.14-1.874-0.377-2.776l0.789-0.188
	c0.252,0.962,0.387,1.955,0.4,2.954L112.767,28.528z M87.405,27.372l-0.811-0.082c0.113-0.992,0.35-1.972,0.699-2.907l0.766,0.26
	C87.731,25.522,87.513,26.44,87.405,27.372z M111.351,23.132c-0.455-0.83-1.01-1.609-1.652-2.319l0.615-0.504
	c0.686,0.755,1.275,1.586,1.758,2.467L111.351,23.132z M89.366,22.129l-0.684-0.421c0.567-0.834,1.24-1.606,1.996-2.297l0.563,0.557
	C90.532,20.617,89.899,21.344,89.366,22.129z M107.529,18.911c-0.8-0.553-1.661-1.016-2.569-1.375l0.314-0.713
	c0.965,0.384,1.885,0.877,2.732,1.465L107.529,18.911z M93.593,18.274l-0.414-0.665c0.901-0.507,1.867-0.913,2.865-1.207
	l0.241,0.737C95.349,17.417,94.438,17.798,93.593,18.274z M102.128,16.763c-0.963-0.15-1.965-0.196-2.943-0.134l-0.057-0.771
	c1.043-0.066,2.105-0.021,3.133,0.141L102.128,16.763z"/>
<path fill="#C6201E" d="M24.722,43.765c-1.039-0.002-2.081-0.082-3.099-0.237l0.129-0.763c0.976,0.147,1.976,0.226,2.972,0.229
	L24.722,43.765z M27.821,43.544l-0.124-0.764c0.981-0.146,1.958-0.364,2.901-0.652l0.248,0.734
	C29.862,43.164,28.845,43.394,27.821,43.544z M18.6,42.831c-0.982-0.308-1.947-0.69-2.869-1.144L16.104,41
	c0.883,0.433,1.809,0.801,2.75,1.097L18.6,42.831z M33.723,41.737l-0.368-0.688c0.883-0.426,1.738-0.924,2.542-1.479l0.478,0.627
	C35.536,40.773,34.643,41.291,33.723,41.737z M13.088,40.132c-0.835-0.582-1.627-1.229-2.355-1.93l0.577-0.544
	c0.699,0.67,1.459,1.292,2.26,1.851L13.088,40.132z M38.74,38.281l-0.574-0.55c0.704-0.665,1.356-1.39,1.941-2.15l0.657,0.456
	C40.154,36.83,39.474,37.585,38.74,38.281z M8.723,35.948C8.117,35.147,7.575,34.3,7.11,33.423l0.726-0.348
	c0.446,0.84,0.967,1.653,1.548,2.422L8.723,35.948z M42.394,33.519l-0.724-0.353c0.451-0.841,0.839-1.723,1.144-2.618l0.774,0.239
	C43.269,31.724,42.866,32.642,42.394,33.519z M5.933,30.688c-0.314-0.938-0.553-1.904-0.707-2.878l0.804-0.115
	c0.147,0.935,0.376,1.861,0.677,2.759L5.933,30.688z M44.313,27.914l-0.805-0.12c0.153-0.928,0.231-1.879,0.231-2.826h0.813
	C44.556,25.955,44.474,26.946,44.313,27.914z M5.813,24.868L5,24.861c0.006-0.985,0.092-1.978,0.258-2.942l0.804,0.125
	C5.903,22.969,5.819,23.921,5.813,24.868z M43.541,22.343c-0.144-0.934-0.364-1.862-0.661-2.762l0.775-0.229
	c0.309,0.938,0.541,1.905,0.689,2.881L43.541,22.343z M6.772,19.292l-0.771-0.243c0.326-0.933,0.732-1.851,1.21-2.724l0.722,0.354
	C7.475,17.519,7.085,18.397,6.772,19.292z M41.767,16.952c-0.44-0.845-0.957-1.66-1.532-2.431l0.661-0.446
	c0.602,0.802,1.139,1.653,1.6,2.532L41.767,16.952z M9.511,14.274l-0.654-0.459c0.614-0.791,1.299-1.541,2.036-2.231l0.571,0.551
	C10.757,12.796,10.099,13.517,9.511,14.274z M38.319,12.352c-0.694-0.676-1.451-1.302-2.248-1.861l0.485-0.621
	c0.83,0.586,1.618,1.239,2.343,1.94L38.319,12.352z M13.744,10.308L13.27,9.68c0.842-0.573,1.736-1.088,2.66-1.527l0.365,0.69
	C15.409,9.266,14.551,9.758,13.744,10.308z M33.544,8.983c-0.879-0.438-1.803-0.812-2.744-1.109l0.26-0.732
	c0.979,0.313,1.943,0.701,2.861,1.157L33.544,8.983z M19.058,7.778l-0.244-0.735c0.985-0.296,2.005-0.521,3.029-0.664l0.119,0.765
	C20.979,7.281,20.003,7.495,19.058,7.778z M27.907,7.188c-0.975-0.152-1.975-0.233-2.971-0.242l0.008-0.772
	c1.037,0.009,2.079,0.095,3.096,0.254L27.907,7.188z"/>
<path fill="#C6201E" d="M35.38,98.644c-0.569,0-1.143-0.039-1.705-0.112l0.113-0.767c0.524,0.069,1.061,0.104,1.592,0.104
	c0.002,0,0.002,0,0.003,0v0.772C35.382,98.644,35.382,98.644,35.38,98.644z M30.643,97.731c-0.967-0.392-1.879-0.898-2.71-1.517
	l0.499-0.608c0.776,0.574,1.627,1.05,2.528,1.413L30.643,97.731z M25.722,94.092c-0.639-0.798-1.166-1.671-1.566-2.595l0.752-0.293
	c0.373,0.86,0.865,1.675,1.461,2.419L25.722,94.092z M23.347,88.607c-0.066-0.494-0.101-0.997-0.101-1.499v-1.444h0.813v1.444
	c0,0.47,0.031,0.938,0.095,1.397L23.347,88.607z M24.059,82.766h-0.813V79.87h0.813V82.766z M24.059,76.969h-0.813v-2.896h0.813
	V76.969z M24.059,71.173h-0.813v-2.896h0.813V71.173z M24.059,65.377h-0.813V62.48h0.813V65.377z M24.059,59.58h-0.813v-2.897h0.813
	V59.58z M24.059,53.784h-0.813v-2.898h0.813V53.784z M24.059,47.987h-0.813V45.09h0.813V47.987z"/>
<path fill="#C6201E" d="M88.32,76.534h-2.075V75.76h2.075c0.313,0,0.628-0.012,0.938-0.035l0.065,0.771
	C88.993,76.521,88.656,76.534,88.32,76.534z M83.196,76.534h-3.053V75.76h3.053V76.534z M77.099,76.534h-1.793V75.76h1.793V76.534z
	 M92.399,75.866l-0.271-0.729c0.924-0.313,1.803-0.74,2.609-1.271l0.462,0.637C94.331,75.073,93.392,75.531,92.399,75.866z
	 M97.536,72.505l-0.617-0.504c0.643-0.709,1.184-1.495,1.605-2.334l0.732,0.336C98.804,70.902,98.226,71.743,97.536,72.505z
	 M100.243,67.162l-0.799-0.145c0.132-0.66,0.197-1.341,0.197-2.019v-0.796h0.814V65C100.458,65.727,100.386,66.454,100.243,67.162z
	 M100.458,61.307h-0.813V58.41h0.813V61.307z M100.458,55.51h-0.813v-2.897h0.813V55.51z M100.458,49.714h-0.813v-2.897h0.813
	V49.714z M100.458,43.918h-0.813v-2.896h0.813V43.918z"/>
<path fill="#C6201E" d="M111.272,114.554c0,0,0,0-0.002,0h-1.402v-0.772h1.402c0.002,0,0.002,0,0.002,0
	c0.529,0,1.063-0.035,1.58-0.105l0.113,0.768C112.41,114.515,111.843,114.554,111.272,114.554z M106.817,114.554h-3.049v-0.772
	h3.049V114.554z M100.722,114.554h-3.051v-0.772h3.051V114.554z M115.999,113.645l-0.314-0.712c0.9-0.36,1.754-0.839,2.529-1.41
	l0.498,0.61C117.879,112.747,116.97,113.256,115.999,113.645z M120.927,110.01l-0.646-0.469c0.596-0.743,1.088-1.558,1.463-2.417
	l0.752,0.293C122.097,108.341,121.563,109.214,120.927,110.01z M123.308,104.528l-0.808-0.102c0.063-0.464,0.099-0.938,0.099-1.41
	v-1.433h0.813v1.433C123.409,103.522,123.374,104.031,123.308,104.528z M123.409,98.688h-0.813V95.79h0.813V98.688z M123.409,92.891
	h-0.813v-2.897h0.813V92.891z M123.409,87.094h-0.813v-2.896h0.813V87.094z M123.409,81.298h-0.813V78.4h0.813V81.298z"/>
<g>
	<g>
		<path fill="#F0C185" d="M102.688,93.581c-0.09,0.499-0.271,0.735-0.102,1.287c0.154,0.505,0.379,1.01,0.661,1.5
			c0.552,0.959,1.374,1.993,2.562,2.59c0.053,0.023,0.105,0.041,0.158,0.051c-0.047,0.097-0.094,0.192-0.141,0.29
			c-0.166,0.35,0.322,0.869,0.838,0.766c1.24-0.253,3.945-1.767,2.578-3.146c-0.114-0.117-0.252-0.188-0.389-0.226
			c-0.188-0.18-0.373-0.36-0.545-0.541c-0.027-0.028-0.049-0.057-0.067-0.086c-0.083-0.131-0.175-0.258-0.271-0.378
			c-0.135-0.184-0.295-0.37-0.49-0.568c-0.514-0.521-1.063-1.045-1.621-1.543c-0.107-0.097-0.23-0.191-0.357-0.289
			c-0.045-0.033-0.084-0.072-0.115-0.113c-0.021-0.031-0.055-0.063-0.097-0.098c-0.056-0.043-0.116-0.082-0.183-0.118
			c-0.045-0.025-0.09-0.057-0.127-0.089c-0.152-0.138-0.287-0.279-0.371-0.435c-0.229-0.41-0.992-0.289-0.764,0.121
			c0.018,0.028,0.034,0.057,0.055,0.082c-0.271-0.009-0.525,0.021-0.729,0.09C102.714,92.885,102.755,93.224,102.688,93.581z
			 M105.832,96.876c0.151,0.103,0.31,0.199,0.47,0.295c0.055,0.033,0.104,0.07,0.145,0.113c0.105,0.113,0.209,0.233,0.309,0.354
			c-0.176,0.25-0.332,0.51-0.477,0.774c-0.211-0.296-0.525-0.667-0.608-0.92C105.599,97.273,105.861,97.094,105.832,96.876
			L105.832,96.876L105.832,96.876z"/>
		<path fill="#F0C185" d="M104.081,92.665c-0.975-1.979-2.848-3.752-4.415-5.313c-1.519-1.51-3.146-2.901-4.862-4.199
			c-1.563-1.179-1.531-2.899-2.058-4.635c-0.694-2.298-1.597-4.539-2.685-6.693c-0.279,1.307-1.375,2.38-2.791,2.753
			c-0.438,0.114-0.881,0.133-1.309,0.072c0.649,2.045,1.641,3.837,2.666,5.664c0.814,1.452,1.541,2.977,2.389,4.4
			c0.967,1.625,2.672,2.885,4.281,4.029c0.334,0.239,0.666,0.475,0.985,0.707c1.344,0.975,2.714,1.916,4.108,2.823
			c0.777,0.509,3.401,2.85,3.867,1.356C104.417,93.125,104.319,93.151,104.081,92.665z"/>
		<path fill="#F15238" d="M87.586,67.401c-0.687-3.282-3.261-6.753-3.225-9.896c0.026-2.563-0.109-5.111-2.038-6.946
			c-2.053-1.95-5.17-3.029-7.762-3.066c-2.393-0.037-4.439,0.875-6.021,2.783c-1.453,1.752-2.467,4.198-2.268,6.687
			c0.105,1.309,0.643,2.519,1.256,3.646c0.211,0.392,0.434,0.776,0.636,1.171c-0.021,0.124-0.022,0.254-0.015,0.387
			c0.146,1.951,0.588,3.86,0.959,5.779c0.324,1.681,0.387,3.504,1.115,5.072c1.205,2.595,3.67,3.854,6.164,3.948
			c1.678,0.063,3.281-0.278,4.824-0.913c1.438-0.592,2.781-1.411,4.23-1.976c0.365-0.144,0.68-0.284,0.949-0.433l-0.758-2.986
			l1.344,2.599c0.838-0.691,1-1.635,0.916-3.456C87.858,68.99,87.751,68.189,87.586,67.401z"/>
		<path fill="#F0C185" d="M66.8,104.921c-0.053-0.188-0.162-0.394-0.313-0.582c0.03-0.005,0.063-0.006,0.098-0.012
			c0.463-0.084,0.158-0.709-0.305-0.627c-0.175,0.03-0.361,0.021-0.558-0.008c-0.05-0.007-0.097-0.021-0.143-0.038
			c-0.064-0.024-0.13-0.047-0.195-0.062c-0.05-0.012-0.093-0.016-0.133-0.012c-0.05,0.002-0.104-0.004-0.152-0.016
			c-0.148-0.033-0.295-0.064-0.433-0.085c-0.71-0.104-1.435-0.187-2.144-0.241c-0.268-0.021-0.508-0.025-0.729-0.011
			c-0.151,0.002-0.305,0.015-0.459,0.03c-0.034,0.006-0.067,0.007-0.104,0.005c-0.242-0.017-0.491-0.042-0.74-0.067
			c-0.104-0.077-0.234-0.133-0.395-0.146c-1.537,1.539-1.688,2.726-1.24,3.776c0.187,0.438,0.877,0.478,1.078,0.144
			c0.057-0.092,0.111-0.184,0.166-0.276c0.037,0.034,0.078,0.063,0.127,0.084c1.125,0.502,2.42,0.474,3.51,0.29
			c0.557-0.091,1.096-0.232,1.598-0.427c0.547-0.214,0.648-0.486,1.014-0.854C66.608,105.524,66.913,105.35,66.8,104.921z
			 M61.942,105.504c-0.195,0.11-0.205,0.411-0.426,0.493c-0.254,0.093-0.729,0.09-1.086,0.114c0.144-0.267,0.275-0.534,0.391-0.813
			c0.154-0.002,0.307,0,0.458,0.009c0.058,0.004,0.116,0.018,0.173,0.036c0.162,0.06,0.327,0.111,0.493,0.16
			C61.944,105.503,61.942,105.504,61.942,105.504z"/>
		<path fill="#F0C185" d="M79.011,159.904c-0.008-1.284-0.113-2.557-0.555-3.812c-0.258-0.645-0.627-0.987-1.15-0.597
			c0.072-0.057-0.666-0.654-0.908-0.557c-0.428,0.175-0.68,1.263-0.842,1.733c-0.471,1.344-0.813,2.764-1.021,4.217
			c-0.211,0.771-0.18,1.668-0.28,2.387c-0.063,0.438-0.077,0.943,0.239,1.309c0.098,0.109,0.206,0.186,0.318,0.225
			c0.182,0.569,0.715,0.843,1.283,0.591c0.18,0.162,0.4,0.261,0.686,0.209c0.271-0.047,0.479-0.229,0.67-0.422
			c0.158,0.103,0.334,0.163,0.551,0.122c0.33-0.063,0.586-0.353,0.706-0.633c0.313-0.729,0.237-1.523,0.253-2.295
			C78.976,161.552,79.017,160.727,79.011,159.904z"/>
		<path fill="#F0C185" d="M90.97,162.125c0.008-0.176,0.008-0.35-0.006-0.521c-0.102-1.552-0.354-3.084-0.752-4.556
			c-0.134-0.489-0.313-1.604-0.725-1.83c-0.236-0.126-1.014,0.381-0.942,0.444c-0.495-0.455-0.888-0.157-1.188,0.452
			c-0.523,1.069-0.771,3.099-0.811,3.726c-0.015,0.22-0.023,0.446-0.027,0.677c-0.037,0.587,0.006,1.177,0.043,1.771
			c0.037,0.612-0.01,1.222,0.018,1.835c0.018,0.384,0.043,0.88,0.383,1.146c0.275,0.215,0.561,0.171,0.811,0.027
			c0.148,0.222,0.332,0.396,0.691,0.416c0.236,0.015,0.424-0.053,0.566-0.164c0.23-0.021,0.449-0.116,0.648-0.272
			c0.266-0.115,0.5-0.342,0.646-0.617c0.43-0.093,0.66-0.59,0.712-1.083C91.087,163.101,91.06,162.605,90.97,162.125z"/>
		<path fill="#F0C185" d="M91.933,125.575c0.025-0.39,0.068-0.771,0.123-1.152c-0.627-0.076-1.254-0.173-1.877-0.274
			c-0.926-0.147-1.848-0.323-2.773-0.469c-0.23-0.038-0.467-0.076-0.699-0.109c-0.035-0.006-0.105-0.02-0.184-0.026
			c-0.076-0.007-0.15-0.02-0.188-0.021c-0.214-0.021-0.427-0.045-0.64-0.065c-0.154-0.016-0.31-0.025-0.462-0.042
			c0.095,4.045,0.218,8.088,0.39,12.124c0.146,3.438,0.328,6.861,0.345,10.313c0.004,1.216,0.182,2.414,0.394,3.606
			c0.21,1.988,0.469,3.971,0.647,5.967c-0.006,0.134,0.006,0.254,0.032,0.363c0.039,0.467,0.076,0.935,0.104,1.4
			c0.039,0.611,0.686,0.998,1.246,0.974c0.646-0.027,1.078-0.521,1.196-1.12c0.043-0.215,0.087-0.432,0.128-0.646
			c0.198-0.179,0.35-0.433,0.396-0.762c0.729-4.992,1.843-9.943,2.314-14.964c0.246-2.594,0.293-5.19,0.112-7.776
			C92.374,130.466,91.767,128.018,91.933,125.575z"/>
		<path fill="#F0C185" d="M80.5,123.033c-1.899-0.168-3.899-0.355-5.829-0.77c0.221,1.094,0.375,2.196,0.4,3.318
			c0.055,2.445-0.662,4.895-0.943,7.318c-0.3,2.589-0.369,5.188-0.244,7.789c0.242,5.026,1.129,9.991,1.631,14.995
			c0.03,0.332,0.17,0.586,0.359,0.767c0.033,0.217,0.063,0.433,0.098,0.647c0.094,0.601,0.502,1.101,1.145,1.131
			c0.561,0.028,1.223-0.35,1.29-0.965c0.05-0.469,0.108-0.934,0.169-1.398c0.031-0.111,0.05-0.232,0.049-0.363
			c0.271-1.998,0.621-3.979,0.922-5.968c0.266-1.192,0.498-2.391,0.559-3.61c0.172-3.451,0.512-6.879,0.814-10.318
			c0.365-4.149,0.678-8.307,0.965-12.462C81.421,123.11,80.96,123.075,80.5,123.033z"/>
		<path fill="#F0C185" d="M75.556,68.911c1.26,0.696,3.625,0.578,4.274-0.959c0.462-0.08,0.827-0.636,0.495-1.31
			c-0.035-0.065-0.064-0.136-0.1-0.202c-0.031-0.115-0.088-0.234-0.164-0.351c-0.182-0.412-0.338-0.835-0.496-1.259
			c-0.063-0.17-0.127-0.341-0.19-0.512c-0.028-0.113-0.06-0.229-0.083-0.343c-0.059-0.26-0.166-0.444-0.299-0.569
			c-0.02-0.033-0.033-0.068-0.049-0.103c-0.043-0.089-0.088-0.175-0.133-0.261c-0.482-0.912-1.438-0.507-1.438,0.32
			c-0.152,0.132-0.263,0.342-0.277,0.639c-0.004,0.05-0.006,0.103-0.004,0.15c-0.002,0.222,0.023,0.446,0.068,0.672
			c-0.002,0.002-0.005,0.002-0.006,0.004c-0.008,0.004-0.014,0.009-0.021,0.016c-0.309-0.122-0.654-0.03-0.83,0.279
			c-0.121-0.021-0.24-0.01-0.35,0.033c-0.035-0.043-0.068-0.079-0.107-0.111c-0.045-0.098-0.098-0.18-0.154-0.248
			c-0.473-0.563-1.26-0.146-1.268,0.584c-0.006,0.154,0.027,0.322,0.105,0.499c0.089,0.2,0.162,0.405,0.227,0.615
			c0.027,0.171,0.055,0.343,0.082,0.515v0.003c0.049,0.31,0.098,0.615,0.163,0.924C75.017,68.313,75.185,68.706,75.556,68.911z"/>
		<path fill="#E2A971" d="M74.532,65.885c0.089,0.2,0.163,0.405,0.229,0.615c0.025,0.171,0.055,0.343,0.082,0.516v0.002
			c0,0,2.43,2.688,5.221-0.926c-0.063-0.17-0.621-1.6-0.688-1.77c-0.028-0.114-0.06-0.229-0.083-0.344
			c-0.059-0.26-0.166-0.444-0.299-0.569c-0.02-0.033-0.033-0.068-0.049-0.103l-1.852,0.851l-1.4,0.645l-1.268,0.584
			C74.421,65.54,74.454,65.708,74.532,65.885z"/>
		<path fill="#F0C185" d="M68.392,54.353c0.191-0.272,0.457-0.528,0.813-0.762c0.687-0.447,1.931-0.351,2.687-0.634
			c1.295-0.481,3.07-1.359,4.375-0.535c1.211,0.768,1.291,2.276,1.727,3.535c0.092,0.264,0.197,0.521,0.314,0.771
			c0.01-0.016,0.021-0.029,0.029-0.043c0.245-0.312,0.572-0.521,0.979-0.59c0.307-0.05,0.721,0.084,0.843,0.385
			c0.401,0.99,0.042,2.019-0.622,2.829c-0.007,0.007-0.014,0.014-0.02,0.021c0.146,0.424,0.252,0.862,0.285,1.332
			c0.111,1.627-0.738,2.951-1.644,4.262c-0.835,1.209-2.021,1.617-3.521,1.481c-1.521-0.141-2.42-1.03-3.24-2.177
			c-0.889-1.244-1.728-2.475-2.082-3.955C68.884,58.46,67.207,56.056,68.392,54.353z"/>
		<path fill="#F0C185" d="M68.033,91.798c0.303-0.797,0.207-3.749,0.038-4.467c1.295-0.054,2.643,1.953,3.637,1.129
			c0.063-0.056,0.122-0.108,0.182-0.165c0.094,0.982,0.188,1.971,0.229,2.945c0.076,1.861-0.68,3.783-1.414,5.563
			c-0.154,0.372-0.307,0.736-0.451,1.095c-0.605,1.501-1.251,2.985-1.936,4.455c-0.383,0.82-1.322,4.121-2.541,3.084
			c-0.413-0.353-0.314-0.379-0.381-0.911c-0.268-2.17,0.349-4.613,0.82-6.728C66.671,95.759,67.286,93.759,68.033,91.798z"/>
		<path fill="#F0C185" d="M71.001,74.247c-0.249-1.208-0.617-2.389-1.191-3.535c0.455-0.295,0.963-0.536,1.479-0.758
			c0.247-0.104,0.494-0.205,0.74-0.306c0.539-0.219,1.068-0.434,1.543-0.681c0.729-0.38,1.342-0.69,2.193-0.495
			c0.479,0.106,0.959,0.279,1.446,0.229c0.882-0.097,1.181-0.76,1.759-1.261c0.235-0.208,0.485-0.337,0.764-0.432
			c0.613-0.202,1.504,0.179,2.125,0.263c0.8,0.106,1.604,0.186,2.406,0.254c0.016,0.002,0.027,0.002,0.043,0.004
			c0.309,0.027,0.615,0.054,0.924,0.08c0.301,0.024,0.601,0.052,0.897,0.078c0.132,0.012,0.252,0.027,0.364,0.052
			c0.563,0.109,0.934,0.37,1.188,0.94c0.11,0.25,0.18,0.508,0.224,0.771c-0.067,0.066-0.128,0.146-0.175,0.232
			c-0.348,0.679-0.453,1.354-0.471,2.046c0.045,0.109,0.067,0.233,0.064,0.371c-0.006,0.606-0.025,1.223,0.047,1.823
			c0.05,0.413-0.078,0.787-0.396,1.018c-0.107,0.078-0.24,0.14-0.395,0.181c-0.408,0.108-0.822,0.185-1.236,0.242
			c-0.592,0.081-1.187,0.131-1.787,0.182c-0.146,0.015-0.293,0.027-0.438,0.044c-0.268,0.029-0.53,0.064-0.793,0.104
			c-0.008,0.118-0.053,0.242-0.148,0.366c-1.552,1.979-4.283,2.813-6.578,1.438c-0.145-0.087-0.238-0.19-0.295-0.307
			c-0.271,0.046-0.541,0.09-0.813,0.126c-0.229,0.32-0.625,0.518-1.133,0.354c-0.819-0.269-1.592-0.93-2.029-1.719
			c-0.255-0.455-0.396-0.952-0.375-1.439C70.958,74.416,70.976,74.327,71.001,74.247z"/>
		<path fill="#1963AA" d="M95.272,113.001c0.19-1.831,0.604-17.521-1.795-15.971c-0.035-0.073-0.069-0.148-0.107-0.223
			c-0.287-0.563-0.593-1.109-0.875-1.675c-0.032-0.062-0.063-0.122-0.092-0.185c-0.165-0.339-0.658-1.984-0.971-2.113
			c-0.314-0.131-0.658-0.216-1.029-0.242c-0.096-0.02-0.188-0.021-0.279-0.014c-0.863-0.02-1.773,0.146-2.634,0.254
			c-2.456,0.301-4.954,0.06-7.417,0.319c-0.579,0.063-1.152,0.115-1.688,0.282c-0.455-0.664-1.756-0.74-2.049,0.254
			c-0.027,0.093-0.059,0.181-0.092,0.27c-0.754,2-1.232,3.544-1.859,5.557c-0.893,2.865-0.797,6.419-0.83,9.386
			c-0.049,4.203-0.388,8.244,0.424,12.369c0.355,1.813,0.613,3.711,0.354,5.551c-0.273,1.953-1.458,3.256-2.021,5.072
			c-1.289,4.162,18.256,5.142,20.41,2.188c0.547-0.747,0.635-1.732,0.623-2.62c-0.037-2.965-0.361-6.248,0.104-9.321
			c0.468-3.07,1.497-6.035,1.821-9.136C95.272,113.005,95.272,113.003,95.272,113.001z"/>
		<path fill="#FFFFFF" d="M91.296,90.507c-1.101-1.752-2.525-3.605-2.813-5.51c-0.108-0.736-0.063-1.459,0.031-2.181
			c0.047-0.341,0.103-0.685,0.157-1.026c0.146,0.205,0.296,0.408,0.441,0.61c0.887,1.21,1.704,2.56,2.358,3.91
			c0.101,0.208,1.541-0.22,2.422-0.565c0.263-0.103,0.56-0.22,0.845-0.387c0.795-0.468,1.043-1.461,0.596-2.239
			c-0.521-0.909-1.119-1.803-1.553-2.73c-0.976-2.104-1.563-4.272-2.271-6.463c-0.662-2.042-1.505-4.339-3.219-5.817
			c-1.908-1.648-4.466-1.068-6.796-1.326c-0.026-0.004-0.051-0.001-0.076-0.003c-0.12-0.352-0.219-0.715-0.403-1.036
			c-0.155-0.273-0.438-0.461-0.748-0.529c-1.823,1.241-3.989,2.147-6.123,1.531c-0.267,0.248-0.377,0.611-0.325,1.004
			c0.047,0.354,0.047,0.717,0.058,1.078c-1.326,0.179-2.697,0.706-3.765,1.347c-1.526,0.916-2.027,2.432-2.31,4.05
			c-0.274,1.592-0.267,3.201-0.357,4.807c-0.131,2.235,0.391,4.482,0.115,6.705c-0.127,1.031-0.181,2.042,0.582,2.874
			c0.67,0.729,1.604,1.218,2.41,1.787c0.639,0.453,1.396-0.014,1.664-0.584c0.441-0.938,0.668-1.938,0.799-2.963
			c0.06-0.459,0.101-0.925,0.135-1.391c0.213,0.216,0.416,0.436,0.603,0.667c0.29,0.373,0.529,0.787,0.656,1.293
			c0.373,1.487,0.043,3.057-0.033,4.562c-0.118,2.36-0.532,5.313,0.056,7.639c0.047,0.189,0.108,0.345,0.188,0.438
			c0.062,0.07,0.124,0.14,0.188,0.206c1.014,0.991,2.537,1.004,3.895,1.042c4.188,0.115,8.826,0.25,12.564-1.852
			c1.322-0.743,2.692-1.767,2.727-3.356c0.025-1.363-1.432-3.302-2.063-4.498C91.743,91.237,91.527,90.874,91.296,90.507z"/>
		<path fill="#194B8E" d="M86.282,166.005c-0.721-1.446-0.432-3.522,0.148-4.86c0.381,0.944,0.446,2.173,1.67,2.517
			c1.021,0.286,2.059-0.214,2.502-1.122c0.201-0.408,0.277-0.859,0.277-1.31c0.002-0.394-0.025-0.785-0.063-1.169
			c0.629,0.96,0.707,2.176,0.668,3.273c-0.033,1.019-0.063,2.259-0.555,3.184c-0.752,1.412-2.609,1.426-3.824,0.502
			C86.749,166.746,86.476,166.396,86.282,166.005z"/>
		<path fill="#194B8E" d="M79.146,166.005c0.722-1.446,0.433-3.522-0.148-4.86c-0.38,0.944-0.443,2.173-1.67,2.517
			c-1.021,0.286-2.059-0.214-2.5-1.122c-0.202-0.408-0.277-0.859-0.277-1.31c0-0.394,0.023-0.785,0.063-1.169
			c-0.627,0.96-0.705,2.176-0.668,3.273c0.035,1.019,0.063,2.259,0.555,3.184c0.753,1.412,2.609,1.426,3.824,0.502
			C78.683,166.746,78.952,166.396,79.146,166.005z"/>
		<path fill="#E5E5E5" d="M74.597,85.525c-0.418,0.109-0.683,0.338-0.844,0.6c-0.188-0.231-0.39-0.451-0.604-0.667
			c-0.033,0.466-0.074,0.932-0.135,1.391c-1.027-1.476-3.152-4.979-1.77-7.082C70.488,84.063,74.597,85.525,74.597,85.525z"/>
		<path fill="#E5E5E5" d="M86.603,83.521c0,0,1.08-0.852,2.068-1.73c-0.057,0.344-0.111,0.688-0.158,1.026
			C87.654,83.298,86.603,83.521,86.603,83.521z"/>
		<path fill="#E5E5E5" d="M89.558,81.79c-0.08,0.229-0.238,0.433-0.441,0.61c-0.146-0.202-0.297-0.405-0.441-0.61
			c0.967-0.86-1.111-4.978-1.195-5.146C87.569,76.789,89.976,80.621,89.558,81.79z"/>
	</g>
	<polygon fill="#231F20" points="83.907,123.919 93.529,123.919 95.532,114.957 86.101,114.957 	"/>
	<polygon fill="#2D2D2D" points="79.858,123.919 91.793,123.919 92.367,122.688 80.544,122.716 	"/>
	<polygon fill="#231F20" points="92.367,122.688 94.959,122.688 94.959,123.84 91.793,123.84 	"/>
	<polygon fill="#2D2D2D" points="71.496,117.906 108.254,120.903 108.254,90.337 71.496,93.335 	"/>
	<polygon fill="#FFFFFF" points="105.905,118.479 105.905,92.74 73.175,95.048 73.175,116.022 	"/>
	<polygon fill="#231F20" points="108.254,90.337 109.876,93.123 109.876,119.23 108.254,120.903 	"/>
	<polygon fill="#231F20" points="39.403,91.48 35.033,91.077 32.192,86.977 32.448,86.816 35.208,90.802 39.433,91.191 	"/>
	<ellipse fill="#231F20" cx="39.057" cy="91.429" rx="1.128" ry="1.073"/>
	<g>
		<path fill="#FFFFFF" d="M49.663,138.806l7.004,33.017L49.663,138.806z"/>
		<path fill="#231F20" d="M56.667,172.208c-0.191,0-0.359-0.126-0.398-0.311l-7.004-33.016c-0.045-0.21,0.099-0.412,0.318-0.456
			c0.219-0.042,0.434,0.095,0.479,0.303l7.004,33.017c0.045,0.208-0.098,0.414-0.317,0.454
			C56.72,172.207,56.692,172.208,56.667,172.208z"/>
	</g>
	<g>
		<path fill="#FFFFFF" d="M25.698,138.806l-7.004,33.017L25.698,138.806z"/>
		<path fill="#231F20" d="M18.695,172.208c-0.026,0-0.054-0.001-0.081-0.009c-0.22-0.04-0.363-0.246-0.318-0.454l7.004-33.017
			c0.045-0.208,0.26-0.345,0.479-0.303c0.22,0.044,0.363,0.246,0.318,0.456l-7.004,33.016
			C19.054,172.082,18.885,172.208,18.695,172.208z"/>
	</g>
	<polygon fill="#66240F" points="48.048,137.052 26.222,137.052 20.618,141.214 48.048,141.214 	"/>
	<path fill="#843817" d="M28.755,145.532h19.293v-4.318h-27.43l0,0C22.36,143.897,25.438,145.532,28.755,145.532z"/>
	<path fill="#843817" d="M20.618,141.214l-3.116-32.073c-0.347-1.875,0.854-3.695,2.782-4.218l8.32-3.012
		c2.521-0.685,5.021,1.139,4.983,3.629l-0.468,30.289L20.618,141.214z"/>
	<g>
		<path fill="#66240F" d="M67.741,164.587l9.561,1.868c0.785,0.153,1.357,0.806,1.375,1.568l0,0c0.021,0.902-0.734,1.651-1.688,1.67
			l-13.508,0.27c-1.071,0.021-1.904-0.887-1.734-1.896l0.348-2.065c0.133-0.78,0.832-1.359,1.666-1.378l3.6-0.067
			C67.487,164.551,67.616,164.563,67.741,164.587z"/>
		<path fill="#843817" d="M62.181,168.604l9.25,2.076c0.896,0.199,1.248,1.146,0.86,2.203l0,0c-0.424,1.15-1.563,1.984-2.539,1.951
			l-10.278-0.368c-0.607-0.021-1.172-0.816-1.201-1.721l-0.067-2.087c-0.028-0.884,0.353-1.62,0.924-1.696l2.733-0.372
			C61.97,168.577,62.075,168.581,62.181,168.604z"/>
		<path fill="#F0C185" d="M73.794,124.241c0.061-0.792,0.146-2.046-0.969-2.472c-0.051-0.028-0.104-0.06-0.161-0.086
			c-0.007-0.002-0.015-0.006-0.021-0.008c-0.521-0.412-1.195-0.642-1.967-0.723c-0.765-0.194-1.578-0.282-2.525-0.188
			c-1.495,0.152-3.264,0.435-4.467,1.104c-0.85,0.473-0.571,1.133,0.097,1.442c-0.021,0.085-0.001,0.179,0.075,0.271
			c0.218,0.271,0.147,0.584,0.466,0.839c0.259,0.206,0.606,0.335,0.989,0.426c0.99,0.229,2.022,0.178,3.062,0.021
			c0.151-0.021,0.269-0.067,0.356-0.125c1.009,0.1,1.901-0.179,2.732-0.584c0.23,0.138,0.612,0.172,0.896,0.053
			C72.325,124.823,73.748,124.849,73.794,124.241z M70.878,123.294c-0.294,0.006-0.588,0.012-0.879,0.002
			c-0.236-0.009-0.447-0.033-0.678-0.063c-0.08-0.009-0.115-0.003-0.131,0c0.012-0.005,0.025-0.021,0.035-0.059
			c0.031-0.115,0.006-0.21-0.059-0.282c0.018-0.003,0.037-0.007,0.055-0.011c0.141-0.022,0.678-0.075,0.561-0.073
			c0.021-0.002,0.039,0,0.061-0.002c0.244,0.083,0.48,0.186,0.717,0.293C70.653,123.181,70.763,123.243,70.878,123.294z"/>
		<polygon fill="#C2E8E8" points="63.496,120.688 65.138,120.942 64.468,124.693 62.485,124.26 		"/>
		<path fill="#231F20" d="M51.498,142.323c-0.585-2.616-16.524-3.939-16.935-6.006c-0.127-0.646,0.084-1.307,0.69-1.617
			c-0.276-2.062-0.432-4.13-0.364-6.232c0.049-1.555,2.6-1.627,2.551-0.062c-0.016,0.472-0.018,0.938-0.011,1.404
			c0.001-0.008,0.003-0.017,0.005-0.021c0.171-0.866,0.262-1.721,0.203-2.604c-0.022-0.312,0.063-0.563,0.215-0.753
			c0.02-0.713,0.607-1.408,1.532-1.15c0.646,0.181,1.276,0.389,1.894,0.625c0.395-0.849,2-1.033,2.436,0.116
			c0.016,0.037,0.028,0.076,0.04,0.112c0.431,1.201,0.479,2.496,0.568,3.753c4.745,3.634,13.832,3.37,14.149,5.976
			C59.534,144.563,54.093,141.937,51.498,142.323z"/>
		<path fill="#231F20" d="M52.451,141.65c2.265-1.644,4.394-3.554,6.021-5.785c2.821,7.22,10.481,27.559,10.224,28.233
			c-0.357,0.937-1.091,1.754-1.767,2.502c-1.399,1.548-3.131,1.308-5.067,2.164c-0.654,0.289-8.021-20.22-10.362-26.44
			C51.817,142.101,52.138,141.878,52.451,141.65z"/>
		<path fill="#F0C185" d="M33.665,96.531c0.046,0.862,0.338,1.585,1.088,1.952c0.85,0.416,1.924,0.792,2.891,0.817
			c1.555,0.049,4.109-0.364,4.052-2.09c-0.007-0.207-0.027-0.97-0.063-1.896c-0.029-0.77-0.069-1.647-0.12-2.414
			c-0.071-1.04-0.163-1.866-0.281-1.912c-0.592-0.235-1.398-0.104-1.814,0.345c-0.124,0.02-0.244,0.051-0.359,0.094
			c-0.223,0.087-0.422,0.226-0.576,0.416l-0.027,0.003c-0.165-0.063-0.344-0.095-0.525-0.103c-0.335-0.286-0.809-0.402-1.25-0.334
			c-0.433-0.179-0.96-0.187-1.367,0.012c0.089-0.043-0.027-0.354-0.191-0.483c-0.14,0.72-0.297,1.438-0.471,2.15
			C34.37,94.248,34.046,95.4,33.665,96.531z"/>
		<path fill="#E2A971" d="M34.649,93.09c2.521,3.944,5.711,2.882,6.983,2.229c-0.029-0.77-0.069-1.647-0.12-2.414
			c-0.262-0.17-1.254-0.806-2.455-1.475c-0.223,0.086-0.422,0.225-0.576,0.415l-0.027,0.003c-0.165-0.063-0.344-0.095-0.525-0.103
			c-0.335-0.286-0.809-0.402-1.25-0.334c-0.433-0.179-0.96-0.187-1.367,0.012c0.089-0.043-0.027-0.354-0.191-0.483
			C34.98,91.657,34.823,92.376,34.649,93.09z"/>
		<path fill="#2D2D2D" d="M42.638,147.549c0.406-0.146,0.813-0.296,1.217-0.449c2.588-0.994,5.102-2.199,7.482-3.602
			c4.799,9.646,10.346,20.612,13.238,25.455c0.33,0.554-4.909,3.795-7.023,3.924c-1.059,0.065-1.596-1.157-2.016-2.021
			C54.861,169.471,48.61,158.073,42.638,147.549z"/>
		<path fill="#2D2D2D" d="M39.747,133.135c-0.102,1.289,2.954,3.118,1.886,3.739c0.007,0.717,9.731,4.688,9.704,6.624
			c-0.785,4.051-7.802,3.825-8.699,4.051c-16.713-4.427-15.674-8.949-15.871-10.073c-0.4-2.302,0.373-4.667,0.789-6.968
			c0.176-0.97,0.422-2.234,1.121-2.966c-0.001-0.051-0.001-0.103-0.004-0.149c-0.007-0.15-0.015-0.302-0.025-0.449
			c-0.022-0.33,0.07-0.6,0.229-0.8c0.021-0.753,0.646-1.489,1.622-1.219c2.447,0.683,4.712,1.735,6.703,3.226
			c0.214-1.414,2.648-1.396,2.685,0.175c0.028,1.197-0.033,2.418-0.242,3.601C39.64,132.88,39.823,132.184,39.747,133.135z"/>
		<path fill="#231F20" d="M26.732,134.851c0,0,13.16,3.041,17.722-0.624c2.221-1.784-8.74-5.712-8.74-5.712l-8.158,1.992
			L26.732,134.851z"/>
		<path fill="#C2E8E8" d="M42.452,96.233c-0.127,0.042-0.252,0.095-0.377,0.158c-0.245,0.13-0.355,0.323-0.369,0.522
			c-0.433,0.599-1.359,1.281-3.34,1.385c-3.613,0.185-4.701-1.771-4.701-1.771l-0.084,0.052c-0.158-0.088-0.357-0.115-0.585-0.045
			c-1.603,0.504-3.403,0.688-5.005,1.313c-0.026,0.011-0.053,0.021-0.078,0.032c-0.416,0.112-0.828,0.247-1.238,0.392
			c-0.893,0.314,2.363,12.826,2.326,13.475c-0.111,1.877-0.311,3.752-0.476,5.625c-0.187,2.121-0.282,4.255-0.526,6.365
			c-0.054,0.46-0.104,0.922-0.114,1.383c-0.214,0.854-0.236,3.073,0.04,3.948c0.243,0.766,0.671,0.19,1.239,0.759
			c0.526,0.526,6.378,1.184,8.948,1.346c2.539,0.16,5.229,0.521,6.996-1.28c1.019-1.037,1.777-1.171,2.109-2.552
			c0.403-1.688-0.852-12.477-0.855-13.297c-0.01-1.592-0.131-3.33,0.104-4.96C46.454,105.027,48.919,96.078,42.452,96.233z"/>
		<path fill="#2D2D2D" d="M31.505,96.925c0,0,6.945,14.035,6.977,15.207c0.027,1.025,1.418,15.729,1.764,19.375
			c0.041,0.435-0.326,3.251-0.785,3.232c-2.594-0.087-11.004,0.057-12.663-1.275c0.442-6.772,0.905-22.239,0.905-22.239
			s-4.552-12.408-2.828-12.908C29.657,96.926,31.505,96.925,31.505,96.925z"/>
		<path fill="#231F20" d="M37.971,110.27l-4.975-13.732l-3.339,0.39c-0.254,0.063-0.384,0.331-0.266,0.555l9.363,17.664
			l-0.285-2.762C38.463,111.652,38.292,110.933,37.971,110.27z"/>
		<path fill="#2D2D2D" d="M42.452,96.233c0,0,4.51,0.371,6.332,2.877c1.824,2.507,4.588,18.358,4.588,18.358l10.686,2.354
			l-0.697,5.85c0,0-13.707-1.893-14.77-3.082c-1.062-1.188-1.98-7.909-1.98-7.909l1.054,17.583c0,0-5.03,3.181-5.675,1.975
			c-0.645-1.21-1.254-22.232-1.254-22.232L42.452,96.233z"/>
		<path fill="#231F20" d="M40.799,114.441l-0.081-3.02l1.734-15.188c0,0,2.136,0.009,3.523,0.585
			C44.569,101.972,40.799,114.441,40.799,114.441z"/>
		<polygon fill="#6EC0C3" points="39.337,98.275 34.09,95.183 32.996,96.536 37.778,100.541 		"/>
		<polygon fill="#6EC0C3" points="39.337,98.275 40.648,100.219 42.452,96.233 41.878,95.312 		"/>
		<g>
			<g>
				<path fill="#843817" d="M31.412,75.962c1.251-1.051,3.02-1.776,4.428-0.563c0.672,0.579-0.299,1.549-0.969,0.97
					c-0.562-0.482-1.3-0.313-1.93,0.105c0.312,0.101,0.559,0.379,0.456,0.771c-0.254,0.962-0.771,1.836-0.91,2.83
					c-0.059,0.414-0.413,0.549-0.747,0.479c0.143,0.652,0.341,1.297,0.494,1.887c0.354,1.354,0.735,2.824,1.499,4.027
					c0.266,0.417,0.548,0.826,0.811,1.246c0.174,0.276,0.484,0.67,0.451,1.014c-0.079,0.813-1.382,0.886-1.408,0.128
					c0.002,0.005,0.004-0.005-0.001-0.023c0-0.022,0.001-0.045,0.003-0.067c-0.003,0.029-0.004,0.051-0.004,0.065
					c-0.002-0.015-0.008-0.03-0.02-0.049c-0.055-0.104-0.119-0.205-0.182-0.306c-0.17-0.272-0.35-0.541-0.525-0.812
					c-0.305-0.463-0.593-0.916-0.814-1.422c-0.85-1.927-1.373-4.002-1.752-6.056C30.018,78.702,30.147,77.028,31.412,75.962z"/>
				<path fill="#843817" d="M33.587,88.857c0-0.003-0.001-0.007-0.002-0.018C33.585,88.847,33.587,88.852,33.587,88.857z"/>
			</g>
			<polygon fill="#843817" points="33.585,88.841 33.585,88.831 33.586,88.833 			"/>
		</g>
		<path fill="#F0C185" d="M33.39,87.715c-0.227-0.614-0.695-0.479-1.069-0.818c-0.722-0.653-1.264-1.993-0.858-2.896
			c0.325-0.725,1.018-1.266,1.883-1.122c0.045,0.007,0.088,0.018,0.132,0.028c-0.054-0.378-0.14-0.753-0.282-1.135
			c-0.014-0.436-0.018-0.863-0.019-1.29c0.092-0.188,0.184-0.381,0.293-0.562c0.593-0.984,2.179-1.398,3.314-1.489
			c2.841-0.228,5.88,1.135,8.529-0.349c0.048,0.129,0.09,0.261,0.125,0.396c0.369,2.299-0.229,4.78-0.476,7.041
			c-0.063,0.596-0.101,1.188-0.144,1.78c-0.083,0.565-0.15,1.132-0.172,1.701c0,0.003,0,0.004,0,0.008
			c-0.156,1.075-0.443,2.113-1.07,3.08c-0.111,0.445-0.279,0.873-0.495,1.221c-0.646,1.042-1.956,1.146-3.1,1.173
			c-1.099,0.022-2.261,0.015-3.106-0.752c-0.807-0.729-1.555-1.713-2.188-2.583C33.933,90.107,33.823,88.903,33.39,87.715z"/>
		<polygon fill="#231F20" points="42.638,137.646 39.788,141.214 33.12,135.829 41.633,136.874 		"/>
		<path fill="#843817" d="M32.559,80.112c0.133-0.314,0.424-0.586,0.743-0.679c0.639-0.184,1.161,0.184,1.403,0.714
			c0.696,1.521-0.059,2.692-0.678,3.964c-0.373,0.765,0,1.097,0.141,1.793c0.049,0.239-0.193,1.495-0.794,0.805
			c-0.382-0.44-0.759-0.965-0.927-1.465c-0.408-1.209-1.957-5.334-1.957-5.334L32.559,80.112z"/>
		<polygon fill="#6EC0C3" points="39.337,98.275 40.894,131.311 40.245,131.507 38.755,98.664 		"/>
		<path fill="#F0C185" d="M41.215,138.352c0.013-0.703,0.403-1.419,1.131-1.503c1.584-0.187,3.467,0.14,5.006,0.483
			c0.541,0.122,1.426,0.015,1.836,0.198c1.209,0.272,1.925,1.017,2.744,1.674c0.967,0.772,0.955,1.63,1.437,2.531
			c0.084,0.115,0.157,0.232,0.217,0.356c0.152,0.317-0.347,0.57-0.756,0.532c0.011,0.002-0.17,0.219-0.19,0.232
			c-0.183,0.124-0.156,0.095-0.428,0.115c-0.438,0.036-1.013-0.104-1.404-0.218c0.768,0.222-0.328,1.146-0.941,0.533
			c-1.068-1.068-2.67-0.842-4.045-1.321c-1.168-0.407-3.842-1.66-4.426-2.796C41.268,138.932,41.21,138.643,41.215,138.352z"/>
		<polygon fill="#C2E8E8" points="42.556,135.754 43.907,136.673 41.556,139.751 39.981,138.532 		"/>
		<path fill="#2D2D2D" d="M24.47,98.571c0,0-3.117,4.823,0.014,24.912c0.362,2.319,15.342,16.406,15.342,16.406l4.094-5.149
			l-12.596-13.118l-2.643-12.715L24.47,98.571z"/>
		<polygon fill="#231F20" points="28.681,108.907 32.366,121.622 39.825,130.51 31.323,122.257 		"/>
		<path fill="#843817" d="M48.653,75.37c-1.039-0.056-2.059-0.218-3.066-0.431c-1.242-1.845-3.199-3.229-5.574-3.354
			c-1.58-0.084-3.293,0.346-4.224,1.438c-0.849,0.003-1.685,0.101-2.47,0.336c-3.363,1.018-5.043,4.661-4.637,7.818
			c0.248,1.938,1.234,3.624,2.916,4.76c0.787,0.531,1.692-0.483,1.266-1.202c-0.316-0.53-0.699-1.205-1.035-1.94
			c0.389-0.013,0.777-0.229,0.893-0.627c0.021-0.075,0.043-0.149,0.064-0.226c0.417-0.041,0.779-0.317,0.726-0.835
			c-0.014-0.129-0.021-0.255-0.02-0.384c0.003-0.185,0.003-0.102,0.021-0.191c0.006-0.027,0.039-0.131,0.055-0.182
			c-0.004,0.038,0.143-0.202,0.091-0.152c0.243-0.281,0.499-0.388,0.837-0.49c1.171-0.358,2.425-0.349,3.673-0.343
			c2.808,0.015,5.911,0.453,8.637-0.368c1.301-0.394,2.428-1.197,2.74-2.516C49.683,75.903,49.271,75.403,48.653,75.37z
			 M46.874,77.094c0.006-0.048,0.01-0.097,0.008-0.146c0.067,0.012,0.135,0.021,0.201,0.029
			C47.013,77.021,46.942,77.06,46.874,77.094z"/>
	</g>
	<rect x="44.931" y="123.84" fill="#843817" width="73.49" height="5.27"/>
	<rect x="48.718" y="128.769" fill="#66240F" width="65.918" height="3.435"/>
	<polygon fill="#843817" points="114.324,172.064 117.716,172.064 109.951,132.202 103.976,132.202 	"/>
	<polygon fill="#843817" points="49.001,172.064 45.61,172.064 53.374,132.202 59.353,132.202 	"/>
	<g>
		<polygon fill="#6EC0C3" points="59.146,57.446 54.22,53.995 59.362,52.212 		"/>
		<path fill="#6EC0C3" d="M62.251,47.29c0.566,3.963-2.355,7.611-6.527,8.149c-4.17,0.535-8.008-2.24-8.574-6.205
			c-0.565-3.963,2.357-7.61,6.527-8.149C57.847,40.55,61.685,43.327,62.251,47.29z"/>
		<g>
			<path fill="#FFFFFF" d="M53.761,49.561l-0.065-0.476c-0.054-0.36-0.019-0.675,0.102-0.943c0.119-0.269,0.359-0.545,0.722-0.832
				c0.287-0.229,0.488-0.427,0.604-0.597c0.116-0.168,0.16-0.352,0.132-0.545c-0.021-0.153-0.112-0.269-0.271-0.34
				c-0.162-0.07-0.359-0.093-0.596-0.062c-0.586,0.073-1.24,0.36-1.968,0.854l-1.021-1.396c0.891-0.646,1.859-1.038,2.908-1.175
				c0.864-0.11,1.567-0.018,2.111,0.279c0.544,0.298,0.859,0.758,0.948,1.379c0.063,0.444,0.009,0.847-0.164,1.199
				c-0.172,0.354-0.478,0.708-0.916,1.061c-0.371,0.304-0.601,0.521-0.687,0.648s-0.117,0.271-0.096,0.432l0.04,0.28L53.761,49.561z
				 M53.788,51.525c-0.049-0.338,0.018-0.611,0.199-0.824c0.18-0.209,0.473-0.342,0.875-0.395c0.387-0.05,0.697,0.005,0.932,0.163
				c0.235,0.159,0.375,0.407,0.422,0.741c0.049,0.335-0.021,0.608-0.211,0.82c-0.188,0.213-0.469,0.342-0.841,0.39
				c-0.384,0.051-0.696-0.003-0.94-0.156C53.981,52.11,53.835,51.865,53.788,51.525z"/>
		</g>
	</g>
	<g>
		<polygon fill="#D22940" points="76.063,111.665 75.546,111.358 83.767,98.767 90.962,105.983 93.392,101.621 97.741,107.567 
			100.364,102.58 100.911,102.84 97.827,108.699 93.462,102.733 91.103,106.968 83.868,99.712 		"/>
		<polygon fill="#F8C20F" points="84.927,107.759 79.513,101.358 76.411,106.087 75.892,105.781 79.448,100.357 84.915,106.823 
			92.05,98.033 97.644,100.279 99.854,98.548 100.243,98.995 97.749,100.949 92.244,98.741 		"/>
		<path fill="#231F20" d="M102.493,115.531c-0.012,0-0.021,0-0.033-0.003l-26.705-2.088c-0.211-0.018-0.371-0.186-0.371-0.385
			v-11.707c0-0.216,0.182-0.388,0.403-0.388c0.228,0,0.407,0.172,0.407,0.388V112.7l26.33,2.06c0.226,0.019,0.393,0.203,0.371,0.417
			C102.884,115.378,102.703,115.531,102.493,115.531z"/>
	</g>
</g>
<g>
	<path fill="#C6201E" d="M131.058,70.808l-3.99-0.804c-0.391,0.197-0.803,0.354-1.234,0.463c-2.559,0.64-5.261-0.532-6.425-2.786
		l0.731-0.342c0.99,1.926,3.301,2.928,5.484,2.38c0.412-0.104,0.809-0.258,1.173-0.458l0.138-0.072l2.754,0.554l-1.047-2.305
		l0.078-0.158c0.479-0.964,0.588-2.062,0.303-3.092c-0.467-1.688-1.879-2.95-3.68-3.292l0.156-0.758
		c2.107,0.399,3.762,1.877,4.311,3.853c0.316,1.149,0.22,2.37-0.277,3.459L131.058,70.808z"/>
	<path fill="#C6201E" d="M114.138,68.156l1.524-3.357c-0.497-1.088-0.597-2.309-0.276-3.459c0.781-2.826,3.84-4.521,6.813-3.776l0,0
		c2.978,0.742,4.759,3.647,3.978,6.477c-0.381,1.37-1.299,2.518-2.584,3.23c-1.287,0.713-2.789,0.907-4.23,0.549
		c-0.43-0.107-0.846-0.265-1.233-0.464L114.138,68.156z M118.261,66.537l0.135,0.072c0.367,0.201,0.763,0.355,1.175,0.459
		c2.54,0.636,5.151-0.813,5.819-3.229c0.67-2.416-0.854-4.897-3.396-5.532l0,0c-2.541-0.637-5.152,0.813-5.82,3.229
		c-0.285,1.03-0.179,2.131,0.303,3.092l0.078,0.158l-1.047,2.305L118.261,66.537z"/>
	<g>
		<path fill="#EC4136" d="M120.294,63.013V62.79c0-0.168,0.035-0.313,0.109-0.43c0.07-0.115,0.199-0.229,0.387-0.341
			c0.146-0.088,0.252-0.168,0.314-0.237c0.064-0.07,0.1-0.152,0.1-0.244c0-0.072-0.035-0.129-0.104-0.171s-0.16-0.063-0.271-0.063
			c-0.274,0-0.597,0.092-0.962,0.276l-0.38-0.705c0.452-0.245,0.925-0.368,1.417-0.368c0.404,0,0.724,0.085,0.953,0.253
			c0.229,0.172,0.347,0.4,0.347,0.693c0,0.209-0.051,0.39-0.153,0.543c-0.103,0.151-0.268,0.297-0.49,0.435
			c-0.191,0.116-0.312,0.202-0.358,0.258c-0.05,0.055-0.072,0.118-0.072,0.19v0.134H120.294z M120.179,63.919
			c0-0.158,0.049-0.28,0.146-0.367c0.097-0.086,0.239-0.13,0.429-0.13c0.182,0,0.32,0.044,0.418,0.131
			c0.098,0.088,0.146,0.211,0.146,0.366c0,0.158-0.051,0.279-0.152,0.365c-0.1,0.087-0.236,0.131-0.412,0.131
			c-0.18,0-0.32-0.044-0.422-0.129C120.226,64.2,120.179,64.079,120.179,63.919z"/>
	</g>
</g>
<g>
	<g>
		<path fill="#F79537" d="M34.923,26.837L34.923,26.837c-0.193,1.16-0.912,2.181-1.968,2.791l-7.175,4.156
			c-0.629,0.362-1.447,0.176-1.831-0.423l0,0c-0.383-0.598-0.184-1.377,0.444-1.739l3.773-2.187l-5.211,3.019
			c-0.602,0.349-1.385,0.167-1.752-0.402l0,0c-0.365-0.572-0.176-1.317,0.426-1.666l5.561-3.221l-5.521,3.196
			c-0.623,0.361-1.436,0.176-1.815-0.418l0,0c-0.379-0.592-0.183-1.364,0.44-1.726l5.521-3.198l-4.24,2.457
			c-0.563,0.325-1.299,0.155-1.643-0.38l0,0c-0.344-0.536-0.164-1.235,0.399-1.563l5.901-3.418c0.367-0.211,0.768-0.365,1.189-0.454
			l1.782-0.374c1.758-0.371,3.569,0.362,4.506,1.823l0.649,1.014C34.88,24.938,35.079,25.899,34.923,26.837z"/>
		<path fill="#C6201E" d="M25.09,34.354c-0.588,0-1.161-0.28-1.487-0.791c-0.177-0.274-0.258-0.582-0.254-0.884l-0.182,0.104
			c-0.791,0.459-1.828,0.221-2.31-0.533c-0.233-0.362-0.304-0.793-0.198-1.207c0.011-0.046,0.025-0.09,0.04-0.133
			c-0.042-0.007-0.083-0.017-0.124-0.022c-0.449-0.104-0.828-0.368-1.068-0.742c-0.24-0.375-0.313-0.815-0.203-1.242
			c0.107-0.426,0.385-0.784,0.779-1.014l0.09-0.054c-0.238-0.127-0.441-0.311-0.586-0.538c-0.461-0.717-0.221-1.654,0.533-2.092
			l5.9-3.418c0.406-0.235,0.85-0.404,1.314-0.502l1.781-0.375c1.928-0.405,3.914,0.398,4.942,2.003l0.648,1.01
			c0.569,0.89,0.789,1.944,0.618,2.974l-0.402-0.062l0.402,0.062c-0.213,1.272-1,2.392-2.159,3.062l-7.175,4.156
			C25.71,34.277,25.397,34.354,25.09,34.354z M24.599,31.956c-0.208,0.123-0.354,0.313-0.412,0.54
			c-0.057,0.229-0.018,0.464,0.109,0.665c0.266,0.414,0.836,0.545,1.271,0.293l7.176-4.154c0.955-0.555,1.603-1.473,1.778-2.522
			c0.142-0.846-0.04-1.717-0.509-2.448l-0.648-1.013c-0.847-1.318-2.482-1.981-4.072-1.647l-1.781,0.374
			c-0.378,0.079-0.737,0.218-1.066,0.408l-5.901,3.417c-0.371,0.215-0.489,0.678-0.263,1.03c0.109,0.17,0.283,0.291,0.488,0.338
			c0.203,0.048,0.416,0.017,0.596-0.088l4.24-2.456l0.423,0.66l-5.522,3.196c-0.207,0.12-0.354,0.313-0.411,0.537
			c-0.059,0.227-0.021,0.46,0.107,0.657c0.126,0.197,0.327,0.338,0.564,0.393c0.237,0.056,0.483,0.019,0.691-0.104l5.521-3.197
			l0.423,0.66l-5.561,3.221c-0.197,0.115-0.337,0.295-0.391,0.511c-0.057,0.214-0.02,0.437,0.102,0.624
			c0.249,0.391,0.785,0.513,1.193,0.275l1.428-0.828c0.002-0.002,0.006-0.004,0.01-0.006l3.771-2.186l0.424,0.659L24.599,31.956z"/>
	</g>
	<g>
		<path fill="#F79537" d="M14.817,26.837L14.817,26.837c0.193,1.16,0.913,2.181,1.969,2.791l7.176,4.156
			c0.627,0.362,1.447,0.176,1.83-0.423l0,0c0.382-0.598,0.184-1.377-0.445-1.739l-3.772-2.187l5.21,3.019
			c0.602,0.349,1.386,0.167,1.752-0.402l0,0c0.367-0.572,0.176-1.317-0.425-1.666l-5.561-3.221l5.521,3.196
			c0.623,0.361,1.436,0.176,1.816-0.418l0,0c0.379-0.592,0.182-1.364-0.441-1.726l-5.521-3.198l4.239,2.457
			c0.564,0.325,1.299,0.155,1.643-0.38l0,0c0.344-0.536,0.164-1.235-0.398-1.563l-5.902-3.418c-0.366-0.211-0.768-0.365-1.188-0.454
			l-1.783-0.374c-1.758-0.371-3.57,0.362-4.507,1.823l-0.648,1.014C14.86,24.938,14.661,25.899,14.817,26.837z"/>
		<path fill="#C6201E" d="M24.651,34.354c-0.309,0-0.621-0.077-0.902-0.239l-7.175-4.156c-1.159-0.67-1.946-1.787-2.159-3.062
			c-0.17-1.027,0.049-2.084,0.619-2.974l0.648-1.01c1.027-1.604,3.014-2.408,4.941-2.003l1.783,0.375
			c0.464,0.098,0.905,0.267,1.313,0.502l5.9,3.418c0.754,0.438,0.994,1.375,0.535,2.092c-0.146,0.229-0.349,0.411-0.588,0.538
			l0.091,0.054c0.395,0.229,0.671,0.588,0.78,1.014c0.107,0.427,0.035,0.867-0.204,1.242c-0.272,0.423-0.714,0.688-1.193,0.766
			c0.016,0.043,0.028,0.088,0.04,0.134c0.106,0.414,0.036,0.845-0.197,1.207c-0.483,0.754-1.52,0.992-2.311,0.533l-0.182-0.104
			c0.006,0.302-0.076,0.607-0.254,0.884C25.811,34.073,25.237,34.354,24.651,34.354z M19.626,21.581
			c-1.309,0-2.549,0.644-3.249,1.733l-0.649,1.013c-0.469,0.731-0.649,1.604-0.509,2.448c0.176,1.052,0.823,1.97,1.778,2.522
			l7.176,4.154c0.436,0.252,1.006,0.121,1.271-0.294c0.127-0.2,0.167-0.438,0.109-0.664c-0.059-0.228-0.204-0.417-0.411-0.54
			l-3.78-2.188l0.424-0.659l3.772,2.186c0.003,0.002,0.007,0.004,0.009,0.006l1.43,0.828c0.408,0.235,0.943,0.11,1.191-0.275
			c0.121-0.188,0.157-0.41,0.102-0.624c-0.054-0.213-0.192-0.396-0.391-0.511l-5.561-3.221l0.424-0.66l5.521,3.197
			c0.431,0.25,0.994,0.119,1.257-0.289c0.127-0.197,0.165-0.433,0.107-0.657c-0.057-0.227-0.204-0.417-0.413-0.537l-5.521-3.196
			l0.423-0.66l4.239,2.456c0.18,0.104,0.393,0.136,0.598,0.088c0.204-0.047,0.377-0.168,0.486-0.338
			c0.227-0.354,0.109-0.815-0.263-1.03l-5.901-3.417c-0.329-0.19-0.688-0.329-1.064-0.408l-1.783-0.374
			C20.175,21.608,19.898,21.581,19.626,21.581z"/>
	</g>
	<g>
		<path fill="#F79537" d="M30.567,21.219l-6.767-0.48c-0.888-0.077-1.773,0.16-2.485,0.666l-0.937,0.667
			c-0.553,0.394-0.513,1.189,0.075,1.533l0,0c0.259,0.148,0.576,0.178,0.859,0.072l1.911-0.7c0.155-0.058,0.321-0.075,0.483-0.055
			l3.235,0.423L30.567,21.219z"/>
		<path fill="#C6201E" d="M20.964,24.124c-0.252,0-0.504-0.063-0.723-0.19c-0.391-0.228-0.637-0.623-0.658-1.06
			c-0.021-0.438,0.184-0.854,0.551-1.113l0.938-0.666c0.795-0.563,1.777-0.827,2.767-0.741l6.761,0.479l-0.061,0.771l-6.768-0.48
			c-0.796-0.069-1.578,0.144-2.213,0.593l-0.936,0.665c-0.153,0.108-0.236,0.275-0.227,0.457c0.008,0.184,0.107,0.343,0.271,0.437
			c0.149,0.088,0.337,0.104,0.501,0.045l1.912-0.702c0.217-0.078,0.453-0.104,0.686-0.074l3.234,0.422l-0.111,0.767l-3.234-0.424
			c-0.095-0.013-0.192,0-0.282,0.032l-1.911,0.701C21.3,24.097,21.132,24.124,20.964,24.124z"/>
	</g>
	<g>
		<polygon fill="#F79537" points="13.942,28.997 9.469,27.056 13.922,17.786 18.395,19.726 		"/>
		<path fill="#C6201E" d="M14.143,29.509l-5.214-2.262l4.792-9.975l5.213,2.263L14.143,29.509z M10.007,26.865l3.734,1.62
			l4.115-8.567l-3.732-1.621L10.007,26.865z"/>
	</g>
	<g>
		<polygon fill="#F79537" points="35.71,28.997 40.183,27.056 35.729,17.786 31.256,19.726 		"/>
		<path fill="#C6201E" d="M35.509,29.509l-4.791-9.974l5.213-2.263l4.792,9.975L35.509,29.509z M31.795,19.917l4.116,8.567
			l3.734-1.62l-4.117-8.568L31.795,19.917z"/>
	</g>
</g>
<g>
	<g>
		<ellipse fill="#F79537" cx="99.386" cy="25.573" rx="4.045" ry="3.844"/>
		<path fill="#C6201E" d="M99.386,29.805c-2.453,0-4.451-1.896-4.451-4.23c0-2.332,1.998-4.231,4.451-4.231s4.45,1.899,4.45,4.231
			S101.839,29.805,99.386,29.805z M99.386,22.115c-2.008,0-3.639,1.553-3.639,3.459c0,1.905,1.631,3.459,3.639,3.459
			s3.639-1.554,3.639-3.459C103.022,23.667,101.392,22.115,99.386,22.115z"/>
	</g>
	<g>
		<path fill="#F79537" d="M104.562,35.762H94.206v-1.448c0-2.72,2.316-4.922,5.18-4.922l0,0c2.859,0,5.18,2.202,5.18,4.922v1.448
			H104.562z"/>
		<path fill="#C6201E" d="M104.972,36.149h-11.17v-1.836c0-2.929,2.506-5.31,5.584-5.31c3.08,0,5.586,2.381,5.586,5.31V36.149
			L104.972,36.149z M94.612,35.376h9.545v-1.063c0-2.502-2.145-4.535-4.771-4.535c-2.633,0-4.771,2.033-4.771,4.535L94.612,35.376
			L94.612,35.376z"/>
	</g>
	<g>
		<ellipse fill="#F79537" cx="102.69" cy="29.144" rx="2.629" ry="2.496"/>
		<path fill="#C6201E" d="M102.69,32.027c-1.674,0-3.034-1.295-3.034-2.884c0-1.592,1.36-2.887,3.034-2.887s3.033,1.295,3.033,2.887
			C105.726,30.732,104.364,32.027,102.69,32.027z M102.69,27.032c-1.227,0-2.223,0.946-2.223,2.11s0.996,2.11,2.223,2.11
			s2.223-0.946,2.223-2.11S103.917,27.032,102.69,27.032z"/>
	</g>
	<g>
		<path fill="#F79537" d="M106.058,35.762h-6.729v-0.939c0-1.769,1.506-3.198,3.364-3.198l0,0c1.857,0,3.363,1.432,3.363,3.198
			v0.939H106.058z"/>
		<path fill="#C6201E" d="M106.462,36.149h-7.541v-1.328c0-1.978,1.691-3.584,3.771-3.584s3.771,1.606,3.771,3.584L106.462,36.149
			L106.462,36.149z M99.731,35.376h5.916V34.82c0-1.551-1.326-2.813-2.957-2.813c-1.633,0-2.959,1.263-2.959,2.813V35.376
			L99.731,35.376z"/>
	</g>
</g>
</svg>
