<?xml version="1.0" encoding="utf-8"?>
<!-- Generator: Adobe Illustrator 15.0.0, SVG Export Plug-In . SVG Version: 6.00 Build 0)  -->
<!DOCTYPE svg PUBLIC "-//W3C//DTD SVG 1.1//EN" "http://www.w3.org/Graphics/SVG/1.1/DTD/svg11.dtd">
<svg version="1.1" id="Capa_1" xmlns="http://www.w3.org/2000/svg" xmlns:xlink="http://www.w3.org/1999/xlink" x="0px" y="0px"
	  viewBox="0 0 247.719 163.091" enable-background="new 0 0 247.719 163.091"
	 xml:space="preserve">
<g>
	<g>
		<g>
			<path fill="#FFFFFF" d="M105.578,77.5v6.397V77.5z"/>
			<path fill="#231F20" d="M105.578,84.285c-0.225,0-0.405-0.174-0.405-0.388V77.5c0-0.213,0.182-0.387,0.405-0.387
				c0.226,0,0.406,0.174,0.406,0.387v6.397C105.984,84.111,105.803,84.285,105.578,84.285z"/>
		</g>
		<g>
			<ellipse fill="#FFFFFF" cx="105.578" cy="86.428" rx="2.521" ry="2.397"/>
			<path fill="#231F20" d="M105.578,89.212c-1.614,0-2.93-1.249-2.93-2.782c0-1.536,1.314-2.785,2.93-2.785s2.93,1.249,2.93,2.785
				C108.507,87.963,107.193,89.212,105.578,89.212z M105.578,84.417c-1.168,0-2.115,0.901-2.115,2.013
				c0,1.107,0.947,2.011,2.115,2.011c1.166,0,2.115-0.901,2.115-2.011C107.693,85.318,106.744,84.417,105.578,84.417z"/>
		</g>
		<rect x="52.31" y="3.1" fill="#FFFFFF" width="106.537" height="74.398"/>
		<path fill="#F9F9F9" d="M67.625,5.463c-13.167,0-15.088,46.848-15.314,66.503V3.1h18.735C71.813,4.553,70.958,5.463,67.625,5.463z
			"/>
		<rect x="44.893" y="2" fill="#00386F" width="121.37" height="3.463"/>
		<rect x="64.168" y="63.021" fill="#D1D3D4" width="82.583" height="2.935"/>
		<rect x="64.168" y="68.728" fill="#D1D3D4" width="62.759" height="2.935"/>
		<polygon fill="#D22940" points="64.89,53.912 63.621,52.798 100.066,15.264 121.94,37.88 129.834,27.245 138.828,42.109 
			146.025,31.399 147.479,32.285 138.753,45.276 129.687,30.294 122.117,40.489 100.063,17.687 		"/>
		<polygon fill="#FFC200" points="102.521,41.817 82.009,20.375 66.629,35.486 65.388,34.344 82.049,17.973 102.615,39.474 
			127.224,17.384 140.845,25.236 146.285,21.931 147.218,23.314 140.869,27.172 127.453,19.437 		"/>
		<path fill="#231F20" d="M146.75,58.669H64.168c-0.224,0-0.405-0.173-0.405-0.387V18.64c0-0.214,0.182-0.387,0.405-0.387
			c0.226,0,0.407,0.173,0.407,0.387v39.256h82.176c0.226,0,0.406,0.172,0.406,0.386S146.976,58.669,146.75,58.669z"/>
	</g>
	<path fill="#E6E7E8" d="M38.63,144.933h161.481c9.811,0,19.471,1.379,28.176,4.021l17.783,5.399
		c2.834,0.86,1.787,3.365-1.408,3.365H3.057c-3.201,0-4.243-2.515-1.397-3.369l18.149-5.459
		C28.46,146.292,28.901,144.933,38.63,144.933z"/>
	<g>
		<path fill="#FFFFFF" d="M142.558,121.674l-5.244,29.134L142.558,121.674z"/>
		<path fill="#231F20" d="M137.313,151.193c-0.021,0-0.045-0.002-0.067-0.006c-0.221-0.035-0.371-0.233-0.332-0.444l5.244-29.134
			c0.037-0.211,0.248-0.354,0.469-0.315c0.224,0.035,0.371,0.235,0.332,0.444l-5.243,29.136
			C137.681,151.06,137.509,151.193,137.313,151.193z"/>
	</g>
	<g>
		<path fill="#FFFFFF" d="M164.99,121.674l5.244,29.134L164.99,121.674z"/>
		<path fill="#231F20" d="M170.234,151.193c-0.195,0-0.367-0.133-0.4-0.319l-5.243-29.136c-0.037-0.209,0.108-0.409,0.332-0.444
			c0.221-0.037,0.432,0.104,0.469,0.315l5.244,29.134c0.039,0.211-0.11,0.409-0.332,0.444
			C170.279,151.191,170.257,151.193,170.234,151.193z"/>
	</g>
	<g>
		<path fill="#FFFFFF" d="M141.791,114.052l-7.004,33.014L141.791,114.052z"/>
		<path fill="#231F20" d="M134.787,147.454c-0.025,0-0.055-0.002-0.08-0.009c-0.221-0.043-0.361-0.246-0.316-0.455l7.004-33.014
			c0.043-0.211,0.258-0.347,0.479-0.304c0.221,0.041,0.361,0.246,0.318,0.455l-7.004,33.015
			C135.147,147.327,134.978,147.454,134.787,147.454z"/>
	</g>
	<g>
		<path fill="#FFFFFF" d="M165.757,114.052l7.002,33.014L165.757,114.052z"/>
		<path fill="#231F20" d="M172.759,147.454c-0.188,0-0.358-0.127-0.397-0.312l-7.005-33.015c-0.043-0.209,0.101-0.414,0.318-0.455
			c0.221-0.043,0.437,0.093,0.479,0.304l7.002,33.014c0.045,0.209-0.099,0.412-0.317,0.455
			C172.813,147.452,172.785,147.454,172.759,147.454z"/>
	</g>
	<g>
		<path fill="#FFFFFF" d="M199.257,119.734l-7.004,33.015L199.257,119.734z"/>
		<path fill="#231F20" d="M192.255,153.133c-0.027,0-0.056-0.002-0.082-0.006c-0.222-0.043-0.363-0.246-0.318-0.455l7.005-33.017
			c0.045-0.209,0.258-0.344,0.479-0.303c0.221,0.043,0.361,0.246,0.316,0.455l-7.004,33.016
			C192.613,153.008,192.445,153.133,192.255,153.133z"/>
	</g>
	<g>
		<path fill="#FFFFFF" d="M223.222,119.734l7.004,33.015L223.222,119.734z"/>
		<path fill="#231F20" d="M230.224,153.133c-0.188,0-0.356-0.125-0.396-0.31l-7.004-33.016c-0.045-0.209,0.099-0.412,0.317-0.455
			c0.222-0.041,0.435,0.094,0.479,0.303l7.004,33.017c0.046,0.209-0.1,0.412-0.317,0.455
			C230.279,153.131,230.25,153.133,230.224,153.133z"/>
	</g>
	<path fill="#2D2D2D" d="M136.621,118.118c0,0-0.85,4.147,7.875,4.125c23.113-0.062,25.736,0.87,26.479-4.125
		C163,116.324,136.621,118.118,136.621,118.118z"/>
	<path fill="#2D2D2D" d="M168.277,113.129h-28.959l-0.699-25.876c0-3.062,2.608-5.542,5.83-5.542h18.698
		c3.22,0,5.83,2.48,5.83,5.542L168.277,113.129z"/>
	<path fill="#231F20" d="M168.937,120.051H138.66c-1.125,0-2.037-0.864-2.037-1.935c0,0,2.313-5.786,3.438-5.786h27.477
		c1.125,0,3.438,5.786,3.438,5.786C170.974,119.185,170.062,120.051,168.937,120.051z"/>
	<g>
		<path fill="#00386F" d="M141.478,120.051c0,0-2.092,3.578,18.236,1.591C157.492,114.461,141.478,120.051,141.478,120.051z"/>
		<path fill="#F5C185" d="M165.832,104.767c0.086,0.069,2.574,0.073,2.59,0.073c-0.439-1.063-0.313-0.961-0.846-3.038
			c-0.439-1.722-0.543-2.097-1.801-3.189c-1.016-0.885-1.234-2.61-1.623-4.34c-0.004,0.014-0.008,0.025-0.014,0.039
			c-0.068,0.213-0.141,0.424-0.209,0.637c-0.004,0.013-0.006,0.021-0.01,0.029c-0.025,0.091-0.064,0.217-0.074,0.252
			c-0.051,0.187-0.1,0.388-0.143,0.576c-0.008,0.035-0.063,0.297-0.092,0.437c-0.018,0.125-0.063,0.434-0.07,0.475
			c-0.123,1.044-0.158,0.65-0.242,1.695c-0.027,0.344,0.127,1.438,0.229,1.655C164.313,101.751,164.662,103.824,165.832,104.767z"/>
		<path fill="#F65338" d="M162.324,84.53c-0.113-3.915-1.832-8.377-1.343-12.004c0.398-2.955,0.652-7.257-0.745-9.718
			c-1.486-2.616-4.022-3.082-6.259-3.583c-2.062-0.464-5.366,0.229-7.014,2.154c-1.511,1.769-1.345,4.417-1.533,7.326
			c-0.101,1.526,0.812,5.406,0.931,5.897c-0.035,0.141-0.06,0.288-0.068,0.442c-0.157,2.28-0.057,4.564-0.016,6.849
			c0.034,1.999-0.181,4.115,0.223,6.059c0.662,3.211,2.609,5.103,4.752,5.65c1.438,0.37,2.875,0.257,4.302-0.204
			c1.328-0.43,2.61-1.143,3.944-1.537c0.336-0.1,0.629-0.207,0.886-0.331l-0.22-3.586l0.781,3.241
			c0.823-0.651,1.103-1.714,1.297-3.832C162.328,86.414,162.351,85.47,162.324,84.53z"/>
		<path fill="#F5C185" d="M122.308,105.079c1.299,0.062,2.836,0.271,4.043,0.916c0.106-0.106,0.22-0.226,0.365-0.354
			c0.307-0.271,0.646-0.461,0.567-0.865c-0.035-0.178-0.133-0.364-0.274-0.537c0.034-0.008,0.069-0.012,0.104-0.021
			c0.5-0.112,0.237-0.692-0.263-0.579c-0.188,0.041-0.387,0.045-0.594,0.032c-0.052-0.002-0.099-0.015-0.146-0.026
			c-0.065-0.021-0.136-0.035-0.203-0.043c-0.049-0.009-0.097-0.009-0.14-0.002c-0.055,0.006-0.108,0.006-0.164-0.002
			c-0.153-0.021-0.305-0.041-0.448-0.052c-1.961-0.129-8.388,0.955-6.621,1.662C119.791,105.14,121.043,105.017,122.308,105.079z"/>
		<path fill="#F5C185" d="M151.617,79.785c1.064,0.946,3.398,1.333,4.395-0.026c0.471,0.021,0.957-0.443,0.791-1.17
			c-0.02-0.072-0.033-0.146-0.049-0.218c-0.006-0.121-0.029-0.248-0.078-0.375c-0.078-0.44-0.135-0.888-0.188-1.333
			c-0.021-0.181-0.043-0.359-0.066-0.54c-0.004-0.116-0.004-0.232,0-0.352c0.006-0.264-0.059-0.47-0.156-0.619
			c-0.01-0.036-0.02-0.072-0.025-0.107c-0.018-0.096-0.041-0.188-0.063-0.281c-0.26-0.993-1.285-0.801-1.479,0.005
			c-0.18,0.098-0.336,0.279-0.422,0.564c-0.014,0.048-0.027,0.098-0.039,0.146c-0.055,0.216-0.082,0.44-0.09,0.668
			c-0.004,0.002-0.006,0.002-0.008,0.003c-0.008,0.002-0.016,0.006-0.023,0.01c-0.271-0.185-0.633-0.169-0.877,0.099
			c-0.109-0.047-0.229-0.063-0.35-0.043c-0.021-0.047-0.047-0.092-0.076-0.131c-0.021-0.104-0.053-0.195-0.094-0.273
			c-0.326-0.648-1.193-0.41-1.373,0.299c-0.041,0.149-0.047,0.321-0.014,0.51c0.039,0.214,0.063,0.43,0.074,0.647
			c-0.014,0.173-0.025,0.346-0.041,0.52v0.001c-0.023,0.313-0.049,0.622-0.059,0.936C151.236,79.088,151.308,79.508,151.617,79.785z
			"/>
		<path fill="#E2A971" d="M151.334,76.618c0.039,0.214,0.063,0.43,0.074,0.647c-0.014,0.173-0.025,0.346-0.041,0.52v0.001
			c0,0,1.736,3.139,5.309,0.21c-0.021-0.181-0.229-1.692-0.254-1.873c-0.002-0.116-0.002-0.232,0-0.352
			c0.006-0.264-0.059-0.47-0.156-0.619c-0.01-0.036-0.02-0.072-0.025-0.107l-2.002,0.436l-1.518,0.33l-1.373,0.299
			C151.306,76.259,151.3,76.429,151.334,76.618z"/>
		<path fill="#F5C185" d="M147.636,64.461c0.233-0.24,0.537-0.454,0.928-0.629c0.752-0.339,1.964-0.056,2.759-0.22
			c1.356-0.281,3.26-0.881,4.407,0.132c1.068,0.939,0.894,2.44,1.113,3.75c0.047,0.273,0.108,0.543,0.183,0.81
			c0.014-0.013,0.026-0.026,0.036-0.037c0.295-0.271,0.654-0.43,1.066-0.435c0.311-0.004,0.696,0.189,0.768,0.506
			c0.232,1.04-0.295,1.999-1.088,2.699c-0.006,0.006-0.015,0.011-0.021,0.019c0.074,0.439,0.104,0.891,0.062,1.357
			c-0.162,1.624-1.224,2.803-2.336,3.96c-1.024,1.067-2.267,1.292-3.724,0.932c-1.478-0.365-2.219-1.382-2.836-2.637
			c-0.67-1.361-1.291-2.703-1.396-4.219C147.433,68.589,146.181,65.964,147.636,64.461z"/>
		<path fill="#F5C185" d="M142.062,92.68c-0.348,0.455-0.688,0.914-1.014,1.382c-1.056,1.502-1.574,3.149-3.438,3.821
			c-2.052,0.74-4.05,1.601-5.974,2.603c-1.994,1.035-4.345,2.185-5.904,3.791c-0.383,0.396-0.467,0.343-0.479,0.867
			c-0.031,1.558,3.215,0.084,4.117-0.176c1.619-0.466,3.227-0.968,4.816-1.509c0.379-0.129,0.77-0.258,1.166-0.39
			c1.898-0.629,3.926-1.338,5.363-2.606c1.123-0.989,2.178-2.082,3.271-3.118C143.181,95.883,142.459,94.298,142.062,92.68z"/>
		<path fill="#F5C185" d="M145.925,84.017c0.043-1.229-0.041-2.458-0.33-3.698c0.512-0.189,1.063-0.317,1.617-0.425
			c0.266-0.049,0.53-0.095,0.795-0.141c0.575-0.1,1.144-0.193,1.664-0.334c0.799-0.216,1.471-0.391,2.254-0.019
			c0.44,0.207,0.868,0.478,1.356,0.529c0.879,0.093,1.328-0.489,2.008-0.854c0.281-0.151,0.558-0.226,0.849-0.257
			c0.646-0.067,1.422,0.492,2.01,0.707c0.753,0.274,1.519,0.521,2.285,0.759c0.015,0.004,0.026,0.008,0.041,0.012
			c0.293,0.095,0.588,0.186,0.881,0.273c0.287,0.091,0.572,0.18,0.859,0.269c0.123,0.038,0.237,0.081,0.342,0.129
			c0.521,0.226,0.821,0.559,0.937,1.169c0.049,0.268,0.056,0.533,0.035,0.798c-0.082,0.052-0.16,0.113-0.224,0.189
			c-0.5,0.588-0.765,1.223-0.938,1.896c0.015,0.117,0.008,0.243-0.024,0.376c-0.146,0.59-0.313,1.185-0.384,1.788
			c-0.049,0.414-0.262,0.751-0.625,0.905c-0.125,0.055-0.269,0.086-0.426,0.093c-0.425,0.02-0.847,0.003-1.263-0.026
			c-0.598-0.046-1.188-0.125-1.784-0.202c-0.146-0.019-0.294-0.036-0.438-0.052c-0.267-0.027-0.531-0.049-0.798-0.065
			c-0.032,0.112-0.106,0.226-0.229,0.325c-1.979,1.599-4.838,1.829-6.75,0.003c-0.119-0.115-0.188-0.238-0.215-0.359
			c-0.274-0.013-0.549-0.028-0.822-0.051c-0.295,0.266-0.729,0.369-1.186,0.104c-0.738-0.437-1.335-1.245-1.576-2.107
			c-0.142-0.498-0.162-1.014-0.024-1.482C145.843,84.173,145.88,84.091,145.925,84.017z"/>
		<path fill="#004A8E" d="M161.882,104.177c-0.66-1.941-1.615-4.052-1.445-5.968c0.063-0.739,0.279-1.437,0.543-2.116
			c0.125-0.324,0.261-0.646,0.396-0.97c0.095,0.229,0.19,0.462,0.287,0.689c0.58,1.367,2.172,6.126,2.494,7.583
			c0.049,0.224,1.553,0.11,2.494-0.037c0.278-0.045,0.596-0.096,0.913-0.198c0.884-0.285,0.244-4.472-0.008-5.326
			c-0.295-0.996-0.668-1.994-0.869-2.991c-0.457-2.258-0.521-4.496-0.694-6.781c-0.166-2.131-0.444-4.549-1.769-6.354
			c-0.838-1.146-6.567-0.356-11.278-0.563c-3.574-0.155-6.414-1.46-6.929-1.288c-1.703,0.568-2.547,1.938-3.201,3.456
			c-0.643,1.493-1.014,3.063-1.479,4.608c-0.653,2.149-0.674,4.452-1.465,6.559c-0.366,0.979-14.207,8.146-13.66,9.119
			c0.479,0.853,1.021,1.813,1.673,2.543c0.517,0.575,15.172-6.197,15.565-6.697c0.653-0.819,1.106-1.75,1.479-2.719
			c0.164-0.435,0.313-0.879,0.455-1.326c0.156,0.257,0.307,0.513,0.43,0.779c0.197,0.425,0.332,0.879,0.338,1.399
			c0.014,1.526-0.678,2.985-1.104,4.437c-0.674,2.276-1.771,5.067-1.742,7.457c0,0.194,0.021,0.358,0.08,0.465
			c0.041,0.084,0.086,0.162,0.135,0.242c0.754,1.182,2.238,1.518,3.549,1.842c4.057,1.004,8.545,2.121,12.684,0.869
			c1.467-0.443,3.041-1.148,3.445-2.693c0.35-1.323-0.615-3.521-0.949-4.823C162.146,104.984,162.021,104.586,161.882,104.177z"/>
		<path fill="#00386F" d="M146.775,95.774c-0.433,0.021-0.742,0.186-0.964,0.405c-0.123-0.269-0.271-0.522-0.43-0.779
			c-0.144,0.447-0.291,0.894-0.455,1.326c-0.658-1.655-1.904-5.523-0.062-7.279C143.117,93.476,146.775,95.774,146.775,95.774z"/>
		<path fill="#00386F" d="M158.951,96.374c0,0,1.254-0.6,2.424-1.248c-0.135,0.322-0.271,0.646-0.396,0.97
			C160.027,96.379,158.951,96.374,158.951,96.374z"/>
		<path fill="#00386F" d="M162.236,95.313c-0.134,0.204-0.334,0.369-0.574,0.502c-0.096-0.229-0.192-0.46-0.287-0.689
			c1.146-0.635,0.089-5.086,0.046-5.271C161.476,90.016,162.923,94.263,162.236,95.313z"/>
		<path fill="#F5C185" d="M154.625,148.618c-0.324-1.246-0.746-2.459-1.484-3.576c-0.412-0.567-0.857-0.819-1.271-0.319
			c0.061-0.072-0.809-0.486-1.021-0.336c-0.371,0.264-0.344,1.379-0.385,1.875c-0.121,1.409-0.101,2.866,0.062,4.323
			c-0.015,0.795,0.243,1.662,0.323,2.383c0.047,0.438,0.158,0.937,0.558,1.216c0.123,0.086,0.248,0.133,0.367,0.146
			c0.317,0.514,0.903,0.655,1.396,0.282c0.215,0.119,0.452,0.164,0.717,0.052c0.252-0.106,0.408-0.33,0.545-0.562
			c0.181,0.063,0.367,0.084,0.563-0.006c0.308-0.136,0.481-0.474,0.529-0.773c0.122-0.778-0.148-1.534-0.326-2.284
			C155.007,150.226,154.834,149.415,154.625,148.618z"/>
		<path fill="#F5C185" d="M160.531,149.027c-0.024-0.176-0.06-0.346-0.103-0.51c-0.394-1.511-0.933-2.978-1.601-4.354
			c-0.224-0.459-0.608-1.524-1.06-1.677c-0.256-0.086-0.926,0.543-0.844,0.597c-0.574-0.362-0.902-0.004-1.082,0.647
			c-0.313,1.142-0.175,3.179-0.095,3.804c0.027,0.219,0.062,0.442,0.101,0.668c0.074,0.584,0.229,1.155,0.377,1.733
			c0.151,0.599,0.222,1.205,0.361,1.803c0.09,0.375,0.209,0.859,0.592,1.062c0.313,0.164,0.584,0.074,0.803-0.108
			c0.188,0.192,0.4,0.332,0.761,0.291c0.235-0.026,0.405-0.121,0.526-0.258c0.224-0.062,0.42-0.193,0.588-0.379
			c0.236-0.16,0.427-0.423,0.519-0.72c0.404-0.162,0.537-0.69,0.496-1.188C160.83,149.967,160.714,149.484,160.531,149.027z"/>
		<path fill="#E2A971" d="M144.791,119.429c0,0,2.66-1.072,4.438-1.076c1.775,0,4.021,0.201,4.021,0.201l-3.43,3.313
			L144.791,119.429z"/>
		<path fill="#F5C185" d="M157.923,127.668c-0.31-3.231,0.131-8.638-4.675-9.112c-1.055-0.104-2.058-0.433-3.272-0.017
			c-0.608,0.998,0,4.049,0.281,5.237c0.793,3.359,1.616,6.697,2.282,10.088c0.233,1.197,0.636,2.345,1.065,3.482
			c0.582,1.922,1.211,3.827,1.767,5.76c0.021,0.131,0.054,0.248,0.101,0.353c0.127,0.451,0.252,0.903,0.367,1.358
			c0.153,0.599,0.862,0.867,1.409,0.746c0.632-0.137,0.964-0.694,0.968-1.308c0.002-0.219,0.002-0.438,0.002-0.655
			c0.164-0.209,0.264-0.481,0.248-0.818C158.242,137.749,158.404,132.687,157.923,127.668z"/>
		<path fill="#F5C185" d="M153.197,144.793c0.004-0.114-0.013-0.235-0.043-0.362c-0.233-2.002-0.39-4.007-0.595-6.007
			c-0.039-1.219-0.11-2.435-0.356-3.633c-0.692-3.394-1.219-6.797-1.782-10.209c-0.47-2.84-0.843-5.162-4.459-5.33
			c-0.945-0.043-2.193,0.765-2.681,1.256c-0.481,0.481-0.09,3.414,0.164,4.83c0.348,1.947,0.825,3.873,1.409,5.769
			c1.49,4.83,3.589,9.455,5.322,14.203c0.114,0.313,0.313,0.53,0.543,0.662c0.086,0.202,0.17,0.403,0.256,0.606
			c0.238,0.563,0.761,0.954,1.394,0.842c0.554-0.099,1.103-0.614,1.015-1.228C153.313,145.726,153.253,145.26,153.197,144.793z"/>
		<path fill="#231F20" d="M156.652,153.64c-0.979-1.302-1.089-3.392-0.769-4.808c0.551,0.864,0.851,2.063,2.116,2.188
			c1.06,0.106,1.981-0.562,2.25-1.526c0.119-0.438,0.109-0.896,0.024-1.339c-0.071-0.387-0.174-0.768-0.282-1.137
			c0.801,0.836,1.104,2.019,1.276,3.104c0.158,1.008,0.363,2.231,0.056,3.228c-0.476,1.519-2.3,1.846-3.668,1.146
			C157.25,154.292,156.918,153.995,156.652,153.64z"/>
		<path fill="#231F20" d="M156.283,154.511c0.338-1.568-0.461-3.519-1.358-4.688c-0.134,1.005,0.108,2.212-0.994,2.82
			c-0.92,0.508-2.051,0.256-2.709-0.524c-0.297-0.354-0.483-0.774-0.599-1.212c-0.098-0.381-0.17-0.768-0.229-1.146
			c-0.371,1.071-0.144,2.271,0.168,3.331c0.287,0.979,0.623,2.179,1.332,2.966c1.084,1.203,2.892,0.797,3.841-0.373
			C156.015,155.336,156.19,154.937,156.283,154.511z"/>
		<path fill="#F5C185" d="M168.095,103.72c-0.683-0.576-1.869-0.361-2.662-0.207c-0.746,0.146-1.045,0.709-1.125,1.594
			c-0.053,0.599,0.701,0.654,0.754,0.056c0.009-0.078,0.017-0.147,0.025-0.211c0.024,0.202,0.188,0.379,0.35,0.413
			c0.748,0.171,1.701,0.479,2.457,0.128C168.574,105.177,168.668,104.209,168.095,103.72z"/>
		<path fill="#004A8E" d="M162.709,114.047c1.549-3.733,2.354-7.438-3.352-7.606c-0.094-0.008-0.188-0.01-0.279-0.008
			c-0.863-0.007-1.773,0.063-2.633,0.104c-2.457,0.125-4.957,0.024-7.418,0.135c-0.578,0.024-1.152,0.048-1.684,0.115
			c-3.469,0.446-5.488,2.594-5.938,5.754c-0.265,1.866-0.832,6.539,0.137,8.192c1.279,2.181,1.941-4.543,14.104-1.682
			c0.617,0.145,4.076,2.952,4.063,2.588C159.668,120.172,161.668,116.56,162.709,114.047z"/>
	</g>
	<g>
		<polygon fill="#70C6C5" points="208.283,49.677 203.888,45.627 209.236,44.516 		"/>
		<ellipse fill="#70C6C5" cx="205.174" cy="40.009" rx="7.619" ry="7.241"/>
		<g>
			<path fill="#FFFFFF" d="M204.007,41.177v-0.479c0-0.364,0.077-0.672,0.233-0.923c0.155-0.25,0.435-0.494,0.832-0.732
				c0.315-0.188,0.545-0.359,0.685-0.513c0.139-0.152,0.207-0.326,0.207-0.523c0-0.155-0.074-0.278-0.222-0.37
				c-0.149-0.092-0.345-0.137-0.582-0.137c-0.59,0-1.278,0.197-2.067,0.597l-0.813-1.517c0.974-0.526,1.987-0.791,3.049-0.791
				c0.871,0,1.556,0.183,2.052,0.546c0.495,0.363,0.743,0.859,0.743,1.486c0,0.45-0.108,0.84-0.33,1.168
				c-0.221,0.329-0.573,0.641-1.059,0.935c-0.41,0.252-0.669,0.438-0.771,0.555c-0.104,0.117-0.154,0.255-0.154,0.416v0.284
				L204.007,41.177L204.007,41.177z M203.755,43.127c0-0.341,0.104-0.604,0.313-0.791c0.207-0.188,0.516-0.278,0.924-0.278
				c0.392,0,0.688,0.094,0.897,0.281s0.313,0.45,0.313,0.788s-0.106,0.601-0.323,0.786c-0.218,0.187-0.515,0.278-0.888,0.278
				c-0.39,0-0.69-0.091-0.91-0.274C203.863,43.732,203.755,43.469,203.755,43.127z"/>
		</g>
	</g>
	<g>
		<polygon fill="#70C6C5" points="165.179,58.278 169.574,54.229 164.226,53.119 		"/>
		<ellipse fill="#70C6C5" cx="168.287" cy="48.61" rx="7.619" ry="7.243"/>
		<g>
			<path fill="#FFFFFF" d="M169.084,49.778h-1.936l-0.299-5.271h2.533L169.084,49.778z M166.873,51.729
				c0-0.338,0.105-0.602,0.316-0.789c0.211-0.187,0.52-0.28,0.92-0.28s0.701,0.094,0.906,0.28c0.207,0.188,0.309,0.451,0.309,0.789
				c0,0.334-0.104,0.597-0.318,0.783s-0.512,0.28-0.896,0.28c-0.387,0-0.688-0.095-0.908-0.28
				C166.982,52.326,166.873,52.063,166.873,51.729z"/>
		</g>
	</g>
	<g>
		<path fill="#FFFFFF" d="M65.597,121.674l5.245,29.134L65.597,121.674z"/>
		<path fill="#231F20" d="M70.842,151.193c-0.194,0-0.366-0.133-0.4-0.319l-5.244-29.136c-0.038-0.209,0.111-0.409,0.333-0.444
			c0.221-0.037,0.432,0.104,0.469,0.315l5.244,29.134c0.038,0.211-0.109,0.409-0.332,0.444
			C70.888,151.191,70.865,151.193,70.842,151.193z"/>
	</g>
	<g>
		<path fill="#FFFFFF" d="M43.166,121.674l-5.244,29.133L43.166,121.674z"/>
		<path fill="#231F20" d="M37.922,151.193c-0.022,0-0.046-0.002-0.069-0.006c-0.221-0.035-0.37-0.233-0.332-0.444l5.244-29.134
			c0.039-0.211,0.248-0.354,0.469-0.315c0.222,0.035,0.371,0.235,0.333,0.444l-5.244,29.136
			C38.289,151.06,38.117,151.193,37.922,151.193z"/>
	</g>
	<g>
		<path fill="#FFFFFF" d="M66.365,114.052l7.003,33.014L66.365,114.052z"/>
		<path fill="#231F20" d="M73.367,147.454c-0.188,0-0.358-0.127-0.396-0.312l-7.004-33.015c-0.044-0.209,0.098-0.414,0.317-0.455
			c0.221-0.043,0.435,0.093,0.479,0.304l7.003,33.014c0.044,0.209-0.099,0.412-0.318,0.455
			C73.421,147.452,73.395,147.454,73.367,147.454z"/>
	</g>
	<g>
		<path fill="#FFFFFF" d="M42.4,114.052l-7.003,33.014L42.4,114.052z"/>
		<path fill="#231F20" d="M35.396,147.454c-0.027,0-0.054-0.002-0.081-0.009c-0.22-0.043-0.363-0.246-0.318-0.455L42,113.976
			c0.046-0.211,0.26-0.347,0.479-0.304c0.221,0.041,0.362,0.246,0.318,0.455l-7.003,33.015
			C35.756,147.327,35.585,147.454,35.396,147.454z"/>
	</g>
	<path fill="#2D2D2D" d="M71.534,118.118c0,0,0.851,4.147-7.875,4.125c-23.112-0.062-25.735,0.87-26.476-4.125
		C45.155,116.324,71.534,118.118,71.534,118.118z"/>
	<path fill="#2D2D2D" d="M39.877,113.129h28.96l0.7-25.876c0-3.062-2.61-5.542-5.831-5.542H45.009c-3.221,0-5.831,2.48-5.831,5.542
		L39.877,113.129z"/>
	<path fill="#231F20" d="M39.218,120.051h30.278c1.125,0,2.037-0.864,2.037-1.935c0,0-2.313-5.786-3.437-5.786H40.618
		c-1.125,0-3.436,5.786-3.436,5.786C37.182,119.185,38.094,120.051,39.218,120.051z"/>
	<g>
		<path fill="#004A8E" d="M64.875,120.508c0,0,0.577-11.142-2.059-13.019c-2.636-1.877-6.953,3.923-6.953,3.923
			s0.837,9.909,2.578,11.375C60.182,124.252,64.875,120.508,64.875,120.508z"/>
		<path fill="#66240E" d="M47.742,78.293c4.842-0.624,9.697-1.146,14.546-1.72c-0.018-0.08-0.413-2.53-0.432-2.61
			c-0.036-0.152-0.082-0.296-0.137-0.429c0.039-0.503,0.324-4.469-0.016-5.965c-0.646-2.85-0.9-5.491-2.675-7.023
			c-1.933-1.67-5.311-1.882-7.274-1.129c-2.129,0.815-4.564,1.639-5.62,4.438c-0.994,2.632-0.063,6.85,0.8,9.714
			C47.158,74.308,47.667,77.469,47.742,78.293z"/>
		<path fill="#F5C185" d="M56.538,79.785c-1.063,0.946-3.397,1.333-4.394-0.026c-0.469,0.021-0.956-0.443-0.791-1.17
			c0.019-0.072,0.033-0.146,0.05-0.218c0.004-0.121,0.028-0.248,0.077-0.375c0.079-0.44,0.133-0.888,0.187-1.333
			c0.022-0.181,0.043-0.359,0.067-0.54c0.003-0.116,0.004-0.232,0.001-0.352c-0.006-0.264,0.056-0.47,0.157-0.619
			c0.008-0.036,0.016-0.072,0.022-0.107c0.021-0.096,0.042-0.188,0.066-0.281c0.256-0.993,1.285-0.801,1.475,0.005
			c0.182,0.098,0.338,0.279,0.424,0.564c0.014,0.048,0.027,0.098,0.038,0.146c0.054,0.216,0.081,0.44,0.09,0.668
			c0.003,0.002,0.006,0.002,0.008,0.003c0.007,0.002,0.014,0.006,0.022,0.01c0.273-0.185,0.634-0.169,0.876,0.099
			c0.112-0.047,0.231-0.063,0.35-0.043c0.021-0.047,0.048-0.092,0.077-0.131c0.021-0.104,0.053-0.195,0.094-0.273
			c0.327-0.648,1.192-0.41,1.373,0.299c0.041,0.149,0.048,0.321,0.012,0.51c-0.039,0.214-0.063,0.43-0.075,0.647
			c0.015,0.173,0.027,0.346,0.042,0.52v0.001c0.025,0.313,0.049,0.622,0.06,0.936C56.92,79.088,56.847,79.508,56.538,79.785z"/>
		<path fill="#E2A971" d="M56.821,76.618c-0.039,0.214-0.063,0.43-0.075,0.647c0.015,0.173,0.027,0.346,0.042,0.52v0.001
			c0,0-1.734,3.139-5.307,0.21c0.022-0.181,0.229-1.692,0.254-1.873c0.003-0.116,0.004-0.232,0.001-0.352
			c-0.006-0.264,0.056-0.47,0.157-0.619c0.008-0.036,0.016-0.072,0.022-0.107l2.003,0.436l1.518,0.33l1.373,0.299
			C56.849,76.259,56.855,76.429,56.821,76.618z"/>
		<path fill="#F5C185" d="M58.853,63.687c-0.271-0.205-0.604-0.372-1.018-0.49c-0.796-0.227-1.949,0.228-2.76,0.178
			c-1.387-0.085-3.361-0.403-4.338,0.761c-0.907,1.08-0.497,2.54-0.508,3.865c-0.002,0.276-0.023,0.553-0.051,0.826
			c-0.016-0.012-0.03-0.021-0.044-0.031c-0.334-0.227-0.713-0.331-1.122-0.276c-0.309,0.041-0.659,0.287-0.68,0.609
			c-0.064,1.062,0.608,1.935,1.501,2.515c0.009,0.005,0.017,0.01,0.024,0.014c-0.004,0.447,0.036,0.896,0.156,1.353
			c0.417,1.582,1.65,2.598,2.934,3.583c1.184,0.909,2.444,0.953,3.828,0.389c1.402-0.572,1.975-1.685,2.386-3.011
			c0.447-1.443,0.851-2.857,0.712-4.37C59.707,67.739,60.531,64.966,58.853,63.687z"/>
		<path fill="#F5C185" d="M62.23,84.017c-0.042-1.229,0.041-2.458,0.331-3.698c-0.513-0.189-1.064-0.317-1.619-0.425
			c-0.265-0.049-0.53-0.095-0.793-0.141c-0.577-0.1-1.143-0.193-1.664-0.334c-0.8-0.216-1.471-0.391-2.255-0.019
			c-0.441,0.207-0.868,0.478-1.357,0.529c-0.879,0.093-1.326-0.489-2.008-0.854c-0.28-0.151-0.555-0.226-0.846-0.257
			c-0.646-0.067-1.423,0.492-2.01,0.707c-0.754,0.274-1.52,0.521-2.286,0.759c-0.015,0.004-0.027,0.008-0.041,0.012
			c-0.292,0.095-0.588,0.186-0.881,0.273c-0.287,0.091-0.573,0.18-0.858,0.269c-0.124,0.038-0.238,0.081-0.344,0.129
			c-0.521,0.226-0.82,0.559-0.935,1.169c-0.05,0.268-0.056,0.533-0.036,0.798c0.083,0.052,0.158,0.113,0.225,0.189
			c0.499,0.588,0.762,1.223,0.938,1.896c-0.015,0.117-0.01,0.243,0.024,0.376c0.147,0.59,0.313,1.185,0.384,1.788
			c0.049,0.414,0.263,0.751,0.625,0.905c0.125,0.055,0.267,0.086,0.426,0.093c0.425,0.02,0.845,0.003,1.263-0.026
			c0.597-0.046,1.188-0.125,1.784-0.202c0.145-0.019,0.292-0.036,0.438-0.052c0.266-0.027,0.532-0.049,0.798-0.065
			c0.034,0.112,0.107,0.226,0.231,0.325c1.977,1.599,4.836,1.829,6.749,0.003c0.12-0.115,0.188-0.238,0.216-0.359
			c0.275-0.013,0.548-0.028,0.823-0.051c0.295,0.266,0.729,0.369,1.185,0.104c0.738-0.437,1.333-1.245,1.576-2.107
			c0.14-0.498,0.162-1.014,0.027-1.482C62.312,84.173,62.275,84.091,62.23,84.017z"/>
		<path fill="#C0FFF7" d="M46.273,104.177c0.661-1.941,1.615-4.052,1.445-5.968c-0.065-0.739-0.28-1.437-0.543-2.116
			c-0.125-0.324-0.261-0.646-0.396-0.97c-0.094,0.229-0.19,0.462-0.288,0.689c-0.58,1.367-2.173,6.126-2.493,7.583
			c-0.05,0.224-1.553,0.11-2.493-0.037c-0.28-0.045-0.597-0.096-0.914-0.198c-0.885-0.285-0.245-4.472,0.007-5.326
			c0.294-0.996,0.667-1.994,0.87-2.991c0.456-2.258,0.519-4.496,0.693-6.781c0.166-2.131,0.445-4.549,1.769-6.354
			c0.837-1.146,6.568-0.356,11.279-0.563c3.574-0.155,6.413-1.46,6.928-1.288c1.703,0.568,2.548,1.938,3.202,3.456
			c0.643,1.493,1.012,3.063,1.479,4.608c0.653,2.149,0.673,4.452,1.464,6.559c0.367,0.979,4.402,8.146,3.855,9.119
			c-0.48,0.853-1.021,1.813-1.672,2.543c-0.516,0.575-5.366-6.197-5.763-6.697c-0.652-0.819-1.105-1.75-1.477-2.719
			c-0.165-0.435-0.314-0.879-0.457-1.326c-0.157,0.257-0.306,0.513-0.43,0.779c-0.196,0.425-0.331,0.879-0.336,1.399
			c-0.016,1.526,0.678,2.985,1.104,4.437c0.671,2.276,1.771,5.067,1.743,7.457c-0.001,0.194-0.023,0.358-0.08,0.465
			c-0.042,0.084-0.086,0.162-0.135,0.242c-0.754,1.182-2.238,1.518-3.549,1.842c-4.056,1.004-8.545,2.121-12.684,0.869
			c-1.466-0.443-3.04-1.148-3.446-2.693c-0.348-1.323,0.616-3.521,0.949-4.823C46.01,104.984,46.136,104.586,46.273,104.177z"/>
		<path fill="#90DDD2" d="M61.381,95.774c0.433,0.021,0.742,0.186,0.962,0.405c0.125-0.269,0.272-0.522,0.429-0.779
			c0.143,0.447,0.292,0.894,0.458,1.326c0.657-1.655,1.904-5.523,0.059-7.279C65.039,93.476,61.381,95.774,61.381,95.774z"/>
		<path fill="#70C6C5" d="M49.204,96.374c0,0-1.253-0.6-2.422-1.248c0.134,0.322,0.271,0.646,0.396,0.97
			C48.129,96.379,49.204,96.374,49.204,96.374z"/>
		<path fill="#90DDD2" d="M45.92,95.313c0.133,0.204,0.334,0.369,0.573,0.502c0.098-0.229,0.193-0.46,0.288-0.689
			c-1.146-0.635-0.089-5.086-0.045-5.271C46.68,90.016,45.233,94.263,45.92,95.313z"/>
		<path fill="#F5C185" d="M53.529,148.618c0.328-1.246,0.75-2.459,1.488-3.576c0.411-0.567,0.855-0.819,1.269-0.319
			c-0.059-0.072,0.811-0.486,1.021-0.336c0.373,0.264,0.344,1.379,0.387,1.875c0.12,1.409,0.099,2.866-0.062,4.323
			c0.013,0.795-0.244,1.662-0.324,2.383c-0.048,0.438-0.159,0.937-0.559,1.216c-0.123,0.086-0.246,0.133-0.366,0.146
			c-0.318,0.514-0.904,0.655-1.395,0.282c-0.215,0.119-0.454,0.164-0.716,0.052c-0.253-0.106-0.409-0.33-0.546-0.562
			c-0.18,0.063-0.365,0.084-0.566-0.006c-0.304-0.136-0.479-0.474-0.526-0.773c-0.123-0.778,0.148-1.534,0.325-2.284
			C53.148,150.226,53.32,149.415,53.529,148.618z"/>
		<path fill="#F5C185" d="M47.624,149.027c0.026-0.176,0.061-0.346,0.104-0.51c0.393-1.511,0.932-2.978,1.599-4.354
			c0.225-0.459,0.608-1.524,1.06-1.677c0.256-0.086,0.925,0.543,0.843,0.597c0.574-0.362,0.902-0.004,1.082,0.647
			c0.313,1.142,0.173,3.179,0.095,3.804c-0.028,0.219-0.061,0.442-0.101,0.668c-0.075,0.584-0.229,1.155-0.376,1.733
			c-0.153,0.599-0.222,1.205-0.362,1.803c-0.088,0.375-0.208,0.859-0.592,1.062c-0.313,0.164-0.584,0.074-0.802-0.108
			c-0.188,0.192-0.4,0.332-0.761,0.291c-0.234-0.026-0.404-0.121-0.525-0.258c-0.225-0.062-0.421-0.193-0.589-0.379
			c-0.236-0.16-0.427-0.423-0.518-0.72c-0.406-0.162-0.538-0.69-0.496-1.188C47.324,149.967,47.442,149.484,47.624,149.027z"/>
		<path fill="#004A8E" d="M50.233,127.668c0.31-3.231-0.13-8.638,4.675-9.112c1.055-0.104,2.056-0.433,3.272-0.017
			c0.609,0.998,0,4.049-0.281,5.237c-0.793,3.359-1.618,6.697-2.282,10.088c-0.234,1.197-0.637,2.345-1.067,3.482
			c-0.409,1.077-0.109,10.092-5.223,6.815c-1.958-1.255-0.085-5.195-0.05-7.312C49.328,133.79,49.939,130.722,50.233,127.668z"/>
		<path fill="#004A8E" d="M54.162,144.429c0.233-2.002,1.546-8.439,1.791-9.64c0.694-3.394,1.221-6.797,1.783-10.209
			c0.469-2.841,0.843-5.162,4.459-5.33c0.946-0.043,2.194,0.765,2.681,1.256c0.48,0.481,0.091,3.414-0.163,4.83
			c-0.351,1.947-0.826,3.873-1.411,5.769c-0.855,2.771-2.62,13.963-4.703,15.381C55.865,148.347,54.151,144.536,54.162,144.429z"/>
		<path fill="#231F20" d="M51.504,153.64c0.98-1.302,1.087-3.392,0.768-4.808c-0.551,0.864-0.849,2.063-2.117,2.188
			c-1.059,0.106-1.982-0.562-2.249-1.526c-0.121-0.438-0.109-0.896-0.025-1.339c0.072-0.387,0.173-0.768,0.28-1.137
			c-0.798,0.836-1.104,2.019-1.274,3.104c-0.158,1.008-0.364,2.231-0.055,3.228c0.475,1.519,2.3,1.846,3.668,1.146
			C50.905,154.292,51.237,153.995,51.504,153.64z"/>
		<path fill="#231F20" d="M51.873,154.511c-0.337-1.568,0.461-3.519,1.359-4.688c0.132,1.005-0.108,2.212,0.995,2.82
			c0.921,0.508,2.052,0.256,2.709-0.524c0.297-0.354,0.484-0.774,0.597-1.212c0.099-0.381,0.17-0.768,0.23-1.146
			c0.371,1.071,0.143,2.271-0.167,3.331c-0.288,0.979-0.624,2.179-1.333,2.966c-1.083,1.203-2.891,0.797-3.84-0.373
			C52.142,155.336,51.966,154.937,51.873,154.511z"/>
		<path fill="#F5C185" d="M73.208,103.519c-0.232-0.045-0.487-0.065-0.76-0.078c-0.7-0.028-1.414-0.06-2.09,0.115
			c-0.75,0.192-1.67,0.853-1.853,1.608c-0.008,0.135-0.008,0.271-0.002,0.401c0.003,0.16-0.014,0.313-0.046,0.463
			c0.155,0.191,0.31,0.354,0.607,0.502c0.44,0.224,0.909,0.398,1.388,0.527c0.938,0.252,2.041,0.375,2.954-0.024
			c0.04-0.019,0.073-0.044,0.101-0.072c0.054,0.095,0.108,0.187,0.164,0.278c0.197,0.334,0.78,0.349,0.903-0.061
			c0.241-0.8,0.186-1.765-0.062-2.556C74.292,103.922,73.829,103.638,73.208,103.519z M72.25,106.189
			c-0.192-0.094-0.225-0.385-0.4-0.504c0-0.002-0.001-0.002-0.002-0.002c0.137-0.035,0.272-0.074,0.407-0.119
			c0.045-0.017,0.094-0.021,0.143-0.021c0.128,0.002,0.258,0.013,0.388,0.024c0.12,0.275,0.254,0.545,0.396,0.812
			C72.875,106.329,72.473,106.299,72.25,106.189z"/>
		<path fill="#F5C185" d="M55.891,102.833c-0.233-0.045-0.488-0.065-0.761-0.078c-0.699-0.03-1.413-0.062-2.089,0.113
			c-0.751,0.194-1.671,0.853-1.854,1.61c-0.007,0.133-0.007,0.269-0.001,0.401c0.003,0.16-0.014,0.313-0.046,0.461
			c0.156,0.19,0.311,0.354,0.607,0.505c0.44,0.223,0.909,0.396,1.39,0.524c0.938,0.254,2.04,0.377,2.954-0.024
			c0.039-0.019,0.072-0.043,0.1-0.07c0.055,0.093,0.108,0.187,0.164,0.277c0.198,0.336,0.781,0.348,0.904-0.063
			c0.24-0.799,0.184-1.764-0.063-2.553C56.976,103.234,56.513,102.949,55.891,102.833z M54.933,105.501
			c-0.193-0.095-0.226-0.383-0.4-0.504c0,0-0.001,0-0.001-0.002c0.137-0.035,0.272-0.074,0.406-0.117
			c0.046-0.017,0.094-0.024,0.143-0.022c0.127,0.002,0.259,0.015,0.389,0.024c0.12,0.274,0.253,0.548,0.396,0.813
			C55.558,105.64,55.156,105.609,54.933,105.501z"/>
		<path fill="#C0FFF7" d="M40.28,99.611l12.992,3.361l-0.562,1.76c0,0-11.239,0.576-12.167-0.573
			C39.616,103.01,40.28,99.611,40.28,99.611z"/>
		<path fill="#66240E" d="M49.688,65.942l10.247-0.666c0,0,0.072-3.461-3.063-3.461C53.739,61.815,49.241,63.09,49.688,65.942z"/>
		<path fill="#004A8E" d="M51.14,121.868c0,0-7.385-7.544-5.404-11.832c1.981-4.289,11.677,0,11.677,0l1.027,10.075L51.14,121.868z"
			/>
	</g>
	<g>
		<polygon fill="#70C6C5" points="42.976,58.278 38.582,54.229 43.93,53.119 		"/>
		<ellipse fill="#70C6C5" cx="39.869" cy="48.61" rx="7.62" ry="7.243"/>
		<g>
			<path fill="#FFFFFF" d="M38.751,49.778V49.3c0-0.363,0.079-0.671,0.235-0.922c0.156-0.25,0.435-0.496,0.833-0.732
				c0.317-0.188,0.545-0.359,0.683-0.513c0.14-0.151,0.208-0.326,0.208-0.523c0-0.155-0.074-0.279-0.223-0.37
				c-0.147-0.091-0.342-0.137-0.58-0.137c-0.59,0-1.281,0.198-2.069,0.597l-0.815-1.516c0.974-0.528,1.99-0.792,3.049-0.792
				c0.872,0,1.556,0.182,2.053,0.546c0.496,0.365,0.744,0.86,0.744,1.487c0,0.45-0.109,0.84-0.331,1.168
				c-0.221,0.328-0.573,0.641-1.058,0.934c-0.41,0.253-0.667,0.438-0.771,0.556c-0.104,0.116-0.155,0.255-0.155,0.415v0.283
				L38.751,49.778L38.751,49.778z M38.5,51.729c0-0.342,0.105-0.604,0.313-0.792c0.209-0.187,0.518-0.278,0.923-0.278
				c0.391,0,0.691,0.094,0.9,0.28c0.21,0.188,0.313,0.451,0.313,0.789s-0.108,0.601-0.326,0.786
				c-0.217,0.185-0.513,0.277-0.889,0.277c-0.387,0-0.688-0.093-0.909-0.275C38.61,52.334,38.5,52.07,38.5,51.729z"/>
		</g>
	</g>
	<polygon fill="#231F20" points="200.871,117.978 222.699,117.978 228.302,122.142 200.871,122.142 	"/>
	<path fill="#2D2D2D" d="M220.164,126.458h-19.293v-4.313h27.432l0,0C226.56,124.824,223.481,126.458,220.164,126.458z"/>
	<path fill="#2D2D2D" d="M228.302,122.142l3.114-32.077c0.347-1.875-0.854-3.694-2.78-4.217l-8.322-3.012
		c-2.521-0.684-5.021,1.14-4.979,3.63l0.468,30.289L228.302,122.142z"/>
	<g>
		<path fill="#843817" d="M218.412,58.582c0.033-1.681-0.842-3.312-2.4-4.146c-1.23-0.658-2.627-0.748-3.938-0.395
			c-0.877-0.678-1.949-1.028-3.166-0.816c-1.088,0.188-1.943,0.869-2.467,1.747c-0.34-0.379-0.813-0.6-1.561-0.493
			c-0.727,0.104-1.387,0.461-1.656,1.132c-0.07,0.177-0.107,0.354-0.127,0.537c-1.041-0.249-2.229,0.308-2.605,1.519
			c-0.682,2.171,1.416,3.586,2.979,4.706c0.861,0.62,1.701-0.768,0.848-1.379c-0.123-0.09-0.256-0.18-0.391-0.271
			c0.082,0.013,0.166,0.021,0.248,0.027c0.268,0.02,0.471-0.065,0.604-0.206c0.031,0.002,0.063,0.005,0.094,0.006
			c1.557,0.032,3.291,0.539,4.512-0.704c0.029-0.03,0.057-0.063,0.084-0.095c0.965,0.024,1.918,0.243,2.752,0.729
			c0.539,0.313,1,0.736,1.553,1.035c0.799,0.433,1.734,0.65,2.563,0.159c0.171-0.102,0.315-0.227,0.438-0.365
			c0.274-0.081,0.534-0.221,0.766-0.425C218.19,60.302,218.396,59.398,218.412,58.582z"/>
		<path fill="#231F20" d="M181.179,145.513l-9.562,1.866c-0.785,0.154-1.356,0.808-1.373,1.569l0,0
			c-0.021,0.902,0.733,1.65,1.687,1.671l13.506,0.267c1.072,0.022,1.904-0.886,1.736-1.894l-0.349-2.063
			c-0.134-0.781-0.832-1.361-1.664-1.377l-3.601-0.072C181.433,145.476,181.304,145.488,181.179,145.513z"/>
		<path fill="#2D2D2D" d="M186.74,149.531l-9.25,2.074c-0.896,0.201-1.248,1.146-0.86,2.203l0,0
			c0.424,1.151,1.563,1.985,2.538,1.951l10.279-0.367c0.606-0.022,1.172-0.815,1.2-1.722l0.066-2.086
			c0.028-0.885-0.353-1.619-0.925-1.696l-2.733-0.371C186.951,149.504,186.843,149.508,186.74,149.531z"/>
		<path fill="#F5C185" d="M176.341,105.146c0.289,0.117,0.678,0.082,0.916-0.056c0.853,0.406,1.769,0.687,2.801,0.584
			c0.093,0.058,0.211,0.103,0.365,0.125c1.063,0.156,2.12,0.205,3.133-0.022c0.394-0.088,0.75-0.217,1.015-0.426
			c0.323-0.254,0.254-0.565,0.479-0.836c0.076-0.097,0.098-0.188,0.074-0.272c0.686-0.31,0.969-0.97,0.1-1.443
			c-1.232-0.672-3.041-0.95-4.572-1.104c-0.971-0.096-1.805-0.01-2.586,0.187c-0.791,0.08-1.482,0.312-2.016,0.724
			c-0.008,0.002-0.016,0.006-0.021,0.008c-0.063,0.027-0.115,0.058-0.166,0.086c-1.141,0.427-1.053,1.681-0.992,2.472
			C174.916,105.777,176.371,105.751,176.341,105.146z M178.183,104.025c0.242-0.106,0.481-0.211,0.733-0.293
			c0.021,0.002,0.041,0,0.062,0.002c-0.121-0.004,0.431,0.052,0.572,0.074c0.021,0.002,0.037,0.006,0.057,0.01
			c-0.065,0.072-0.094,0.168-0.061,0.283c0.012,0.037,0.026,0.051,0.036,0.058c-0.014-0.005-0.051-0.009-0.131,0.002
			c-0.235,0.026-0.453,0.053-0.694,0.062c-0.3,0.01-0.601,0.004-0.9-0.002C177.976,104.17,178.087,104.105,178.183,104.025z"/>
		<polygon fill="#C0FFF7" points="185.425,101.613 183.785,101.868 184.453,105.62 186.435,105.187 		"/>
		<path fill="#00386F" d="M197.423,123.249c0.584-2.615,16.522-3.938,16.934-6.004c0.128-0.646-0.084-1.306-0.69-1.619
			c0.277-2.06,0.433-4.129,0.365-6.229c-0.049-1.556-2.603-1.627-2.552-0.063c0.015,0.472,0.019,0.938,0.011,1.405
			c0-0.008-0.002-0.016-0.004-0.021c-0.173-0.867-0.263-1.722-0.203-2.604c0.021-0.313-0.063-0.565-0.215-0.758
			c-0.021-0.711-0.606-1.405-1.531-1.147c-0.646,0.183-1.276,0.39-1.896,0.623c-0.396-0.849-2-1.03-2.437,0.121
			c-0.017,0.034-0.026,0.073-0.041,0.11c-0.43,1.201-0.479,2.498-0.567,3.752c-4.744,3.633-13.83,3.371-14.147,5.976
			C189.386,125.488,194.826,122.863,197.423,123.249z"/>
		<path fill="#00386F" d="M196.468,122.577c-2.265-1.642-4.394-3.554-6.021-5.785c-2.822,7.22-10.479,27.56-10.224,28.231
			c0.356,0.938,1.09,1.756,1.767,2.502c1.399,1.549,3.129,1.308,5.067,2.166c0.654,0.291,8.019-20.219,10.363-26.442
			C197.101,123.027,196.783,122.802,196.468,122.577z"/>
		<path fill="#F5C185" d="M215.255,77.458c-0.048,0.861-0.341,1.583-1.089,1.951c-0.851,0.418-1.924,0.793-2.894,0.82
			c-1.553,0.047-4.106-0.366-4.051-2.091c0.008-0.208,0.026-0.971,0.063-1.895c0.028-0.771,0.069-1.648,0.119-2.415
			c0.073-1.04,0.166-1.866,0.282-1.913c0.593-0.235,1.397-0.105,1.813,0.346c0.123,0.018,0.244,0.049,0.361,0.093
			c0.221,0.086,0.42,0.226,0.573,0.417l0.027,0.001c0.166-0.063,0.344-0.093,0.524-0.103c0.336-0.284,0.81-0.402,1.25-0.335
			c0.435-0.178,0.959-0.186,1.364,0.014c-0.086-0.042,0.029-0.354,0.192-0.484c0.142,0.72,0.298,1.438,0.472,2.152
			C214.55,75.175,214.875,76.326,215.255,77.458z"/>
		<path fill="#E2A971" d="M214.271,74.017c-2.521,3.942-5.711,2.88-6.983,2.229c0.029-0.771,0.069-1.648,0.119-2.415
			c0.265-0.171,1.258-0.806,2.459-1.476c0.221,0.086,0.42,0.226,0.573,0.417l0.027,0.001c0.166-0.063,0.344-0.093,0.524-0.103
			c0.336-0.284,0.81-0.402,1.25-0.335c0.435-0.177,0.959-0.186,1.364,0.014c-0.086-0.042,0.029-0.354,0.193-0.484
			C213.94,72.585,214.097,73.302,214.271,74.017z"/>
		<path fill="#004A8E" d="M206.285,128.474c-0.408-0.146-0.813-0.295-1.219-0.449c-2.589-0.994-5.103-2.201-7.482-3.601
			c-4.799,9.644-10.346,20.611-13.237,25.453c-0.33,0.554,4.908,3.795,7.022,3.927c1.06,0.065,1.597-1.16,2.017-2.023
			C194.058,150.394,200.31,139.001,206.285,128.474z"/>
		<path fill="#004A8E" d="M209.173,114.06c0.103,1.289-2.955,3.119-1.888,3.739c-0.006,0.718-9.729,4.688-9.703,6.625
			c0.785,4.05,7.804,3.822,8.701,4.05c16.713-4.427,15.672-8.951,15.867-10.074c0.401-2.299-0.371-4.666-0.787-6.967
			c-0.177-0.97-0.42-2.234-1.121-2.968c0-0.049,0.002-0.101,0.004-0.149c0.007-0.149,0.015-0.299,0.024-0.446
			c0.021-0.33-0.069-0.601-0.229-0.802c-0.021-0.754-0.646-1.487-1.621-1.217c-2.447,0.682-4.713,1.733-6.703,3.226
			c-0.217-1.416-2.648-1.397-2.686,0.174c-0.027,1.198,0.033,2.416,0.242,3.601C209.281,113.804,209.099,113.109,209.173,114.06z"/>
		<path fill="#00386F" d="M222.187,115.775c0,0-13.159,3.043-17.723-0.621c-2.22-1.784,8.741-5.713,8.741-5.713l8.158,1.992
			L222.187,115.775z"/>
		<path fill="#C0FFF7" d="M206.468,77.161c0.127,0.041,0.252,0.092,0.375,0.157c0.246,0.129,0.356,0.323,0.371,0.522
			c0.432,0.598,1.358,1.282,3.342,1.385c3.61,0.185,4.699-1.769,4.699-1.769l0.084,0.05c0.157-0.088,0.354-0.116,0.584-0.045
			c1.604,0.502,3.401,0.688,5.006,1.313c0.026,0.012,0.053,0.021,0.078,0.032c0.416,0.111,0.825,0.246,1.237,0.391
			c0.894,0.314-2.362,12.826-2.326,13.473c0.111,1.878,0.312,3.753,0.476,5.628c0.188,2.117,0.283,4.252,0.527,6.365
			c0.053,0.459,0.104,0.918,0.112,1.379c0.215,0.854,0.237,3.073-0.039,3.948c-0.242,0.77-0.672,0.193-1.239,0.761
			c-0.525,0.524-6.378,1.183-8.947,1.345c-2.539,0.159-5.229,0.521-6.996-1.279c-1.021-1.039-1.776-1.17-2.108-2.553
			c-0.403-1.688,0.851-12.475,0.854-13.295c0.011-1.594,0.131-3.331-0.104-4.958C202.466,85.955,200,77.005,206.468,77.161z"/>
		<path fill="#004A8E" d="M217.414,77.85c0,0-6.943,14.037-6.977,15.208c-0.027,1.023-1.418,15.729-1.764,19.373
			c-0.041,0.437,0.324,3.252,0.783,3.235c2.596-0.088,11.006,0.054,12.662-1.278c-0.441-6.771-0.902-22.239-0.902-22.239
			s4.551-12.406,2.826-12.907C219.263,77.851,217.414,77.85,217.414,77.85z"/>
		<path fill="#00386F" d="M210.949,91.195l4.976-13.732l3.34,0.39c0.254,0.063,0.383,0.332,0.267,0.555l-9.363,17.664l0.285-2.76
			C210.457,92.58,210.628,91.858,210.949,91.195z"/>
		<path fill="#004A8E" d="M206.468,77.161c0,0-4.511,0.369-6.332,2.876c-1.824,2.506-4.588,18.357-4.588,18.357l-10.685,2.354
			l0.696,5.853c0,0,13.707-1.896,14.769-3.082c1.063-1.188,1.979-7.91,1.979-7.91l-1.051,17.582c0,0,5.028,3.183,5.674,1.974
			c0.644-1.209,1.254-22.231,1.254-22.231L206.468,77.161z"/>
		<path fill="#00386F" d="M208.119,95.368l0.082-3.02l-1.732-15.188c0,0-2.139,0.007-3.523,0.583
			C204.349,82.898,208.119,95.368,208.119,95.368z"/>
		<polygon fill="#70C6C5" points="209.582,79.202 214.828,76.107 215.923,77.463 211.142,81.468 		"/>
		<polygon fill="#70C6C5" points="209.582,79.202 208.272,81.145 206.468,77.161 207.041,76.238 		"/>
		<g>
			<g>
				<path fill="#843817" d="M217.509,56.889c-1.252-1.053-3.021-1.779-4.431-0.563c-0.67,0.579,0.3,1.548,0.972,0.969
					c0.562-0.482,1.299-0.313,1.928,0.105c-0.313,0.101-0.56,0.378-0.455,0.771c0.255,0.962,0.771,1.837,0.91,2.83
					c0.06,0.416,0.414,0.55,0.748,0.479c-0.144,0.654-0.34,1.297-0.496,1.889c-0.354,1.354-0.733,2.822-1.498,4.027
					c-0.266,0.418-0.549,0.827-0.812,1.246c-0.174,0.275-0.483,0.669-0.45,1.015c0.08,0.813,1.381,0.884,1.407,0.126
					c-0.002,0.005-0.004-0.006,0.002-0.023c0-0.022-0.002-0.046-0.004-0.069c0.004,0.032,0.004,0.054,0.004,0.066
					c0.003-0.013,0.009-0.028,0.019-0.048c0.058-0.104,0.121-0.205,0.185-0.307c0.17-0.272,0.351-0.541,0.524-0.81
					c0.306-0.465,0.593-0.917,0.813-1.422c0.849-1.927,1.373-4.003,1.75-6.056C218.902,59.629,218.772,57.955,217.509,56.889z"/>
				<path fill="#843817" d="M215.332,69.784c0-0.003,0.002-0.007,0.002-0.017C215.334,69.773,215.332,69.778,215.332,69.784z"/>
			</g>
			<polygon fill="#843817" points="215.334,69.767 215.334,69.758 215.334,69.76 			"/>
		</g>
		<path fill="#F5C185" d="M215.531,68.64c0.228-0.615,0.694-0.479,1.069-0.817c0.722-0.656,1.263-1.994,0.856-2.897
			c-0.323-0.724-1.019-1.264-1.883-1.121c-0.045,0.008-0.088,0.017-0.131,0.026c0.053-0.375,0.139-0.751,0.28-1.134
			c0.015-0.434,0.019-0.862,0.019-1.29c-0.09-0.189-0.185-0.379-0.293-0.561c-0.592-0.985-2.179-1.399-3.313-1.489
			c-2.842-0.228-5.881,1.136-8.531-0.348c-0.047,0.129-0.09,0.261-0.125,0.396c-0.368,2.298,0.229,4.78,0.476,7.04
			c0.063,0.596,0.103,1.191,0.146,1.782c0.084,0.563,0.149,1.13,0.17,1.701c0,0.002,0,0.005,0,0.008
			c0.158,1.075,0.445,2.112,1.072,3.08c0.11,0.444,0.278,0.873,0.494,1.221c0.646,1.042,1.957,1.146,3.102,1.172
			c1.099,0.024,2.261,0.015,3.105-0.752c0.807-0.729,1.555-1.714,2.188-2.583C214.988,71.035,215.095,69.831,215.531,68.64z"/>
		<polygon fill="#00386F" points="206.285,118.572 209.132,122.142 215.8,116.756 207.285,117.801 		"/>
		<path fill="#843817" d="M216.361,61.04c-0.134-0.315-0.425-0.587-0.742-0.68c-0.642-0.183-1.162,0.182-1.405,0.713
			c-0.695,1.521,0.062,2.694,0.68,3.966c0.373,0.765-0.002,1.095-0.142,1.793c-0.049,0.236,0.193,1.495,0.793,0.803
			c0.384-0.44,0.761-0.965,0.929-1.465c0.408-1.208,1.957-5.333,1.957-5.333L216.361,61.04z"/>
		<polygon fill="#70C6C5" points="209.582,79.202 208.025,112.236 208.675,112.431 210.164,79.591 		"/>
		<path fill="#F5C185" d="M207.5,119.456c0.016-0.115-0.021-0.211-0.088-0.283c0.402-0.526,0.271-1.245-0.73-1.394
			c-1.422-0.205-3.109,0.156-4.492,0.541c-0.484,0.138-0.9,0.312-1.271,0.517c-1.084,0.306-2.104,0.838-2.84,1.565
			c-0.869,0.863-0.855,1.816-1.289,2.82c-0.072,0.127-0.141,0.26-0.193,0.396c-0.139,0.354,0.313,0.637,0.68,0.596
			c-0.01,0,0.152,0.242,0.172,0.261c0.164,0.137,0.143,0.103,0.383,0.127c0.395,0.041,0.908-0.115,1.264-0.242
			c-0.689,0.248,0.293,1.274,0.844,0.595c0.938-1.166,4.152-2.257,4.162-2.295c0.627-0.185,1.178-0.488,1.705-0.841
			c0.01-0.008,0.018-0.016,0.025-0.022c0.408-0.17,0.787-0.377,1.123-0.64c0.281-0.219,0.514-0.463,0.619-0.75
			C207.701,120.056,207.466,119.786,207.5,119.456z"/>
		<polygon fill="#C0FFF7" points="206.365,116.679 205.013,117.597 207.365,120.679 208.938,119.458 		"/>
		<path fill="#004A8E" d="M224.451,79.5c0,0,3.115,4.821-0.016,24.909c-0.361,2.319-15.342,16.405-15.342,16.405l-4.098-5.146
			l12.6-13.119l2.643-12.715L224.451,79.5z"/>
		<polygon fill="#00386F" points="220.24,89.834 216.554,102.549 209.095,111.435 217.597,103.183 		"/>
	</g>
	<rect x="35.999" y="104.765" fill="#843817" width="167.992" height="5.271"/>
	<rect x="42.17" y="109.695" fill="#66240E" width="155.646" height="3.435"/>
	<polygon fill="#843817" points="39.95,152.99 36.559,152.99 44.322,113.129 50.301,113.129 	"/>
	<polygon fill="#843817" points="199.918,152.99 203.31,152.99 195.546,113.129 189.568,113.129 	"/>
</g>
</svg>
