<?xml version="1.0" encoding="utf-8"?>
<!-- Generator: Adobe Illustrator 15.0.0, SVG Export Plug-In . SVG Version: 6.00 Build 0)  -->
<!DOCTYPE svg PUBLIC "-//W3C//DTD SVG 1.1//EN" "http://www.w3.org/Graphics/SVG/1.1/DTD/svg11.dtd">
<svg version="1.1" id="Capa_1" xmlns="http://www.w3.org/2000/svg" xmlns:xlink="http://www.w3.org/1999/xlink" x="0px" y="0px"
	 width="126.398px" height="133.897px" viewBox="74.602 302.603 126.398 133.897"
	 enable-background="new 74.602 302.603 126.398 133.897" xml:space="preserve">
<path fill="#F9F7E3" d="M168.831,397.136c19.519-19.518,19.519-51.167,0-70.685c-19.519-19.52-51.167-19.52-70.686,0
	c-19.52,19.518-19.52,51.167,0,70.685C117.665,416.655,149.311,416.655,168.831,397.136z"/>
<path fill="#468BBF" d="M193.35,323.792c0.002,2.868-0.653,5.697-1.916,8.271c-1.264,2.574-3.102,4.823-5.371,6.576
	c-0.4,0.31-0.81,0.603-1.234,0.877c-0.891,0.585-1.832,1.089-2.812,1.509c-1.97,0.854-4.074,1.36-6.218,1.495
	c-0.402,0.025-0.806,0.039-1.216,0.039h-0.174c-0.064,0-0.124,0-0.188,0c-0.404,0-0.804-0.028-1.199-0.06
	c-3.632-0.305-7.097-1.659-9.971-3.901c-2.875-2.241-5.035-5.271-6.217-8.718c-1.181-3.448-1.333-7.166-0.436-10.698
	c0.897-3.534,2.803-6.728,5.485-9.195c2.683-2.469,6.026-4.101,9.622-4.7c3.595-0.599,7.287-0.139,10.625,1.326
	c3.336,1.465,6.176,3.87,8.17,6.921c1.993,3.052,3.055,6.617,3.055,10.263L193.35,323.792z"/>
<path fill="#DE9C73" d="M181.354,325.005c0,0.326-0.097,0.646-0.279,0.917c-0.182,0.271-0.44,0.483-0.742,0.608
	c-0.301,0.126-0.635,0.158-0.955,0.094c-0.321-0.064-0.614-0.222-0.845-0.454c-0.231-0.231-0.388-0.526-0.451-0.847
	c-0.063-0.32-0.03-0.653,0.096-0.955c0.125-0.301,0.336-0.559,0.609-0.74c0.272-0.182,0.591-0.276,0.918-0.276
	c0.218,0,0.432,0.042,0.632,0.126c0.2,0.083,0.382,0.204,0.535,0.357c0.154,0.154,0.274,0.336,0.357,0.536
	C181.312,324.574,181.354,324.789,181.354,325.005L181.354,325.005z"/>
<path fill="#DE9C73" d="M170.912,325.005c0,0.326-0.095,0.646-0.278,0.917c-0.18,0.271-0.438,0.483-0.741,0.608
	c-0.301,0.126-0.633,0.158-0.955,0.094c-0.32-0.064-0.614-0.222-0.845-0.453c-0.231-0.23-0.389-0.525-0.453-0.846
	c-0.063-0.32-0.031-0.652,0.094-0.955c0.125-0.301,0.336-0.559,0.607-0.74c0.271-0.182,0.592-0.278,0.918-0.278
	c0.218,0,0.432,0.042,0.632,0.125c0.201,0.083,0.383,0.205,0.536,0.358c0.154,0.153,0.276,0.336,0.359,0.536
	C170.871,324.574,170.913,324.789,170.912,325.005L170.912,325.005z"/>
<path fill="#F8F4D6" d="M174.22,334.315v8.241c-0.404,0-0.804-0.029-1.199-0.061c-3.244-0.262-6.362-1.369-9.046-3.211v-0.078
	c0-0.384,0.117-0.759,0.337-1.074c0.22-0.315,0.529-0.555,0.889-0.689l4.73-1.751l1.759-0.556L174.22,334.315z"/>
<path fill="#F8F4D6" d="M184.828,339.207v0.328c-0.891,0.583-1.832,1.088-2.812,1.507c-1.97,0.855-4.074,1.361-6.218,1.495
	c-0.402,0.025-0.805,0.039-1.216,0.039v-8.261l2.544,0.807l1.744,0.554l2.525,0.934l2.201,0.813
	c0.364,0.135,0.678,0.378,0.898,0.697C184.715,338.438,184.831,338.818,184.828,339.207L184.828,339.207z"/>
<path fill="#DE9C73" d="M177.126,330.238h-5.436v5.438h5.436V330.238z"/>
<path fill="#E7B799" d="M174.401,315.663l-6.463,3.528l1.879,9.545c0.211,1.07,1.053,2.14,2.14,2.971
	c0.444,0.338,0.987,0.518,1.545,0.515h1.891c0.6,0,1.182-0.212,1.643-0.596c0.971-0.799,1.734-1.87,1.934-2.89l2.241-11.394
	L174.401,315.663z"/>
<path fill="#453D2C" d="M167.791,318.428l1.21,6.152l0.526-0.356c0.136-0.093,0.245-0.223,0.313-0.373
	c0.068-0.149,0.096-0.314,0.08-0.479l-0.714-6.87l-0.713,0.356c-0.271,0.138-0.49,0.36-0.623,0.635
	c-0.131,0.273-0.171,0.583-0.111,0.881L167.791,318.428z"/>
<path fill="#453D2C" d="M181.004,318.428l-1.209,6.152l-0.527-0.356c-0.136-0.093-0.243-0.223-0.313-0.373
	c-0.069-0.149-0.096-0.314-0.08-0.479l0.714-6.87l0.713,0.356c0.271,0.138,0.489,0.36,0.623,0.635
	c0.132,0.273,0.173,0.583,0.111,0.881L181.004,318.428z"/>
<path fill="#453D2C" d="M170.399,314.654h12.089v0.923c0,0.958-0.381,1.876-1.058,2.553c-0.676,0.677-1.595,1.057-2.552,1.057
	h-10.046v-2.975c0-0.205,0.041-0.409,0.12-0.599c0.078-0.188,0.193-0.36,0.339-0.506c0.146-0.145,0.317-0.259,0.509-0.336
	C169.99,314.692,170.194,314.652,170.399,314.654L170.399,314.654z"/>
<path fill="#453D2C" d="M169.261,321.367c0.534,0,0.967-0.772,0.967-1.726c0-0.954-0.434-1.728-0.967-1.728
	s-0.967,0.773-0.967,1.728C168.294,320.594,168.728,321.367,169.261,321.367z"/>
<path fill="#453D2C" d="M179.553,321.367c0.534,0,0.966-0.772,0.966-1.726c0-0.954-0.433-1.728-0.966-1.728
	c-0.535,0-0.968,0.773-0.968,1.728C178.584,320.594,179.018,321.367,179.553,321.367z"/>
<path fill="#F7E987" d="M174.408,334.315v8.241c-0.064,0-0.124,0-0.188,0c-0.404,0-0.804-0.029-1.199-0.061l0.924-5.633
	l-0.439-0.596l-0.41-0.557l0.032-0.035l1.092-1.16l0.071-0.075L174.408,334.315z"/>
<path fill="#F7E987" d="M175.799,342.52c-0.402,0.025-0.805,0.039-1.216,0.039h-0.174v-8.239l0.11,0.116l0.064,0.069l1.106,1.173
	l0.032,0.036l-0.418,0.567l-0.434,0.585L175.799,342.52z"/>
<path fill="#F9F7E3" d="M169.931,335.675l1.759-2.719l2.892,1.358l-1.636,2.964L169.931,335.675z"/>
<path fill="#F9F7E3" d="M178.871,335.675l-1.758-2.719l-2.893,1.358l1.636,2.964L178.871,335.675z"/>
<path fill="#595959" d="M179.881,331.188c-0.074-0.014-0.143-0.043-0.204-0.083c-0.062-0.041-0.115-0.093-0.156-0.154
	c-0.042-0.062-0.07-0.13-0.086-0.202c-0.014-0.071-0.015-0.146,0-0.218l1.58-8.247c0.012-0.072,0.041-0.141,0.082-0.202
	c0.039-0.061,0.091-0.115,0.151-0.156c0.061-0.041,0.13-0.07,0.202-0.084c0.072-0.014,0.146-0.014,0.218,0
	c0.146,0.027,0.274,0.112,0.357,0.234c0.084,0.122,0.115,0.273,0.088,0.419l-1.577,8.246c-0.027,0.146-0.114,0.275-0.236,0.358
	C180.177,331.183,180.026,331.214,179.881,331.188L179.881,331.188z"/>
<path fill="#DE9C73" d="M178.46,325.348c-0.093,0.044-0.173,0.112-0.236,0.193c-0.063,0.083-0.106,0.179-0.126,0.28
	c-0.019,0.102-0.016,0.207,0.013,0.306c0.027,0.1,0.078,0.192,0.146,0.27c0.564,0.631,1.341,1.505,1.427,1.698
	c0.086,0.192,0.506,1.737,0.756,2.692c0.025,0.094,0.07,0.184,0.132,0.258c0.063,0.075,0.141,0.136,0.229,0.177
	c0.088,0.042,0.185,0.064,0.282,0.065c0.098,0,0.195-0.02,0.285-0.062l1.686-0.766c0.125-0.056,0.229-0.149,0.298-0.266
	c0.07-0.117,0.104-0.252,0.095-0.387l-0.207-3.646c-0.009-0.127-0.053-0.249-0.128-0.353c-0.075-0.103-0.178-0.181-0.297-0.229
	l-2.386-0.95c-0.087-0.035-0.18-0.05-0.274-0.046c-0.093,0.003-0.185,0.027-0.268,0.069L178.46,325.348z"/>
<path fill="#DE9C73" d="M181.101,330.562l0.329,1.552c0.121,0,2.232-0.914,2.232-0.914l-0.22-1.684L181.101,330.562z"/>
<path fill="#F9F7E3" d="M186.063,338.639c-0.4,0.31-0.81,0.603-1.234,0.877c-0.891,0.585-1.832,1.089-2.812,1.509
	c-0.16-1.17-0.396-2.854-0.621-4.416c-0.324-2.304-0.621-4.395-0.621-4.395l0.631-0.221l2.204-0.771h0.029h0.026L186.063,338.639z"
	/>
<path fill="#E0E0E0" d="M190.686,431.468H78.931c-0.617-0.001-1.209-0.248-1.645-0.683c-0.437-0.438-0.683-1.029-0.684-1.646
	c0.001-0.618,0.247-1.209,0.683-1.647c0.436-0.437,1.029-0.685,1.646-0.685h111.754c0.617,0,1.209,0.248,1.646,0.685
	c0.438,0.437,0.684,1.029,0.686,1.647l0,0c-0.002,0.618-0.249,1.21-0.686,1.646C191.895,431.223,191.303,431.468,190.686,431.468z"
	/>
<path fill="#FFFFFF" d="M149.346,348.516c7.522,0,13.619-6.098,13.619-13.619s-6.097-13.619-13.619-13.619
	c-7.521,0-13.619,6.098-13.619,13.619S141.825,348.516,149.346,348.516z"/>
<path fill="#FFFFFF" d="M161.895,333.377l3.372-6.863l-7.307,0.14L161.895,333.377z"/>
<path fill="#468BBF" d="M147.68,332.263v-0.026c0.003-0.273,0.032-0.491,0.085-0.653c0.055-0.163,0.132-0.294,0.232-0.394
	c0.1-0.101,0.222-0.193,0.362-0.277c0.084-0.051,0.16-0.113,0.228-0.183c0.067-0.072,0.122-0.155,0.16-0.248
	c0.04-0.094,0.06-0.197,0.06-0.311c0-0.14-0.033-0.261-0.098-0.365c-0.067-0.104-0.155-0.183-0.265-0.239
	c-0.11-0.055-0.233-0.084-0.368-0.084c-0.117,0-0.23,0.024-0.34,0.073s-0.199,0.126-0.274,0.231
	c-0.072,0.104-0.115,0.242-0.125,0.411h-0.542c0.011-0.244,0.073-0.453,0.188-0.626c0.116-0.173,0.268-0.305,0.458-0.397
	c0.192-0.092,0.402-0.138,0.634-0.138c0.252,0,0.472,0.05,0.659,0.15c0.188,0.1,0.332,0.238,0.434,0.414
	c0.104,0.175,0.156,0.374,0.156,0.598c0,0.158-0.024,0.301-0.073,0.428c-0.048,0.127-0.116,0.242-0.207,0.341
	c-0.088,0.101-0.197,0.19-0.323,0.268c-0.126,0.08-0.227,0.162-0.304,0.249c-0.075,0.087-0.131,0.189-0.165,0.309
	s-0.054,0.267-0.056,0.445v0.026H147.68z M147.955,333.537c-0.105,0-0.197-0.038-0.274-0.114c-0.075-0.076-0.113-0.167-0.113-0.273
	c0-0.106,0.038-0.196,0.113-0.273c0.077-0.075,0.169-0.113,0.274-0.113c0.107,0,0.197,0.038,0.274,0.113
	c0.076,0.077,0.113,0.167,0.113,0.273c0,0.07-0.018,0.135-0.054,0.194c-0.035,0.059-0.081,0.106-0.14,0.142
	C148.092,333.52,148.028,333.537,147.955,333.537z"/>
<path fill="#468BBF" d="M84.19,394.125h-2.102v32.683h2.102V394.125z"/>
<path fill="#468BBF" d="M185.444,394.125h-2.1v32.683h2.1V394.125z"/>
<path fill="#468BBF" d="M117.263,427.867c0.95-1.229,0.725-2.997-0.503-3.948c-1.229-0.951-2.998-0.726-3.948,0.503
	c-0.953,1.229-0.727,2.997,0.503,3.948C114.545,429.322,116.311,429.096,117.263,427.867z"/>
<path fill="#468BBF" d="M106.783,424.906v-18.37h-3.05v18.37h-7.748v3h17.846v-3H106.783z"/>
<path fill="#468BBF" d="M115.005,373.692H94.809c-2.477,0-4.483,2.008-4.483,4.484v25.722c0,2.477,2.007,4.484,4.483,4.484h20.196
	c2.477,0,4.483-2.007,4.483-4.484v-25.722C119.489,375.7,117.482,373.692,115.005,373.692z"/>
<path fill="#F6C18F" d="M151.019,370.553h-6.371c-0.453,0-0.902,0.093-1.32,0.27c-0.418,0.179-0.794,0.441-1.108,0.769l-1.481,1.544
	l2.478,1.398h4.711c0.824,0,1.614-0.328,2.196-0.91c0.583-0.583,0.911-1.374,0.911-2.197L151.019,370.553z"/>
<path fill="#3178B4" d="M145.315,374.738l-3.781-3.785l-10.883,10.883l-8.869-9.299c-0.811-0.854-1.839-1.47-2.974-1.783l0,0
	l-2.293,4.494l14.125,14.126l0.539-0.534L145.315,374.738z"/>
<path fill="#F9B173" d="M111.795,363.241h-4.084v7.43h4.084V363.241z"/>
<path fill="#F6C18F" d="M106.035,347.803h13.454v12.156c0,1.535-0.609,3.007-1.693,4.091c-1.085,1.085-2.557,1.694-4.091,1.694
	h-1.888c-1.533,0-3.006-0.609-4.09-1.694c-1.085-1.084-1.694-2.557-1.694-4.091v-12.156H106.035z"/>
<path fill="#BF8238" d="M106.769,346.315h-1.084c-0.984,0-1.783,0.798-1.783,1.784v10.331c0,0.984,0.799,1.783,1.783,1.783h1.084
	c0.985,0,1.784-0.798,1.784-1.783v-10.331C108.553,347.113,107.754,346.315,106.769,346.315z"/>
<path fill="#BF8238" d="M107.946,349.187h-1.084c-0.985,0-1.784,0.798-1.784,1.784v5.967c0,0.985,0.798,1.784,1.784,1.784h1.084
	c0.985,0,1.783-0.798,1.783-1.784v-5.967C109.729,349.984,108.931,349.187,107.946,349.187z"/>
<path fill="#F6C18F" d="M104.408,358.567c0-0.41,0.123-0.813,0.35-1.154c0.229-0.342,0.554-0.609,0.933-0.767
	c0.381-0.157,0.798-0.198,1.202-0.119c0.403,0.081,0.773,0.279,1.065,0.57c0.291,0.29,0.488,0.66,0.568,1.064
	c0.081,0.403,0.04,0.821-0.117,1.202c-0.158,0.379-0.425,0.704-0.766,0.934c-0.342,0.228-0.745,0.349-1.156,0.349
	c-0.552,0-1.08-0.219-1.47-0.608C104.626,359.648,104.408,359.12,104.408,358.567L104.408,358.567z"/>
<path fill="#424242" d="M109.633,359.582c0.44-1.868-0.719-3.738-2.587-4.178c-1.867-0.438-3.737,0.72-4.177,2.588
	c-0.438,1.868,0.72,3.739,2.587,4.177C107.324,362.608,109.194,361.449,109.633,359.582z"/>
<path fill="none" stroke="#424242" stroke-width="4" stroke-miterlimit="10" d="M118.608,347.919
	c0.001-0.709-0.138-1.412-0.41-2.068c-0.272-0.657-0.669-1.252-1.172-1.755c-0.5-0.502-1.097-0.901-1.753-1.172
	c-0.656-0.272-1.359-0.411-2.069-0.411h-1.762c-1.435,0-2.81,0.569-3.823,1.583c-1.016,1.014-1.584,2.39-1.584,3.823v11.358"/>
<path fill="#BF8238" d="M109.352,344.15h13.929v3.1c0,0.484-0.094,0.964-0.28,1.411c-0.185,0.448-0.457,0.854-0.8,1.197
	c-0.341,0.342-0.749,0.614-1.195,0.8c-0.449,0.186-0.928,0.281-1.413,0.281h-12.805v-4.224c0-0.68,0.27-1.332,0.75-1.814
	C108.02,344.42,108.671,344.15,109.352,344.15L109.352,344.15z"/>
<path fill="#595959" d="M103.989,358.725c0.001-0.442,0.133-0.874,0.379-1.242c0.247-0.367,0.597-0.652,1.005-0.82
	c0.409-0.17,0.857-0.214,1.292-0.127c0.434,0.087,0.832,0.301,1.145,0.614c0.312,0.313,0.524,0.71,0.611,1.144
	c0.085,0.434,0.041,0.884-0.129,1.292c-0.169,0.409-0.455,0.758-0.823,1.003c-0.368,0.246-0.8,0.376-1.243,0.376
	c-0.294,0-0.585-0.058-0.857-0.17c-0.271-0.112-0.518-0.278-0.725-0.485c-0.208-0.208-0.373-0.455-0.485-0.728
	C104.048,359.31,103.989,359.019,103.989,358.725L103.989,358.725z"/>
<path fill="#FFFFFF" d="M111.331,360.434c0.027,0.732,0.335,1.426,0.862,1.936c0.528,0.508,1.233,0.792,1.965,0.792
	c0.733,0,1.437-0.285,1.964-0.792c0.528-0.51,0.836-1.203,0.862-1.936H111.331z"/>
<path fill="#F9B173" d="M116.093,355.097h-0.353c-0.39,0-0.706,0.317-0.706,0.707v3.029c0,0.39,0.316,0.706,0.706,0.706h0.353
	c0.39,0,0.707-0.316,0.707-0.706v-3.029C116.8,355.414,116.483,355.097,116.093,355.097z"/>
<path fill="#96C5DE" d="M109.854,368.392l-4.137,0.903l-7.513,1.633v25.151h21.203v-25.151L109.854,368.392z"/>
<path fill="#3178B4" d="M107.711,366.89l-1.676,2.333l2.083,1.417l2.233-2.504L107.711,366.89z"/>
<path fill="#3178B4" d="M111.824,366.976l1.624,2.369l-1.874,1.294l-2.122-2.515L111.824,366.976z"/>
<path fill="#3178B4" d="M98.205,370.928l-0.055,0.043c-0.858,0.722-1.559,1.614-2.054,2.621l-6.881,14.051
	c-0.178,0.296-0.274,0.633-0.28,0.978c-0.005,0.345,0.081,0.684,0.251,0.985c0.169,0.3,0.416,0.549,0.713,0.724
	c0.298,0.174,0.636,0.266,0.981,0.266h17.665v-3.949H96.393c-0.1,0-0.198-0.026-0.284-0.078c-0.085-0.05-0.157-0.124-0.206-0.21
	c-0.048-0.087-0.073-0.186-0.07-0.285c0.002-0.1,0.032-0.198,0.085-0.282l2.361-4.301L98.205,370.928z"/>
<path fill="#F6C18F" d="M112.755,387.433h-4.117v3.164h7.28c0-0.839-0.333-1.643-0.926-2.237
	C114.398,387.766,113.594,387.433,112.755,387.433z"/>
<path fill="#3178B4" d="M108.542,386.634H99.15v3.963h9.392V386.634z"/>
<path fill="#205A9A" d="M138.163,402.526c-0.88-1.131-2.008-2.047-3.295-2.677c-1.287-0.629-2.702-0.956-4.136-0.956h-1.986
	c-0.526-0.86-1.266-1.571-2.146-2.065c-0.882-0.492-1.874-0.75-2.883-0.75h-24.97v3.871c0,1.419,0.564,2.78,1.567,3.783
	c1.003,1.003,2.364,1.567,3.783,1.567h15.56l-13.208,13.238l4.541,4.537l16.904-16.908c0.265-0.262,0.503-0.547,0.714-0.853h2.141
	c0.456,0,0.907,0.103,1.315,0.303c0.41,0.201,0.77,0.493,1.049,0.853l13.619,17.479l5.068-3.945L138.163,402.526z"/>
<path fill="#424242" d="M146.712,423.876l6.548-5.268c0.828-0.665,1.885-0.975,2.94-0.861c1.055,0.115,2.021,0.644,2.687,1.471
	l1.042,1.296l-8.28,6.66c-0.369,0.295-0.84,0.434-1.311,0.382c-0.471-0.051-0.901-0.286-1.197-0.655l-2.437-3.03L146.712,423.876z"
	/>
<path fill="#424242" d="M106.397,418.404l5.943,5.943c0.371,0.372,0.666,0.813,0.867,1.298c0.2,0.485,0.305,1.006,0.305,1.531
	c0,0.526-0.104,1.047-0.305,1.532c-0.201,0.485-0.496,0.927-0.867,1.298l-1.177,1.176l-7.513-7.514
	c-0.334-0.334-0.523-0.789-0.523-1.262s0.188-0.927,0.523-1.261l2.744-2.745L106.397,418.404z"/>
<path fill="#468BBF" d="M96.754,426.809c0.379-1.506-0.537-3.036-2.045-3.415c-1.508-0.379-3.036,0.537-3.415,2.043
	c-0.378,1.509,0.537,3.038,2.045,3.416C94.847,429.231,96.376,428.316,96.754,426.809z"/>
<path fill="none" stroke="#424242" stroke-width="3" stroke-miterlimit="10" d="M107.55,361.158c0,0,0.841,3.471,5.211,3.306"/>
<path fill="#424242" d="M112.762,364.982c0.532,0,0.963-0.43,0.963-0.962c0-0.533-0.431-0.964-0.963-0.964
	c-0.532,0-0.964,0.431-0.964,0.964C111.798,364.552,112.23,364.982,112.762,364.982z"/>
<path fill="#FFFFFF" d="M178.471,382.553h-33.173c-0.08,0-0.16-0.019-0.232-0.055c-0.071-0.036-0.133-0.088-0.182-0.152
	c-0.048-0.064-0.081-0.139-0.095-0.219c-0.014-0.078-0.01-0.16,0.013-0.237l6.778-22.733c0.034-0.104,0.101-0.194,0.189-0.259
	c0.089-0.063,0.196-0.098,0.306-0.098h33.173c0.081,0,0.161,0.019,0.232,0.055c0.072,0.036,0.135,0.088,0.183,0.154
	c0.047,0.064,0.081,0.138,0.095,0.218c0.014,0.079,0.009,0.16-0.013,0.237l-6.777,22.73c-0.035,0.105-0.101,0.195-0.189,0.261
	C178.688,382.519,178.581,382.553,178.471,382.553z"/>
<path fill="#468BBF" d="M179.559,382.553h-33.173c-0.081,0-0.161-0.019-0.232-0.055c-0.073-0.036-0.135-0.088-0.183-0.152
	c-0.049-0.064-0.081-0.139-0.094-0.219c-0.015-0.078-0.011-0.16,0.012-0.237l6.778-22.733c0.035-0.105,0.1-0.194,0.189-0.26
	c0.089-0.064,0.196-0.098,0.306-0.097h33.174c0.081,0,0.159,0.019,0.232,0.055c0.072,0.036,0.134,0.088,0.182,0.154
	c0.049,0.064,0.081,0.138,0.095,0.218c0.015,0.079,0.011,0.16-0.013,0.237l-6.778,22.73c-0.034,0.105-0.099,0.196-0.189,0.262
	C179.777,382.52,179.67,382.554,179.559,382.553L179.559,382.553z"/>
<path fill="#3178B4" d="M163.979,376.721h-2.084v5.817h2.084V376.721z"/>
<path fill="#3178B4" d="M168.14,375.99h-5.618c-0.091,0-0.181,0.021-0.265,0.057c-0.084,0.039-0.157,0.094-0.217,0.164
	c-0.059,0.07-0.104,0.151-0.128,0.239c-0.026,0.089-0.031,0.181-0.018,0.271l1.845,11.871c0.015,0.09,0.008,0.184-0.016,0.272
	c-0.025,0.089-0.069,0.17-0.129,0.24c-0.06,0.07-0.133,0.126-0.217,0.164c-0.084,0.039-0.175,0.06-0.267,0.06h-8.707
	c-0.084-0.001-0.167,0.016-0.243,0.046c-0.078,0.032-0.148,0.079-0.208,0.138c-0.058,0.059-0.105,0.129-0.137,0.207
	c-0.032,0.076-0.048,0.16-0.048,0.242l0,0c0,0.169,0.067,0.33,0.186,0.45c0.119,0.118,0.28,0.185,0.449,0.185h15.809
	c0.092,0,0.183-0.019,0.267-0.058c0.083-0.038,0.157-0.094,0.217-0.165c0.06-0.069,0.104-0.151,0.129-0.24
	c0.024-0.088,0.03-0.182,0.016-0.272l-2.072-13.338c-0.024-0.148-0.1-0.285-0.216-0.383
	C168.438,376.043,168.292,375.99,168.14,375.99L168.14,375.99z"/>
<path fill="#468BBF" d="M133.765,369.345c5.417,0,9.809-4.393,9.809-9.81s-4.392-9.809-9.809-9.809s-9.81,4.392-9.81,9.809
	S128.348,369.345,133.765,369.345z"/>
<path fill="#468BBF" d="M128.575,365.98l-1.706-6.446l-4.438,5.722L128.575,365.98z"/>
<path fill="#FFFFFF" d="M129.688,358.893c0.126-0.17,0.302-0.298,0.502-0.368c0.202-0.069,0.418-0.079,0.624-0.026
	c0.206,0.055,0.391,0.168,0.531,0.327c0.14,0.159,0.23,0.356,0.26,0.566c0.027,0.211-0.007,0.425-0.101,0.616
	s-0.243,0.349-0.427,0.454c-0.185,0.107-0.396,0.156-0.607,0.14c-0.213-0.014-0.415-0.092-0.583-0.222
	c-0.222-0.172-0.367-0.424-0.404-0.702C129.445,359.399,129.52,359.118,129.688,358.893L129.688,358.893z"/>
<path fill="#FFFFFF" d="M132.922,358.893c0.129-0.17,0.304-0.298,0.505-0.368c0.2-0.069,0.416-0.079,0.623-0.026
	c0.204,0.055,0.39,0.168,0.53,0.327c0.142,0.159,0.231,0.356,0.259,0.566c0.029,0.211-0.006,0.425-0.099,0.616
	c-0.094,0.19-0.243,0.349-0.426,0.454c-0.185,0.107-0.396,0.156-0.608,0.14c-0.212-0.014-0.416-0.092-0.583-0.222
	c-0.221-0.172-0.366-0.424-0.404-0.702C132.681,359.399,132.754,359.118,132.922,358.893L132.922,358.893z"/>
<path fill="#FFFFFF" d="M136.154,358.893c0.127-0.17,0.303-0.298,0.504-0.368c0.2-0.069,0.417-0.079,0.622-0.026
	c0.206,0.055,0.392,0.168,0.531,0.327c0.142,0.159,0.232,0.356,0.26,0.566c0.028,0.211-0.006,0.425-0.101,0.616
	c-0.094,0.19-0.243,0.349-0.426,0.454c-0.185,0.107-0.396,0.156-0.607,0.14c-0.212-0.014-0.415-0.092-0.583-0.222
	c-0.222-0.172-0.366-0.424-0.404-0.702C135.913,359.399,135.986,359.118,136.154,358.893L136.154,358.893z"/>
<path fill="#424242" d="M185.444,390.597H82.088v3.528h103.356V390.597z"/>
</svg>
