<?xml version="1.0" encoding="utf-8"?>
<!-- Generator: Adobe Illustrator 15.0.0, SVG Export Plug-In . SVG Version: 6.00 Build 0)  -->
<!DOCTYPE svg PUBLIC "-//W3C//DTD SVG 1.1//EN" "http://www.w3.org/Graphics/SVG/1.1/DTD/svg11.dtd">
<svg version="1.1" id="Capa_1" xmlns="http://www.w3.org/2000/svg" xmlns:xlink="http://www.w3.org/1999/xlink" x="0px" y="0px"
	 width="153.792px" height="169px" viewBox="2 0 153.792 169" enable-background="new 2 0 153.792 169" xml:space="preserve">
<g>
	<path opacity="0.21" fill="#231F20" enable-background="new    " d="M150.431,135.689L53.743,80.372L8.191,106.782l42.501,24.285
		c-1.076,0.372-1.78,0.641-1.78,0.641l-12.288,9.137l-15.623-5.339l-3.717,1.275c0,0-0.215,0.047-0.509,0.182
		c-0.696,0.318-1.493,0.758-1.387,2.49c0.143,2.284,2.997,3.708,2.997,3.708l6.845,3.995l-6.374,3.869c0,0-0.993,2.312-0.993,4.622
		c0,2.312,2.56,5.36,6.661,3.643c2.417-1.01,10.262-5.718,10.262-5.718l11.416,5.894c0,0,5.896,3.079,6.556-2.041
		c0.337-2.628-1.868-7.061-1.868-7.061l-3.838-2.068c0,0,10.504,4.976,24.106-0.856c1.997-0.854,3.708-2.423,3.991-3.139
		l29.839,17.796L150.431,135.689z"/>
	<g>
		<g enable-background="new    ">
			<g enable-background="new    ">
				<g>
					<path fill="#646D6D" d="M132.792,86.752l0.049,48.931c0,0.432,0.291,0.862,0.855,1.193c1.141,0.662,2.998,0.662,4.146,0
						c0.578-0.335,0.867-0.772,0.867-1.214l-0.045-48.925c0,0.438-0.289,0.875-0.867,1.211c-1.152,0.663-3.008,0.663-4.15,0
						C133.081,87.616,132.792,87.184,132.792,86.752L132.792,86.752z"/>
				</g>
			</g>
		</g>
	</g>
	<path fill="#173547" d="M53.66,108.308L35.281,97.693c-0.605-0.348-1.15-0.381-1.544-0.152l-18.292,10.536
		c0.395-0.223,0.942-0.189,1.545,0.157l18.381,10.612c1.199,0.69,2.163,2.365,2.162,3.746c0,0.688-0.241,1.168-0.628,1.397
		c4.509-2.624,13.78-7.927,18.292-10.547c0.387-0.22,0.629-0.706,0.631-1.386C55.833,110.675,54.864,109,53.66,108.308z"/>
	<g>
		<g>
			<path fill="#E6C5AC" d="M60.084,130.909C60.21,130.841,60.329,130.977,60.084,130.909L60.084,130.909z"/>
			<path fill="#DCB9A2" d="M51.316,103.745c-0.02-2.111-14.861-4.578-14.507-6.117c0,0,17.093-5.331,20.33-5.244
				c7.534,0.206,5.632,6.494,5.632,6.494l-9.05,25.329l-0.057,0.085c0,0-0.252,2.285,2.4,4.026c0.594,0.404,3.921,2.56,3.967,2.578
				c0.028,0.009,0.034,0.009,0.034,0.009c-0.056,0.046-0.124,0.142-0.124,0.406c0,0.854-8.775,0.091-8.775,0.091
				s-2.15,0.165-3.169-0.602c-0.875-0.65-1.216-3.593-1.209-4.393C46.993,107.809,51.316,103.745,51.316,103.745z"/>
		</g>
		<g>
			<path fill="#7C7676" d="M49.813,131.542l-0.218,2.046c0,0-0.579,0.399-1.235,0.287c-0.867-0.158-1.188-0.57-1.188-0.57
				l-0.665-3.21c0,0,0.636,1.085,2.408,1.401C49.469,131.595,49.813,131.542,49.813,131.542z"/>
			<path fill="#0E293A" d="M51.577,128.837c3.354,2.13,5.449,0.979,5.744,0.816c1.21-0.652,0.707-1.423,0.059-1.881
				c-0.271-0.191-0.671-0.277-0.671-0.277c-0.039,0,3.203-0.272,4.122,0.362c0.305,0.209,0.586,0.498,0.598,0.725
				c0.032,0.494-0.318,0.851-0.318,0.851s-1.936,0.776-3.271,1.464c-2.27,1.16-7.792,0.456-9.859,0.542
				c-0.705,0.035-1.682-1.053-1.735-2.414c-0.069-1.827,0.541-2.614,0.541-2.614s0.843-0.146,2.391,0.894
				C49.549,127.558,50.881,128.392,51.577,128.837z"/>
			<path fill="#7C7676" d="M48.193,131.119c0.307,0.063,1.418,0.117,3.13,0.283c3.135,0.305,4.504,0.134,6.425-0.655
				c1.394-0.567,2.099-0.896,2.739-1.273c0.333-0.199,1.021-0.6,0.941-0.891c0.157,0.462-0.136,0.845-0.136,0.845
				s-2.754,1.66-4.106,2.042c-1.66,0.47-4.277,0.254-6.53,0.191c-1.176-0.029-2.524-0.073-3.17-0.191
				c-0.695-0.127-0.82-0.976-0.862-1.084C46.602,130.309,47.222,130.905,48.193,131.119z"/>
		</g>
		<path fill="#E6C7B1" d="M44.52,113.598c0,0-6.139-8.303-2.089-11.758c0,0,12.586-3.943,14.484-4.69
			c12.273-4.818,11.119,6.731,11.119,6.731l-8.504,24.417c0,0-0.054,1.115-0.014,1.479c0.092,0.899,1.083,1.289,3.558,2.03
			c0.749,0.224,2.555,0.843,2.596,0.855c0.487,0.158,1.585,0.82,0.314,1.047c-0.848,0.147-8.496,2.356-8.496,2.356
			s-3.005-0.654-3.87-0.723c-1.082-0.083-1.193-0.969-1.193-1.775l0.317-1.317c-0.3-18.087,3.754-20.671,3.61-21.93L44.52,113.598z"
			/>
		<g>
			<path fill="#7C7676" d="M55.153,135.912l-0.455,2.008c0,0-0.646,0.324-1.305,0.131c-0.881-0.258-1.157-0.714-1.157-0.714
				l-0.323-3.267c0,0,1.04,1.75,2.641,1.798C55.142,135.887,55.153,135.912,55.153,135.912z"/>
			<path fill="#144163" d="M57.487,133.193c3.413,1.61,5.311,0.803,5.641,0.682c1.318-0.5,1.425-1.175,0.806-1.712
				c-0.256-0.221-0.86-0.356-0.86-0.356c-0.037,0,4.114,0.758,4.658,1.449c0.239,0.296,0.309,0.564,0.301,0.796
				c-0.027,0.489-0.426,0.8-0.426,0.8s-2.081,0.544-3.53,1.059c-2.469,0.883-8.661-0.152-10.802-0.316
				c-0.729-0.059-1.609-1.257-1.51-2.618c0.137-1.823,0.854-2.539,0.854-2.539s0.886-0.034,2.362,1.195
				C55.332,131.924,56.922,132.921,57.487,133.193z"/>
			<path fill="#7C7676" d="M53.189,135.014c0.309,0.101,1.572,0.475,3.284,0.763c3.672,0.611,5.464,0.526,7.529-0.021
				c1.495-0.396,2.259-0.638,2.958-0.936c0.361-0.158,1.074-0.594,1.074-0.766c0.019,0.646-0.235,0.816-0.235,0.816
				s-1.868,0.808-4.46,1.529c-3.065,0.849-6.026-0.179-7.865-0.382c-1.31-0.146-1.826,0.06-2.409-0.28
				c-0.796-0.451-1.033-1.25-1.059-1.367C51.994,134.292,52.214,134.683,53.189,135.014z"/>
		</g>
	</g>
	<path fill="#144163" d="M46.242,94.478c2.183,0,10.92,4.63,10.92,4.63c4.854,2.68,3.396,9.466,2.491,9.893
		c0,0-8.926,3.31-10.989,4.146c-3.258,1.315-10.7,2.196-14.687,0.672c-1.118-0.425-4.104-1.068-6.563-3.014
		c-1.807-1.427-2.695-4.141-2.348-6.938c0.412-3.282,0.967-5.257,0.967-5.257S45.879,94.478,46.242,94.478z"/>
	<g>
		<g enable-background="new    ">
			<g enable-background="new    ">
				<g>
					<path fill="#646D6D" d="M105.97,103.311l0.047,48.926c0,0.434,0.289,0.864,0.852,1.191c1.854,1.085,5.025,0.298,5.023-1.205
						l-0.051-48.932c0.01,1.51-3.168,2.285-5.016,1.215C106.253,104.171,105.97,103.738,105.97,103.311L105.97,103.311z"/>
				</g>
			</g>
		</g>
	</g>
	<g enable-background="new    ">
		<g>
			<polygon fill="#FFFFFF" points="104.386,119.248 149.308,93.236 50.927,36.574 6.009,62.589 			"/>
		</g>
		<polygon fill="#E0E0E0" points="6.009,62.589 104.386,119.248 149.308,93.236 149.302,95.447 104.382,121.46 6,64.794 		"/>
	</g>
	<g>
		<path fill="#969696" d="M85.602,60.627l-10.477-6.085c0.578,0.326,0.915,1.046,0.915,1.977c0,0.614-0.43,1.362-0.965,1.667
			l-5.711,3.296c-0.291,0.172-0.524,0.58-0.524,0.915c0,0.166,0.057,0.289,0.151,0.34l10.477,6.091
			c-0.096-0.063-0.154-0.181-0.154-0.344c0-0.335,0.233-0.744,0.528-0.909l5.713-3.303c0.535-0.303,0.961-1.056,0.961-1.663
			C86.51,61.675,86.18,60.955,85.602,60.627z"/>
		<g>
			<polygon fill="#212525" points="78.943,55.117 68.467,49.031 67.729,50.32 78.202,56.406 			"/>
		</g>
		<g>
			<polygon fill="#1C1E1F" points="86.346,59.342 75.871,53.25 68.467,49.031 78.943,55.117 			"/>
		</g>
		<g>
			<path fill="#656868" d="M78.943,55.117l-0.741,1.289l7.399,4.22c0.578,0.329,0.908,1.048,0.913,1.982
				c0,0.607-0.427,1.359-0.961,1.663l-5.713,3.303c-0.294,0.166-0.528,0.573-0.528,0.909c0.002,0.334,0.241,0.474,0.53,0.303
				l5.711-3.296c1.114-0.646,2.021-2.214,2.017-3.494c-0.001-1.25-0.45-2.216-1.223-2.656L78.943,55.117z"/>
		</g>
		<path fill="#696E70" d="M56.438,4.135l-1.046,0.607c0.358-0.209,0.859-0.18,1.404,0.137l1.047-0.607
			C57.298,3.951,56.796,3.926,56.438,4.135z"/>
		<polygon fill="#464949" points="58.126,34.965 58.207,6.585 57.154,7.196 57.077,35.574 102.737,61.935 103.78,61.324 		"/>
		<path fill="#929292" d="M105.923,69.014v-3.611l-1.053,0.616l0.006,3.609l0.002-0.009c0,0.625-0.219,1.063-0.57,1.271l1.047-0.61
			c0.354-0.204,0.574-0.644,0.576-1.267L105.923,69.014z"/>
		<g>
			<path fill="#A8A8A8" d="M104.866,66.028L54.737,37.083l-0.013,3.59c-0.003,1.258,0.881,2.783,1.977,3.418l17.785,10.265
				l10.76,6.204l17.653,10.191c1.092,0.63,1.979,0.122,1.979-1.136L104.866,66.028z"/>
		</g>
		<g>
			<polygon fill="#31B1CC" points="57.767,6.814 57.687,35.191 103.347,61.552 103.427,33.175 			"/>
		</g>
		<g>
			<polygon fill="#AAAAAA" points="102.737,61.935 103.78,61.324 103.864,32.947 102.817,33.555 			"/>
		</g>
		<g>
			<polygon fill="#F2F2F2" points="102.817,33.555 103.864,32.947 58.207,6.585 57.154,7.196 			"/>
		</g>
		<path fill="#2B2F30" d="M105.993,34.344c0-1.165-0.832-2.758-1.977-3.42L57.844,4.271c-0.546-0.32-1.047-0.344-1.405-0.136
			l-1.046,0.607c0.358-0.209,0.859-0.18,1.404,0.137l46.173,26.658c1.041,0.598,1.979,2.14,1.973,3.417l-0.066,28.231l-0.012,2.849
			l1.061-0.623l-0.004-2.836L105.993,34.344z"/>
		<g>
			<path fill="#505556" d="M102.97,31.536c1.094,0.633,1.979,2.161,1.973,3.417l-0.066,28.231v0.494l-0.006,2.361L54.737,37.083
				c0-0.432-0.018,2.955,0.076-31.078c0.008-1.246,0.895-1.755,1.983-1.128L102.97,31.536z M57.077,35.574l45.661,26.361
				l0.08-28.379L57.154,7.197L57.077,35.574L57.077,35.574z"/>
		</g>
	</g>
	<g>
		<path fill="#8C8C8C" d="M84.33,81.971L57.002,67.2c-0.167-0.096-0.268-0.301-0.27-0.587c0-0.156,0.028-0.32,0.078-0.479
			l27.334,14.768c-0.051,0.16-0.077,0.328-0.077,0.479C84.067,81.671,84.17,81.874,84.33,81.971L84.33,81.971z"/>
		<path fill="#D6D8D8" d="M58.302,64.959c-0.27-0.158-0.587-0.002-0.834,0.182l0,0l-12.691,8.002l27.18,15.094l12.859-8.331l0,0
			l0.041-0.033l0,0c0.358-0.249,0.618-0.237,0.774-0.139L58.302,64.959z"/>
		<path fill="#C9C9C9" d="M44.671,73.25c0.029-0.041,0.062-0.072,0.099-0.099l27.173,15.088c-0.033,0.025-0.064,0.059-0.092,0.098
			c-0.073,0.096-0.11,0.21-0.103,0.307c0.006,0.058,0.03,0.096,0.061,0.116L44.634,73.67c-0.035-0.022-0.057-0.063-0.061-0.117
			C44.563,73.461,44.604,73.341,44.671,73.25z"/>
		<polygon fill="#E0E0E0" points="71.943,88.239 44.771,73.151 44.777,73.143 71.957,88.237 		"/>
		<path fill="#ADADAD" d="M84.979,79.796c0.507-0.29,0.922-0.06,0.922,0.527c0,0.581-0.408,1.289-0.917,1.583
			c-0.502,0.294-0.917,0.057-0.919-0.528c0-0.151,0.026-0.318,0.078-0.478l-0.197,0.136L72,88.734
			c-0.142,0.082-0.238,0.038-0.253-0.091c-0.011-0.138,0.077-0.315,0.208-0.406l12.9-8.362c0,0,0.025-0.02,0.042-0.031l0.035-0.026
			C84.948,79.814,84.966,79.807,84.979,79.796z"/>
		<g>
			<path fill="#EAEAEA" d="M59.303,67.252c0.116,0.063,0.116,0.17,0.011,0.237l-1.157,0.724c-0.109,0.068-0.292,0.074-0.404,0.012
				l-1.207-0.646c-0.119-0.06-0.121-0.166-0.008-0.233l1.15-0.723c0.108-0.073,0.294-0.079,0.41-0.012L59.303,67.252z"/>
		</g>
		<g>
			<path fill="#EAEAEA" d="M61.408,68.38c0.113,0.061,0.119,0.171,0.009,0.235l-1.153,0.724c-0.114,0.069-0.294,0.074-0.412,0.014
				l-1.203-0.649c-0.119-0.059-0.12-0.167-0.008-0.232l1.152-0.723c0.11-0.071,0.292-0.075,0.411-0.012L61.408,68.38z"/>
		</g>
		<g>
			<path fill="#EAEAEA" d="M63.511,69.504c0.118,0.062,0.119,0.167,0.008,0.238l-1.153,0.721c-0.112,0.069-0.295,0.076-0.408,0.015
				l-1.206-0.646c-0.114-0.059-0.119-0.17-0.012-0.235l1.155-0.721c0.108-0.073,0.294-0.078,0.409-0.017L63.511,69.504z"/>
		</g>
		<g>
			<path fill="#EAEAEA" d="M65.616,70.632c0.116,0.059,0.116,0.164,0.004,0.233l-1.153,0.721c-0.108,0.074-0.296,0.076-0.404,0.017
				l-1.21-0.646c-0.111-0.063-0.118-0.165-0.01-0.237L63.998,70c0.115-0.07,0.294-0.076,0.412-0.011L65.616,70.632z"/>
		</g>
		<g>
			<path fill="#EAEAEA" d="M67.717,71.756c0.118,0.06,0.123,0.17,0.012,0.239l-1.155,0.722c-0.112,0.067-0.296,0.075-0.41,0.009
				l-1.206-0.646c-0.115-0.059-0.12-0.164-0.009-0.233l1.157-0.724c0.109-0.065,0.291-0.074,0.408-0.013L67.717,71.756z"/>
		</g>
		<g>
			<path fill="#EAEAEA" d="M69.821,72.883c0.116,0.059,0.118,0.167,0.009,0.234l-1.157,0.722c-0.106,0.069-0.292,0.077-0.405,0.013
				l-1.209-0.643c-0.114-0.061-0.118-0.17-0.007-0.239l1.155-0.72c0.11-0.07,0.294-0.076,0.408-0.014L69.821,72.883z"/>
		</g>
		<g>
			<path fill="#EAEAEA" d="M59.389,69.643c0.117,0.06,0.119,0.167,0.007,0.235l-1.149,0.723c-0.115,0.068-0.296,0.076-0.411,0.012
				l-3.312-1.771c-0.111-0.061-0.118-0.167-0.008-0.234l1.153-0.721c0.111-0.07,0.295-0.076,0.411-0.014L59.389,69.643z"/>
		</g>
		<g>
			<path fill="#EAEAEA" d="M61.494,70.766c0.114,0.066,0.116,0.168,0.008,0.235l-1.155,0.724c-0.111,0.072-0.294,0.079-0.405,0.017
				l-1.205-0.649c-0.117-0.062-0.124-0.167-0.013-0.235l1.155-0.722c0.106-0.065,0.292-0.073,0.408-0.012L61.494,70.766z"/>
		</g>
		<g>
			<path fill="#EAEAEA" d="M63.595,71.893c0.113,0.063,0.12,0.168,0.007,0.233l-1.153,0.726c-0.106,0.068-0.289,0.075-0.404,0.013
				l-1.21-0.644c-0.113-0.059-0.118-0.167-0.006-0.235l1.154-0.724c0.109-0.066,0.292-0.074,0.408-0.015L63.595,71.893z"/>
		</g>
		<g>
			<path fill="#EAEAEA" d="M65.695,73.019c0.12,0.062,0.123,0.166,0.016,0.233l-1.157,0.727c-0.112,0.063-0.293,0.074-0.407,0.01
				l-1.208-0.646c-0.112-0.064-0.118-0.167-0.006-0.235l1.152-0.723c0.112-0.067,0.293-0.072,0.41-0.015L65.695,73.019z"/>
		</g>
		<g>
			<path fill="#EAEAEA" d="M67.806,74.142c0.112,0.064,0.116,0.166,0.004,0.239l-1.153,0.721c-0.108,0.07-0.294,0.076-0.408,0.017
				l-1.208-0.651c-0.113-0.06-0.118-0.167-0.008-0.233l1.155-0.722c0.108-0.069,0.29-0.075,0.407-0.014L67.806,74.142z"/>
		</g>
		<g>
			<path fill="#EAEAEA" d="M57.348,70.917c0.117,0.063,0.119,0.17,0.008,0.237l-1.154,0.724c-0.107,0.067-0.292,0.076-0.41,0.013
				l-3.308-1.772c-0.114-0.06-0.119-0.164-0.008-0.235l1.153-0.722c0.112-0.067,0.295-0.075,0.412-0.017L57.348,70.917z"/>
		</g>
		<g>
			<path fill="#EAEAEA" d="M59.454,72.044c0.114,0.059,0.121,0.169,0.004,0.236l-1.151,0.722c-0.114,0.068-0.289,0.079-0.407,0.017
				l-1.208-0.65c-0.114-0.06-0.118-0.167-0.007-0.235l1.153-0.72c0.108-0.071,0.294-0.075,0.412-0.015L59.454,72.044z"/>
		</g>
		<g>
			<path fill="#EAEAEA" d="M61.556,73.169c0.115,0.062,0.119,0.168,0.01,0.234l-1.154,0.725c-0.113,0.067-0.296,0.076-0.413,0.011
				l-1.204-0.644c-0.116-0.063-0.12-0.17-0.006-0.234l1.152-0.723c0.11-0.074,0.289-0.079,0.405-0.018L61.556,73.169z"/>
		</g>
		<g>
			<path fill="#EAEAEA" d="M63.662,74.292c0.112,0.06,0.116,0.168,0.008,0.237l-1.156,0.722c-0.11,0.069-0.295,0.075-0.408,0.016
				L60.9,74.622c-0.119-0.063-0.12-0.172-0.011-0.239l1.156-0.721c0.111-0.068,0.294-0.075,0.404-0.015L63.662,74.292z"/>
		</g>
		<g>
			<path fill="#EAEAEA" d="M71.927,74.008c0.114,0.061,0.116,0.169,0.007,0.235l-1.156,0.719c-0.109,0.074-0.293,0.077-0.408,0.017
				l-1.208-0.647c-0.108-0.061-0.114-0.164-0.005-0.235l1.155-0.717c0.108-0.074,0.292-0.077,0.407-0.017L71.927,74.008z"/>
		</g>
		<g>
			<path fill="#EAEAEA" d="M69.904,75.271c0.116,0.062,0.118,0.166,0.011,0.235l-1.155,0.722c-0.108,0.067-0.294,0.075-0.408,0.015
				l-1.206-0.651c-0.116-0.057-0.118-0.164-0.007-0.234l1.153-0.72c0.108-0.067,0.293-0.076,0.406-0.014L69.904,75.271z"/>
		</g>
		<g>
			<path fill="#EAEAEA" d="M65.759,75.42c0.118,0.064,0.122,0.163,0.014,0.235l-1.156,0.721c-0.109,0.071-0.292,0.073-0.41,0.015
				l-1.203-0.644c-0.117-0.064-0.119-0.171-0.01-0.241l1.155-0.719c0.112-0.066,0.292-0.073,0.406-0.013L65.759,75.42z"/>
		</g>
		<g>
			<path fill="#EAEAEA" d="M67.863,76.545c0.118,0.065,0.122,0.166,0.008,0.235l-1.154,0.723c-0.108,0.068-0.291,0.077-0.406,0.015
				l-1.205-0.646c-0.114-0.062-0.12-0.167-0.011-0.238l1.153-0.72c0.11-0.068,0.294-0.076,0.413-0.018L67.863,76.545z"/>
		</g>
		<g>
			<path fill="#EAEAEA" d="M57.508,73.262c0.118,0.059,0.121,0.162,0.013,0.234l-1.154,0.718c-0.111,0.072-0.294,0.079-0.41,0.017
				l-5.413-2.899c-0.115-0.06-0.123-0.166-0.013-0.233l1.153-0.722c0.113-0.071,0.296-0.075,0.412-0.014L57.508,73.262z"/>
		</g>
		<g>
			<path fill="#EAEAEA" d="M59.614,74.383c0.112,0.062,0.115,0.167,0.005,0.239l-1.151,0.721c-0.113,0.07-0.295,0.074-0.412,0.015
				l-1.205-0.645c-0.115-0.064-0.119-0.171-0.008-0.239l1.156-0.719c0.111-0.072,0.291-0.076,0.407-0.018L59.614,74.383z"/>
		</g>
		<g>
			<path fill="#EAEAEA" d="M61.711,75.506c0.119,0.063,0.123,0.175,0.013,0.241l-1.154,0.72c-0.109,0.065-0.292,0.076-0.407,0.017
				l-1.208-0.646c-0.113-0.063-0.12-0.17-0.006-0.239l1.151-0.721c0.111-0.069,0.292-0.072,0.409-0.015L61.711,75.506z"/>
		</g>
		<g>
			<path fill="#EAEAEA" d="M63.816,76.635c0.118,0.059,0.123,0.165,0.01,0.238l-1.154,0.721c-0.109,0.068-0.294,0.075-0.409,0.011
				l-1.207-0.644c-0.113-0.063-0.116-0.166-0.006-0.239l1.151-0.719c0.109-0.072,0.296-0.073,0.413-0.013L63.816,76.635z"/>
		</g>
		<g>
			<path fill="#EAEAEA" d="M65.925,77.757c0.107,0.066,0.112,0.171,0.007,0.239l-1.155,0.721c-0.11,0.072-0.291,0.077-0.409,0.017
				l-1.204-0.646c-0.116-0.062-0.12-0.171-0.01-0.235l1.154-0.724c0.105-0.068,0.292-0.074,0.405-0.012L65.925,77.757z"/>
		</g>
		<g>
			<path fill="#EAEAEA" d="M74.028,75.133c0.116,0.06,0.118,0.167,0.009,0.235l-1.155,0.72c-0.11,0.069-0.292,0.078-0.41,0.014
				l-1.204-0.642c-0.114-0.061-0.122-0.171-0.007-0.237l1.156-0.721c0.106-0.068,0.291-0.078,0.406-0.016L74.028,75.133z"/>
		</g>
		<g>
			<path fill="#EAEAEA" d="M72.007,76.398c0.116,0.059,0.124,0.164,0.013,0.233l-1.157,0.723c-0.11,0.07-0.294,0.074-0.409,0.009
				l-1.208-0.645c-0.114-0.06-0.116-0.167-0.001-0.236l1.152-0.721c0.105-0.071,0.291-0.074,0.406-0.011L72.007,76.398z"/>
		</g>
		<g>
			<path fill="#EAEAEA" d="M69.97,77.668c0.112,0.065,0.118,0.172,0.009,0.236l-1.155,0.725c-0.114,0.07-0.293,0.075-0.408,0.015
				l-1.206-0.647c-0.117-0.062-0.119-0.165-0.009-0.239l1.155-0.718c0.106-0.071,0.292-0.075,0.408-0.016L69.97,77.668z"/>
		</g>
		<g>
			<path fill="#EAEAEA" d="M68.028,78.886c0.113,0.062,0.118,0.167,0.006,0.236l-1.152,0.722c-0.114,0.068-0.293,0.079-0.413,0.013
				l-1.2-0.644c-0.118-0.063-0.124-0.167-0.011-0.239l1.156-0.722c0.105-0.067,0.293-0.071,0.405-0.016L68.028,78.886z"/>
		</g>
		<g>
			<path fill="#EAEAEA" d="M51.396,72.202c0.112,0.062,0.113,0.167,0.007,0.236l-1.156,0.723c-0.108,0.066-0.295,0.072-0.407,0.009
				l-1.206-0.638c-0.115-0.07-0.12-0.175-0.011-0.245l1.153-0.717c0.111-0.068,0.298-0.073,0.409-0.013L51.396,72.202z"/>
		</g>
		<g>
			<path fill="#EAEAEA" d="M53.495,73.326c0.117,0.06,0.12,0.165,0.01,0.235l-1.157,0.722c-0.109,0.07-0.291,0.074-0.406,0.015
				l-1.205-0.647c-0.115-0.059-0.116-0.167-0.007-0.234l1.15-0.727c0.113-0.067,0.298-0.07,0.411-0.011L53.495,73.326z"/>
		</g>
		<g>
			<path fill="#EAEAEA" d="M55.604,74.45c0.11,0.062,0.114,0.167,0,0.237l-1.15,0.724c-0.109,0.065-0.294,0.073-0.409,0.012
				l-1.205-0.645c-0.117-0.063-0.118-0.169-0.01-0.237l1.151-0.722c0.116-0.069,0.295-0.075,0.411-0.016L55.604,74.45z"/>
		</g>
		<g>
			<path fill="#EAEAEA" d="M66.118,80.076c0.111,0.063,0.118,0.171,0.011,0.245l-1.158,0.717c-0.111,0.068-0.293,0.076-0.403,0.013
				l-9.628-5.145c-0.11-0.063-0.114-0.169-0.002-0.237l1.153-0.723c0.108-0.067,0.295-0.075,0.408-0.013L66.118,80.076z"/>
		</g>
		<g>
			<path fill="#EAEAEA" d="M76.132,76.258c0.112,0.063,0.116,0.168,0.011,0.238l-1.156,0.721c-0.107,0.068-0.294,0.071-0.407,0.014
				l-1.208-0.646c-0.118-0.063-0.12-0.169-0.008-0.237l1.152-0.723c0.112-0.063,0.297-0.072,0.412-0.015L76.132,76.258z"/>
		</g>
		<g>
			<path fill="#EAEAEA" d="M78.237,77.384c0.113,0.061,0.118,0.167,0.006,0.238l-1.154,0.72c-0.11,0.07-0.293,0.073-0.409,0.018
				l-1.202-0.651c-0.116-0.06-0.12-0.164-0.012-0.232l1.156-0.727c0.108-0.063,0.293-0.07,0.407-0.009L78.237,77.384z"/>
		</g>
		<g>
			<path fill="#EAEAEA" d="M82.442,79.635c0.112,0.06,0.12,0.168,0.007,0.233l-1.151,0.722c-0.114,0.072-0.295,0.078-0.413,0.016
				l-3.31-1.771c-0.112-0.063-0.118-0.167-0.007-0.234l1.153-0.724c0.114-0.07,0.293-0.073,0.411-0.014L82.442,79.635z"/>
		</g>
		<g>
			<path fill="#EAEAEA" d="M74.112,77.52c0.114,0.064,0.118,0.169,0.012,0.237l-1.158,0.722c-0.106,0.07-0.292,0.07-0.409,0.009
				l-1.203-0.642c-0.118-0.063-0.123-0.169-0.012-0.237l1.157-0.722c0.11-0.065,0.294-0.078,0.406-0.015L74.112,77.52z"/>
		</g>
		<g>
			<path fill="#EAEAEA" d="M76.22,78.644c0.112,0.064,0.118,0.171,0.004,0.243l-1.155,0.719c-0.106,0.065-0.293,0.075-0.409,0.014
				l-1.203-0.648c-0.116-0.059-0.122-0.167-0.012-0.237l1.156-0.715c0.112-0.072,0.294-0.081,0.41-0.017L76.22,78.644z"/>
		</g>
		<g>
			<path fill="#EAEAEA" d="M78.32,79.772c0.109,0.064,0.119,0.166,0.005,0.235l-1.149,0.723c-0.108,0.065-0.293,0.071-0.411,0.013
				l-1.203-0.646c-0.116-0.062-0.12-0.166-0.011-0.24l1.153-0.717c0.11-0.07,0.295-0.072,0.407-0.013L78.32,79.772z"/>
		</g>
		<g>
			<path fill="#EAEAEA" d="M80.421,80.894c0.116,0.061,0.119,0.167,0.007,0.241l-1.149,0.719c-0.114,0.07-0.294,0.07-0.41,0.014
				l-1.203-0.648c-0.12-0.057-0.122-0.164-0.009-0.23l1.153-0.724c0.106-0.066,0.292-0.076,0.41-0.01L80.421,80.894z"/>
		</g>
		<g>
			<path fill="#EAEAEA" d="M72.067,78.795c0.118,0.06,0.123,0.171,0.012,0.238l-1.154,0.719c-0.108,0.066-0.293,0.079-0.409,0.015
				l-1.205-0.644c-0.114-0.058-0.116-0.168-0.01-0.237l1.158-0.721c0.11-0.068,0.295-0.078,0.405-0.019L72.067,78.795z"/>
		</g>
		<g>
			<path fill="#EAEAEA" d="M74.177,79.925c0.11,0.06,0.116,0.167,0.005,0.235l-1.153,0.717c-0.112,0.071-0.294,0.078-0.411,0.017
				l-1.201-0.644c-0.118-0.064-0.122-0.171-0.012-0.239l1.152-0.721c0.116-0.068,0.295-0.074,0.413-0.013L74.177,79.925z"/>
		</g>
		<g>
			<path fill="#EAEAEA" d="M78.382,82.172c0.114,0.059,0.118,0.169,0.007,0.237l-1.147,0.721c-0.114,0.071-0.298,0.075-0.412,0.011
				l-3.314-1.769c-0.112-0.059-0.118-0.166-0.004-0.235l1.147-0.721c0.112-0.072,0.297-0.076,0.409-0.013L78.382,82.172z"/>
		</g>
		<g>
			<path fill="#EAEAEA" d="M70.126,80.011c0.114,0.061,0.118,0.164,0.009,0.239l-1.153,0.717c-0.11,0.075-0.294,0.075-0.407,0.015
				l-1.205-0.642c-0.114-0.066-0.121-0.171-0.011-0.239l1.157-0.727c0.106-0.063,0.292-0.071,0.404-0.009L70.126,80.011z"/>
		</g>
		<g>
			<path fill="#EAEAEA" d="M72.234,81.135c0.109,0.064,0.118,0.171,0.007,0.237l-1.154,0.723c-0.11,0.071-0.293,0.077-0.409,0.017
				l-1.205-0.646c-0.114-0.063-0.118-0.173-0.01-0.237l1.155-0.725c0.11-0.068,0.292-0.073,0.408-0.011L72.234,81.135z"/>
		</g>
		<g>
			<path fill="#EAEAEA" d="M76.438,83.387c0.116,0.063,0.12,0.167,0.007,0.239l-1.153,0.719c-0.109,0.07-0.292,0.075-0.407,0.013
				l-3.311-1.769c-0.114-0.061-0.118-0.167-0.007-0.237l1.153-0.725c0.107-0.066,0.293-0.073,0.406-0.011L76.438,83.387z"/>
		</g>
		<g>
			<path fill="#EAEAEA" d="M68.219,81.201c0.117,0.063,0.121,0.171,0.009,0.243l-1.148,0.715c-0.112,0.07-0.296,0.076-0.416,0.019
				l-1.203-0.647c-0.116-0.063-0.12-0.17-0.009-0.235l1.154-0.723c0.109-0.068,0.295-0.077,0.408-0.011L68.219,81.201z"/>
		</g>
		<g>
			<path fill="#EAEAEA" d="M74.534,84.578c0.11,0.063,0.114,0.172,0.006,0.236l-1.153,0.723c-0.116,0.072-0.295,0.077-0.411,0.017
				l-3.31-1.774c-0.114-0.059-0.118-0.166-0.012-0.237l1.158-0.719c0.11-0.068,0.295-0.072,0.409-0.014L74.534,84.578z"/>
		</g>
		<path fill="#8C8C8C" d="M57.753,68.226l-1.207-0.646c-0.056-0.027-0.089-0.073-0.089-0.113l0.004,0.232
			c0.005,0.044,0.035,0.087,0.091,0.117l1.206,0.647L57.753,68.226z"/>
		<path fill="#ADADAD" d="M59.394,67.368c0,0.046-0.024,0.089-0.081,0.122l-1.157,0.724c-0.109,0.068-0.292,0.074-0.404,0.012
			l0.004,0.237c0.114,0.063,0.298,0.056,0.406-0.016l1.156-0.722c0.058-0.031,0.083-0.078,0.077-0.118L59.394,67.368z"/>
		<path fill="#8C8C8C" d="M59.853,69.352l-1.203-0.648c-0.059-0.029-0.087-0.074-0.092-0.114l0.013,0.238
			c0,0.042,0.026,0.083,0.087,0.115l1.205,0.646L59.853,69.352z"/>
		<path fill="#ADADAD" d="M61.497,68.498c0,0.042-0.023,0.083-0.081,0.118l-1.152,0.724c-0.114,0.069-0.295,0.074-0.413,0.014
			l0.01,0.235c0.113,0.061,0.296,0.055,0.41-0.015l1.15-0.719c0.058-0.035,0.083-0.081,0.083-0.118L61.497,68.498z"/>
		<path fill="#8C8C8C" d="M61.958,70.478l-1.205-0.646c-0.059-0.029-0.088-0.074-0.088-0.118l0.004,0.239
			c0.002,0.041,0.031,0.083,0.091,0.116l1.206,0.644L61.958,70.478z"/>
		<path fill="#ADADAD" d="M63.599,69.62c0,0.043-0.025,0.093-0.08,0.123l-1.153,0.72c-0.112,0.07-0.295,0.076-0.408,0.016
			l0.007,0.235c0.115,0.06,0.295,0.054,0.405-0.014l1.158-0.72c0.053-0.038,0.079-0.084,0.079-0.122L63.599,69.62z"/>
		<path fill="#8C8C8C" d="M64.064,71.603l-1.21-0.646c-0.057-0.033-0.088-0.076-0.088-0.114l0.007,0.235
			c0,0.042,0.034,0.084,0.092,0.116l1.206,0.645L64.064,71.603z"/>
		<path fill="#ADADAD" d="M65.704,70.746c0.003,0.046-0.027,0.086-0.083,0.12l-1.153,0.721c-0.108,0.074-0.296,0.076-0.404,0.017
			l0.006,0.237c0.113,0.062,0.292,0.053,0.405-0.016l1.158-0.72c0.049-0.039,0.078-0.079,0.078-0.124L65.704,70.746z"/>
		<path fill="#8C8C8C" d="M66.164,72.725l-1.206-0.646c-0.057-0.026-0.086-0.07-0.088-0.113l0.007,0.234
			c0,0.043,0.033,0.083,0.089,0.136l1.204,0.644L66.164,72.725z"/>
		<path fill="#ADADAD" d="M67.81,71.874c0,0.042-0.031,0.086-0.081,0.121l-1.155,0.722c-0.112,0.067-0.296,0.075-0.41,0.009
			l0.006,0.238c0.118,0.062,0.299,0.055,0.412-0.011l1.151-0.726c0.056-0.035,0.083-0.072,0.083-0.118L67.81,71.874z"/>
		<path fill="#8C8C8C" d="M68.27,73.852l-1.208-0.643c-0.058-0.03-0.088-0.076-0.088-0.116l0.004,0.234
			c0.003,0.046,0.035,0.084,0.094,0.118l1.206,0.642L68.27,73.852z"/>
		<path fill="#ADADAD" d="M69.911,72.998c0,0.041-0.025,0.089-0.081,0.12l-1.157,0.722c-0.106,0.069-0.291,0.077-0.405,0.013
			l0.007,0.234c0.116,0.068,0.296,0.058,0.405-0.011l1.157-0.718c0.058-0.041,0.079-0.079,0.079-0.125L69.911,72.998z"/>
		<path fill="#8C8C8C" d="M57.837,70.612l-3.312-1.772c-0.057-0.028-0.089-0.073-0.089-0.112l0.006,0.229
			c0,0.045,0.034,0.091,0.092,0.12l3.306,1.771L57.837,70.612z"/>
		<path fill="#ADADAD" d="M59.479,69.761c0,0.042-0.024,0.083-0.083,0.118l-1.149,0.723c-0.115,0.068-0.296,0.076-0.411,0.012
			l0.003,0.236c0.115,0.063,0.3,0.055,0.41-0.015l1.157-0.721c0.052-0.031,0.078-0.077,0.078-0.118L59.479,69.761z"/>
		<path fill="#8C8C8C" d="M59.941,71.74l-1.205-0.648c-0.06-0.033-0.092-0.07-0.092-0.112l0.005,0.235
			c0.004,0.042,0.032,0.083,0.092,0.112l1.2,0.647L59.941,71.74z"/>
		<path fill="#ADADAD" d="M61.586,70.881c0,0.042-0.03,0.089-0.085,0.12l-1.155,0.724c-0.111,0.072-0.294,0.079-0.405,0.017
			l0.001,0.233c0.119,0.063,0.303,0.055,0.412-0.013l1.154-0.722c0.053-0.032,0.083-0.078,0.08-0.12L61.586,70.881z"/>
		<path fill="#8C8C8C" d="M62.045,72.863l-1.21-0.643c-0.054-0.032-0.085-0.075-0.085-0.118l0.007,0.234
			c0,0.044,0.029,0.088,0.089,0.115l1.206,0.648L62.045,72.863z"/>
		<path fill="#ADADAD" d="M63.682,72.009c0,0.044-0.021,0.086-0.08,0.117l-1.153,0.726c-0.106,0.068-0.289,0.075-0.404,0.013
			l0.006,0.235c0.116,0.062,0.294,0.056,0.406-0.013l1.156-0.722c0.059-0.034,0.079-0.079,0.079-0.121L63.682,72.009z"/>
		<path fill="#8C8C8C" d="M64.148,73.99l-1.208-0.646c-0.058-0.029-0.089-0.073-0.089-0.118l0.01,0.237
			c0,0.044,0.031,0.084,0.087,0.122l1.209,0.643L64.148,73.99z"/>
		<path fill="#ADADAD" d="M65.787,73.135c0.001,0.044-0.023,0.084-0.076,0.118l-1.157,0.727c-0.112,0.063-0.293,0.074-0.407,0.01
			l0.008,0.237c0.111,0.06,0.295,0.056,0.404-0.015l1.157-0.725c0.056-0.03,0.078-0.077,0.078-0.118L65.787,73.135z"/>
		<path fill="#8C8C8C" d="M66.249,75.118l-1.208-0.65c-0.054-0.031-0.085-0.07-0.087-0.114l0.005,0.235
			c0.003,0.042,0.033,0.085,0.091,0.118l1.204,0.645L66.249,75.118z"/>
		<path fill="#ADADAD" d="M67.891,74.259c0.005,0.04-0.023,0.087-0.081,0.122l-1.154,0.721c-0.109,0.07-0.293,0.076-0.409,0.017
			l0.006,0.233c0.121,0.061,0.301,0.053,0.411-0.015l1.156-0.721c0.051-0.037,0.077-0.075,0.077-0.116L67.891,74.259z"/>
		<path fill="#8C8C8C" d="M55.792,71.89l-3.308-1.772c-0.055-0.031-0.086-0.071-0.087-0.114l0.008,0.233
			c0,0.042,0.029,0.089,0.086,0.118l3.31,1.769L55.792,71.89z"/>
		<path fill="#ADADAD" d="M57.438,71.036c0,0.042-0.021,0.086-0.082,0.117l-1.154,0.724c-0.107,0.067-0.292,0.076-0.41,0.013
			l0.009,0.233c0.118,0.064,0.301,0.057,0.409-0.015l1.153-0.718c0.059-0.035,0.082-0.078,0.082-0.123L57.438,71.036z"/>
		<path fill="#8C8C8C" d="M57.899,73.019l-1.208-0.651c-0.059-0.029-0.09-0.074-0.09-0.114l0.008,0.233
			c0,0.048,0.033,0.085,0.092,0.118l1.204,0.647L57.899,73.019z"/>
		<path fill="#ADADAD" d="M59.539,72.16c0.004,0.042-0.023,0.084-0.082,0.121l-1.151,0.722c-0.114,0.068-0.289,0.079-0.407,0.017
			l0.005,0.235c0.114,0.057,0.296,0.052,0.41-0.017l1.152-0.723c0.055-0.036,0.082-0.077,0.082-0.122L59.539,72.16z"/>
		<path fill="#8C8C8C" d="M60,74.139l-1.204-0.644c-0.054-0.032-0.088-0.075-0.088-0.115l0.006,0.229
			c0,0.049,0.034,0.091,0.088,0.118l1.208,0.648L60,74.139z"/>
		<path fill="#ADADAD" d="M61.646,73.284c0.002,0.042-0.03,0.088-0.08,0.12l-1.154,0.725c-0.113,0.067-0.296,0.076-0.413,0.011
			l0.009,0.236c0.116,0.061,0.298,0.055,0.411-0.013l1.155-0.719c0.051-0.037,0.077-0.079,0.077-0.127L61.646,73.284z"/>
		<path fill="#8C8C8C" d="M62.107,75.267L60.9,74.622c-0.059-0.033-0.089-0.075-0.091-0.114l0.006,0.231
			c0.006,0.041,0.036,0.086,0.092,0.112l1.207,0.649L62.107,75.267z"/>
		<path fill="#ADADAD" d="M63.749,74.41c0.001,0.041-0.025,0.091-0.079,0.12l-1.156,0.722c-0.11,0.069-0.295,0.075-0.408,0.016
			l0.006,0.235c0.113,0.062,0.297,0.06,0.407-0.018l1.157-0.72c0.055-0.033,0.079-0.077,0.079-0.12L63.749,74.41z"/>
		<path fill="#8C8C8C" d="M70.371,74.979l-1.208-0.648c-0.057-0.031-0.084-0.071-0.084-0.118l0.005,0.237
			c0.002,0.044,0.033,0.091,0.092,0.12l1.205,0.645L70.371,74.979z"/>
		<path fill="#ADADAD" d="M72.013,74.125c0,0.043-0.026,0.083-0.079,0.119l-1.156,0.719c-0.109,0.074-0.293,0.077-0.408,0.017
			l0.007,0.235c0.118,0.063,0.297,0.058,0.405-0.013l1.158-0.722c0.053-0.038,0.081-0.078,0.079-0.122L72.013,74.125z"/>
		<path fill="#8C8C8C" d="M68.352,76.242l-1.206-0.651c-0.056-0.026-0.086-0.07-0.086-0.114l0.007,0.237
			c0,0.044,0.028,0.086,0.089,0.116l1.202,0.646L68.352,76.242z"/>
		<path fill="#ADADAD" d="M69.997,75.386c0,0.042-0.027,0.083-0.083,0.121l-1.154,0.721c-0.109,0.068-0.295,0.075-0.41,0.016
			l0.005,0.232c0.118,0.06,0.301,0.054,0.407-0.011l1.157-0.723c0.055-0.032,0.081-0.077,0.081-0.119L69.997,75.386z"/>
		<path fill="#8C8C8C" d="M64.206,76.391l-1.203-0.645c-0.06-0.032-0.088-0.071-0.09-0.12l0.009,0.237
			c0,0.043,0.028,0.083,0.089,0.114l1.207,0.648L64.206,76.391z"/>
		<path fill="#ADADAD" d="M65.852,75.54c0.005,0.037-0.026,0.083-0.081,0.116l-1.156,0.721c-0.108,0.071-0.292,0.073-0.409,0.015
			l0.01,0.237c0.114,0.061,0.295,0.054,0.407-0.016l1.153-0.723c0.056-0.033,0.083-0.076,0.083-0.118L65.852,75.54z"/>
		<path fill="#8C8C8C" d="M66.313,77.517l-1.206-0.645c-0.056-0.032-0.086-0.074-0.092-0.121l0.009,0.237
			c0,0.047,0.031,0.086,0.093,0.115l1.202,0.647L66.313,77.517z"/>
		<path fill="#ADADAD" d="M67.954,76.661c0,0.044-0.028,0.083-0.083,0.12l-1.154,0.723c-0.108,0.068-0.291,0.077-0.406,0.015
			l0.005,0.233c0.116,0.063,0.295,0.057,0.411-0.011l1.152-0.725c0.06-0.033,0.081-0.075,0.081-0.118L67.954,76.661z"/>
		<path fill="#8C8C8C" d="M55.958,74.23l-5.413-2.899c-0.061-0.028-0.087-0.07-0.091-0.114l0.007,0.235
			c0,0.044,0.03,0.083,0.091,0.118l5.412,2.896L55.958,74.23z"/>
		<path fill="#ADADAD" d="M57.596,73.374c0.005,0.046-0.024,0.087-0.076,0.123l-1.154,0.718c-0.111,0.072-0.294,0.079-0.41,0.017
			l0.006,0.235c0.115,0.064,0.296,0.055,0.409-0.015l1.154-0.723c0.054-0.035,0.078-0.079,0.078-0.121L57.596,73.374z"/>
		<path fill="#8C8C8C" d="M58.058,75.357l-1.206-0.646c-0.056-0.031-0.089-0.075-0.089-0.118l0.006,0.235
			c0.006,0.042,0.032,0.088,0.092,0.115l1.205,0.643L58.058,75.357z"/>
		<path fill="#ADADAD" d="M59.699,74.503c0.003,0.04-0.025,0.083-0.08,0.119l-1.151,0.721c-0.113,0.07-0.295,0.074-0.412,0.015
			l0.009,0.23c0.115,0.064,0.294,0.059,0.409-0.011l1.152-0.725c0.057-0.029,0.083-0.074,0.079-0.114L59.699,74.503z"/>
		<path fill="#8C8C8C" d="M60.163,76.483l-1.208-0.646c-0.06-0.033-0.086-0.075-0.086-0.119l0.003,0.233
			c0.004,0.044,0.036,0.088,0.093,0.116l1.203,0.651L60.163,76.483z"/>
		<path fill="#ADADAD" d="M61.804,75.624c0.005,0.048-0.027,0.086-0.08,0.123l-1.154,0.72c-0.109,0.065-0.292,0.076-0.407,0.017
			l0.005,0.236c0.112,0.06,0.3,0.052,0.41-0.014l1.152-0.727c0.057-0.033,0.082-0.073,0.081-0.118L61.804,75.624z"/>
		<path fill="#8C8C8C" d="M62.264,77.604l-1.207-0.645c-0.055-0.034-0.087-0.072-0.087-0.12l0.005,0.239
			c0,0.042,0.034,0.083,0.091,0.119l1.205,0.646L62.264,77.604z"/>
		<path fill="#ADADAD" d="M63.908,76.748c0,0.05-0.024,0.092-0.082,0.125l-1.154,0.721c-0.109,0.068-0.294,0.075-0.409,0.011
			l0.008,0.241c0.115,0.059,0.298,0.051,0.408-0.013l1.157-0.727c0.052-0.03,0.078-0.074,0.078-0.119L63.908,76.748z"/>
		<path fill="#8C8C8C" d="M64.368,78.732l-1.203-0.645c-0.057-0.033-0.091-0.07-0.091-0.12l0.01,0.234
			c0,0.045,0.028,0.089,0.084,0.12l1.208,0.646L64.368,78.732z"/>
		<path fill="#ADADAD" d="M66.01,77.876c0,0.042-0.026,0.088-0.079,0.12l-1.154,0.721c-0.111,0.072-0.291,0.077-0.409,0.017
			l0.007,0.235c0.114,0.06,0.296,0.058,0.408-0.014l1.153-0.724c0.058-0.035,0.082-0.075,0.08-0.12L66.01,77.876z"/>
		<path fill="#8C8C8C" d="M72.475,76.102L71.27,75.46c-0.058-0.033-0.09-0.075-0.09-0.117l0.007,0.233
			c0,0.044,0.035,0.088,0.09,0.115l1.205,0.649L72.475,76.102z"/>
		<path fill="#ADADAD" d="M74.12,75.248c0.002,0.042-0.027,0.088-0.083,0.121l-1.155,0.72c-0.11,0.069-0.292,0.078-0.409,0.014
			l0.007,0.239c0.114,0.063,0.298,0.053,0.409-0.013l1.154-0.723c0.053-0.035,0.083-0.083,0.081-0.122L74.12,75.248z"/>
		<path fill="#8C8C8C" d="M70.456,77.364l-1.208-0.646c-0.057-0.027-0.084-0.074-0.084-0.112l0.005,0.234
			c0,0.044,0.03,0.086,0.09,0.115l1.208,0.648L70.456,77.364z"/>
		<path fill="#ADADAD" d="M72.101,76.511c0,0.042-0.033,0.09-0.081,0.121l-1.157,0.723c-0.11,0.07-0.295,0.074-0.409,0.009
			l0.009,0.241c0.112,0.06,0.295,0.054,0.411-0.017l1.151-0.723c0.053-0.032,0.079-0.075,0.077-0.121L72.101,76.511z"/>
		<path fill="#8C8C8C" d="M68.417,78.644l-1.206-0.647c-0.06-0.031-0.091-0.072-0.091-0.114l0.004,0.233
			c0,0.041,0.034,0.084,0.096,0.116l1.203,0.646L68.417,78.644z"/>
		<path fill="#ADADAD" d="M70.057,77.788c0.002,0.045-0.026,0.083-0.077,0.117l-1.155,0.725c-0.114,0.07-0.293,0.075-0.408,0.015
			l0.005,0.234c0.118,0.06,0.299,0.054,0.407-0.014l1.156-0.721c0.055-0.035,0.081-0.078,0.081-0.12L70.057,77.788z"/>
		<path fill="#8C8C8C" d="M66.469,79.857l-1.2-0.644c-0.06-0.035-0.09-0.074-0.09-0.118l0.009,0.235
			c0,0.041,0.025,0.086,0.084,0.114l1.206,0.647L66.469,79.857z"/>
		<path fill="#ADADAD" d="M68.117,78.999c0,0.048-0.025,0.091-0.083,0.124l-1.152,0.722c-0.114,0.068-0.293,0.079-0.413,0.013
			l0.009,0.235c0.118,0.063,0.297,0.055,0.408-0.017l1.157-0.718c0.054-0.032,0.077-0.08,0.075-0.122L68.117,78.999z"/>
		<path fill="#8C8C8C" d="M49.841,73.169l-1.205-0.639c-0.059-0.035-0.089-0.079-0.093-0.122l0.007,0.236
			c0.005,0.04,0.033,0.085,0.086,0.112l1.21,0.649L49.841,73.169z"/>
		<path fill="#ADADAD" d="M51.48,72.318c0,0.039-0.023,0.084-0.077,0.12l-1.156,0.723c-0.108,0.066-0.295,0.072-0.407,0.009
			l0.005,0.239c0.112,0.063,0.301,0.053,0.411-0.015l1.152-0.717c0.057-0.039,0.081-0.083,0.081-0.125L51.48,72.318z"/>
		<path fill="#8C8C8C" d="M51.943,74.298l-1.205-0.648c-0.057-0.032-0.086-0.064-0.091-0.112l0.009,0.235
			c0,0.041,0.029,0.083,0.088,0.115l1.206,0.646L51.943,74.298z"/>
		<path fill="#ADADAD" d="M53.583,73.444c0.005,0.04-0.02,0.084-0.078,0.118l-1.157,0.722c-0.109,0.07-0.291,0.074-0.406,0.015
			l0.007,0.235c0.113,0.061,0.297,0.053,0.407-0.015l1.154-0.722c0.056-0.031,0.085-0.078,0.081-0.118L53.583,73.444z"/>
		<path fill="#8C8C8C" d="M54.046,75.423l-1.205-0.645c-0.06-0.033-0.087-0.071-0.093-0.118l0.01,0.239
			c0.003,0.041,0.03,0.084,0.089,0.11l1.204,0.65L54.046,75.423z"/>
		<path fill="#ADADAD" d="M55.688,74.57c0,0.04-0.024,0.081-0.083,0.118l-1.15,0.724c-0.109,0.065-0.294,0.073-0.409,0.012
			l0.006,0.238c0.119,0.057,0.297,0.053,0.41-0.015l1.157-0.724c0.052-0.034,0.076-0.075,0.076-0.117L55.688,74.57z"/>
		<path fill="#8C8C8C" d="M64.567,81.048l-9.628-5.144c-0.053-0.032-0.082-0.076-0.083-0.122l0.006,0.24
			c0.001,0.041,0.033,0.084,0.089,0.117l9.619,5.146L64.567,81.048z"/>
		<path fill="#ADADAD" d="M66.205,80.199c0,0.035-0.025,0.084-0.077,0.122l-1.157,0.717c-0.11,0.068-0.294,0.076-0.403,0.013
			l0.003,0.235c0.115,0.063,0.299,0.06,0.408-0.014l1.155-0.718c0.057-0.035,0.083-0.083,0.083-0.123L66.205,80.199z"/>
		<path fill="#8C8C8C" d="M74.579,77.23l-1.206-0.646c-0.06-0.033-0.089-0.073-0.093-0.118l0.009,0.239
			c0,0.039,0.031,0.084,0.091,0.118l1.204,0.64L74.579,77.23z"/>
		<path fill="#ADADAD" d="M76.222,76.375c0.002,0.045-0.029,0.087-0.079,0.12l-1.156,0.721c-0.107,0.068-0.294,0.071-0.407,0.014
			l0.005,0.232c0.116,0.064,0.3,0.059,0.407-0.013l1.155-0.721c0.059-0.036,0.081-0.078,0.081-0.119L76.222,76.375z"/>
		<path fill="#8C8C8C" d="M76.681,78.358l-1.202-0.651c-0.061-0.029-0.092-0.07-0.092-0.114l0.005,0.239
			c0.002,0.041,0.029,0.081,0.09,0.114l1.208,0.646L76.681,78.358z"/>
		<path fill="#ADADAD" d="M78.321,77.5c0,0.043-0.02,0.086-0.079,0.122l-1.154,0.72c-0.11,0.07-0.293,0.073-0.409,0.018l0.01,0.232
			c0.116,0.06,0.295,0.053,0.405-0.015l1.157-0.723c0.055-0.03,0.079-0.078,0.079-0.118L78.321,77.5z"/>
		<path fill="#8C8C8C" d="M80.888,80.605l-3.312-1.772c-0.058-0.031-0.086-0.072-0.086-0.118l0.007,0.238
			c0,0.043,0.027,0.085,0.086,0.115l3.312,1.773L80.888,80.605z"/>
		<path fill="#ADADAD" d="M82.532,79.749c0.001,0.046-0.026,0.092-0.083,0.12l-1.151,0.722c-0.114,0.072-0.295,0.078-0.413,0.016
			l0.009,0.237c0.112,0.058,0.297,0.051,0.409-0.018l1.157-0.721c0.049-0.033,0.079-0.075,0.077-0.12L82.532,79.749z"/>
		<path fill="#8C8C8C" d="M72.557,78.488l-1.202-0.643c-0.059-0.031-0.094-0.074-0.094-0.116l0.011,0.233
			c0.002,0.045,0.031,0.085,0.084,0.116l1.208,0.646L72.557,78.488z"/>
		<path fill="#ADADAD" d="M74.199,77.636c0.003,0.042-0.022,0.088-0.075,0.122l-1.158,0.722c-0.106,0.07-0.292,0.07-0.409,0.009
			l0.007,0.237c0.116,0.063,0.298,0.057,0.411-0.015l1.154-0.719c0.053-0.035,0.077-0.076,0.077-0.122L74.199,77.636z"/>
		<path fill="#8C8C8C" d="M74.662,79.618l-1.204-0.647c-0.06-0.029-0.087-0.074-0.087-0.118l0.004,0.239
			c0,0.041,0.03,0.083,0.09,0.112l1.207,0.648L74.662,79.618z"/>
		<path fill="#ADADAD" d="M76.305,78.762c0,0.041-0.024,0.087-0.083,0.124l-1.154,0.72c-0.107,0.064-0.294,0.075-0.41,0.013
			l0.011,0.234c0.112,0.064,0.296,0.057,0.407-0.011l1.155-0.722c0.054-0.035,0.083-0.079,0.079-0.122L76.305,78.762z"/>
		<path fill="#8C8C8C" d="M76.766,80.743l-1.203-0.647c-0.063-0.034-0.086-0.071-0.09-0.118l0.008,0.236
			c0,0.041,0.027,0.083,0.086,0.118l1.204,0.646L76.766,80.743z"/>
		<path fill="#ADADAD" d="M78.412,79.888c0,0.043-0.028,0.084-0.086,0.12l-1.15,0.723c-0.108,0.065-0.295,0.071-0.41,0.013
			l0.005,0.235c0.116,0.063,0.297,0.052,0.409-0.013l1.153-0.719c0.057-0.039,0.084-0.083,0.084-0.125L78.412,79.888z"/>
		<path fill="#8C8C8C" d="M78.871,81.867l-1.204-0.647c-0.063-0.027-0.088-0.07-0.094-0.112l0.007,0.238
			c0,0.04,0.031,0.08,0.094,0.109l1.203,0.648L78.871,81.867z"/>
		<path fill="#ADADAD" d="M80.513,81.013c0,0.042-0.026,0.086-0.085,0.122l-1.149,0.719c-0.114,0.07-0.295,0.07-0.409,0.014
			l0.005,0.236c0.12,0.062,0.298,0.055,0.413-0.013l1.15-0.723c0.06-0.035,0.084-0.077,0.081-0.12L80.513,81.013z"/>
		<path fill="#8C8C8C" d="M70.518,79.767l-1.204-0.644c-0.057-0.031-0.09-0.076-0.09-0.119l0.009,0.239
			c0.004,0.042,0.028,0.084,0.084,0.115l1.214,0.646L70.518,79.767z"/>
		<path fill="#ADADAD" d="M72.16,78.912c0.003,0.044-0.024,0.086-0.081,0.122l-1.154,0.719c-0.108,0.066-0.293,0.079-0.409,0.015
			l0.014,0.237c0.109,0.06,0.293,0.056,0.401-0.013l1.157-0.725c0.054-0.033,0.079-0.077,0.079-0.116L72.16,78.912z"/>
		<path fill="#8C8C8C" d="M72.621,80.894l-1.203-0.645c-0.059-0.031-0.089-0.077-0.089-0.122l0.006,0.238
			c0.002,0.043,0.029,0.086,0.09,0.118l1.204,0.646L72.621,80.894z"/>
		<path fill="#ADADAD" d="M74.264,80.037c0,0.042-0.022,0.089-0.081,0.123l-1.153,0.717c-0.112,0.071-0.294,0.078-0.411,0.017
			l0.008,0.235c0.118,0.063,0.297,0.055,0.408-0.015l1.153-0.725c0.059-0.028,0.086-0.07,0.083-0.116L74.264,80.037z"/>
		<path fill="#8C8C8C" d="M76.831,83.141l-3.313-1.769c-0.056-0.027-0.089-0.072-0.089-0.114l0.008,0.237
			c0,0.037,0.027,0.083,0.088,0.11l3.309,1.771L76.831,83.141z"/>
		<path fill="#ADADAD" d="M78.47,82.29c0.002,0.044-0.023,0.084-0.081,0.12l-1.147,0.721c-0.114,0.071-0.297,0.075-0.413,0.011
			l0.003,0.237c0.118,0.066,0.296,0.058,0.411-0.011l1.156-0.723c0.055-0.032,0.083-0.077,0.081-0.119L78.47,82.29z"/>
		<path fill="#8C8C8C" d="M68.577,80.982l-1.206-0.643c-0.059-0.034-0.089-0.077-0.089-0.116l0.005,0.233
			c0.005,0.038,0.03,0.08,0.091,0.114l1.202,0.648L68.577,80.982z"/>
		<path fill="#ADADAD" d="M70.218,80.129c0,0.041-0.023,0.084-0.083,0.122l-1.153,0.717c-0.11,0.075-0.294,0.075-0.407,0.015
			l0.003,0.237c0.113,0.06,0.299,0.053,0.406-0.018l1.157-0.717c0.054-0.034,0.083-0.078,0.083-0.123L70.218,80.129z"/>
		<path fill="#8C8C8C" d="M70.68,82.111l-1.207-0.646c-0.057-0.036-0.088-0.074-0.092-0.118l0.009,0.235
			c0,0.042,0.029,0.084,0.09,0.112l1.207,0.648L70.68,82.111z"/>
		<path fill="#ADADAD" d="M72.32,81.252c0.004,0.048-0.023,0.083-0.079,0.12l-1.154,0.723c-0.11,0.071-0.293,0.077-0.409,0.017
			l0.008,0.233c0.113,0.063,0.297,0.056,0.406-0.016l1.156-0.718c0.053-0.033,0.079-0.079,0.079-0.123L72.32,81.252z"/>
		<path fill="#8C8C8C" d="M74.887,84.356l-3.312-1.767c-0.058-0.031-0.084-0.072-0.091-0.12l0.01,0.235
			c0,0.048,0.03,0.088,0.088,0.118l3.312,1.771L74.887,84.356z"/>
		<path fill="#ADADAD" d="M76.527,83.505c0,0.042-0.024,0.084-0.081,0.121l-1.155,0.719c-0.107,0.07-0.291,0.075-0.406,0.013
			l0.009,0.235c0.11,0.06,0.295,0.058,0.406-0.015l1.155-0.717c0.055-0.042,0.083-0.083,0.077-0.121L76.527,83.505z"/>
		<path fill="#8C8C8C" d="M66.665,82.176l-1.203-0.648c-0.061-0.031-0.09-0.074-0.09-0.114l0.007,0.235
			c0,0.042,0.028,0.085,0.093,0.116l1.201,0.644L66.665,82.176z"/>
		<path fill="#ADADAD" d="M68.312,81.32c0,0.042-0.028,0.086-0.084,0.124l-1.148,0.715c-0.112,0.07-0.296,0.076-0.416,0.019
			l0.009,0.232c0.118,0.061,0.3,0.057,0.41-0.009l1.155-0.727c0.055-0.035,0.081-0.075,0.081-0.119L68.312,81.32z"/>
		<path fill="#8C8C8C" d="M68.77,83.302l-1.203-0.648c-0.061-0.033-0.092-0.068-0.092-0.118l0.006,0.237
			c0,0.042,0.033,0.086,0.09,0.117l1.208,0.645L68.77,83.302z"/>
		<path fill="#ADADAD" d="M70.414,82.443c0,0.044-0.024,0.092-0.081,0.124l-1.155,0.721c-0.106,0.068-0.295,0.071-0.409,0.015
			l0.009,0.234c0.115,0.062,0.301,0.057,0.405-0.014l1.153-0.721c0.059-0.035,0.088-0.079,0.085-0.121L70.414,82.443z"/>
		<g>
			<path fill="#EAEAEA" d="M70.321,82.329c0.116,0.062,0.118,0.165,0.011,0.238l-1.155,0.721c-0.106,0.068-0.295,0.071-0.409,0.015
				l-1.203-0.648c-0.116-0.062-0.119-0.168-0.01-0.237l1.156-0.722c0.106-0.068,0.291-0.077,0.406-0.012L70.321,82.329z"/>
		</g>
		<path fill="#8C8C8C" d="M72.978,85.552l-3.312-1.774c-0.06-0.027-0.087-0.068-0.091-0.114l0.009,0.236
			c0,0.043,0.031,0.086,0.091,0.116l3.307,1.768L72.978,85.552z"/>
		<path fill="#ADADAD" d="M74.621,84.695c0,0.042-0.03,0.087-0.083,0.119l-1.154,0.723c-0.116,0.072-0.294,0.077-0.41,0.017
			l0.005,0.231c0.118,0.064,0.298,0.059,0.411-0.011l1.153-0.727c0.058-0.031,0.085-0.073,0.085-0.117L74.621,84.695z"/>
	</g>
	<g>
		<g enable-background="new    ">
			<path fill="#C40D0B" d="M43.692,35.925l0.023,9.218c0.003,0.65,0.429,1.3,1.285,1.792c1.722,1.001,4.514,1.001,6.245,0
				c0.874-0.498,1.305-1.16,1.301-1.821l-0.02-9.215c0.003,0.656-0.436,1.315-1.308,1.821c-1.729,0.999-4.526,0.999-6.249,0
				C44.118,37.223,43.693,36.574,43.692,35.925L43.692,35.925z"/>
		</g>
		<path fill="#E41409" d="M44.994,34.101c-1.729,1.001-1.739,2.62-0.022,3.619c1.722,0.999,4.519,0.999,6.249,0
			c1.731-0.999,1.741-2.618,0.02-3.619C49.521,33.104,46.727,33.104,44.994,34.101z"/>
		<path fill="#8C0F06" d="M45.249,34.271c-1.597,0.865-1.606,2.274-0.021,3.144c1.581,0.873,4.157,0.873,5.751,0
			c1.589-0.87,1.598-2.278,0.018-3.144C49.414,33.399,46.838,33.399,45.249,34.271z"/>
		<path fill="#8C0F06" d="M42.276,43.959l1.632-0.939c0,0,0.16,0.121,0.609,0.38c0.35,0.207,0.526,0.277,0.526,0.277l-1.628,0.942
			c-0.104,0.059-0.197,0.067-0.265,0.026l-1.139-0.664C42.083,44.025,42.17,44.018,42.276,43.959z"/>
		<path fill="#AF0B0B" d="M42.12,39.527l1.777-1.03c0,0,0.178,0.199,0.526,0.391c0.333,0.186,0.613,0.275,0.613,0.275l-1.777,1.027
			c-0.415,0.234-0.75,0.813-0.746,1.285l0.009,3.398c0,0.236,0.082,0.397,0.217,0.476l-1.135-0.662
			c-0.134-0.073-0.215-0.241-0.22-0.479l-0.008-3.4C41.375,40.341,41.708,39.761,42.12,39.527z"/>
		<path fill="#E41409" d="M43.259,40.19c-0.415,0.234-0.75,0.813-0.746,1.285l0.009,3.398c0,0.472,0.341,0.662,0.749,0.427
			l1.773-1.025v-0.598l-1.628,0.942c-0.204,0.118-0.373,0.025-0.373-0.215l-0.009-3.062c0-0.237,0.167-0.526,0.374-0.644
			l1.628-0.941v-0.596L43.259,40.19z"/>
		<path fill="#351A0C" d="M45.249,35.998c1.589-0.871,4.165-0.871,5.747,0c0.378,0.208,0.666,0.446,0.859,0.703
			c-0.196,0.26-0.493,0.507-0.877,0.715c-1.595,0.873-4.171,0.873-5.752,0c-0.377-0.208-0.665-0.447-0.861-0.702
			C44.563,36.453,44.858,36.209,45.249,35.998z"/>
		<path fill="#683315" d="M45.226,37.415c-0.163-0.084-0.3-0.18-0.43-0.274c0.059-0.197,0.194-0.409,0.459-0.6
			c0.904-0.627,2.113-0.696,2.113-0.696s-0.723,0.243-0.875,1.179c-0.054,0.336,0.1,0.669,0.262,0.918
			C46.198,37.835,45.672,37.66,45.226,37.415z"/>
	</g>
	<g>
		<path fill="#C1C1C1" d="M83.378,91.523c1.934-1.114,3.732-1.372,4.741-1.354l4.485,2.605c-1.014-0.015-2.807,0.246-4.731,1.355
			c-1.45,0.834-2.806,2.052-3.877,3.17c-0.509,0.533-1.32,0.675-1.962,0.301l-2.002-1.164c-0.57-0.332-0.864-1.285-0.41-1.763
			C80.688,93.56,81.933,92.356,83.378,91.523z"/>
		<path fill="#999999" d="M87.871,94.131c-1.873,1.079-3.59,2.8-4.736,4.112l0.099,0.037c0.243,0.094,0.757-0.165,1.213-0.429
			c0.243-0.142,0.467-0.281,0.631-0.376l5.584-3.223c0.164-0.097,0.393-0.215,0.631-0.354c0.459-0.267,0.969-0.603,1.221-0.975
			l0.092-0.148C91.589,92.761,89.798,93.02,87.871,94.131z"/>
		<path fill="#B5B5B5" d="M92.567,92.146c0.373,0.229,0.295,0.706-0.039,0.841c-0.17,0.072-0.957,0.23-1.236,0.3
			c-0.928,0.256-1.962,0.716-2.822,1.211c-1.248,0.724-2.906,2.032-3.985,3.272c-0.257,0.295-0.617,0.516-1.086,0.569
			c-0.779,0.087-1.185,0-1.97-0.489l-1.431-0.896c-0.785-0.456-1.058-1.556-0.376-2.371c-0.085-0.088,1.106,2.438,1.291,2.54
			c0.961,0.56,1.348,0.841,2.002,0.841c0.615,0,1.179-0.277,1.453-0.572c1.257-1.351,2.646-2.502,4.103-3.344
			c1.208-0.701,2.373-1.117,3.451-1.314c0.264-0.05,0.65-0.098,0.701-0.26C92.677,92.311,92.567,92.146,92.567,92.146z"/>
		<g>
			<path fill="#E0E0E0" d="M79.85,94.32c1.189-1.231,2.477-2.271,3.834-3.055c1.391-0.805,2.743-1.261,3.969-1.386
				c0.636-0.066,1.265,0.136,1.817,0.454l3.097,1.811c0.236,0.139,0.137,0.495-0.133,0.526c-0.211,0.02-0.434,0.053-0.65,0.094
				c-1.045,0.2-2.167,0.619-3.316,1.284c-1.244,0.72-2.436,1.655-3.535,2.753c-0.112,0.114-0.261,0.271-0.416,0.447
				c-0.674,0.746-1.78,0.943-2.646,0.436l-0.16-0.092l-1.64-0.952c-0.783-0.458-0.961-1.517-0.349-2.182
				C79.767,94.407,79.816,94.363,79.85,94.32z"/>
		</g>
		<path fill="#F2F2F2" d="M90.235,92.15c0,0-1.456,0-2.702,0.624c-1.245,0.623-2.095,1.785-2.095,1.785s1.133-0.862,2.195-1.459
			C88.691,92.507,90.235,92.15,90.235,92.15z"/>
	</g>
	<g>
		<g>
			<g enable-background="new    ">
				<g>
					<polygon fill="#E1E8E7" points="92.024,86.607 103.427,104.475 120.558,99.071 108.108,81.5 					"/>
				</g>
			</g>
		</g>
	</g>
	<g>
		<g>
			<g enable-background="new    ">
				<g>
					<polygon fill="#8C8B8B" points="101.069,91.247 101.069,91.402 113.731,102.846 113.731,102.69 					"/>
				</g>
				<g>
					<polygon fill="#6C6C6C" points="118.837,102.69 118.841,102.846 129.577,96.672 129.577,96.519 					"/>
				</g>
				<g>
					<polygon fill="#B8CCCA" points="99.169,89.667 113.731,102.69 118.837,102.69 129.577,96.519 112.704,83.034 					"/>
				</g>
			</g>
		</g>
		<g>
			<g enable-background="new    ">
				<g>
					<rect x="113.724" y="102.69" fill="#8C8B8B" width="5.105" height="0.156"/>
				</g>
				<g>
					<polygon fill="#E1E8E7" points="116.286,101.211 113.724,102.69 118.829,102.69 					"/>
				</g>
			</g>
		</g>
	</g>
	<g>
		<g>
			<g enable-background="new    ">
				<g>
					<polygon fill="#8C8B8B" points="106.79,90.362 106.79,90.514 124.505,100.805 124.505,100.649 					"/>
				</g>
				<g>
					<polygon fill="#616161" points="124.505,100.649 124.505,100.805 137.985,93.02 137.985,92.865 					"/>
				</g>
				<g>
					<polygon fill="#9C9B9B" points="106.79,90.362 124.505,100.649 137.985,92.865 120.315,82.602 					"/>
				</g>
			</g>
		</g>
		<g>
			<g enable-background="new    ">
				<g>
					<polygon fill="#8C8B8B" points="106.79,89.583 106.79,89.738 124.505,100.03 124.505,99.88 					"/>
				</g>
				<g>
					<polygon fill="#616161" points="124.505,99.88 124.505,100.03 137.985,92.246 137.985,92.093 					"/>
				</g>
				<g>
					<polygon fill="#9C9B9B" points="106.79,89.583 124.505,99.88 137.985,92.093 120.315,81.825 					"/>
				</g>
			</g>
		</g>
		<g>
			<g enable-background="new    ">
				<g>
					<polygon fill="#8C8B8B" points="106.79,88.814 106.79,88.967 124.505,99.257 124.505,99.107 					"/>
				</g>
				<g>
					<polygon fill="#616161" points="124.505,99.107 124.505,99.257 137.985,91.475 137.985,91.318 					"/>
				</g>
				<g>
					<polygon fill="#9C9B9B" points="106.79,88.814 124.505,99.107 137.985,91.318 120.315,81.052 					"/>
				</g>
			</g>
		</g>
		<g>
			<g enable-background="new    ">
				<g>
					<polygon fill="#8C8B8B" points="106.79,88.037 106.79,88.195 124.505,98.482 124.505,98.328 					"/>
				</g>
				<g>
					<polygon fill="#616161" points="124.505,98.328 124.505,98.482 137.985,90.701 137.985,90.549 					"/>
				</g>
				<g>
					<polygon fill="#9C9B9B" points="106.79,88.037 124.505,98.328 137.985,90.549 120.315,80.283 					"/>
				</g>
			</g>
		</g>
		<g>
			<g enable-background="new    ">
				<g>
					<polygon fill="#8C8B8B" points="106.79,87.271 106.79,87.418 124.505,97.708 124.505,97.561 					"/>
				</g>
				<g>
					<polygon fill="#616161" points="124.505,97.561 124.505,97.708 137.985,89.924 137.985,89.774 					"/>
				</g>
				<g>
					<polygon fill="#9C9B9B" points="106.79,87.271 124.505,97.561 137.985,89.774 120.315,79.508 					"/>
				</g>
			</g>
		</g>
		<g>
			<g enable-background="new    ">
				<g>
					<polygon fill="#8C8B8B" points="106.79,86.494 106.79,86.644 124.505,96.939 124.505,96.785 					"/>
				</g>
				<g>
					<polygon fill="#616161" points="124.505,96.785 124.505,96.939 137.985,89.154 137.985,89 					"/>
				</g>
				<g>
					<polygon fill="#A8AFAF" points="106.79,86.494 124.505,96.785 137.985,89 120.315,78.732 					"/>
				</g>
			</g>
		</g>
		<g>
			<g enable-background="new    ">
				<g>
					<polygon fill="#8C8B8B" points="106.79,85.625 106.79,85.776 122.017,94.623 122.017,94.478 					"/>
				</g>
				<g>
					<polygon fill="#6C6C6C" points="127.009,94.478 127.009,94.623 137.985,88.287 137.985,88.137 					"/>
				</g>
				<g>
					<polygon fill="#D2D8D7" points="106.79,85.625 122.017,94.478 127.009,94.478 137.985,88.137 120.272,77.844 					"/>
				</g>
			</g>
		</g>
		<g>
			<g enable-background="new    ">
				<g>
					<polygon fill="#858585" points="110.667,86.64 110.667,86.675 112.476,87.727 112.476,87.689 					"/>
				</g>
				<g>
					<polygon fill="#5D5D5D" points="112.476,87.689 112.476,87.727 124.013,81.061 124.009,81.028 					"/>
				</g>
				<g>
					<polygon fill="#959595" points="110.667,86.64 112.476,87.689 124.009,81.028 122.202,79.975 					"/>
				</g>
			</g>
			<g enable-background="new    ">
				<g>
					<polygon fill="#858585" points="113.45,88.204 113.45,88.239 115.259,89.293 115.259,89.258 					"/>
				</g>
				<g>
					<polygon fill="#5D5D5D" points="115.259,89.258 115.259,89.293 126.794,82.635 126.794,82.593 					"/>
				</g>
				<g>
					<polygon fill="#959595" points="113.45,88.204 115.259,89.258 126.794,82.593 124.987,81.547 					"/>
				</g>
			</g>
			<g enable-background="new    ">
				<g>
					<polygon fill="#858585" points="116.241,89.827 116.241,89.865 118.054,90.916 118.054,90.878 					"/>
				</g>
				<g>
					<polygon fill="#5D5D5D" points="118.054,90.878 118.054,90.916 129.591,84.256 129.591,84.217 					"/>
				</g>
				<g>
					<polygon fill="#959595" points="116.241,89.827 118.054,90.878 129.591,84.217 127.78,83.167 					"/>
				</g>
			</g>
			<g enable-background="new    ">
				<g>
					<polygon fill="#858585" points="119.14,91.51 119.14,91.545 120.948,92.597 120.948,92.561 					"/>
				</g>
				<g>
					<polygon fill="#5D5D5D" points="120.948,92.561 120.948,92.597 132.487,85.938 132.487,85.899 					"/>
				</g>
				<g>
					<polygon fill="#959595" points="119.14,91.51 120.948,92.561 132.487,85.899 130.675,84.848 					"/>
				</g>
			</g>
			<g enable-background="new    ">
				<g>
					<polygon fill="#858585" points="122.067,93.213 122.067,93.248 123.878,94.303 123.878,94.264 					"/>
				</g>
				<g>
					<polygon fill="#5D5D5D" points="123.878,94.264 123.878,94.303 135.415,87.637 135.415,87.602 					"/>
				</g>
				<g>
					<polygon fill="#959595" points="122.067,93.213 123.878,94.264 135.415,87.602 133.603,86.548 					"/>
				</g>
			</g>
		</g>
		<g>
			<g enable-background="new    ">
				<g>
					<rect x="122.007" y="94.478" fill="#8C8B8B" width="4.998" height="0.146"/>
				</g>
				<g>
					<polygon fill="#C3C3C3" points="124.513,93.031 122.007,94.478 127.003,94.478 					"/>
				</g>
			</g>
		</g>
	</g>
	<g>
		<g>
			<path fill="#4C4C4C" d="M21.893,153.799c-1.155,0.669-2.088,2.282-2.088,3.613c0.009,1.329,0.945,1.86,2.103,1.193
				c1.153-0.664,2.089-2.28,2.084-3.607C23.99,153.665,23.051,153.134,21.893,153.799z M21.906,157.653
				c-0.698,0.407-1.264,0.077-1.269-0.717c0-0.813,0.563-1.786,1.262-2.188c0.699-0.404,1.265-0.084,1.265,0.727
				C23.171,156.272,22.601,157.259,21.906,157.653z"/>
			<g>
				<path fill="#747474" d="M21.899,154.748c0.699-0.404,1.265-0.084,1.265,0.727c0.006,0.8-0.564,1.784-1.259,2.179
					c-0.698,0.407-1.264,0.077-1.269-0.717C20.637,156.124,21.2,155.15,21.899,154.748z"/>
			</g>
			<path fill="#3B3B3B" d="M21.642,152.639c-0.382-0.216-0.907-0.193-1.492,0.149c-1.158,0.662-2.083,2.276-2.079,3.618
				c0,0.651,0.23,1.113,0.605,1.335l1.741,1.01c-0.373-0.211-0.611-0.68-0.611-1.34c0-1.331,0.934-2.944,2.088-3.613
				c0.581-0.335,1.113-0.365,1.495-0.146L21.642,152.639z"/>
			<path fill="#4C4C4C" d="M52.435,136.164c-1.156,0.673-2.085,2.288-2.081,3.615c0,1.325,0.938,1.863,2.09,1.196
				c1.161-0.669,2.096-2.285,2.088-3.61C54.527,136.031,53.59,135.504,52.435,136.164z M52.444,140.027
				c-0.7,0.4-1.262,0.077-1.266-0.723c0-0.809,0.559-1.785,1.257-2.185c0.699-0.408,1.273-0.086,1.273,0.719
				C53.708,138.643,53.142,139.625,52.444,140.027z"/>
			<g>
				<path fill="#747474" d="M52.435,137.12c0.699-0.408,1.273-0.086,1.273,0.719c0,0.804-0.566,1.786-1.264,2.188
					c-0.7,0.4-1.262,0.077-1.266-0.723C51.179,138.496,51.737,137.521,52.435,137.12z"/>
			</g>
			<path fill="#3B3B3B" d="M52.181,135.006c-0.38-0.223-0.91-0.188-1.497,0.147c-1.151,0.667-2.08,2.285-2.077,3.616
				c0,0.658,0.231,1.12,0.608,1.339l1.746,1.009c-0.379-0.216-0.608-0.682-0.608-1.338c-0.004-1.328,0.924-2.942,2.081-3.615
				c0.582-0.336,1.111-0.371,1.488-0.142L52.181,135.006z"/>
		</g>
		<g>
			<path fill="#4C4C4C" d="M51.12,153.367c-0.576-0.339-1.106-0.372-1.484-0.151c-0.145,0.087-0.286,0.175-0.435,0.252
				c-0.203,0.118-0.406,0.237-0.612,0.36c-0.231,0.135-0.463,0.267-0.694,0.412c0.381-0.229,0.907-0.198,1.489,0.138
				c0.245,0.138,0.48,0.335,0.696,0.55l-0.696,0.404c0.696,0.401,1.259,1.383,1.259,2.183c-0.009,0.401-0.151,0.681-0.374,0.813
				l1.171-0.68c0.012,0.117,0.034,0.235,0.034,0.346c-0.007,0.661-0.245,1.119-0.614,1.344l1.743-1.01
				c0.375-0.217,0.605-0.686,0.61-1.35C53.217,155.646,52.286,154.03,51.12,153.367z"/>
			<g enable-background="new    ">
				<g>
					<g>
						<defs>
							<path id="SVGID_1_" d="M50.224,154.228c-0.229,0.13-0.368,0.415-0.373,0.813c-0.574,0.337-1.158,0.673-1.737,1.013
								c0-0.402,0.137-0.684,0.368-0.809C49.006,154.938,49.701,154.536,50.224,154.228z"/>
						</defs>
						<clipPath id="SVGID_2_">
							<use xlink:href="#SVGID_1_"  overflow="visible"/>
						</clipPath>
						<g clip-path="url(#SVGID_2_)" enable-background="new    ">
							<path fill="#4C4C4C" d="M48.481,155.244l1.743-1.017c-0.229,0.13-0.368,0.415-0.373,0.813c0,0.8,0.563,1.779,1.259,2.185
								l-1.739,1.007c-0.698-0.398-1.264-1.375-1.257-2.179C48.115,155.651,48.252,155.37,48.481,155.244L48.481,155.244z"/>
						</g>
					</g>
				</g>
			</g>
			<path fill="#3F3F3F" d="M49.383,154.374c-1.156-0.669-2.101-0.128-2.101,1.196c-0.007,1.329,0.927,2.948,2.083,3.616
				c1.156,0.664,2.1,0.135,2.109-1.196C51.474,156.662,50.538,155.04,49.383,154.374z M49.372,158.232
				c-0.698-0.398-1.265-1.375-1.257-2.18c0-0.802,0.568-1.129,1.27-0.725c0.696,0.4,1.259,1.382,1.259,2.182
				C50.633,158.311,50.068,158.634,49.372,158.232z"/>
			<path fill="#7B7B7B" d="M49.383,155.329c-0.7-0.405-1.27-0.078-1.27,0.724c-0.007,0.806,0.56,1.784,1.257,2.181
				c0.697,0.401,1.262,0.077,1.271-0.723C50.642,156.71,50.08,155.729,49.383,155.329z"/>
			<path fill="#4C4C4C" d="M20.583,135.73c-0.585-0.336-1.109-0.369-1.492-0.147c-0.141,0.086-0.287,0.168-0.435,0.251
				c-0.193,0.125-0.405,0.247-0.609,0.356c-0.23,0.138-0.461,0.272-0.695,0.407c0.382-0.218,0.91-0.188,1.491,0.143
				c0.248,0.146,0.478,0.339,0.694,0.554l-0.694,0.405c0.694,0.405,1.255,1.377,1.255,2.182c-0.003,0.4-0.143,0.676-0.368,0.812
				l1.167-0.682c0.016,0.117,0.036,0.235,0.036,0.343c-0.003,0.662-0.241,1.127-0.619,1.349l1.746-1.019
				c0.375-0.215,0.61-0.682,0.61-1.337C22.673,138.014,21.736,136.397,20.583,135.73z"/>
			<path fill="#3F3F3F" d="M18.842,136.739c-1.157-0.66-2.097-0.127-2.105,1.197c-0.006,1.331,0.938,2.952,2.09,3.619
				c1.156,0.666,2.103,0.127,2.105-1.202C20.933,139.027,19.997,137.408,18.842,136.739z M18.83,140.604
				c-0.697-0.408-1.261-1.383-1.258-2.183c0.003-0.805,0.57-1.129,1.271-0.725c0.694,0.405,1.255,1.378,1.255,2.181
				C20.094,140.682,19.526,141.011,18.83,140.604z"/>
			<path fill="#7B7B7B" d="M18.842,137.697c-0.7-0.406-1.268-0.08-1.271,0.725c-0.002,0.8,0.562,1.776,1.258,2.183
				c0.696,0.405,1.264,0.077,1.268-0.727C20.097,139.075,19.537,138.103,18.842,137.697z"/>
		</g>
		<g>
			<path fill="#3E3E3E" d="M52.384,133.318l-14.31,8.322l-0.008,2.761l14.314-8.316c0.402-0.231,0.604-0.536,0.604-0.845
				l0.012-2.767C52.996,132.778,52.789,133.088,52.384,133.318z"/>
			<path fill="#303030" d="M17.781,133.321c-0.412-0.233-0.617-0.544-0.617-0.858l-0.009,2.766c0,0.307,0.202,0.617,0.62,0.856
				l14.409,8.322l0.007-2.762L17.781,133.321z"/>
			<path fill="#414141" d="M52.376,131.619c-0.807-0.475-2.128-0.475-2.936,0l-14.316,8.316l0.006,0.583l15.361-8.925
				c0.232-0.137,0.609-0.137,0.843,0c0.235,0.129,0.235,0.35,0.004,0.486l-15.361,8.93l2.098,0.631l14.31-8.323
				C53.197,132.85,53.191,132.094,52.376,131.619z"/>
			<path fill="#494949" d="M18.822,131.595c0.234-0.138,0.618-0.138,0.844-0.009l15.463,8.933l-0.006-0.583l-14.417-8.318
				c-0.814-0.473-2.13-0.473-2.941,0.002c-0.808,0.475-0.806,1.23,0.015,1.702l14.41,8.324l2.095-0.635l-15.459-8.931
				C18.589,131.944,18.589,131.723,18.822,131.595z"/>
			<path fill="#303030" d="M51.334,131.595c0.235,0.129,0.235,0.35,0.004,0.485l-15.361,8.931l15.464,8.925
				c0.234,0.133,0.234,0.354,0,0.489c-0.227,0.135-0.604,0.135-0.841,0l-15.47-8.931l-15.357,8.931
				c-0.236,0.135-0.615,0.135-0.852,0c-0.227-0.136-0.229-0.353,0-0.489l15.364-8.925l-15.459-8.931
				c-0.237-0.136-0.237-0.356-0.004-0.485c0.234-0.138,0.618-0.138,0.844-0.009l15.463,8.933l15.362-8.925
				C50.723,131.457,51.102,131.457,51.334,131.595z"/>
			<path fill="#303030" d="M52.492,151.664c-0.813,0.471-2.123,0.471-2.941,0l-14.416-8.314l-0.005,2.762l14.414,8.318
				c0.824,0.471,2.132,0.471,2.942,0c0.4-0.233,0.602-0.544,0.607-0.852l0.007-2.758C53.099,151.118,52.899,151.431,52.492,151.664z
				"/>
			<path fill="#4C4C4C" d="M52.484,149.961l-14.41-8.32l-2.098-0.631l15.464,8.924c0.235,0.134,0.235,0.354,0,0.49
				c-0.227,0.136-0.604,0.136-0.841,0l-15.47-8.93l0.005,1.855l14.416,8.314c0.818,0.471,2.128,0.471,2.941,0
				C53.301,151.197,53.301,150.432,52.484,149.961z"/>
			<path fill="#4C4C4C" d="M35.13,141.494l-15.357,8.93c-0.236,0.136-0.615,0.136-0.852,0c-0.227-0.137-0.229-0.353,0-0.49
				l15.364-8.924l-2.096,0.635l-14.315,8.316c-0.819,0.473-0.811,1.236,0.002,1.71c0.816,0.462,2.131,0.462,2.947-0.009l14.31-8.314
				L35.13,141.494z"/>
			<path fill="#3E3E3E" d="M20.824,151.664c-0.816,0.471-2.13,0.471-2.947,0.008c-0.409-0.241-0.611-0.554-0.611-0.859l-0.01,2.762
				c-0.002,0.306,0.205,0.616,0.618,0.855c0.81,0.471,2.122,0.471,2.941,0l14.313-8.318l0.005-2.762L20.824,151.664z"/>
		</g>
		<path fill="#303030" d="M37.716,134.188c0-0.366-0.238-0.75-0.731-1.04c-0.986-0.592-2.625-0.611-3.653-0.034
			c-0.523,0.289-0.782,0.683-0.787,1.07l-0.02,7.214c0,0.051,0.014,0.107,0.023,0.159c0.012,0.041,0.012,0.076,0.019,0.122
			c0.02,0.052,0.056,0.106,0.083,0.163c0.02,0.037,0.032,0.07,0.055,0.11c0.044,0.058,0.099,0.114,0.157,0.176
			c0.022,0.023,0.041,0.059,0.075,0.086c0.095,0.084,0.197,0.161,0.321,0.23c1,0.601,2.637,0.611,3.656,0.04
			c0.126-0.068,0.246-0.145,0.338-0.229c0.036-0.03,0.06-0.058,0.084-0.088c0.059-0.057,0.119-0.116,0.164-0.178
			c0.024-0.037,0.036-0.077,0.062-0.11c0.027-0.058,0.063-0.109,0.085-0.166c0.02-0.044,0.02-0.089,0.023-0.129
			c0.013-0.052,0.027-0.104,0.027-0.16v-0.014C37.704,139.247,37.71,136.361,37.716,134.188z"/>
		<path fill="#819DA8" d="M36.07,120.108c-0.506-0.303-1.332-0.312-1.855-0.02c-0.265,0.148-0.398,0.348-0.401,0.544l-0.008,13.101
			c0,0.025,0.001,0.053,0.008,0.075c0.002,0.02,0.002,0.041,0.01,0.06c0.007,0.027,0.029,0.053,0.042,0.08
			c0.009,0.021,0.012,0.043,0.027,0.064c0.02,0.024,0.047,0.056,0.073,0.075c0.016,0.021,0.022,0.03,0.047,0.054
			c0.042,0.042,0.097,0.083,0.159,0.121c0.505,0.3,1.338,0.312,1.862,0.021c0.064-0.04,0.119-0.077,0.169-0.125
			c0.018-0.019,0.028-0.027,0.044-0.042c0.028-0.033,0.057-0.056,0.081-0.085c0.015-0.019,0.023-0.042,0.033-0.063
			c0.016-0.023,0.03-0.055,0.04-0.081c0.009-0.02,0.009-0.048,0.014-0.065c0.008-0.028,0.015-0.054,0.015-0.087v-0.004
			c0.001-0.805,0.004-9.454,0.009-10.396l0.005-2.701C36.445,120.447,36.321,120.258,36.07,120.108z"/>
	</g>
	<g>
		<path fill="#4C4C4C" d="M50.813,119.889c-0.037-0.043-0.075-0.076-0.109-0.118c-0.091-0.086-0.177-0.17-0.274-0.246
			c-0.037-0.026-0.067-0.061-0.113-0.093c-0.128-0.097-0.255-0.188-0.38-0.257l-7.007-4.05l0.693-0.405l7,4.049
			c0.128,0.074,0.26,0.166,0.383,0.26c0.042,0.032,0.084,0.071,0.121,0.101c0.088,0.075,0.176,0.151,0.26,0.232
			c0.039,0.042,0.081,0.081,0.122,0.125c0.085,0.095,0.172,0.196,0.255,0.296c0.023,0.043,0.061,0.071,0.085,0.111l0.028,0.026
			c0.108,0.137,0.2,0.285,0.293,0.436l3.694,6.063l-0.692,0.401l-3.692-6.062c-0.096-0.163-0.208-0.321-0.319-0.475
			c-0.024-0.025-0.059-0.061-0.078-0.088C50.996,120.091,50.907,119.983,50.813,119.889z"/>
		<g enable-background="new    ">
			<path fill="#4C4C4C" d="M55.603,126.86l0.69-0.397c-0.165-0.095-0.312-0.103-0.421-0.043l-0.685,0.395
				C55.285,126.758,55.441,126.768,55.603,126.86L55.603,126.86z"/>
		</g>
		<path fill="#6B6B6B" d="M55.872,126.42c0.109-0.06,0.256-0.052,0.421,0.043l3.226,1.861c0.053,0.031,0.101,0.073,0.152,0.116
			c0.015,0.01,0.028,0.021,0.028,0.021c0.053,0.057,0.094,0.101,0.125,0.152l0.021,0.004l0.002,0.016
			c0.026,0.039,0.065,0.091,0.095,0.141c0,0.014,0.011,0.021,0.017,0.043c0.024,0.034,0.042,0.08,0.056,0.123l0.011,0.016
			l0.006,0.022c0.02,0.047,0.03,0.099,0.044,0.138c0,0.02,0.005,0.032,0.005,0.052c0.016,0.058,0.021,0.112,0.021,0.176
			c0,0.18-0.069,0.313-0.169,0.376l-0.687,0.397c0.106-0.062,0.17-0.187,0.17-0.38c0-0.053-0.012-0.11-0.018-0.168
			c-0.002-0.017-0.011-0.036-0.011-0.036c-0.013-0.06-0.024-0.095-0.045-0.139c-0.003-0.021-0.013-0.039-0.016-0.059
			c-0.012-0.043-0.033-0.073-0.054-0.11c-0.004-0.016-0.013-0.032-0.021-0.05c-0.026-0.052-0.062-0.094-0.096-0.146
			c-0.004-0.01-0.019-0.014-0.022-0.024c-0.034-0.043-0.067-0.086-0.109-0.124c-0.015-0.01-0.029-0.027-0.042-0.036
			c-0.05-0.045-0.097-0.084-0.153-0.114l-3.225-1.865c-0.162-0.094-0.318-0.103-0.415-0.046L55.872,126.42z"/>
		<g>
			<path fill="#2A2A2A" d="M42.928,115.125v0.47l7.007,4.045c0.468,0.272,0.925,0.735,1.268,1.31l3.809,6.247
				c-0.004,0.372,0.255,0.826,0.585,1.014l3.231,1.863c0.323,0.187,0.579,0.035,0.586-0.339c0-0.365-0.26-0.823-0.586-1.007
				l-3.226-1.865c-0.166-0.098-0.321-0.103-0.432-0.037l-3.691-6.061c-0.42-0.696-0.975-1.263-1.544-1.59L42.928,115.125z"/>
		</g>
	</g>
	<path fill="#2E5B68" d="M35.372,118.848c1.199,0.691,2.163,2.365,2.161,3.745c-0.003,1.379-0.978,1.939-2.177,1.246l-18.378-10.615
		c-1.201-0.692-2.17-2.371-2.168-3.747c0.004-1.384,0.979-1.932,2.182-1.24L35.372,118.848z"/>
	<path fill="#EDEDED" d="M33.291,61.698c0.287-1.231,0.524-1.043,1.093-0.61l4.61,1.372c0.563,0.522,3.328,1.857,3.802,3.234
		l0.949,3.436c-0.095-0.098-0.854-1.333-2.472-2.578c-2.945-2.285-8.546-3.241-8.546-3.241
		C32.531,63.31,33.291,61.698,33.291,61.698z"/>
	<g>
		<path fill="#C1C1C1" d="M53.276,64.267c1.724-0.994,3.323-1.225,4.232-1.205l4,2.325c-0.902-0.015-2.505,0.212-4.229,1.204
			c-1.291,0.751-2.497,1.833-3.457,2.836c-0.453,0.474-1.177,0.598-1.749,0.265l-1.786-1.037c-0.513-0.296-0.771-1.141-0.362-1.574
			C50.876,66.085,51.984,65.014,53.276,64.267z"/>
		<path fill="#999999" d="M57.279,66.59c-1.666,0.968-3.204,2.503-4.224,3.669l0.09,0.042c0.217,0.076,0.672-0.149,1.083-0.384
			c0.215-0.123,0.42-0.254,0.563-0.336l4.979-2.876c0.153-0.086,0.355-0.192,0.571-0.319c0.412-0.23,0.868-0.535,1.08-0.871
			l0.087-0.128C60.606,65.372,59.002,65.598,57.279,66.59z"/>
		<path fill="#B5B5B5" d="M61.476,64.821c0.334,0.204,0.258,0.636-0.032,0.755c-0.15,0.059-0.866,0.204-1.102,0.266
			c-0.829,0.226-1.751,0.636-2.528,1.084c-1.114,0.639-2.589,1.811-3.555,2.914c-0.235,0.267-0.551,0.461-0.972,0.507
			c-0.69,0.079-1.058,0-1.755-0.434l-1.273-0.797c-0.697-0.411-0.943-1.391-0.34-2.114c-0.072-0.076,0.99,2.167,1.15,2.268
			c0.858,0.495,1.202,0.746,1.79,0.746c0.547,0,1.048-0.251,1.293-0.509c1.12-1.21,2.363-2.235,3.663-2.987
			c1.077-0.622,2.117-0.995,3.08-1.167c0.237-0.048,0.581-0.086,0.627-0.235C61.575,64.971,61.476,64.821,61.476,64.821z"/>
		<g>
			<path fill="#E0E0E0" d="M50.127,66.763c1.056-1.094,2.206-2.029,3.418-2.723c1.243-0.722,2.452-1.125,3.541-1.24
				c0.568-0.063,1.133,0.121,1.625,0.408l2.765,1.613c0.207,0.128,0.129,0.446-0.124,0.473c-0.186,0.018-0.382,0.047-0.581,0.084
				c-0.925,0.178-1.926,0.554-2.957,1.144c-1.11,0.638-2.172,1.479-3.156,2.46c-0.104,0.098-0.229,0.24-0.37,0.396
				c-0.601,0.664-1.586,0.842-2.364,0.39l-0.14-0.084l-1.467-0.844c-0.697-0.412-0.859-1.36-0.307-1.955
				C50.054,66.842,50.095,66.799,50.127,66.763z"/>
		</g>
		<path fill="#F2F2F2" d="M59.394,64.83c0,0-1.306,0-2.413,0.557c-1.113,0.561-1.87,1.594-1.87,1.594s1.011-0.774,1.962-1.304
			C58.018,65.15,59.394,64.83,59.394,64.83z"/>
	</g>
	<path fill="#E6C7B1" d="M54.17,73.974c0,0,5.93-1.328,7.034-1.519c2.181-0.381,6.225,1.519,6.225,1.519l2.518,2.329
		c0,0,0.333,0.522-0.569,0.713c-0.901,0.189-2.258-1.425-2.258-1.425l-2.64-0.761c0,0-1.694-0.055-1.759,0.761
		c-0.044,0.62,1.422,0.938,2.043,1.044c0.436,0.073,1.4,0.367,1.572,0.807c0.255,0.662-0.332,0.951-0.332,0.951
		s-0.37,0.07-2.375-0.285c-1.618-0.283-2.823-0.353-3.756-0.523c-1.283-0.24-2.042-1.188-2.042-1.188l-2.947,0.759L54.17,73.974z"/>
	<path fill="#E6C7B1" d="M69.895,87.969c0,0,4.074-0.323,5.621,0c1.552,0.326,6.11,2.123,6.11,2.123s1.308,0.486,0.574,1.302
		c-0.348,0.388-1.387,0.978-1.796,1.302c-0.407,0.324-1.626,0.412-4.065-0.08c-1.285-0.257-1.879-0.244-3.346-0.084
		c-1.466,0.164-3.179-0.489-3.179-0.489L69.895,87.969z"/>
	<path fill="#0E293A" d="M33.758,62.865c0,0-3.92-0.844-4.176,5.872c-0.046,1.24,2.644,6.332,4.326,9.289c0,0,2.809,4,7.054,3.607
		c7.28-0.679,15.946-4.511,15.946-4.511s0.456-0.604,0.147-1.911c-0.387-1.603-1.111-1.787-1.111-1.787L40.96,75.231L33.758,62.865z
		"/>
	<path fill="#195184" d="M41.728,64.854l5.99,12.699c0,0,0.539,0.844,0.523,1.588c-0.024,0.737-0.026,1.629-0.938,3.03
		c-0.099,0.149-0.201,0.287-0.301,0.421c-0.978,1.277-1.986,2.655-1.986,4.262L45.271,97.6c0,0-0.138,1.684-0.188,2.744
		c0,0-2.172,2.94-6.979,2.952c-5.021,0.026-12.148-4.32-12.068-4.687l2.668-10.017c0.188-0.903,0.258-1.833,0.199-2.756
		l-1.147-10.552c0,0-0.203-4.146,0.38-6.366c1.516-5.8,5.508-6.584,5.726-7.027C33.861,61.892,41.27,64.062,41.728,64.854z"/>
	<path fill="#E6C7B1" d="M42.956,42.91l4.957,1.245l-2.138,14.253c-0.573,2.852-2.26,4.08-3.549,4.115
		c-2.498,0.083-4.251-1.824-6.526-4.878c-2.018-2.707-1.599-4.398-1.623-4.796l-0.857-9.939L42.956,42.91L42.956,42.91z"/>
	<path fill="#ECA72B" d="M44.569,65.755c0,0-14.332-0.722-16.794-11.28c-1.332-5.698,0.957-14.124,7.415-16.088
		c5.646-1.723,10.646,0.697,13.114,4.491c1.999,3.077,1.715,8.176-0.375,10.65c-3.201,3.783-4.183,3.802-4.948,6.462
		C42.191,62.777,43.322,64.641,44.569,65.755z"/>
	<path fill="#156799" d="M71.233,90.396c-0.103,2.186-1.195,2.193-1.195,2.193s-11.75-0.302-13.287-0.193
		c-2.217,0.163-3.298-0.712-5.164-1.839c-1.629-0.978-11.439-11.304-11.439-11.304s-4.022-3.732-2.389-6.66
		c1.795-3.218,5.504-2.396,7.5,0.131c1.863,2.36,6.061,8.692,8.461,11.526c0.889,1.055,1.82,1.802,3.196,1.752l12.603,1.758
		c0,0,0.472,0.109,0.96,0.691C70.901,88.955,71.263,89.835,71.233,90.396z"/>
	<g>
		<path fill="#303030" d="M24.803,93.025v25.418l0,0c1.178,0.638,2.614-0.225,2.614-1.563V93.831L24.803,93.025z"/>
		<path fill="#4C4C4C" d="M25.103,93.431c-0.647-0.204-1.308,0.286-1.308,0.97v21.991c0,0.921,0.504,1.774,1.308,2.221
			c0.588,0.331,1.311-0.096,1.311-0.765V95.199C26.413,94.386,25.88,93.668,25.103,93.431z"/>
		<g>
			<path fill="#1C4351" d="M15.892,80.453c0,0,1.697-1.669,2.514,0.121c0.958,2.099,1.305,3.303,5.904,5.305
				c3.275,1.419,5.988,1.583,8.385,1.624c4.452,0.088,6.831,2.05,6.76,5.222c-0.084,3.853-4.106,4.844-4.477,4.876
				c-5.019,0.456-6.687-0.902-12.401-3.441c-5.098-2.261-5.588-3.766-5.834-4.615C16.247,87.861,15.892,80.453,15.892,80.453z"/>
			<path fill="#2E5B68" d="M15.892,80.45c0,0-0.62,4.121,6.768,6.767c4.134,1.484,6.872,1.98,9.266,2.169
				c3.252,0.257,5.819,1.028,5.562,4.024c-0.205,2.407-1.353,4.069-3.681,4.365c-2.733,0.338-5.08,1.024-10.95-1.115
				c-4.996-1.824-6.315-4.972-6.567-7.365C16.112,87.548,15.892,80.45,15.892,80.45z"/>
		</g>
	</g>
</g>
</svg>
